solid feet_pad
facet normal 4.255635960836644e-16 -1.0 -4.6227045816830625e-18
  outer loop
    vertex 11.59820477239243 -2.6663303176046637e-15 7.768863262691031
    vertex 15.4 -2.6663303176046637e-15 4.999999999999999
    vertex 15.4 -2.6663303176046637e-15 7.6000000000000005
  endloop
endfacet
facet normal 4.255635960836644e-16 -1.0 -4.6227045816830625e-18
  outer loop
    vertex 20.15 -6.092886334832588e-31 20.0
    vertex 17.499999999999996 2.255973186038316e-16 0.0
    vertex 20.15 -6.092886334832588e-31 -3.282131498214421e-17
  endloop
endfacet
facet normal 4.255635960836644e-16 -1.0 -4.6227045816830625e-18
  outer loop
    vertex 17.499999999999996 2.255973186038316e-16 0.0
    vertex 20.15 -6.092886334832588e-31 20.0
    vertex 17.5 1.536361649432334e-16 7.6000000000000005
  endloop
endfacet
facet normal 4.255635960836644e-16 -1.0 -4.6227045816830625e-18
  outer loop
    vertex 17.5 1.536361649432334e-16 7.6000000000000005
    vertex 20.15 -6.092886334832588e-31 20.0
    vertex 17.5 1.536361649432334e-16 12.4
  endloop
endfacet
facet normal 4.255635960836644e-16 -1.0 -4.6227045816830625e-18
  outer loop
    vertex 17.5 1.536361649432334e-16 7.6000000000000005
    vertex 17.5 1.536361649432334e-16 12.4
    vertex 15.4 -2.6663303176046637e-15 7.6000000000000005
  endloop
endfacet
facet normal 4.255635960836644e-16 -1.0 -4.6227045816830625e-18
  outer loop
    vertex 15.4 -2.6663303176046637e-15 7.6000000000000005
    vertex 17.5 1.536361649432334e-16 12.4
    vertex 11.59820477239243 -2.6663303176046637e-15 7.768863262691031
  endloop
endfacet
facet normal 4.255635960836644e-16 -1.0 -4.6227045816830625e-18
  outer loop
    vertex 11.59820477239243 -2.6663303176046637e-15 7.768863262691031
    vertex 17.5 1.536361649432334e-16 12.4
    vertex 11.59820477239243 -2.6663303176046637e-15 12.26886326269103
  endloop
endfacet
facet normal 4.255635960836644e-16 -1.0 -4.6227045816830625e-18
  outer loop
    vertex 17.5 1.536361649432334e-16 12.4
    vertex 20.15 -6.092886334832588e-31 20.0
    vertex 17.499999999999996 0.0 20.0
  endloop
endfacet
facet normal 4.255635960836644e-16 -1.0 -4.6227045816830625e-18
  outer loop
    vertex 11.59820477239243 -2.6663303176046637e-15 12.26886326269103
    vertex 15.4 -2.6663303176046637e-15 12.4
    vertex 15.4 -2.6663303176046637e-15 15.000000000000007
  endloop
endfacet
facet normal 4.255635960836644e-16 -1.0 -4.6227045816830625e-18
  outer loop
    vertex 15.4 -2.6663303176046637e-15 12.4
    vertex 11.59820477239243 -2.6663303176046637e-15 12.26886326269103
    vertex 17.5 1.536361649432334e-16 12.4
  endloop
endfacet
facet normal -1.0 7.520594249257891e-34 3.7104822138788126e-16
  outer loop
    vertex 17.5 20.00000000000001 7.6000000000000005
    vertex 17.499999999999996 2.255973186038316e-16 0.0
    vertex 17.5 1.536361649432334e-16 7.6000000000000005
  endloop
endfacet
facet normal -1.0 7.520594249257891e-34 3.7104822138788126e-16
  outer loop
    vertex 17.499999999999996 2.255973186038316e-16 0.0
    vertex 17.5 20.00000000000001 7.6000000000000005
    vertex 17.499999999999996 20.000000000000004 6.261583435191781e-31
  endloop
endfacet
facet normal -0.0 -0.0 1.0
  outer loop
    vertex 20.15 -6.092886334832588e-31 20.0
    vertex 17.499999999999996 20.000000000000004 20.0
    vertex 17.499999999999996 0.0 20.0
  endloop
endfacet
facet normal -0.0 -0.0 1.0
  outer loop
    vertex 17.499999999999996 20.000000000000004 20.0
    vertex 20.15 -6.092886334832588e-31 20.0
    vertex 20.15 20.000000000000004 20.0
  endloop
endfacet
facet normal -1.7563675713281732e-31 3.3101763483558346e-32 -1.0
  outer loop
    vertex 20.15 20.000000000000004 -3.2821314982143505e-17
    vertex 17.499999999999996 2.255973186038316e-16 0.0
    vertex 17.499999999999996 20.000000000000004 6.261583435191781e-31
  endloop
endfacet
facet normal -1.7563675713281732e-31 3.3101763483558346e-32 -1.0
  outer loop
    vertex 17.499999999999996 2.255973186038316e-16 0.0
    vertex 20.15 20.000000000000004 -3.2821314982143505e-17
    vertex 20.15 -6.092886334832588e-31 -3.282131498214421e-17
  endloop
endfacet
facet normal 6.162965866459061e-16 1.0 1.1294138641612697e-19
  outer loop
    vertex 11.59820477239243 20.000000000000007 7.768863262691031
    vertex 15.4 20.000000000000007 7.6000000000000005
    vertex 15.4 20.000000000000007 4.999999999999999
  endloop
endfacet
facet normal 6.162965866459061e-16 1.0 1.1294138641612697e-19
  outer loop
    vertex 15.4 20.000000000000007 7.6000000000000005
    vertex 11.59820477239243 20.000000000000007 7.768863262691031
    vertex 17.5 20.00000000000001 7.6000000000000005
  endloop
endfacet
facet normal 6.162965866459061e-16 1.0 1.1294138641612697e-19
  outer loop
    vertex 15.4 20.000000000000007 15.000000000000007
    vertex 15.4 20.000000000000007 12.4
    vertex 11.59820477239243 20.000000000000007 12.26886326269103
  endloop
endfacet
facet normal 6.162965866459061e-16 1.0 1.1294138641612697e-19
  outer loop
    vertex 17.499999999999996 20.000000000000004 6.261583435191781e-31
    vertex 20.15 20.000000000000004 20.0
    vertex 20.15 20.000000000000004 -3.2821314982143505e-17
  endloop
endfacet
facet normal 6.162965866459061e-16 1.0 1.1294138641612697e-19
  outer loop
    vertex 20.15 20.000000000000004 20.0
    vertex 17.499999999999996 20.000000000000004 6.261583435191781e-31
    vertex 17.5 20.00000000000001 7.6000000000000005
  endloop
endfacet
facet normal 6.162965866459061e-16 1.0 1.1294138641612697e-19
  outer loop
    vertex 20.15 20.000000000000004 20.0
    vertex 17.5 20.00000000000001 7.6000000000000005
    vertex 17.5 20.00000000000001 12.4
  endloop
endfacet
facet normal 6.162965866459061e-16 1.0 1.1294138641612697e-19
  outer loop
    vertex 17.5 20.00000000000001 12.4
    vertex 17.5 20.00000000000001 7.6000000000000005
    vertex 11.59820477239243 20.000000000000007 7.768863262691031
  endloop
endfacet
facet normal 6.162965866459061e-16 1.0 1.1294138641612697e-19
  outer loop
    vertex 17.5 20.00000000000001 12.4
    vertex 11.59820477239243 20.000000000000007 7.768863262691031
    vertex 11.59820477239243 20.000000000000007 12.26886326269103
  endloop
endfacet
facet normal 6.162965866459061e-16 1.0 1.1294138641612697e-19
  outer loop
    vertex 17.5 20.00000000000001 12.4
    vertex 11.59820477239243 20.000000000000007 12.26886326269103
    vertex 15.4 20.000000000000007 12.4
  endloop
endfacet
facet normal 6.162965866459061e-16 1.0 1.1294138641612697e-19
  outer loop
    vertex 20.15 20.000000000000004 20.0
    vertex 17.5 20.00000000000001 12.4
    vertex 17.499999999999996 20.000000000000004 20.0
  endloop
endfacet
facet normal -0.5834383257109258 -2.288319558227638e-16 0.8121574478459408
  outer loop
    vertex 15.4 -2.6663303176046637e-15 15.000000000000007
    vertex 11.59820477239243 20.000000000000007 12.26886326269103
    vertex 11.59820477239243 -2.6663303176046637e-15 12.26886326269103
  endloop
endfacet
facet normal -0.5834383257109258 -2.288319558227638e-16 0.8121574478459408
  outer loop
    vertex 11.59820477239243 20.000000000000007 12.26886326269103
    vertex 15.4 -2.6663303176046637e-15 15.000000000000007
    vertex 15.4 20.000000000000007 15.000000000000007
  endloop
endfacet
facet normal -1.0 -3.9260463219551967e-16 -0.0
  outer loop
    vertex 11.59820477239243 20.000000000000007 12.26886326269103
    vertex 11.59820477239243 -2.6663303176046637e-15 7.768863262691031
    vertex 11.59820477239243 -2.6663303176046637e-15 12.26886326269103
  endloop
endfacet
facet normal -1.0 -3.9260463219551967e-16 -0.0
  outer loop
    vertex 11.59820477239243 -2.6663303176046637e-15 7.768863262691031
    vertex 11.59820477239243 20.000000000000007 12.26886326269103
    vertex 11.59820477239243 20.000000000000007 7.768863262691031
  endloop
endfacet
facet normal -0.5887168776075822 -2.3136053179367375e-16 -0.8083393087187949
  outer loop
    vertex 15.4 20.000000000000007 4.999999999999999
    vertex 11.59820477239243 -2.6663303176046637e-15 7.768863262691031
    vertex 11.59820477239243 20.000000000000007 7.768863262691031
  endloop
endfacet
facet normal -0.5887168776075822 -2.3136053179367375e-16 -0.8083393087187949
  outer loop
    vertex 11.59820477239243 -2.6663303176046637e-15 7.768863262691031
    vertex 15.4 20.000000000000007 4.999999999999999
    vertex 15.4 -2.6663303176046637e-15 4.999999999999999
  endloop
endfacet
facet normal 1.0 3.926046321955197e-16 -0.0
  outer loop
    vertex 15.4 20.000000000000007 4.999999999999999
    vertex 15.4 -2.6663303176046637e-15 7.6000000000000005
    vertex 15.4 -2.6663303176046637e-15 4.999999999999999
  endloop
endfacet
facet normal 1.0 3.926046321955197e-16 -0.0
  outer loop
    vertex 15.4 -2.6663303176046637e-15 7.6000000000000005
    vertex 15.4 20.000000000000007 4.999999999999999
    vertex 15.4 20.000000000000007 7.6000000000000005
  endloop
endfacet
facet normal 0.0 0.0 -1.0
  outer loop
    vertex 17.5 20.00000000000001 7.6000000000000005
    vertex 15.4 -2.6663303176046637e-15 7.6000000000000005
    vertex 15.4 20.000000000000007 7.6000000000000005
  endloop
endfacet
facet normal 0.0 0.0 -1.0
  outer loop
    vertex 15.4 -2.6663303176046637e-15 7.6000000000000005
    vertex 17.5 20.00000000000001 7.6000000000000005
    vertex 17.5 1.536361649432334e-16 7.6000000000000005
  endloop
endfacet
facet normal -0.0 -0.0 1.0
  outer loop
    vertex 17.5 1.536361649432334e-16 12.4
    vertex 15.4 20.000000000000007 12.4
    vertex 15.4 -2.6663303176046637e-15 12.4
  endloop
endfacet
facet normal -0.0 -0.0 1.0
  outer loop
    vertex 15.4 20.000000000000007 12.4
    vertex 17.5 1.536361649432334e-16 12.4
    vertex 17.5 20.00000000000001 12.4
  endloop
endfacet
facet normal 1.0 3.926046321955197e-16 -0.0
  outer loop
    vertex 15.4 20.000000000000007 12.4
    vertex 15.4 -2.6663303176046637e-15 15.000000000000007
    vertex 15.4 -2.6663303176046637e-15 12.4
  endloop
endfacet
facet normal 1.0 3.926046321955197e-16 -0.0
  outer loop
    vertex 15.4 -2.6663303176046637e-15 15.000000000000007
    vertex 15.4 20.000000000000007 12.4
    vertex 15.4 20.000000000000007 15.000000000000007
  endloop
endfacet
facet normal 1.0 -0.0 -0.0
  outer loop
    vertex 20.15 6.0 12.249999999999998
    vertex 20.150000000000002 5.250000000000013 18.1
    vertex 20.150000000000013 1.8999999999999997 15.000000000000023
  endloop
endfacet
facet normal 1.0 -0.0 -0.0
  outer loop
    vertex 20.150000000000002 5.250000000000013 18.1
    vertex 20.15 6.0 12.249999999999998
    vertex 20.150000000000002 7.750000000000007 14.000000000000002
  endloop
endfacet
facet normal 1.0 -0.0 -0.0
  outer loop
    vertex 20.150000000000002 7.750000000000007 14.000000000000002
    vertex 20.15 6.0 12.249999999999998
    vertex 20.15 7.700000000000001 10.000000000000002
  endloop
endfacet
facet normal 1.0 -0.0 -0.0
  outer loop
    vertex 20.150000000000002 7.750000000000007 14.000000000000002
    vertex 20.15 7.700000000000001 10.000000000000002
    vertex 20.15 7.778370599535144 10.595283803735798
  endloop
endfacet
facet normal 1.0 -0.0 -0.0
  outer loop
    vertex 20.150000000000002 7.750000000000007 14.000000000000002
    vertex 20.15 7.778370599535144 10.595283803735798
    vertex 20.15 8.008141571295791 11.149999999999999
  endloop
endfacet
facet normal 1.0 -0.0 -0.0
  outer loop
    vertex 20.150000000000002 7.750000000000007 14.000000000000002
    vertex 20.15 8.008141571295791 11.149999999999999
    vertex 20.15 8.373654403270942 11.62634559672906
  endloop
endfacet
facet normal 1.0 -0.0 -0.0
  outer loop
    vertex 20.150000000000002 7.750000000000007 14.000000000000002
    vertex 20.15 8.373654403270942 11.62634559672906
    vertex 20.15 8.850000000000001 11.991858428704209
  endloop
endfacet
facet normal 1.0 -0.0 -0.0
  outer loop
    vertex 20.150000000000002 7.750000000000007 14.000000000000002
    vertex 20.15 8.850000000000001 11.991858428704209
    vertex 20.150000000000013 12.250000000000023 14.000000000000002
  endloop
endfacet
facet normal 1.0 -0.0 -0.0
  outer loop
    vertex 20.150000000000013 12.250000000000023 14.000000000000002
    vertex 20.15 8.850000000000001 11.991858428704209
    vertex 20.15 9.404716196264202 12.221629400464858
  endloop
endfacet
facet normal 1.0 -0.0 -0.0
  outer loop
    vertex 20.150000000000013 12.250000000000023 14.000000000000002
    vertex 20.15 9.404716196264202 12.221629400464858
    vertex 20.15 10.000000000000002 12.3
  endloop
endfacet
facet normal 1.0 -0.0 -0.0
  outer loop
    vertex 20.150000000000013 12.250000000000023 14.000000000000002
    vertex 20.15 10.000000000000002 12.3
    vertex 20.15 10.595283803735798 12.22162940046486
  endloop
endfacet
facet normal 1.0 -0.0 -0.0
  outer loop
    vertex 20.150000000000013 12.250000000000023 14.000000000000002
    vertex 20.15 10.595283803735798 12.22162940046486
    vertex 20.15 11.15 11.99185842870421
  endloop
endfacet
facet normal 1.0 -0.0 -0.0
  outer loop
    vertex 20.150000000000013 12.250000000000023 14.000000000000002
    vertex 20.15 11.15 11.99185842870421
    vertex 20.15 11.62634559672906 11.62634559672906
  endloop
endfacet
facet normal 1.0 -0.0 -0.0
  outer loop
    vertex 20.150000000000013 12.250000000000023 14.000000000000002
    vertex 20.15 11.62634559672906 11.62634559672906
    vertex 20.15 11.99185842870421 11.150000000000002
  endloop
endfacet
facet normal 1.0 -0.0 -0.0
  outer loop
    vertex 20.150000000000013 12.250000000000023 14.000000000000002
    vertex 20.15 11.99185842870421 11.150000000000002
    vertex 20.15 12.221629400464858 10.5952838037358
  endloop
endfacet
facet normal 1.0 -0.0 -0.0
  outer loop
    vertex 20.150000000000013 12.250000000000023 14.000000000000002
    vertex 20.15 12.221629400464858 10.5952838037358
    vertex 20.15 12.3 10.000000000000002
  endloop
endfacet
facet normal 1.0 -0.0 -0.0
  outer loop
    vertex 20.150000000000013 12.250000000000023 14.000000000000002
    vertex 20.15 12.3 10.000000000000002
    vertex 20.150000000000013 14.750000000000018 18.1
  endloop
endfacet
facet normal 1.0 -0.0 -0.0
  outer loop
    vertex 20.150000000000013 14.750000000000018 18.1
    vertex 20.15 12.3 10.000000000000002
    vertex 20.15 14.000000000000009 12.249999999999998
  endloop
endfacet
facet normal 1.0 -0.0 -0.0
  outer loop
    vertex 20.15 14.000000000000009 12.249999999999998
    vertex 20.15 12.3 10.000000000000002
    vertex 20.15 14.000000000000009 7.75
  endloop
endfacet
facet normal 1.0 -0.0 -0.0
  outer loop
    vertex 20.150000000000013 14.750000000000018 18.1
    vertex 20.15 14.000000000000009 12.249999999999998
    vertex 20.150000000000013 18.100000000000012 15.000000000000014
  endloop
endfacet
facet normal 1.0 -0.0 -0.0
  outer loop
    vertex 20.15 -6.092886334832588e-31 -3.282131498214421e-17
    vertex 20.14999999999997 1.8999999999999997 5.000000000000026
    vertex 20.15 -6.092886334832588e-31 20.0
  endloop
endfacet
facet normal 1.0 -0.0 -0.0
  outer loop
    vertex 20.14999999999997 1.8999999999999997 5.000000000000026
    vertex 20.15 -6.092886334832588e-31 -3.282131498214421e-17
    vertex 20.149999999999995 5.0000000000000115 1.8999999999999997
  endloop
endfacet
facet normal 1.0 -0.0 -0.0
  outer loop
    vertex 20.149999999999995 5.0000000000000115 1.8999999999999997
    vertex 20.15 -6.092886334832588e-31 -3.282131498214421e-17
    vertex 20.15 20.000000000000004 -3.2821314982143505e-17
  endloop
endfacet
facet normal 1.0 -0.0 -0.0
  outer loop
    vertex 20.149999999999995 5.0000000000000115 1.8999999999999997
    vertex 20.15 20.000000000000004 -3.2821314982143505e-17
    vertex 20.150000000000016 15.000000000000018 1.8999999999999997
  endloop
endfacet
facet normal 1.0 -0.0 -0.0
  outer loop
    vertex 20.150000000000016 15.000000000000018 1.8999999999999997
    vertex 20.15 20.000000000000004 -3.2821314982143505e-17
    vertex 20.14999999999999 18.100000000000012 5.0000000000000275
  endloop
endfacet
facet normal 1.0 -0.0 -0.0
  outer loop
    vertex 20.14999999999999 18.100000000000012 5.0000000000000275
    vertex 20.15 20.000000000000004 -3.2821314982143505e-17
    vertex 20.150000000000013 18.100000000000012 15.000000000000014
  endloop
endfacet
facet normal 1.0 -0.0 -0.0
  outer loop
    vertex 20.15 -6.092886334832588e-31 20.0
    vertex 20.150000000000002 5.250000000000013 18.1
    vertex 20.15 20.000000000000004 20.0
  endloop
endfacet
facet normal 1.0 -0.0 -0.0
  outer loop
    vertex 20.150000000000002 5.250000000000013 18.1
    vertex 20.15 -6.092886334832588e-31 20.0
    vertex 20.150000000000013 1.8999999999999997 15.000000000000023
  endloop
endfacet
facet normal 1.0 -0.0 -0.0
  outer loop
    vertex 20.150000000000013 1.8999999999999997 15.000000000000023
    vertex 20.15 -6.092886334832588e-31 20.0
    vertex 20.14999999999997 1.8999999999999997 5.000000000000026
  endloop
endfacet
facet normal 1.0 -0.0 -0.0
  outer loop
    vertex 20.15 20.000000000000004 20.0
    vertex 20.150000000000002 5.250000000000013 18.1
    vertex 20.150000000000013 14.750000000000018 18.1
  endloop
endfacet
facet normal 1.0 -0.0 -0.0
  outer loop
    vertex 20.15 20.000000000000004 20.0
    vertex 20.150000000000013 14.750000000000018 18.1
    vertex 20.150000000000013 18.100000000000012 15.000000000000014
  endloop
endfacet
facet normal 1.0 -0.0 -0.0
  outer loop
    vertex 20.15 20.000000000000004 20.0
    vertex 20.150000000000013 18.100000000000012 15.000000000000014
    vertex 20.15 20.000000000000004 -3.2821314982143505e-17
  endloop
endfacet
facet normal 1.0 -0.0 -0.0
  outer loop
    vertex 20.149999999999995 5.0000000000000115 1.8999999999999997
    vertex 20.14999999999997 6.0 7.750000000000028
    vertex 20.14999999999997 1.8999999999999997 5.000000000000026
  endloop
endfacet
facet normal 1.0 -0.0 -0.0
  outer loop
    vertex 20.14999999999997 6.0 7.750000000000028
    vertex 20.149999999999995 5.0000000000000115 1.8999999999999997
    vertex 20.149999999999995 7.75000000000001 6.0
  endloop
endfacet
facet normal 1.0 -0.0 -0.0
  outer loop
    vertex 20.14999999999997 6.0 7.750000000000028
    vertex 20.149999999999995 7.75000000000001 6.0
    vertex 20.15 6.0 12.249999999999998
  endloop
endfacet
facet normal 1.0 -0.0 -0.0
  outer loop
    vertex 20.15 6.0 12.249999999999998
    vertex 20.149999999999995 7.75000000000001 6.0
    vertex 20.15 7.700000000000001 10.000000000000002
  endloop
endfacet
facet normal 1.0 -0.0 -0.0
  outer loop
    vertex 20.15 7.700000000000001 10.000000000000002
    vertex 20.149999999999995 7.75000000000001 6.0
    vertex 20.15 7.778370599535145 9.404716196264202
  endloop
endfacet
facet normal 1.0 -0.0 -0.0
  outer loop
    vertex 20.15 7.778370599535145 9.404716196264202
    vertex 20.149999999999995 7.75000000000001 6.0
    vertex 20.15 8.008141571295793 8.850000000000001
  endloop
endfacet
facet normal 1.0 -0.0 -0.0
  outer loop
    vertex 20.15 8.008141571295793 8.850000000000001
    vertex 20.149999999999995 7.75000000000001 6.0
    vertex 20.15 8.373654403270942 8.37365440327094
  endloop
endfacet
facet normal 1.0 -0.0 -0.0
  outer loop
    vertex 20.15 8.373654403270942 8.37365440327094
    vertex 20.149999999999995 7.75000000000001 6.0
    vertex 20.15 8.850000000000001 8.008141571295791
  endloop
endfacet
facet normal 1.0 -0.0 -0.0
  outer loop
    vertex 20.15 8.850000000000001 8.008141571295791
    vertex 20.149999999999995 7.75000000000001 6.0
    vertex 20.150000000000016 12.250000000000018 6.0
  endloop
endfacet
facet normal 1.0 -0.0 -0.0
  outer loop
    vertex 20.15 8.850000000000001 8.008141571295791
    vertex 20.150000000000016 12.250000000000018 6.0
    vertex 20.15 9.404716196264204 7.778370599535144
  endloop
endfacet
facet normal 1.0 -0.0 -0.0
  outer loop
    vertex 20.15 9.404716196264204 7.778370599535144
    vertex 20.150000000000016 12.250000000000018 6.0
    vertex 20.15 10.000000000000002 7.700000000000001
  endloop
endfacet
facet normal 1.0 -0.0 -0.0
  outer loop
    vertex 20.15 10.000000000000002 7.700000000000001
    vertex 20.150000000000016 12.250000000000018 6.0
    vertex 20.15 10.5952838037358 7.778370599535145
  endloop
endfacet
facet normal 1.0 -0.0 -0.0
  outer loop
    vertex 20.15 10.5952838037358 7.778370599535145
    vertex 20.150000000000016 12.250000000000018 6.0
    vertex 20.15 11.150000000000002 8.008141571295793
  endloop
endfacet
facet normal 1.0 -0.0 -0.0
  outer loop
    vertex 20.15 11.150000000000002 8.008141571295793
    vertex 20.150000000000016 12.250000000000018 6.0
    vertex 20.15 11.62634559672906 8.373654403270942
  endloop
endfacet
facet normal 1.0 -0.0 -0.0
  outer loop
    vertex 20.15 11.62634559672906 8.373654403270942
    vertex 20.150000000000016 12.250000000000018 6.0
    vertex 20.15 11.99185842870421 8.850000000000001
  endloop
endfacet
facet normal 1.0 -0.0 -0.0
  outer loop
    vertex 20.15 11.99185842870421 8.850000000000001
    vertex 20.150000000000016 12.250000000000018 6.0
    vertex 20.15 12.22162940046486 9.404716196264204
  endloop
endfacet
facet normal 1.0 -0.0 -0.0
  outer loop
    vertex 20.15 12.22162940046486 9.404716196264204
    vertex 20.150000000000016 12.250000000000018 6.0
    vertex 20.15 12.3 10.000000000000002
  endloop
endfacet
facet normal 1.0 -0.0 -0.0
  outer loop
    vertex 20.15 12.3 10.000000000000002
    vertex 20.150000000000016 12.250000000000018 6.0
    vertex 20.150000000000016 15.000000000000018 1.8999999999999997
  endloop
endfacet
facet normal 1.0 -0.0 -0.0
  outer loop
    vertex 20.15 12.3 10.000000000000002
    vertex 20.150000000000016 15.000000000000018 1.8999999999999997
    vertex 20.15 14.000000000000009 7.75
  endloop
endfacet
facet normal 1.0 -0.0 -0.0
  outer loop
    vertex 20.15 14.000000000000009 7.75
    vertex 20.150000000000016 15.000000000000018 1.8999999999999997
    vertex 20.14999999999999 18.100000000000012 5.0000000000000275
  endloop
endfacet
facet normal -1.0 -3.40061653009921e-33 -3.7104822138788126e-16
  outer loop
    vertex 17.499999999999996 20.000000000000004 20.0
    vertex 17.5 1.536361649432334e-16 12.4
    vertex 17.499999999999996 0.0 20.0
  endloop
endfacet
facet normal -1.0 -3.40061653009921e-33 -3.7104822138788126e-16
  outer loop
    vertex 17.5 1.536361649432334e-16 12.4
    vertex 17.499999999999996 20.000000000000004 20.0
    vertex 17.5 20.00000000000001 12.4
  endloop
endfacet
facet normal 1.0 2.0633901091813763e-15 -4.807427267545278e-15
  outer loop
    vertex 24.149999999999967 6.000000000000008 7.750000000000008
    vertex 24.150000000000013 1.900000000000008 15.000000000000004
    vertex 24.149999999999967 1.900000000000008 5.000000000000006
  endloop
endfacet
facet normal 1.0 2.0633901091813763e-15 -4.807427267545278e-15
  outer loop
    vertex 24.150000000000013 1.900000000000008 15.000000000000004
    vertex 24.149999999999967 6.000000000000008 7.750000000000008
    vertex 24.149999999999995 6.000000000000008 12.249999999999979
  endloop
endfacet
facet normal 2.843133884758228e-15 0.5570352185371598 0.8304888712735762
  outer loop
    vertex 20.150000000000013 1.8999999999999997 15.000000000000023
    vertex 24.149999999999995 6.000000000000008 12.249999999999979
    vertex 20.15 6.0 12.249999999999998
  endloop
endfacet
facet normal 2.843133884758228e-15 0.5570352185371598 0.8304888712735762
  outer loop
    vertex 24.149999999999995 6.000000000000008 12.249999999999979
    vertex 20.150000000000013 1.8999999999999997 15.000000000000023
    vertex 24.150000000000013 1.900000000000008 15.000000000000004
  endloop
endfacet
facet normal 2.0633901091813763e-15 -1.0 -9.309905517299726e-30
  outer loop
    vertex 24.150000000000013 1.900000000000008 15.000000000000004
    vertex 20.14999999999997 1.8999999999999997 5.000000000000026
    vertex 24.149999999999967 1.900000000000008 5.000000000000006
  endloop
endfacet
facet normal 2.0633901091813763e-15 -1.0 -9.309905517299726e-30
  outer loop
    vertex 20.14999999999997 1.8999999999999997 5.000000000000026
    vertex 24.150000000000013 1.900000000000008 15.000000000000004
    vertex 20.150000000000013 1.8999999999999997 15.000000000000023
  endloop
endfacet
facet normal -5.1418958055487555e-15 0.5570352185371568 -0.8304888712735782
  outer loop
    vertex 24.149999999999967 6.000000000000008 7.750000000000008
    vertex 20.14999999999997 1.8999999999999997 5.000000000000026
    vertex 20.14999999999997 6.0 7.750000000000028
  endloop
endfacet
facet normal -5.1418958055487555e-15 0.5570352185371568 -0.8304888712735782
  outer loop
    vertex 20.14999999999997 1.8999999999999997 5.000000000000026
    vertex 24.149999999999967 6.000000000000008 7.750000000000008
    vertex 24.149999999999967 1.900000000000008 5.000000000000006
  endloop
endfacet
facet normal -2.0633901091813763e-15 1.0 1.2930424329583036e-29
  outer loop
    vertex 20.14999999999997 6.0 7.750000000000028
    vertex 24.149999999999995 6.000000000000008 12.249999999999979
    vertex 24.149999999999967 6.000000000000008 7.750000000000008
  endloop
endfacet
facet normal -2.0633901091813763e-15 1.0 1.2930424329583036e-29
  outer loop
    vertex 24.149999999999995 6.000000000000008 12.249999999999979
    vertex 20.14999999999997 6.0 7.750000000000028
    vertex 20.15 6.0 12.249999999999998
  endloop
endfacet
facet normal 1.0 -2.7203003074890305e-15 -1.0866709985616558e-30
  outer loop
    vertex 24.15 14.999999999999998 1.8999999999999997
    vertex 24.149999999999977 7.749999999999993 6.0
    vertex 24.149999999999977 4.999999999999998 1.8999999999999997
  endloop
endfacet
facet normal 1.0 -2.7203003074890305e-15 -1.0866709985616558e-30
  outer loop
    vertex 24.149999999999977 7.749999999999993 6.0
    vertex 24.15 14.999999999999998 1.8999999999999997
    vertex 24.15 12.25 6.0
  endloop
endfacet
facet normal 2.2591791318917337e-15 0.8304888712735785 0.5570352185371564
  outer loop
    vertex 20.150000000000016 12.250000000000018 6.0
    vertex 24.15 14.999999999999998 1.8999999999999997
    vertex 20.150000000000016 15.000000000000018 1.8999999999999997
  endloop
endfacet
facet normal 2.2591791318917337e-15 0.8304888712735785 0.5570352185371564
  outer loop
    vertex 24.15 14.999999999999998 1.8999999999999997
    vertex 20.150000000000016 12.250000000000018 6.0
    vertex 24.15 12.25 6.0
  endloop
endfacet
facet normal 1.0866709985616558e-30 -5.447779188445723e-45 1.0
  outer loop
    vertex 24.149999999999977 7.749999999999993 6.0
    vertex 20.150000000000016 12.250000000000018 6.0
    vertex 20.149999999999995 7.75000000000001 6.0
  endloop
endfacet
facet normal 1.0866709985616558e-30 -5.447779188445723e-45 1.0
  outer loop
    vertex 20.150000000000016 12.250000000000018 6.0
    vertex 24.149999999999977 7.749999999999993 6.0
    vertex 24.15 12.25 6.0
  endloop
endfacet
facet normal -2.2591791318917333e-15 -0.8304888712735787 0.5570352185371561
  outer loop
    vertex 24.149999999999977 7.749999999999993 6.0
    vertex 20.149999999999995 5.0000000000000115 1.8999999999999997
    vertex 24.149999999999977 4.999999999999998 1.8999999999999997
  endloop
endfacet
facet normal -2.2591791318917333e-15 -0.8304888712735787 0.5570352185371561
  outer loop
    vertex 20.149999999999995 5.0000000000000115 1.8999999999999997
    vertex 24.149999999999977 7.749999999999993 6.0
    vertex 20.149999999999995 7.75000000000001 6.0
  endloop
endfacet
facet normal -1.086670998561656e-30 2.4515006348005783e-45 -1.0
  outer loop
    vertex 20.150000000000016 15.000000000000018 1.8999999999999997
    vertex 24.149999999999977 4.999999999999998 1.8999999999999997
    vertex 20.149999999999995 5.0000000000000115 1.8999999999999997
  endloop
endfacet
facet normal -1.086670998561656e-30 2.4515006348005783e-45 -1.0
  outer loop
    vertex 24.149999999999977 4.999999999999998 1.8999999999999997
    vertex 20.150000000000016 15.000000000000018 1.8999999999999997
    vertex 24.15 14.999999999999998 1.8999999999999997
  endloop
endfacet
facet normal 1.0 0.0 0.0
  outer loop
    vertex 24.15 7.778370599535145 9.404716196264202
    vertex 24.15 7.778370599535144 10.595283803735798
    vertex 24.15 7.700000000000001 10.000000000000002
  endloop
endfacet
facet normal 1.0 0.0 0.0
  outer loop
    vertex 24.15 7.778370599535144 10.595283803735798
    vertex 24.15 7.778370599535145 9.404716196264202
    vertex 24.15 8.008141571295791 11.149999999999999
  endloop
endfacet
facet normal 1.0 0.0 0.0
  outer loop
    vertex 24.15 8.008141571295791 11.149999999999999
    vertex 24.15 7.778370599535145 9.404716196264202
    vertex 24.15 8.008141571295793 8.850000000000001
  endloop
endfacet
facet normal 1.0 0.0 0.0
  outer loop
    vertex 24.15 8.008141571295791 11.149999999999999
    vertex 24.15 8.008141571295793 8.850000000000001
    vertex 24.15 8.373654403270942 11.62634559672906
  endloop
endfacet
facet normal 1.0 0.0 0.0
  outer loop
    vertex 24.15 8.373654403270942 11.62634559672906
    vertex 24.15 8.008141571295793 8.850000000000001
    vertex 24.15 8.373654403270942 8.37365440327094
  endloop
endfacet
facet normal 1.0 0.0 0.0
  outer loop
    vertex 24.15 8.373654403270942 11.62634559672906
    vertex 24.15 8.373654403270942 8.37365440327094
    vertex 24.15 8.850000000000001 8.008141571295791
  endloop
endfacet
facet normal 1.0 0.0 0.0
  outer loop
    vertex 24.15 8.373654403270942 11.62634559672906
    vertex 24.15 8.850000000000001 8.008141571295791
    vertex 24.15 8.850000000000001 11.991858428704209
  endloop
endfacet
facet normal 1.0 0.0 0.0
  outer loop
    vertex 24.15 8.850000000000001 11.991858428704209
    vertex 24.15 8.850000000000001 8.008141571295791
    vertex 24.15 9.404716196264202 12.221629400464858
  endloop
endfacet
facet normal 1.0 0.0 0.0
  outer loop
    vertex 24.15 9.404716196264202 12.221629400464858
    vertex 24.15 8.850000000000001 8.008141571295791
    vertex 24.15 9.404716196264204 7.778370599535144
  endloop
endfacet
facet normal 1.0 0.0 0.0
  outer loop
    vertex 24.15 9.404716196264202 12.221629400464858
    vertex 24.15 9.404716196264204 7.778370599535144
    vertex 24.15 10.000000000000002 12.3
  endloop
endfacet
facet normal 1.0 0.0 0.0
  outer loop
    vertex 24.15 10.000000000000002 12.3
    vertex 24.15 9.404716196264204 7.778370599535144
    vertex 24.15 10.000000000000002 7.700000000000001
  endloop
endfacet
facet normal 1.0 0.0 0.0
  outer loop
    vertex 24.15 10.000000000000002 12.3
    vertex 24.15 10.000000000000002 7.700000000000001
    vertex 24.15 10.5952838037358 7.778370599535145
  endloop
endfacet
facet normal 1.0 0.0 0.0
  outer loop
    vertex 24.15 10.000000000000002 12.3
    vertex 24.15 10.5952838037358 7.778370599535145
    vertex 24.15 10.595283803735798 12.22162940046486
  endloop
endfacet
facet normal 1.0 0.0 0.0
  outer loop
    vertex 24.15 10.595283803735798 12.22162940046486
    vertex 24.15 10.5952838037358 7.778370599535145
    vertex 24.15 11.15 11.99185842870421
  endloop
endfacet
facet normal 1.0 0.0 0.0
  outer loop
    vertex 24.15 11.15 11.99185842870421
    vertex 24.15 10.5952838037358 7.778370599535145
    vertex 24.15 11.150000000000002 8.008141571295793
  endloop
endfacet
facet normal 1.0 0.0 0.0
  outer loop
    vertex 24.15 11.15 11.99185842870421
    vertex 24.15 11.150000000000002 8.008141571295793
    vertex 24.15 11.62634559672906 11.62634559672906
  endloop
endfacet
facet normal 1.0 0.0 0.0
  outer loop
    vertex 24.15 11.62634559672906 11.62634559672906
    vertex 24.15 11.150000000000002 8.008141571295793
    vertex 24.15 11.62634559672906 8.373654403270942
  endloop
endfacet
facet normal 1.0 0.0 0.0
  outer loop
    vertex 24.15 11.62634559672906 11.62634559672906
    vertex 24.15 11.62634559672906 8.373654403270942
    vertex 24.15 11.99185842870421 8.850000000000001
  endloop
endfacet
facet normal 1.0 0.0 0.0
  outer loop
    vertex 24.15 11.62634559672906 11.62634559672906
    vertex 24.15 11.99185842870421 8.850000000000001
    vertex 24.15 11.99185842870421 11.150000000000002
  endloop
endfacet
facet normal 1.0 0.0 0.0
  outer loop
    vertex 24.15 11.99185842870421 11.150000000000002
    vertex 24.15 11.99185842870421 8.850000000000001
    vertex 24.15 12.22162940046486 9.404716196264204
  endloop
endfacet
facet normal 1.0 0.0 0.0
  outer loop
    vertex 24.15 11.99185842870421 11.150000000000002
    vertex 24.15 12.22162940046486 9.404716196264204
    vertex 24.15 12.221629400464858 10.5952838037358
  endloop
endfacet
facet normal 1.0 0.0 0.0
  outer loop
    vertex 24.15 12.221629400464858 10.5952838037358
    vertex 24.15 12.22162940046486 9.404716196264204
    vertex 24.15 12.3 10.000000000000002
  endloop
endfacet
facet normal 0.0 0.7933533402912337 0.6087614290087228
  outer loop
    vertex 20.15 11.62634559672906 11.62634559672906
    vertex 24.15 11.99185842870421 11.150000000000002
    vertex 20.15 11.99185842870421 11.150000000000002
  endloop
endfacet
facet normal 0.0 0.7933533402912337 0.6087614290087228
  outer loop
    vertex 24.15 11.99185842870421 11.150000000000002
    vertex 20.15 11.62634559672906 11.62634559672906
    vertex 24.15 11.62634559672906 11.62634559672906
  endloop
endfacet
facet normal 0.0 0.6087614290087217 0.7933533402912345
  outer loop
    vertex 24.15 11.15 11.99185842870421
    vertex 20.15 11.62634559672906 11.62634559672906
    vertex 20.15 11.15 11.99185842870421
  endloop
endfacet
facet normal 0.0 0.6087614290087217 0.7933533402912345
  outer loop
    vertex 20.15 11.62634559672906 11.62634559672906
    vertex 24.15 11.15 11.99185842870421
    vertex 24.15 11.62634559672906 11.62634559672906
  endloop
endfacet
facet normal 0.0 0.3826834323650897 0.9238795325112868
  outer loop
    vertex 24.15 10.595283803735798 12.22162940046486
    vertex 20.15 11.15 11.99185842870421
    vertex 20.15 10.595283803735798 12.22162940046486
  endloop
endfacet
facet normal 0.0 0.3826834323650897 0.9238795325112868
  outer loop
    vertex 20.15 11.15 11.99185842870421
    vertex 24.15 10.595283803735798 12.22162940046486
    vertex 24.15 11.15 11.99185842870421
  endloop
endfacet
facet normal 0.0 0.13052619222005094 0.9914448613738106
  outer loop
    vertex 24.15 10.000000000000002 12.3
    vertex 20.15 10.595283803735798 12.22162940046486
    vertex 20.15 10.000000000000002 12.3
  endloop
endfacet
facet normal 0.0 0.13052619222005094 0.9914448613738106
  outer loop
    vertex 20.15 10.595283803735798 12.22162940046486
    vertex 24.15 10.000000000000002 12.3
    vertex 24.15 10.595283803735798 12.22162940046486
  endloop
endfacet
facet normal 0.0 -0.13052619222005263 0.9914448613738104
  outer loop
    vertex 24.15 9.404716196264202 12.221629400464858
    vertex 20.15 10.000000000000002 12.3
    vertex 20.15 9.404716196264202 12.221629400464858
  endloop
endfacet
facet normal 0.0 -0.13052619222005263 0.9914448613738104
  outer loop
    vertex 20.15 10.000000000000002 12.3
    vertex 24.15 9.404716196264202 12.221629400464858
    vertex 24.15 10.000000000000002 12.3
  endloop
endfacet
facet normal 0.0 -0.3826834323650906 0.9238795325112865
  outer loop
    vertex 24.15 8.850000000000001 11.991858428704209
    vertex 20.15 9.404716196264202 12.221629400464858
    vertex 20.15 8.850000000000001 11.991858428704209
  endloop
endfacet
facet normal 0.0 -0.3826834323650906 0.9238795325112865
  outer loop
    vertex 20.15 9.404716196264202 12.221629400464858
    vertex 24.15 8.850000000000001 11.991858428704209
    vertex 24.15 9.404716196264202 12.221629400464858
  endloop
endfacet
facet normal 0.0 -0.6087614290087212 0.7933533402912347
  outer loop
    vertex 24.15 8.373654403270942 11.62634559672906
    vertex 20.15 8.850000000000001 11.991858428704209
    vertex 20.15 8.373654403270942 11.62634559672906
  endloop
endfacet
facet normal 0.0 -0.6087614290087212 0.7933533402912347
  outer loop
    vertex 20.15 8.850000000000001 11.991858428704209
    vertex 24.15 8.373654403270942 11.62634559672906
    vertex 24.15 8.850000000000001 11.991858428704209
  endloop
endfacet
facet normal 0.0 -0.7933533402912354 0.6087614290087205
  outer loop
    vertex 24.15 8.373654403270942 11.62634559672906
    vertex 20.15 8.008141571295791 11.149999999999999
    vertex 24.15 8.008141571295791 11.149999999999999
  endloop
endfacet
facet normal 0.0 -0.7933533402912354 0.6087614290087205
  outer loop
    vertex 20.15 8.008141571295791 11.149999999999999
    vertex 24.15 8.373654403270942 11.62634559672906
    vertex 20.15 8.373654403270942 11.62634559672906
  endloop
endfacet
facet normal 0.0 -0.9238795325112865 0.3826834323650906
  outer loop
    vertex 24.15 8.008141571295791 11.149999999999999
    vertex 20.15 7.778370599535144 10.595283803735798
    vertex 24.15 7.778370599535144 10.595283803735798
  endloop
endfacet
facet normal 0.0 -0.9238795325112865 0.3826834323650906
  outer loop
    vertex 20.15 7.778370599535144 10.595283803735798
    vertex 24.15 8.008141571295791 11.149999999999999
    vertex 20.15 8.008141571295791 11.149999999999999
  endloop
endfacet
facet normal 0.0 -0.9914448613738106 0.13052619222005094
  outer loop
    vertex 24.15 7.778370599535144 10.595283803735798
    vertex 20.15 7.700000000000001 10.000000000000002
    vertex 24.15 7.700000000000001 10.000000000000002
  endloop
endfacet
facet normal 0.0 -0.9914448613738106 0.13052619222005094
  outer loop
    vertex 20.15 7.700000000000001 10.000000000000002
    vertex 24.15 7.778370599535144 10.595283803735798
    vertex 20.15 7.778370599535144 10.595283803735798
  endloop
endfacet
facet normal -0.0 -0.9914448613738104 -0.13052619222005263
  outer loop
    vertex 24.15 7.700000000000001 10.000000000000002
    vertex 20.15 7.778370599535145 9.404716196264202
    vertex 24.15 7.778370599535145 9.404716196264202
  endloop
endfacet
facet normal -0.0 -0.9914448613738104 -0.13052619222005263
  outer loop
    vertex 20.15 7.778370599535145 9.404716196264202
    vertex 24.15 7.700000000000001 10.000000000000002
    vertex 20.15 7.700000000000001 10.000000000000002
  endloop
endfacet
facet normal -0.0 -0.9238795325112865 -0.3826834323650906
  outer loop
    vertex 24.15 7.778370599535145 9.404716196264202
    vertex 20.15 8.008141571295793 8.850000000000001
    vertex 24.15 8.008141571295793 8.850000000000001
  endloop
endfacet
facet normal -0.0 -0.9238795325112865 -0.3826834323650906
  outer loop
    vertex 20.15 8.008141571295793 8.850000000000001
    vertex 24.15 7.778370599535145 9.404716196264202
    vertex 20.15 7.778370599535145 9.404716196264202
  endloop
endfacet
facet normal -0.0 -0.7933533402912357 -0.6087614290087202
  outer loop
    vertex 24.15 8.008141571295793 8.850000000000001
    vertex 20.15 8.373654403270942 8.37365440327094
    vertex 24.15 8.373654403270942 8.37365440327094
  endloop
endfacet
facet normal -0.0 -0.7933533402912357 -0.6087614290087202
  outer loop
    vertex 20.15 8.373654403270942 8.37365440327094
    vertex 24.15 8.008141571295793 8.850000000000001
    vertex 20.15 8.008141571295793 8.850000000000001
  endloop
endfacet
facet normal -0.0 -0.6087614290087202 -0.7933533402912357
  outer loop
    vertex 24.15 8.850000000000001 8.008141571295791
    vertex 20.15 8.373654403270942 8.37365440327094
    vertex 20.15 8.850000000000001 8.008141571295791
  endloop
endfacet
facet normal -0.0 -0.6087614290087202 -0.7933533402912357
  outer loop
    vertex 20.15 8.373654403270942 8.37365440327094
    vertex 24.15 8.850000000000001 8.008141571295791
    vertex 24.15 8.373654403270942 8.37365440327094
  endloop
endfacet
facet normal -0.0 -0.3826834323650897 -0.9238795325112868
  outer loop
    vertex 24.15 9.404716196264204 7.778370599535144
    vertex 20.15 8.850000000000001 8.008141571295791
    vertex 20.15 9.404716196264204 7.778370599535144
  endloop
endfacet
facet normal -0.0 -0.3826834323650897 -0.9238795325112868
  outer loop
    vertex 20.15 8.850000000000001 8.008141571295791
    vertex 24.15 9.404716196264204 7.778370599535144
    vertex 24.15 8.850000000000001 8.008141571295791
  endloop
endfacet
facet normal -0.0 -0.13052619222005094 -0.9914448613738106
  outer loop
    vertex 24.15 10.000000000000002 7.700000000000001
    vertex 20.15 9.404716196264204 7.778370599535144
    vertex 20.15 10.000000000000002 7.700000000000001
  endloop
endfacet
facet normal -0.0 -0.13052619222005094 -0.9914448613738106
  outer loop
    vertex 20.15 9.404716196264204 7.778370599535144
    vertex 24.15 10.000000000000002 7.700000000000001
    vertex 24.15 9.404716196264204 7.778370599535144
  endloop
endfacet
facet normal 0.0 0.13052619222005293 -0.9914448613738104
  outer loop
    vertex 24.15 10.5952838037358 7.778370599535145
    vertex 20.15 10.000000000000002 7.700000000000001
    vertex 20.15 10.5952838037358 7.778370599535145
  endloop
endfacet
facet normal 0.0 0.13052619222005293 -0.9914448613738104
  outer loop
    vertex 20.15 10.000000000000002 7.700000000000001
    vertex 24.15 10.5952838037358 7.778370599535145
    vertex 24.15 10.000000000000002 7.700000000000001
  endloop
endfacet
facet normal 0.0 0.3826834323650897 -0.9238795325112868
  outer loop
    vertex 24.15 11.150000000000002 8.008141571295793
    vertex 20.15 10.5952838037358 7.778370599535145
    vertex 20.15 11.150000000000002 8.008141571295793
  endloop
endfacet
facet normal 0.0 0.3826834323650897 -0.9238795325112868
  outer loop
    vertex 20.15 10.5952838037358 7.778370599535145
    vertex 24.15 11.150000000000002 8.008141571295793
    vertex 24.15 10.5952838037358 7.778370599535145
  endloop
endfacet
facet normal 0.0 0.6087614290087212 -0.7933533402912347
  outer loop
    vertex 24.15 11.62634559672906 8.373654403270942
    vertex 20.15 11.150000000000002 8.008141571295793
    vertex 20.15 11.62634559672906 8.373654403270942
  endloop
endfacet
facet normal 0.0 0.6087614290087212 -0.7933533402912347
  outer loop
    vertex 20.15 11.150000000000002 8.008141571295793
    vertex 24.15 11.62634559672906 8.373654403270942
    vertex 24.15 11.150000000000002 8.008141571295793
  endloop
endfacet
facet normal 0.0 0.7933533402912345 -0.6087614290087217
  outer loop
    vertex 20.15 11.99185842870421 8.850000000000001
    vertex 24.15 11.62634559672906 8.373654403270942
    vertex 20.15 11.62634559672906 8.373654403270942
  endloop
endfacet
facet normal 0.0 0.7933533402912345 -0.6087614290087217
  outer loop
    vertex 24.15 11.62634559672906 8.373654403270942
    vertex 20.15 11.99185842870421 8.850000000000001
    vertex 24.15 11.99185842870421 8.850000000000001
  endloop
endfacet
facet normal 0.0 0.9238795325112868 -0.3826834323650897
  outer loop
    vertex 20.15 12.22162940046486 9.404716196264204
    vertex 24.15 11.99185842870421 8.850000000000001
    vertex 20.15 11.99185842870421 8.850000000000001
  endloop
endfacet
facet normal 0.0 0.9238795325112868 -0.3826834323650897
  outer loop
    vertex 24.15 11.99185842870421 8.850000000000001
    vertex 20.15 12.22162940046486 9.404716196264204
    vertex 24.15 12.22162940046486 9.404716196264204
  endloop
endfacet
facet normal 0.0 0.9914448613738106 -0.13052619222005094
  outer loop
    vertex 20.15 12.3 10.000000000000002
    vertex 24.15 12.22162940046486 9.404716196264204
    vertex 20.15 12.22162940046486 9.404716196264204
  endloop
endfacet
facet normal 0.0 0.9914448613738106 -0.13052619222005094
  outer loop
    vertex 24.15 12.22162940046486 9.404716196264204
    vertex 20.15 12.3 10.000000000000002
    vertex 24.15 12.3 10.000000000000002
  endloop
endfacet
facet normal 0.0 0.9914448613738104 0.13052619222005293
  outer loop
    vertex 20.15 12.221629400464858 10.5952838037358
    vertex 24.15 12.3 10.000000000000002
    vertex 20.15 12.3 10.000000000000002
  endloop
endfacet
facet normal 0.0 0.9914448613738104 0.13052619222005293
  outer loop
    vertex 24.15 12.3 10.000000000000002
    vertex 20.15 12.221629400464858 10.5952838037358
    vertex 24.15 12.221629400464858 10.5952838037358
  endloop
endfacet
facet normal 0.0 0.9238795325112876 0.3826834323650877
  outer loop
    vertex 20.15 11.99185842870421 11.150000000000002
    vertex 24.15 12.221629400464858 10.5952838037358
    vertex 20.15 12.221629400464858 10.5952838037358
  endloop
endfacet
facet normal 0.0 0.9238795325112876 0.3826834323650877
  outer loop
    vertex 24.15 12.221629400464858 10.5952838037358
    vertex 20.15 11.99185842870421 11.150000000000002
    vertex 24.15 11.99185842870421 11.150000000000002
  endloop
endfacet
facet normal 1.0 -1.4291232852731414e-15 2.854440046931735e-31
  outer loop
    vertex 24.149999999999988 7.75000000000001 14.000000000000002
    vertex 24.150000000000002 14.750000000000021 18.1
    vertex 24.149999999999988 5.250000000000015 18.1
  endloop
endfacet
facet normal 1.0 -1.4291232852731414e-15 2.854440046931735e-31
  outer loop
    vertex 24.150000000000002 14.750000000000021 18.1
    vertex 24.149999999999988 7.75000000000001 14.000000000000002
    vertex 24.150000000000002 12.250000000000025 14.000000000000002
  endloop
endfacet
facet normal 1.220179995704418e-15 0.8537961757940363 -0.5206074242646556
  outer loop
    vertex 20.150000000000013 14.750000000000018 18.1
    vertex 24.150000000000002 12.250000000000025 14.000000000000002
    vertex 20.150000000000013 12.250000000000023 14.000000000000002
  endloop
endfacet
facet normal 1.220179995704418e-15 0.8537961757940363 -0.5206074242646556
  outer loop
    vertex 24.150000000000002 12.250000000000025 14.000000000000002
    vertex 20.150000000000013 14.750000000000018 18.1
    vertex 24.150000000000002 14.750000000000021 18.1
  endloop
endfacet
facet normal -2.854440046931735e-31 3.3892316879115522e-46 1.0
  outer loop
    vertex 24.149999999999988 5.250000000000015 18.1
    vertex 20.150000000000013 14.750000000000018 18.1
    vertex 20.150000000000002 5.250000000000013 18.1
  endloop
endfacet
facet normal -2.854440046931735e-31 3.3892316879115522e-46 1.0
  outer loop
    vertex 20.150000000000013 14.750000000000018 18.1
    vertex 24.149999999999988 5.250000000000015 18.1
    vertex 24.150000000000002 14.750000000000021 18.1
  endloop
endfacet
facet normal -1.2201799957044175e-15 -0.8537961757940365 -0.5206074242646554
  outer loop
    vertex 24.149999999999988 5.250000000000015 18.1
    vertex 20.150000000000002 7.750000000000007 14.000000000000002
    vertex 24.149999999999988 7.75000000000001 14.000000000000002
  endloop
endfacet
facet normal -1.2201799957044175e-15 -0.8537961757940365 -0.5206074242646554
  outer loop
    vertex 20.150000000000002 7.750000000000007 14.000000000000002
    vertex 24.149999999999988 5.250000000000015 18.1
    vertex 20.150000000000002 5.250000000000013 18.1
  endloop
endfacet
facet normal 2.854440046931735e-31 -7.155044674479922e-46 -1.0
  outer loop
    vertex 20.150000000000013 12.250000000000023 14.000000000000002
    vertex 24.149999999999988 7.75000000000001 14.000000000000002
    vertex 20.150000000000002 7.750000000000007 14.000000000000002
  endloop
endfacet
facet normal 2.854440046931735e-31 -7.155044674479922e-46 -1.0
  outer loop
    vertex 24.149999999999988 7.75000000000001 14.000000000000002
    vertex 20.150000000000013 12.250000000000023 14.000000000000002
    vertex 24.150000000000002 12.250000000000025 14.000000000000002
  endloop
endfacet
facet normal 1.0 -1.3755934061209145e-15 -1.8760691775786446e-15
  outer loop
    vertex 24.149999999999988 18.100000000000005 5.000000000000019
    vertex 24.149999999999995 14.000000000000002 12.249999999999991
    vertex 24.149999999999995 14.000000000000002 7.749999999999993
  endloop
endfacet
facet normal 1.0 -1.3755934061209145e-15 -1.8760691775786446e-15
  outer loop
    vertex 24.149999999999995 14.000000000000002 12.249999999999991
    vertex 24.149999999999988 18.100000000000005 5.000000000000019
    vertex 24.150000000000013 18.100000000000005 15.000000000000007
  endloop
endfacet
facet normal -2.324308547315274e-15 -0.5570352185371522 -0.8304888712735815
  outer loop
    vertex 24.149999999999988 18.100000000000005 5.000000000000019
    vertex 20.15 14.000000000000009 7.75
    vertex 20.14999999999999 18.100000000000012 5.0000000000000275
  endloop
endfacet
facet normal -2.324308547315274e-15 -0.5570352185371522 -0.8304888712735815
  outer loop
    vertex 20.15 14.000000000000009 7.75
    vertex 24.149999999999988 18.100000000000005 5.000000000000019
    vertex 24.149999999999995 14.000000000000002 7.749999999999993
  endloop
endfacet
facet normal 1.3755934061209147e-15 1.0 -3.103301839099905e-30
  outer loop
    vertex 20.14999999999999 18.100000000000012 5.0000000000000275
    vertex 24.150000000000013 18.100000000000005 15.000000000000007
    vertex 24.149999999999988 18.100000000000005 5.000000000000019
  endloop
endfacet
facet normal 1.3755934061209147e-15 1.0 -3.103301839099905e-30
  outer loop
    vertex 24.150000000000013 18.100000000000005 15.000000000000007
    vertex 20.14999999999999 18.100000000000012 5.0000000000000275
    vertex 20.150000000000013 18.100000000000012 15.000000000000014
  endloop
endfacet
facet normal 7.918006001215996e-16 -0.5570352185371583 0.8304888712735774
  outer loop
    vertex 24.149999999999995 14.000000000000002 12.249999999999991
    vertex 20.150000000000013 18.100000000000012 15.000000000000014
    vertex 20.15 14.000000000000009 12.249999999999998
  endloop
endfacet
facet normal 7.918006001215996e-16 -0.5570352185371583 0.8304888712735774
  outer loop
    vertex 20.150000000000013 18.100000000000012 15.000000000000014
    vertex 24.149999999999995 14.000000000000002 12.249999999999991
    vertex 24.150000000000013 18.100000000000005 15.000000000000007
  endloop
endfacet
facet normal -1.3755934061209145e-15 -1.0 -0.0
  outer loop
    vertex 24.149999999999995 14.000000000000002 12.249999999999991
    vertex 20.15 14.000000000000009 7.75
    vertex 24.149999999999995 14.000000000000002 7.749999999999993
  endloop
endfacet
facet normal -1.3755934061209145e-15 -1.0 -0.0
  outer loop
    vertex 20.15 14.000000000000009 7.75
    vertex 24.149999999999995 14.000000000000002 12.249999999999991
    vertex 20.15 14.000000000000009 12.249999999999998
  endloop
endfacet
endsolid feet_pad
