solid gpu_font2
facet normal -3.796983871101517e-08 -0.9999999999999953 -8.999949326956413e-08
  outer loop
    vertex 144.50043574554385 -3.9999999999999996 4.200000000000001
    vertex 125.50030858212713 -3.999998635502498 19.20004798180109
    vertex 125.50043574544449 -3.999998635502498 4.199987254063278
  endloop
endfacet
facet normal -3.796983871101517e-08 -0.9999999999999953 -8.999949326956413e-08
  outer loop
    vertex 125.50030858212713 -3.999998635502498 19.20004798180109
    vertex 144.50043574554385 -3.9999999999999996 4.200000000000001
    vertex 144.5004355431225 -4.000002429035758 41.39999392736732
  endloop
endfacet
facet normal -3.796983871101517e-08 -0.9999999999999953 -8.999949326956413e-08
  outer loop
    vertex 125.50030858212713 -3.999998635502498 19.20004798180109
    vertex 118.50043554318773 -4.000002429035758 41.39999392736732
    vertex 118.50030858229171 -3.9999999999999996 19.2
  endloop
endfacet
facet normal -3.796983871101517e-08 -0.9999999999999953 -8.999949326956413e-08
  outer loop
    vertex 118.50043554318773 -4.000002429035758 41.39999392736732
    vertex 125.50030858212713 -3.999998635502498 19.20004798180109
    vertex 144.5004355431225 -4.000002429035758 41.39999392736732
  endloop
endfacet
facet normal -1.101895241826714e-06 0.9999999999993912 6.196520179619894e-08
  outer loop
    vertex 118.50043554318773 -5.500031078308282 43.3999331996295
    vertex 144.50043574554385 -5.500000000000001 4.200000000000001
    vertex 118.50043574560908 -5.500028649272525 4.199939272262181
  endloop
endfacet
facet normal -1.101895241826714e-06 0.9999999999993912 6.196520179619894e-08
  outer loop
    vertex 144.50043574554385 -5.500000000000001 4.200000000000001
    vertex 118.50043554318773 -5.500031078308282 43.3999331996295
    vertex 144.5004355431225 -5.500002429035757 43.39999392736732
  endloop
endfacet
facet normal 1.1678299590181763e-06 2.0242579264295507e-05 -0.9999999997944371
  outer loop
    vertex 144.5004355431225 -4.000002429035758 43.39999392736732
    vertex 118.50043554318773 -5.500031078308282 43.3999331996295
    vertex 118.50043554318773 -4.000002429035758 43.39999392736732
  endloop
endfacet
facet normal 1.1678299590181763e-06 2.0242579264295507e-05 -0.9999999997944371
  outer loop
    vertex 118.50043554318773 -5.500031078308282 43.3999331996295
    vertex 144.5004355431225 -4.000002429035758 43.39999392736732
    vertex 144.5004355431225 -5.500002429035757 43.39999392736732
  endloop
endfacet
facet normal -0.9999999999817064 -2.625773639426385e-07 -6.0430520158146076e-06
  outer loop
    vertex 125.50034037295646 14.0000013644975 19.20004798180109
    vertex 125.50043574544449 -3.999998635502498 4.199987254063278
    vertex 125.50030858212713 -3.999998635502498 19.20004798180109
  endloop
endfacet
facet normal -0.9999999999817064 -2.625773639426385e-07 -6.0430520158146076e-06
  outer loop
    vertex 125.50043574544449 -3.999998635502498 4.199987254063278
    vertex 125.50034037295646 14.0000013644975 19.20004798180109
    vertex 125.50039450157317 14.000001364527666 4.200029763505845
  endloop
endfacet
facet normal -2.0898967196876008e-06 -2.5824317902937734e-06 0.9999999999944817
  outer loop
    vertex 118.50043574560908 -5.500028649272525 4.199939272262181
    vertex 125.50039450157317 14.000001364527666 4.200029763505845
    vertex 118.50039450173776 14.000000000030163 4.199981781704751
  endloop
endfacet
facet normal -2.0898967196876008e-06 -2.5824317902937734e-06 0.9999999999944817
  outer loop
    vertex 125.50039450157317 14.000001364527666 4.200029763505845
    vertex 118.50043574560908 -5.500028649272525 4.199939272262181
    vertex 125.50043574544449 -3.999998635502498 4.199987254063278
  endloop
endfacet
facet normal -2.0898967196876008e-06 -2.5824317902937734e-06 0.9999999999944817
  outer loop
    vertex 125.50043574544449 -3.999998635502498 4.199987254063278
    vertex 118.50043574560908 -5.500028649272525 4.199939272262181
    vertex 144.50043574554385 -5.500000000000001 4.200000000000001
  endloop
endfacet
facet normal -2.0898967196876008e-06 -2.5824317902937734e-06 0.9999999999944817
  outer loop
    vertex 125.50043574544449 -3.999998635502498 4.199987254063278
    vertex 144.50043574554385 -5.500000000000001 4.200000000000001
    vertex 144.50043574554385 -3.9999999999999996 4.200000000000001
  endloop
endfacet
facet normal 6.854543013380198e-06 -1.2106200394859893e-11 -0.9999999999765077
  outer loop
    vertex 118.50034037312105 13.999999999999996 19.2
    vertex 125.50030858212713 -3.999998635502498 19.20004798180109
    vertex 118.50030858229171 -3.9999999999999996 19.2
  endloop
endfacet
facet normal 6.854543013380198e-06 -1.2106200394859893e-11 -0.9999999999765077
  outer loop
    vertex 125.50030858212713 -3.999998635502498 19.20004798180109
    vertex 118.50034037312105 13.999999999999996 19.2
    vertex 125.50034037295646 14.0000013644975 19.20004798180109
  endloop
endfacet
facet normal 1.949282147830611e-07 -0.9999999999999811 -1.307597534592726e-12
  outer loop
    vertex 125.50039450157317 14.000001364527666 4.200029763505845
    vertex 118.50034037312105 13.999999999999996 19.2
    vertex 118.50039450173776 14.000000000030163 4.199981781704751
  endloop
endfacet
facet normal 1.949282147830611e-07 -0.9999999999999811 -1.307597534592726e-12
  outer loop
    vertex 118.50034037312105 13.999999999999996 19.2
    vertex 125.50039450157317 14.000001364527666 4.200029763505845
    vertex 125.50034037295646 14.0000013644975 19.20004798180109
  endloop
endfacet
facet normal 9.407478931735292e-06 -1.3847586317036217e-05 0.9999999998598719
  outer loop
    vertex 118.49967489669727 -7.499982701508394 45.40006887829322
    vertex 147.5001676699995 16.998300300994906 45.40013531284845
    vertex 118.49945803887576 17.000478881413482 45.40009228713649
  endloop
endfacet
facet normal 9.407478931735292e-06 -1.3847586317036217e-05 0.9999999998598719
  outer loop
    vertex 147.5001676699995 16.998300300994906 45.40013531284845
    vertex 118.49967489669727 -7.499982701508394 45.40006887829322
    vertex 147.50039321888073 -7.499998299259473 45.399480175080505
  endloop
endfacet
facet normal -1.0 -7.816278105160712e-10 -5.226785034344639e-09
  outer loop
    vertex 144.5004355431225 -1.000002429035758 43.39999392736732
    vertex 144.5004355431225 -4.000002429035758 41.39999392736732
    vertex 144.5004355431225 -4.000002429035758 43.39999392736732
  endloop
endfacet
facet normal -1.0 -7.816278105160712e-10 -5.226785034344639e-09
  outer loop
    vertex 144.5004355431225 -4.000002429035758 41.39999392736732
    vertex 144.5004355431225 -1.000002429035758 43.39999392736732
    vertex 144.5004355431225 -1.000002429035758 41.39999392736732
  endloop
endfacet
facet normal -1.0 -7.816278105160712e-10 -5.226785034344639e-09
  outer loop
    vertex 144.5004355431225 -4.000002429035758 43.39999392736732
    vertex 144.50043574554385 -5.500000000000001 4.200000000000001
    vertex 144.5004355431225 -5.500002429035757 43.39999392736732
  endloop
endfacet
facet normal -1.0 -7.816278105160712e-10 -5.226785034344639e-09
  outer loop
    vertex 144.50043574554385 -5.500000000000001 4.200000000000001
    vertex 144.5004355431225 -4.000002429035758 43.39999392736732
    vertex 144.5004355431225 -4.000002429035758 41.39999392736732
  endloop
endfacet
facet normal -1.0 -7.816278105160712e-10 -5.226785034344639e-09
  outer loop
    vertex 144.50043574554385 -5.500000000000001 4.200000000000001
    vertex 144.5004355431225 -4.000002429035758 41.39999392736732
    vertex 144.50043574554385 -3.9999999999999996 4.200000000000001
  endloop
endfacet
facet normal 0.0 0.0 -1.0
  outer loop
    vertex 144.5004355431225 -1.000002429035758 43.39999392736732
    vertex 118.50043554318773 -4.000002429035758 43.39999392736732
    vertex 118.50043554318773 -1.000002429035758 43.39999392736732
  endloop
endfacet
facet normal 0.0 0.0 -1.0
  outer loop
    vertex 118.50043554318773 -4.000002429035758 43.39999392736732
    vertex 144.5004355431225 -1.000002429035758 43.39999392736732
    vertex 144.5004355431225 -4.000002429035758 43.39999392736732
  endloop
endfacet
facet normal 0.0 -1.0 0.0
  outer loop
    vertex 144.5004355431225 -1.000002429035758 43.39999392736732
    vertex 118.50043554318773 -1.000002429035758 41.39999392736732
    vertex 144.5004355431225 -1.000002429035758 41.39999392736732
  endloop
endfacet
facet normal 0.0 -1.0 0.0
  outer loop
    vertex 118.50043554318773 -1.000002429035758 41.39999392736732
    vertex 144.5004355431225 -1.000002429035758 43.39999392736732
    vertex 118.50043554318773 -1.000002429035758 43.39999392736732
  endloop
endfacet
facet normal -0.0 -0.0 1.0
  outer loop
    vertex 144.5004355431225 -4.000002429035758 41.39999392736732
    vertex 118.50043554318773 -1.000002429035758 41.39999392736732
    vertex 118.50043554318773 -4.000002429035758 41.39999392736732
  endloop
endfacet
facet normal -0.0 -0.0 1.0
  outer loop
    vertex 118.50043554318773 -1.000002429035758 41.39999392736732
    vertex 144.5004355431225 -4.000002429035758 41.39999392736732
    vertex 144.5004355431225 -1.000002429035758 41.39999392736732
  endloop
endfacet
facet normal 0.0 -1.0 0.0
  outer loop
    vertex 147.5002100538885 4.600000094193468 -6.100000000000006
    vertex 118.5005187816001 4.600000094193468 -4.000000000000012
    vertex 118.5005187816001 4.600000094193468 -6.100000000000011
  endloop
endfacet
facet normal 0.0 -1.0 0.0
  outer loop
    vertex 118.5005187816001 4.600000094193468 -4.000000000000012
    vertex 147.5002100538885 4.600000094193468 -6.100000000000006
    vertex 147.5002100538885 4.600000094193468 -4.000000000000007
  endloop
endfacet
facet normal -0.0 1.0 -0.0
  outer loop
    vertex 118.5005187816001 9.400000094193471 -4.000000000000012
    vertex 147.5002100538885 9.400000094193471 -6.100000000000006
    vertex 118.5005187816001 9.400000094193471 -6.100000000000011
  endloop
endfacet
facet normal -0.0 1.0 -0.0
  outer loop
    vertex 147.5002100538885 9.400000094193471 -6.100000000000006
    vertex 118.5005187816001 9.400000094193471 -4.000000000000012
    vertex 147.5002100538885 9.400000094193471 -4.000000000000007
  endloop
endfacet
facet normal 1.8412619098691197e-16 5.744848018652608e-17 -1.0
  outer loop
    vertex 147.5002100538885 9.25000009419347 -9.900000000000004
    vertex 118.5005187816001 4.750000094193468 -9.90000000000001
    vertex 118.5005187816001 9.25000009419347 -9.90000000000001
  endloop
endfacet
facet normal 1.8412619098691197e-16 5.744848018652608e-17 -1.0
  outer loop
    vertex 118.5005187816001 4.750000094193468 -9.90000000000001
    vertex 147.5002100538885 9.25000009419347 -9.900000000000004
    vertex 147.5002100538885 4.750000094193468 -9.900000000000004
  endloop
endfacet
facet normal -1.891637290717319e-16 -0.0 1.0
  outer loop
    vertex 147.5002100538885 2.250000094193472 -6.100000000000006
    vertex 118.5005187816001 4.600000094193468 -6.100000000000011
    vertex 118.5005187816001 2.250000094193472 -6.100000000000011
  endloop
endfacet
facet normal -1.891637290717319e-16 -0.0 1.0
  outer loop
    vertex 118.5005187816001 4.600000094193468 -6.100000000000011
    vertex 147.5002100538885 2.250000094193472 -6.100000000000006
    vertex 147.5002100538885 4.600000094193468 -6.100000000000006
  endloop
endfacet
facet normal 1.8916101847696298e-16 0.0 -1.0
  outer loop
    vertex 147.5002100538885 4.600000094193468 -4.000000000000007
    vertex 118.5005187816001 -2.999999905806529 -4.000000000000012
    vertex 118.5005187816001 4.600000094193468 -4.000000000000012
  endloop
endfacet
facet normal 1.8916101847696298e-16 0.0 -1.0
  outer loop
    vertex 118.5005187816001 -2.999999905806529 -4.000000000000012
    vertex 147.5002100538885 4.600000094193468 -4.000000000000007
    vertex 147.5002100538885 -2.999999905806529 -4.000000000000007
  endloop
endfacet
facet normal 1.0244346787483316e-16 0.8354170822439405 -0.5496165014762758
  outer loop
    vertex 118.5005187816001 11.750000094193465 -6.100000000000011
    vertex 147.5002100538885 9.25000009419347 -9.900000000000004
    vertex 118.5005187816001 9.25000009419347 -9.90000000000001
  endloop
endfacet
facet normal 1.0244346787483316e-16 0.8354170822439405 -0.5496165014762758
  outer loop
    vertex 147.5002100538885 9.25000009419347 -9.900000000000004
    vertex 118.5005187816001 11.750000094193465 -6.100000000000011
    vertex 147.5002100538885 11.750000094193465 -6.100000000000006
  endloop
endfacet
facet normal 1.89161018476963e-16 -4.764120788294352e-32 -1.0
  outer loop
    vertex 147.5002100538885 17.000000094193467 -4.000000000000007
    vertex 118.5005187816001 9.400000094193471 -4.000000000000012
    vertex 118.5005187816001 17.000000094193446 -4.000000000000012
  endloop
endfacet
facet normal 1.89161018476963e-16 -4.764120788294352e-32 -1.0
  outer loop
    vertex 118.5005187816001 9.400000094193471 -4.000000000000012
    vertex 147.5002100538885 17.000000094193467 -4.000000000000007
    vertex 147.5002100538885 9.400000094193471 -4.000000000000007
  endloop
endfacet
facet normal -1.0 1.816593069149994e-15 5.235151952598034e-15
  outer loop
    vertex 138.71161835443766 2.901795321801034 -11.731136737308987
    vertex 138.71161835443763 -0.8999999058065248 -11.600000000000017
    vertex 138.71161835443766 -0.8999999058065248 -9.000000000000016
  endloop
endfacet
facet normal -1.0 1.816593069149994e-15 5.235151952598034e-15
  outer loop
    vertex 138.71161835443763 -0.8999999058065248 -11.600000000000017
    vertex 138.71161835443766 2.901795321801034 -11.731136737308987
    vertex 138.71161835443763 -0.8999999058065248 -16.400000000000016
  endloop
endfacet
facet normal -1.0 1.816593069149994e-15 5.235151952598034e-15
  outer loop
    vertex 138.71161835443763 -0.8999999058065248 -16.400000000000016
    vertex 138.71161835443766 2.901795321801034 -11.731136737308987
    vertex 138.71161835443763 -0.8999999058065248 -19.000000000000018
  endloop
endfacet
facet normal -1.0 1.816593069149994e-15 5.235151952598034e-15
  outer loop
    vertex 138.71161835443763 -0.8999999058065248 -19.000000000000018
    vertex 138.71161835443766 2.901795321801034 -11.731136737308987
    vertex 138.71161835443763 2.901795321801034 -16.231136737308987
  endloop
endfacet
facet normal -1.0 1.816593069149994e-15 5.235151952598034e-15
  outer loop
    vertex 138.71161835443763 -0.8999999058065248 -11.600000000000017
    vertex 138.71161835443763 -2.999999905806532 -16.400000000000016
    vertex 138.71161835443763 -2.999999905806532 -11.600000000000017
  endloop
endfacet
facet normal -1.0 1.816593069149994e-15 5.235151952598034e-15
  outer loop
    vertex 138.71161835443763 -2.999999905806532 -16.400000000000016
    vertex 138.71161835443763 -0.8999999058065248 -11.600000000000017
    vertex 138.71161835443763 -0.8999999058065248 -16.400000000000016
  endloop
endfacet
facet normal 3.3476931479241933e-16 0.0 -1.0
  outer loop
    vertex 147.50021005388848 -0.8999999058065219 -16.400000000000006
    vertex 138.71161835443763 -2.999999905806532 -16.400000000000016
    vertex 138.71161835443763 -0.8999999058065248 -16.400000000000016
  endloop
endfacet
facet normal 3.3476931479241933e-16 0.0 -1.0
  outer loop
    vertex 138.71161835443763 -2.999999905806532 -16.400000000000016
    vertex 147.50021005388848 -0.8999999058065219 -16.400000000000006
    vertex 147.50021005388848 -2.999999905806529 -16.400000000000006
  endloop
endfacet
facet normal -2.8181492850094615e-16 0.583438325710926 0.8121574478459406
  outer loop
    vertex 147.5002100538885 -0.8999999058065219 -9.000000000000005
    vertex 138.71161835443766 2.901795321801034 -11.731136737308987
    vertex 138.71161835443766 -0.8999999058065248 -9.000000000000016
  endloop
endfacet
facet normal -2.8181492850094615e-16 0.583438325710926 0.8121574478459406
  outer loop
    vertex 138.71161835443766 2.901795321801034 -11.731136737308987
    vertex 147.5002100538885 -0.8999999058065219 -9.000000000000005
    vertex 147.5002100538885 2.901795321801037 -11.731136737308976
  endloop
endfacet
facet normal 0.0 -1.0 0.0
  outer loop
    vertex 147.5002100538885 -0.8999999058065219 -11.600000000000007
    vertex 138.71161835443766 -0.8999999058065248 -9.000000000000016
    vertex 138.71161835443763 -0.8999999058065248 -11.600000000000017
  endloop
endfacet
facet normal 0.0 -1.0 0.0
  outer loop
    vertex 138.71161835443766 -0.8999999058065248 -9.000000000000016
    vertex 147.5002100538885 -0.8999999058065219 -11.600000000000007
    vertex 147.5002100538885 -0.8999999058065219 -9.000000000000005
  endloop
endfacet
facet normal 0.0 -1.0 0.0
  outer loop
    vertex 147.50021005388848 -0.8999999058065219 -19.000000000000007
    vertex 138.71161835443763 -0.8999999058065248 -16.400000000000016
    vertex 138.71161835443763 -0.8999999058065248 -19.000000000000018
  endloop
endfacet
facet normal 0.0 -1.0 0.0
  outer loop
    vertex 138.71161835443763 -0.8999999058065248 -16.400000000000016
    vertex 147.50021005388848 -0.8999999058065219 -19.000000000000007
    vertex 147.50021005388848 -0.8999999058065219 -16.400000000000006
  endloop
endfacet
facet normal 2.677405038440278e-16 0.5887168776075834 -0.8083393087187941
  outer loop
    vertex 147.50021005388848 2.901795321801037 -16.231136737308976
    vertex 138.71161835443763 -0.8999999058065248 -19.000000000000018
    vertex 138.71161835443763 2.901795321801034 -16.231136737308987
  endloop
endfacet
facet normal 2.677405038440278e-16 0.5887168776075834 -0.8083393087187941
  outer loop
    vertex 138.71161835443763 -0.8999999058065248 -19.000000000000018
    vertex 147.50021005388848 2.901795321801037 -16.231136737308976
    vertex 147.50021005388848 -0.8999999058065219 -19.000000000000007
  endloop
endfacet
facet normal -3.3476931479241933e-16 -0.0 1.0
  outer loop
    vertex 147.5002100538885 -2.999999905806529 -11.600000000000007
    vertex 138.71161835443763 -0.8999999058065248 -11.600000000000017
    vertex 138.71161835443763 -2.999999905806532 -11.600000000000017
  endloop
endfacet
facet normal -3.3476931479241933e-16 -0.0 1.0
  outer loop
    vertex 138.71161835443763 -0.8999999058065248 -11.600000000000017
    vertex 147.5002100538885 -2.999999905806529 -11.600000000000007
    vertex 147.5002100538885 -0.8999999058065219 -11.600000000000007
  endloop
endfacet
facet normal -0.0 1.0 -0.0
  outer loop
    vertex 138.71161835443766 2.901795321801034 -11.731136737308987
    vertex 147.50021005388848 2.901795321801037 -16.231136737308976
    vertex 138.71161835443763 2.901795321801034 -16.231136737308987
  endloop
endfacet
facet normal -0.0 1.0 -0.0
  outer loop
    vertex 147.50021005388848 2.901795321801037 -16.231136737308976
    vertex 138.71161835443766 2.901795321801034 -11.731136737308987
    vertex 147.5002100538885 2.901795321801037 -11.731136737308976
  endloop
endfacet
facet normal 1.0745335493073496e-16 -0.8354170822439405 -0.5496165014762759
  outer loop
    vertex 147.5002100538885 4.750000094193468 -9.900000000000004
    vertex 118.5005187816001 2.250000094193472 -6.100000000000011
    vertex 118.5005187816001 4.750000094193468 -9.90000000000001
  endloop
endfacet
facet normal 1.0745335493073496e-16 -0.8354170822439405 -0.5496165014762759
  outer loop
    vertex 118.5005187816001 2.250000094193472 -6.100000000000011
    vertex 147.5002100538885 4.750000094193468 -9.900000000000004
    vertex 147.5002100538885 2.250000094193472 -6.100000000000006
  endloop
endfacet
facet normal -1.8412619098691197e-16 -1.1000772801675225e-16 1.0
  outer loop
    vertex 147.5002100538885 9.400000094193471 -6.100000000000006
    vertex 118.5005187816001 11.750000094193465 -6.100000000000011
    vertex 118.5005187816001 9.400000094193471 -6.100000000000011
  endloop
endfacet
facet normal -1.8412619098691197e-16 -1.1000772801675225e-16 1.0
  outer loop
    vertex 118.5005187816001 11.750000094193465 -6.100000000000011
    vertex 147.5002100538885 9.400000094193471 -6.100000000000006
    vertex 147.5002100538885 11.750000094193465 -6.100000000000006
  endloop
endfacet
facet normal -0.0 1.0 -0.0
  outer loop
    vertex 118.5005187816001 2.901795321801037 -11.731136737308983
    vertex 127.28800735443761 2.901795321801037 -16.23113673730898
    vertex 118.5005187816001 2.901795321801037 -16.23113673730898
  endloop
endfacet
facet normal -0.0 1.0 -0.0
  outer loop
    vertex 127.28800735443761 2.901795321801037 -16.23113673730898
    vertex 118.5005187816001 2.901795321801037 -11.731136737308983
    vertex 127.28800735443761 2.901795321801037 -11.73113673730898
  endloop
endfacet
facet normal 4.510911743362721e-05 -0.9999999969876625 -6.316520229119028e-05
  outer loop
    vertex 147.50021005388848 -4.999999905806526 -24.000000000000007
    vertex 133.51798659123457 -5.000567451940385 -15.9318506276615
    vertex 133.0003486363938 -5.000588573392472 -15.999999997857039
  endloop
endfacet
facet normal 4.510911743362721e-05 -0.9999999969876625 -6.316520229119028e-05
  outer loop
    vertex 133.51798659123457 -5.000567451940385 -15.9318506276615
    vertex 147.50021005388848 -4.999999905806526 -24.000000000000007
    vertex 134.00034810577054 -5.000552227300781 -15.732048829724942
  endloop
endfacet
facet normal 4.510911743362721e-05 -0.9999999969876625 -6.316520229119028e-05
  outer loop
    vertex 134.00034810577054 -5.000552227300781 -15.732048829724942
    vertex 147.50021005388848 -4.999999905806526 -24.000000000000007
    vertex 134.41456103992616 -5.0005439370076905 -15.414210766388656
  endloop
endfacet
facet normal 4.510911743362721e-05 -0.9999999969876625 -6.316520229119028e-05
  outer loop
    vertex 134.41456103992616 -5.0005439370076905 -15.414210766388656
    vertex 147.50021005388848 -4.999999905806526 -24.000000000000007
    vertex 147.5002100538885 -4.999999905806526 -4.000000000000007
  endloop
endfacet
facet normal 4.510911743362721e-05 -0.9999999969876625 -6.316520229119028e-05
  outer loop
    vertex 134.41456103992616 -5.0005439370076905 -15.414210766388656
    vertex 147.5002100538885 -4.999999905806526 -4.000000000000007
    vertex 134.73239746675802 -5.0005431460308865 -14.99999657641678
  endloop
endfacet
facet normal 4.510911743362721e-05 -0.9999999969876625 -6.316520229119028e-05
  outer loop
    vertex 134.73239746675802 -5.0005431460308865 -14.99999657641678
    vertex 147.5002100538885 -4.999999905806526 -4.000000000000007
    vertex 134.93219735902696 -5.000549908274132 -14.517634272334579
  endloop
endfacet
facet normal 4.510911743362721e-05 -0.9999999969876625 -6.316520229119028e-05
  outer loop
    vertex 134.93219735902696 -5.000549908274132 -14.517634272334579
    vertex 147.5002100538885 -4.999999905806526 -4.000000000000007
    vertex 135.00034468425986 -5.000563762901722 -13.999996048023856
  endloop
endfacet
facet normal 4.510911743362721e-05 -0.9999999969876625 -6.316520229119028e-05
  outer loop
    vertex 135.00034468425986 -5.000563762901722 -13.999996048023856
    vertex 147.5002100538885 -4.999999905806526 -4.000000000000007
    vertex 134.93219531486085 -5.000583765743686 -13.482358093033778
  endloop
endfacet
facet normal 4.510911743362721e-05 -0.9999999969876625 -6.316520229119028e-05
  outer loop
    vertex 134.93219531486085 -5.000583765743686 -13.482358093033778
    vertex 147.5002100538885 -4.999999905806526 -4.000000000000007
    vertex 134.73239351773233 -5.000608553639397 -12.999996578559752
  endloop
endfacet
facet normal 4.510911743362721e-05 -0.9999999969876625 -6.316520229119028e-05
  outer loop
    vertex 134.73239351773233 -5.000608553639397 -12.999996578559752
    vertex 147.5002100538885 -4.999999905806526 -4.000000000000007
    vertex 134.4145554551605 -5.000636437334729 -12.585783644673086
  endloop
endfacet
facet normal 4.510911743362721e-05 -0.9999999969876625 -6.316520229119028e-05
  outer loop
    vertex 134.4145554551605 -5.000636437334729 -12.585783644673086
    vertex 147.5002100538885 -4.999999905806526 -4.000000000000007
    vertex 134.00034126585743 -5.000665516601924 -12.267947218298923
  endloop
endfacet
facet normal 4.510911743362721e-05 -0.9999999969876625 -6.316520229119028e-05
  outer loop
    vertex 134.00034126585743 -5.000665516601924 -12.267947218298923
    vertex 147.5002100538885 -4.999999905806526 -4.000000000000007
    vertex 133.51797896230278 -5.000693809736977 -12.068147326645128
  endloop
endfacet
facet normal 4.510911743362721e-05 -0.9999999969876625 -6.316520229119028e-05
  outer loop
    vertex 133.51797896230278 -5.000693809736977 -12.068147326645128
    vertex 147.5002100538885 -4.999999905806526 -4.000000000000007
    vertex 133.00034073834243 -5.000719388609493 -12.00000000214298
  endloop
endfacet
facet normal 4.510911743362721e-05 -0.9999999969876625 -6.316520229119028e-05
  outer loop
    vertex 118.5005187816001 -4.999999905806526 -24.000000000000014
    vertex 131.58613391957573 -5.0006715246672355 -15.41421635532693
    vertex 118.50043986009541 -5.002616206584352 -4.000000000000007
  endloop
endfacet
facet normal 4.510911743362721e-05 -0.9999999969876625 -6.316520229119028e-05
  outer loop
    vertex 131.58613391957573 -5.0006715246672355 -15.41421635532693
    vertex 118.5005187816001 -4.999999905806526 -24.000000000000014
    vertex 132.0003481088788 -5.000642445400041 -15.732052781701094
  endloop
endfacet
facet normal 4.510911743362721e-05 -0.9999999969876625 -6.316520229119028e-05
  outer loop
    vertex 132.0003481088788 -5.000642445400041 -15.732052781701094
    vertex 118.5005187816001 -4.999999905806526 -24.000000000000014
    vertex 147.50021005388848 -4.999999905806526 -24.000000000000007
  endloop
endfacet
facet normal 4.510911743362721e-05 -0.9999999969876625 -6.316520229119028e-05
  outer loop
    vertex 132.0003481088788 -5.000642445400041 -15.732052781701094
    vertex 147.50021005388848 -4.999999905806526 -24.000000000000007
    vertex 132.48271041243345 -5.000614152264987 -15.931852673354888
  endloop
endfacet
facet normal 4.510911743362721e-05 -0.9999999969876625 -6.316520229119028e-05
  outer loop
    vertex 132.48271041243345 -5.000614152264987 -15.931852673354888
    vertex 147.50021005388848 -4.999999905806526 -24.000000000000007
    vertex 133.0003486363938 -5.000588573392472 -15.999999997857039
  endloop
endfacet
facet normal 4.510911743362721e-05 -0.9999999969876625 -6.316520229119028e-05
  outer loop
    vertex 118.50043986009541 -5.002616206584352 -4.000000000000007
    vertex 131.58613391957573 -5.0006715246672355 -15.41421635532693
    vertex 131.2682958570039 -5.000699408362567 -15.000003421440265
  endloop
endfacet
facet normal 4.510911743362721e-05 -0.9999999969876625 -6.316520229119028e-05
  outer loop
    vertex 118.50043986009541 -5.002616206584352 -4.000000000000007
    vertex 131.2682958570039 -5.000699408362567 -15.000003421440265
    vertex 131.06849405987538 -5.000724196258279 -14.517641906966238
  endloop
endfacet
facet normal 4.510911743362721e-05 -0.9999999969876625 -6.316520229119028e-05
  outer loop
    vertex 118.50043986009541 -5.002616206584352 -4.000000000000007
    vertex 131.06849405987538 -5.000724196258279 -14.517641906966238
    vertex 131.00034469047637 -5.000744199100242 -14.000003951976161
  endloop
endfacet
facet normal 4.510911743362721e-05 -0.9999999969876625 -6.316520229119028e-05
  outer loop
    vertex 118.50043986009541 -5.002616206584352 -4.000000000000007
    vertex 131.00034469047637 -5.000744199100242 -14.000003951976161
    vertex 131.06849201570927 -5.000758053727833 -13.482365727665437
  endloop
endfacet
facet normal 4.510911743362721e-05 -0.9999999969876625 -6.316520229119028e-05
  outer loop
    vertex 118.50043986009541 -5.002616206584352 -4.000000000000007
    vertex 131.06849201570927 -5.000758053727833 -13.482365727665437
    vertex 131.26829190797824 -5.000764815971078 -13.000003423583237
  endloop
endfacet
facet normal 4.510911743362721e-05 -0.9999999969876625 -6.316520229119028e-05
  outer loop
    vertex 118.50043986009541 -5.002616206584352 -4.000000000000007
    vertex 131.26829190797824 -5.000764815971078 -13.000003423583237
    vertex 131.58612833481007 -5.0007640249942735 -12.585789233611358
  endloop
endfacet
facet normal 4.510911743362721e-05 -0.9999999969876625 -6.316520229119028e-05
  outer loop
    vertex 118.50043986009541 -5.002616206584352 -4.000000000000007
    vertex 131.58612833481007 -5.0007640249942735 -12.585789233611358
    vertex 132.00034126896568 -5.000755734701183 -12.267951170275074
  endloop
endfacet
facet normal 4.510911743362721e-05 -0.9999999969876625 -6.316520229119028e-05
  outer loop
    vertex 118.50043986009541 -5.002616206584352 -4.000000000000007
    vertex 132.00034126896568 -5.000755734701183 -12.267951170275074
    vertex 132.48270278350165 -5.00074051006158 -12.068149372338516
  endloop
endfacet
facet normal 4.510911743362721e-05 -0.9999999969876625 -6.316520229119028e-05
  outer loop
    vertex 118.50043986009541 -5.002616206584352 -4.000000000000007
    vertex 132.48270278350165 -5.00074051006158 -12.068149372338516
    vertex 133.00034073834243 -5.000719388609493 -12.00000000214298
  endloop
endfacet
facet normal 4.510911743362721e-05 -0.9999999969876625 -6.316520229119028e-05
  outer loop
    vertex 118.50043986009541 -5.002616206584352 -4.000000000000007
    vertex 133.00034073834243 -5.000719388609493 -12.00000000214298
    vertex 147.5002100538885 -4.999999905806526 -4.000000000000007
  endloop
endfacet
facet normal 0.0 -1.0 0.0
  outer loop
    vertex 127.28800735443761 -0.8999999058065219 -19.00000000000001
    vertex 118.5005187816001 -0.8999999058065219 -16.400000000000013
    vertex 118.5005187816001 -0.8999999058065219 -19.000000000000014
  endloop
endfacet
facet normal 0.0 -1.0 0.0
  outer loop
    vertex 118.5005187816001 -0.8999999058065219 -16.400000000000013
    vertex 127.28800735443761 -0.8999999058065219 -19.00000000000001
    vertex 127.28800735443761 -0.8999999058065219 -16.40000000000001
  endloop
endfacet
facet normal -0.0 1.0 -0.0
  outer loop
    vertex 118.5005187816001 -2.999999905806529 -4.000000000000012
    vertex 127.28800735443761 -2.999999905806529 -11.60000000000001
    vertex 118.5005187816001 -2.999999905806529 -11.600000000000012
  endloop
endfacet
facet normal -0.0 1.0 -0.0
  outer loop
    vertex 127.28800735443761 -2.999999905806529 -11.60000000000001
    vertex 118.5005187816001 -2.999999905806529 -4.000000000000012
    vertex 147.5002100538885 -2.999999905806529 -11.600000000000007
  endloop
endfacet
facet normal -0.0 1.0 -0.0
  outer loop
    vertex 147.5002100538885 -2.999999905806529 -11.600000000000007
    vertex 118.5005187816001 -2.999999905806529 -4.000000000000012
    vertex 147.5002100538885 -2.999999905806529 -4.000000000000007
  endloop
endfacet
facet normal -0.0 1.0 -0.0
  outer loop
    vertex 127.28800735443761 -2.999999905806529 -16.40000000000001
    vertex 132.48262017520415 -3.0001929390092053 -15.931787252149212
    vertex 133.0002583991645 -3.000167360136686 -15.999934576651363
  endloop
endfacet
facet normal -0.0 1.0 -0.0
  outer loop
    vertex 132.48262017520415 -3.0001929390092053 -15.931787252149212
    vertex 127.28800735443761 -2.999999905806529 -16.40000000000001
    vertex 132.0002578716495 -3.000221232144256 -15.731987360495419
  endloop
endfacet
facet normal -0.0 1.0 -0.0
  outer loop
    vertex 132.0002578716495 -3.000221232144256 -15.731987360495419
    vertex 127.28800735443761 -2.999999905806529 -16.40000000000001
    vertex 131.58604368234643 -3.0002503114114476 -15.414150934121254
  endloop
endfacet
facet normal -0.0 1.0 -0.0
  outer loop
    vertex 131.58604368234643 -3.0002503114114476 -15.414150934121254
    vertex 127.28800735443761 -2.999999905806529 -16.40000000000001
    vertex 127.28800735443761 -2.999999905806529 -11.60000000000001
  endloop
endfacet
facet normal -0.0 1.0 -0.0
  outer loop
    vertex 131.58604368234643 -3.0002503114114476 -15.414150934121254
    vertex 127.28800735443761 -2.999999905806529 -11.60000000000001
    vertex 131.2682056197746 -3.000278195106778 -14.999938000234588
  endloop
endfacet
facet normal -0.0 1.0 -0.0
  outer loop
    vertex 131.2682056197746 -3.000278195106778 -14.999938000234588
    vertex 127.28800735443761 -2.999999905806529 -11.60000000000001
    vertex 131.06840382264608 -3.0003029830024883 -14.517576485760562
  endloop
endfacet
facet normal -0.0 1.0 -0.0
  outer loop
    vertex 131.06840382264608 -3.0003029830024883 -14.517576485760562
    vertex 127.28800735443761 -2.999999905806529 -11.60000000000001
    vertex 131.00025445324707 -3.000322985844457 -13.999938530770484
  endloop
endfacet
facet normal -0.0 1.0 -0.0
  outer loop
    vertex 131.00025445324707 -3.000322985844457 -13.999938530770484
    vertex 127.28800735443761 -2.999999905806529 -11.60000000000001
    vertex 131.06840177847997 -3.000336840472053 -13.482300306459761
  endloop
endfacet
facet normal -0.0 1.0 -0.0
  outer loop
    vertex 131.06840177847997 -3.000336840472053 -13.482300306459761
    vertex 127.28800735443761 -2.999999905806529 -11.60000000000001
    vertex 131.26820167074894 -3.0003436027152897 -12.99993800237756
  endloop
endfacet
facet normal -0.0 1.0 -0.0
  outer loop
    vertex 131.26820167074894 -3.0003436027152897 -12.99993800237756
    vertex 127.28800735443761 -2.999999905806529 -11.60000000000001
    vertex 131.58603809758077 -3.000342811738492 -12.585723812405673
  endloop
endfacet
facet normal -0.0 1.0 -0.0
  outer loop
    vertex 131.58603809758077 -3.000342811738492 -12.585723812405673
    vertex 127.28800735443761 -2.999999905806529 -11.60000000000001
    vertex 132.00025103173638 -3.000334521445398 -12.26788574906939
  endloop
endfacet
facet normal -0.0 1.0 -0.0
  outer loop
    vertex 132.00025103173638 -3.000334521445398 -12.26788574906939
    vertex 127.28800735443761 -2.999999905806529 -11.60000000000001
    vertex 132.48261254627235 -3.0003192968057917 -12.06808395113283
  endloop
endfacet
facet normal -0.0 1.0 -0.0
  outer loop
    vertex 132.48261254627235 -3.0003192968057917 -12.06808395113283
    vertex 127.28800735443761 -2.999999905806529 -11.60000000000001
    vertex 133.00025050111313 -3.000298175353709 -11.999934580937294
  endloop
endfacet
facet normal -0.0 1.0 -0.0
  outer loop
    vertex 133.00025050111313 -3.000298175353709 -11.999934580937294
    vertex 127.28800735443761 -2.999999905806529 -11.60000000000001
    vertex 138.71161835443763 -2.999999905806532 -11.600000000000017
  endloop
endfacet
facet normal -0.0 1.0 -0.0
  outer loop
    vertex 138.71161835443763 -2.999999905806532 -11.600000000000017
    vertex 127.28800735443761 -2.999999905806529 -11.60000000000001
    vertex 147.5002100538885 -2.999999905806529 -11.600000000000007
  endloop
endfacet
facet normal -0.0 1.0 -0.0
  outer loop
    vertex 118.5005187816001 -2.999999905806529 -16.400000000000013
    vertex 147.50021005388848 -2.999999905806529 -24.000000000000007
    vertex 118.5005187816001 -2.999999905806529 -24.00000000000001
  endloop
endfacet
facet normal -0.0 1.0 -0.0
  outer loop
    vertex 147.50021005388848 -2.999999905806529 -24.000000000000007
    vertex 118.5005187816001 -2.999999905806529 -16.400000000000013
    vertex 138.71161835443763 -2.999999905806532 -16.400000000000016
  endloop
endfacet
facet normal -0.0 1.0 -0.0
  outer loop
    vertex 138.71161835443763 -2.999999905806532 -16.400000000000016
    vertex 118.5005187816001 -2.999999905806529 -16.400000000000013
    vertex 127.28800735443761 -2.999999905806529 -16.40000000000001
  endloop
endfacet
facet normal -0.0 1.0 -0.0
  outer loop
    vertex 138.71161835443763 -2.999999905806532 -16.400000000000016
    vertex 127.28800735443761 -2.999999905806529 -16.40000000000001
    vertex 133.0002583991645 -3.000167360136686 -15.999934576651363
  endloop
endfacet
facet normal -0.0 1.0 -0.0
  outer loop
    vertex 138.71161835443763 -2.999999905806532 -16.400000000000016
    vertex 133.0002583991645 -3.000167360136686 -15.999934576651363
    vertex 133.51789635400525 -3.000146238684603 -15.931785206455825
  endloop
endfacet
facet normal -0.0 1.0 -0.0
  outer loop
    vertex 138.71161835443763 -2.999999905806532 -16.400000000000016
    vertex 133.51789635400525 -3.000146238684603 -15.931785206455825
    vertex 134.00025786854124 -3.000131014044997 -15.731983408519266
  endloop
endfacet
facet normal -0.0 1.0 -0.0
  outer loop
    vertex 138.71161835443763 -2.999999905806532 -16.400000000000016
    vertex 134.00025786854124 -3.000131014044997 -15.731983408519266
    vertex 134.41447080269685 -3.000122723751903 -15.41414534518298
  endloop
endfacet
facet normal -0.0 1.0 -0.0
  outer loop
    vertex 138.71161835443763 -2.999999905806532 -16.400000000000016
    vertex 134.41447080269685 -3.000122723751903 -15.41414534518298
    vertex 138.71161835443763 -2.999999905806532 -11.600000000000017
  endloop
endfacet
facet normal -0.0 1.0 -0.0
  outer loop
    vertex 138.71161835443763 -2.999999905806532 -11.600000000000017
    vertex 134.41447080269685 -3.000122723751903 -15.41414534518298
    vertex 134.73230722952871 -3.000121932775105 -14.999931155211103
  endloop
endfacet
facet normal -0.0 1.0 -0.0
  outer loop
    vertex 138.71161835443763 -2.999999905806532 -11.600000000000017
    vertex 134.73230722952871 -3.000121932775105 -14.999931155211103
    vertex 134.93210712179766 -3.0001286950183417 -14.517568851128903
  endloop
endfacet
facet normal -0.0 1.0 -0.0
  outer loop
    vertex 138.71161835443763 -2.999999905806532 -11.600000000000017
    vertex 134.93210712179766 -3.0001286950183417 -14.517568851128903
    vertex 135.00025444703056 -3.000142549645938 -13.999930626818179
  endloop
endfacet
facet normal -0.0 1.0 -0.0
  outer loop
    vertex 138.71161835443763 -2.999999905806532 -11.600000000000017
    vertex 135.00025444703056 -3.000142549645938 -13.999930626818179
    vertex 134.93210507763155 -3.0001625524878954 -13.482292671828102
  endloop
endfacet
facet normal -0.0 1.0 -0.0
  outer loop
    vertex 138.71161835443763 -2.999999905806532 -11.600000000000017
    vertex 134.93210507763155 -3.0001625524878954 -13.482292671828102
    vertex 134.73230328050303 -3.000187340383617 -12.999931157354075
  endloop
endfacet
facet normal -0.0 1.0 -0.0
  outer loop
    vertex 138.71161835443763 -2.999999905806532 -11.600000000000017
    vertex 134.73230328050303 -3.000187340383617 -12.999931157354075
    vertex 134.4144652179312 -3.0002152240789473 -12.585718223467401
  endloop
endfacet
facet normal -0.0 1.0 -0.0
  outer loop
    vertex 138.71161835443763 -2.999999905806532 -11.600000000000017
    vertex 134.4144652179312 -3.0002152240789473 -12.585718223467401
    vertex 134.00025102862813 -3.000244303346139 -12.267881797093239
  endloop
endfacet
facet normal -0.0 1.0 -0.0
  outer loop
    vertex 138.71161835443763 -2.999999905806532 -11.600000000000017
    vertex 134.00025102862813 -3.000244303346139 -12.267881797093239
    vertex 133.51788872507348 -3.0002725964811896 -12.068081905439444
  endloop
endfacet
facet normal -0.0 1.0 -0.0
  outer loop
    vertex 138.71161835443763 -2.999999905806532 -11.600000000000017
    vertex 133.51788872507348 -3.0002725964811896 -12.068081905439444
    vertex 133.00025050111313 -3.000298175353709 -11.999934580937294
  endloop
endfacet
facet normal -0.0 1.0 -0.0
  outer loop
    vertex 147.50021005388848 -2.999999905806529 -16.400000000000006
    vertex 147.50021005388848 -2.999999905806529 -24.000000000000007
    vertex 138.71161835443763 -2.999999905806532 -16.400000000000016
  endloop
endfacet
facet normal 3.3476931479242017e-16 0.0 -1.0
  outer loop
    vertex 127.28800735443761 -0.8999999058065219 -16.40000000000001
    vertex 118.5005187816001 -2.999999905806529 -16.400000000000013
    vertex 118.5005187816001 -0.8999999058065219 -16.400000000000013
  endloop
endfacet
facet normal 3.3476931479242017e-16 0.0 -1.0
  outer loop
    vertex 118.5005187816001 -2.999999905806529 -16.400000000000013
    vertex 127.28800735443761 -0.8999999058065219 -16.40000000000001
    vertex 127.28800735443761 -2.999999905806529 -16.40000000000001
  endloop
endfacet
facet normal 0.0 -1.0 0.0
  outer loop
    vertex 127.28800735443761 -0.8999999058065219 -11.60000000000001
    vertex 118.5005187816001 -0.8999999058065219 -9.000000000000012
    vertex 118.5005187816001 -0.8999999058065219 -11.600000000000012
  endloop
endfacet
facet normal 0.0 -1.0 0.0
  outer loop
    vertex 118.5005187816001 -0.8999999058065219 -9.000000000000012
    vertex 127.28800735443761 -0.8999999058065219 -11.60000000000001
    vertex 127.28800735443761 -0.8999999058065219 -9.000000000000009
  endloop
endfacet
facet normal -2.8181492850094797e-16 0.583438325710926 0.8121574478459406
  outer loop
    vertex 127.28800735443761 -0.8999999058065219 -9.000000000000009
    vertex 118.5005187816001 2.901795321801037 -11.731136737308983
    vertex 118.5005187816001 -0.8999999058065219 -9.000000000000012
  endloop
endfacet
facet normal -2.8181492850094797e-16 0.583438325710926 0.8121574478459406
  outer loop
    vertex 118.5005187816001 2.901795321801037 -11.731136737308983
    vertex 127.28800735443761 -0.8999999058065219 -9.000000000000009
    vertex 127.28800735443761 2.901795321801037 -11.73113673730898
  endloop
endfacet
facet normal 2.4103071122885016e-16 9.399888275159677e-16 -1.0
  outer loop
    vertex 147.50021005388848 -2.999999905806529 -24.000000000000007
    vertex 118.5005187816001 -4.999999905806526 -24.000000000000014
    vertex 118.5005187816001 -2.999999905806529 -24.00000000000001
  endloop
endfacet
facet normal 2.4103071122885016e-16 9.399888275159677e-16 -1.0
  outer loop
    vertex 118.5005187816001 -4.999999905806526 -24.000000000000014
    vertex 147.50021005388848 -2.999999905806529 -24.000000000000007
    vertex 147.50021005388848 -4.999999905806526 -24.000000000000007
  endloop
endfacet
facet normal 2.6774050384402847e-16 0.5887168776075833 -0.808339308718794
  outer loop
    vertex 127.28800735443761 2.901795321801037 -16.23113673730898
    vertex 118.5005187816001 -0.8999999058065219 -19.000000000000014
    vertex 118.5005187816001 2.901795321801037 -16.23113673730898
  endloop
endfacet
facet normal 2.6774050384402847e-16 0.5887168776075833 -0.808339308718794
  outer loop
    vertex 118.5005187816001 -0.8999999058065219 -19.000000000000014
    vertex 127.28800735443761 2.901795321801037 -16.23113673730898
    vertex 127.28800735443761 -0.8999999058065219 -19.00000000000001
  endloop
endfacet
facet normal -3.3476931479242017e-16 -0.0 1.0
  outer loop
    vertex 127.28800735443761 -2.999999905806529 -11.60000000000001
    vertex 118.5005187816001 -0.8999999058065219 -11.600000000000012
    vertex 118.5005187816001 -2.999999905806529 -11.600000000000012
  endloop
endfacet
facet normal -3.3476931479242017e-16 -0.0 1.0
  outer loop
    vertex 118.5005187816001 -0.8999999058065219 -11.600000000000012
    vertex 127.28800735443761 -2.999999905806529 -11.60000000000001
    vertex 127.28800735443761 -0.8999999058065219 -11.60000000000001
  endloop
endfacet
facet normal 1.0 0.0 0.0
  outer loop
    vertex 127.28800735443761 2.901795321801037 -16.23113673730898
    vertex 127.28800735443761 -0.8999999058065219 -16.40000000000001
    vertex 127.28800735443761 -0.8999999058065219 -19.00000000000001
  endloop
endfacet
facet normal 1.0 0.0 0.0
  outer loop
    vertex 127.28800735443761 -0.8999999058065219 -16.40000000000001
    vertex 127.28800735443761 2.901795321801037 -16.23113673730898
    vertex 127.28800735443761 -0.8999999058065219 -11.60000000000001
  endloop
endfacet
facet normal 1.0 0.0 0.0
  outer loop
    vertex 127.28800735443761 -0.8999999058065219 -11.60000000000001
    vertex 127.28800735443761 2.901795321801037 -16.23113673730898
    vertex 127.28800735443761 -0.8999999058065219 -9.000000000000009
  endloop
endfacet
facet normal 1.0 0.0 0.0
  outer loop
    vertex 127.28800735443761 -0.8999999058065219 -9.000000000000009
    vertex 127.28800735443761 2.901795321801037 -16.23113673730898
    vertex 127.28800735443761 2.901795321801037 -11.73113673730898
  endloop
endfacet
facet normal 1.0 0.0 0.0
  outer loop
    vertex 127.28800735443761 -0.8999999058065219 -16.40000000000001
    vertex 127.28800735443761 -2.999999905806529 -11.60000000000001
    vertex 127.28800735443761 -2.999999905806529 -16.40000000000001
  endloop
endfacet
facet normal 1.0 0.0 0.0
  outer loop
    vertex 127.28800735443761 -2.999999905806529 -11.60000000000001
    vertex 127.28800735443761 -0.8999999058065219 -16.40000000000001
    vertex 127.28800735443761 -0.8999999058065219 -11.60000000000001
  endloop
endfacet
facet normal 0.13052423446639375 -2.6536106207725016e-05 0.9914451187598823
  outer loop
    vertex 132.48271041243345 -5.000614152264987 -15.931852673354888
    vertex 133.0002583991645 -3.000167360136686 -15.999934576651363
    vertex 132.48262017520415 -3.0001929390092053 -15.931787252149212
  endloop
endfacet
facet normal 0.13052423446639375 -2.6536106207725016e-05 0.9914451187598823
  outer loop
    vertex 133.0002583991645 -3.000167360136686 -15.999934576651363
    vertex 132.48271041243345 -5.000614152264987 -15.931852673354888
    vertex 133.0003486363938 -5.000588573392472 -15.999999997857039
  endloop
endfacet
facet normal -0.13052814970761092 -3.831193117974003e-05 0.9914446029234832
  outer loop
    vertex 133.0003486363938 -5.000588573392472 -15.999999997857039
    vertex 133.51789635400525 -3.000146238684603 -15.931785206455825
    vertex 133.0002583991645 -3.000167360136686 -15.999934576651363
  endloop
endfacet
facet normal -0.13052814970761092 -3.831193117974003e-05 0.9914446029234832
  outer loop
    vertex 133.51789635400525 -3.000146238684603 -15.931785206455825
    vertex 133.0003486363938 -5.000588573392472 -15.999999997857039
    vertex 133.51798659123457 -5.000567451940385 -15.9318506276615
  endloop
endfacet
facet normal -0.38268525618699356 -4.747686135531498e-05 0.9238787758375244
  outer loop
    vertex 133.51798659123457 -5.000567451940385 -15.9318506276615
    vertex 134.00025786854124 -3.000131014044997 -15.731983408519266
    vertex 133.51789635400525 -3.000146238684603 -15.931785206455825
  endloop
endfacet
facet normal -0.38268525618699356 -4.747686135531498e-05 0.9238787758375244
  outer loop
    vertex 134.00025786854124 -3.000131014044997 -15.731983408519266
    vertex 133.51798659123457 -5.000567451940385 -15.9318506276615
    vertex 134.00034810577054 -5.000552227300781 -15.732048829724942
  endloop
endfacet
facet normal -0.6087629948745288 -5.340632188874859e-05 0.7933521369601014
  outer loop
    vertex 134.00034810577054 -5.000552227300781 -15.732048829724942
    vertex 134.41447080269685 -3.000122723751903 -15.41414534518298
    vertex 134.00025786854124 -3.000131014044997 -15.731983408519266
  endloop
endfacet
facet normal -0.6087629948745288 -5.340632188874859e-05 0.7933521369601014
  outer loop
    vertex 134.41447080269685 -3.000122723751903 -15.41414534518298
    vertex 134.00034810577054 -5.000552227300781 -15.732048829724942
    vertex 134.41456103992616 -5.0005439370076905 -15.414210766388656
  endloop
endfacet
facet normal -0.7933545414897617 -5.569622984358372e-05 0.6087598610252649
  outer loop
    vertex 134.73239746675802 -5.0005431460308865 -14.99999657641678
    vertex 134.41447080269685 -3.000122723751903 -15.41414534518298
    vertex 134.41456103992616 -5.0005439370076905 -15.414210766388656
  endloop
endfacet
facet normal -0.7933545414897617 -5.569622984358372e-05 0.6087598610252649
  outer loop
    vertex 134.41447080269685 -3.000122723751903 -15.41414534518298
    vertex 134.73239746675802 -5.0005431460308865 -14.99999657641678
    vertex 134.73230722952871 -3.000121932775105 -14.999931155211103
  endloop
endfacet
facet normal -0.9238802871828656 -5.419053177695049e-05 0.3826816065847586
  outer loop
    vertex 134.93210712179766 -3.0001286950183417 -14.517568851128903
    vertex 134.73239746675802 -5.0005431460308865 -14.99999657641678
    vertex 134.93219735902696 -5.000549908274132 -14.517634272334579
  endloop
endfacet
facet normal -0.9238802871828656 -5.419053177695049e-05 0.3826816065847586
  outer loop
    vertex 134.73239746675802 -5.0005431460308865 -14.99999657641678
    vertex 134.93210712179766 -3.0001286950183417 -14.517568851128903
    vertex 134.73230722952871 -3.000121932775105 -14.999931155211103
  endloop
endfacet
facet normal -0.9914451180888103 -4.899183852380563e-05 0.13052423306675645
  outer loop
    vertex 135.00025444703056 -3.000142549645938 -13.999930626818179
    vertex 134.93219735902696 -5.000549908274132 -14.517634272334579
    vertex 135.00034468425986 -5.000563762901722 -13.999996048023856
  endloop
endfacet
facet normal -0.9914451180888103 -4.899183852380563e-05 0.13052423306675645
  outer loop
    vertex 134.93219735902696 -5.000549908274132 -14.517634272334579
    vertex 135.00025444703056 -3.000142549645938 -13.999930626818179
    vertex 134.93210712179766 -3.0001286950183417 -14.517568851128903
  endloop
endfacet
facet normal -0.9914446026375245 -4.045443243810578e-05 -0.13052815123321093
  outer loop
    vertex 134.93210507763155 -3.0001625524878954 -13.482292671828102
    vertex 135.00034468425986 -5.000563762901722 -13.999996048023856
    vertex 134.93219531486085 -5.000583765743686 -13.482358093033778
  endloop
endfacet
facet normal -0.9914446026375245 -4.045443243810578e-05 -0.13052815123321093
  outer loop
    vertex 135.00034468425986 -5.000563762901722 -13.999996048023856
    vertex 134.93210507763155 -3.0001625524878954 -13.482292671828102
    vertex 135.00025444703056 -3.000142549645938 -13.999930626818179
  endloop
endfacet
facet normal -0.9238787759561654 -2.9160123635858545e-05 -0.38268525773463596
  outer loop
    vertex 134.73230328050303 -3.000187340383617 -12.999931157354075
    vertex 134.93219531486085 -5.000583765743686 -13.482358093033778
    vertex 134.73239351773233 -5.000608553639397 -12.999996578559752
  endloop
endfacet
facet normal -0.9238787759561654 -2.9160123635858545e-05 -0.38268525773463596
  outer loop
    vertex 134.93219531486085 -5.000583765743686 -13.482358093033778
    vertex 134.73230328050303 -3.000187340383617 -12.999931157354075
    vertex 134.93210507763155 -3.0001625524878954 -13.482292671828102
  endloop
endfacet
facet normal -0.7933521374752506 -1.5878600597209765e-05 -0.6087629963387405
  outer loop
    vertex 134.4144652179312 -3.0002152240789473 -12.585718223467401
    vertex 134.73239351773233 -5.000608553639397 -12.999996578559752
    vertex 134.4145554551605 -5.000636437334729 -12.585783644673086
  endloop
endfacet
facet normal -0.7933521374752506 -1.5878600597209765e-05 -0.6087629963387405
  outer loop
    vertex 134.73239351773233 -5.000608553639397 -12.999996578559752
    vertex 134.4144652179312 -3.0002152240789473 -12.585718223467401
    vertex 134.73230328050303 -3.000187340383617 -12.999931157354075
  endloop
endfacet
facet normal -0.608759861901822 -1.5149771684916061e-06 -0.7933545427707462
  outer loop
    vertex 134.4144652179312 -3.0002152240789473 -12.585718223467401
    vertex 134.00034126585743 -5.000665516601924 -12.267947218298923
    vertex 134.00025102862813 -3.000244303346139 -12.267881797093239
  endloop
endfacet
facet normal -0.608759861901822 -1.5149771684916061e-06 -0.7933545427707462
  outer loop
    vertex 134.00034126585743 -5.000665516601924 -12.267947218298923
    vertex 134.4144652179312 -3.0002152240789473 -12.585718223467401
    vertex 134.4145554551605 -5.000636437334729 -12.585783644673086
  endloop
endfacet
facet normal -0.38268160776298427 1.2951889450643827e-05 -0.9238802881933278
  outer loop
    vertex 134.00025102862813 -3.000244303346139 -12.267881797093239
    vertex 133.51797896230278 -5.000693809736977 -12.068147326645128
    vertex 133.51788872507348 -3.0002725964811896 -12.068081905439444
  endloop
endfacet
facet normal -0.38268160776298427 1.2951889450643827e-05 -0.9238802881933278
  outer loop
    vertex 133.51797896230278 -5.000693809736977 -12.068147326645128
    vertex 134.00025102862813 -3.000244303346139 -12.267881797093239
    vertex 134.00034126585743 -5.000665516601924 -12.267947218298923
  endloop
endfacet
facet normal -0.1305242344663911 2.6536106207725155e-05 -0.9914451187598827
  outer loop
    vertex 133.51788872507348 -3.0002725964811896 -12.068081905439444
    vertex 133.00034073834243 -5.000719388609493 -12.00000000214298
    vertex 133.00025050111313 -3.000298175353709 -11.999934580937294
  endloop
endfacet
facet normal -0.1305242344663911 2.6536106207725155e-05 -0.9914451187598827
  outer loop
    vertex 133.00034073834243 -5.000719388609493 -12.00000000214298
    vertex 133.51788872507348 -3.0002725964811896 -12.068081905439444
    vertex 133.51797896230278 -5.000693809736977 -12.068147326645128
  endloop
endfacet
facet normal 0.1305281497076027 3.83119311797397e-05 -0.9914446029234845
  outer loop
    vertex 133.00025050111313 -3.000298175353709 -11.999934580937294
    vertex 132.48270278350165 -5.00074051006158 -12.068149372338516
    vertex 132.48261254627235 -3.0003192968057917 -12.06808395113283
  endloop
endfacet
facet normal 0.1305281497076027 3.83119311797397e-05 -0.9914446029234845
  outer loop
    vertex 132.48270278350165 -5.00074051006158 -12.068149372338516
    vertex 133.00025050111313 -3.000298175353709 -11.999934580937294
    vertex 133.00034073834243 -5.000719388609493 -12.00000000214298
  endloop
endfacet
facet normal 0.3826852561870088 4.747686135531546e-05 -0.9238787758375181
  outer loop
    vertex 132.48261254627235 -3.0003192968057917 -12.06808395113283
    vertex 132.00034126896568 -5.000755734701183 -12.267951170275074
    vertex 132.00025103173638 -3.000334521445398 -12.26788574906939
  endloop
endfacet
facet normal 0.3826852561870088 4.747686135531546e-05 -0.9238787758375181
  outer loop
    vertex 132.00034126896568 -5.000755734701183 -12.267951170275074
    vertex 132.48261254627235 -3.0003192968057917 -12.06808395113283
    vertex 132.48270278350165 -5.00074051006158 -12.068149372338516
  endloop
endfacet
facet normal 0.6087629948745271 5.340632188874855e-05 -0.7933521369601026
  outer loop
    vertex 132.00025103173638 -3.000334521445398 -12.26788574906939
    vertex 131.58612833481007 -5.0007640249942735 -12.585789233611358
    vertex 131.58603809758077 -3.000342811738492 -12.585723812405673
  endloop
endfacet
facet normal 0.6087629948745271 5.340632188874855e-05 -0.7933521369601026
  outer loop
    vertex 131.58612833481007 -5.0007640249942735 -12.585789233611358
    vertex 132.00025103173638 -3.000334521445398 -12.26788574906939
    vertex 132.00034126896568 -5.000755734701183 -12.267951170275074
  endloop
endfacet
facet normal 0.7933545414897628 5.569622984358373e-05 -0.6087598610252637
  outer loop
    vertex 131.26820167074894 -3.0003436027152897 -12.99993800237756
    vertex 131.58612833481007 -5.0007640249942735 -12.585789233611358
    vertex 131.26829190797824 -5.000764815971078 -13.000003423583237
  endloop
endfacet
facet normal 0.7933545414897628 5.569622984358373e-05 -0.6087598610252637
  outer loop
    vertex 131.58612833481007 -5.0007640249942735 -12.585789233611358
    vertex 131.26820167074894 -3.0003436027152897 -12.99993800237756
    vertex 131.58603809758077 -3.000342811738492 -12.585723812405673
  endloop
endfacet
facet normal 0.9238802871828656 5.419053177695049e-05 -0.3826816065847586
  outer loop
    vertex 131.06849201570927 -5.000758053727833 -13.482365727665437
    vertex 131.26820167074894 -3.0003436027152897 -12.99993800237756
    vertex 131.26829190797824 -5.000764815971078 -13.000003423583237
  endloop
endfacet
facet normal 0.9238802871828656 5.419053177695049e-05 -0.3826816065847586
  outer loop
    vertex 131.26820167074894 -3.0003436027152897 -12.99993800237756
    vertex 131.06849201570927 -5.000758053727833 -13.482365727665437
    vertex 131.06840177847997 -3.000336840472053 -13.482300306459761
  endloop
endfacet
facet normal 0.9914451180888103 4.899183852380563e-05 -0.13052423306675645
  outer loop
    vertex 131.00034469047637 -5.000744199100242 -14.000003951976161
    vertex 131.06840177847997 -3.000336840472053 -13.482300306459761
    vertex 131.06849201570927 -5.000758053727833 -13.482365727665437
  endloop
endfacet
facet normal 0.9914451180888103 4.899183852380563e-05 -0.13052423306675645
  outer loop
    vertex 131.06840177847997 -3.000336840472053 -13.482300306459761
    vertex 131.00034469047637 -5.000744199100242 -14.000003951976161
    vertex 131.00025445324707 -3.000322985844457 -13.999938530770484
  endloop
endfacet
facet normal 0.9914446026375245 4.045443243810578e-05 0.13052815123321093
  outer loop
    vertex 131.06849405987538 -5.000724196258279 -14.517641906966238
    vertex 131.00025445324707 -3.000322985844457 -13.999938530770484
    vertex 131.00034469047637 -5.000744199100242 -14.000003951976161
  endloop
endfacet
facet normal 0.9914446026375245 4.045443243810578e-05 0.13052815123321093
  outer loop
    vertex 131.00025445324707 -3.000322985844457 -13.999938530770484
    vertex 131.06849405987538 -5.000724196258279 -14.517641906966238
    vertex 131.06840382264608 -3.0003029830024883 -14.517576485760562
  endloop
endfacet
facet normal 0.9238787759561654 2.9160123635858545e-05 0.38268525773463596
  outer loop
    vertex 131.2682958570039 -5.000699408362567 -15.000003421440265
    vertex 131.06840382264608 -3.0003029830024883 -14.517576485760562
    vertex 131.06849405987538 -5.000724196258279 -14.517641906966238
  endloop
endfacet
facet normal 0.9238787759561654 2.9160123635858545e-05 0.38268525773463596
  outer loop
    vertex 131.06840382264608 -3.0003029830024883 -14.517576485760562
    vertex 131.2682958570039 -5.000699408362567 -15.000003421440265
    vertex 131.2682056197746 -3.000278195106778 -14.999938000234588
  endloop
endfacet
facet normal 0.7933521374752506 1.5878600597209765e-05 0.6087629963387405
  outer loop
    vertex 131.58613391957573 -5.0006715246672355 -15.41421635532693
    vertex 131.2682056197746 -3.000278195106778 -14.999938000234588
    vertex 131.2682958570039 -5.000699408362567 -15.000003421440265
  endloop
endfacet
facet normal 0.7933521374752506 1.5878600597209765e-05 0.6087629963387405
  outer loop
    vertex 131.2682056197746 -3.000278195106778 -14.999938000234588
    vertex 131.58613391957573 -5.0006715246672355 -15.41421635532693
    vertex 131.58604368234643 -3.0002503114114476 -15.414150934121254
  endloop
endfacet
facet normal 0.6087598619018236 1.5149771684917268e-06 0.7933545427707448
  outer loop
    vertex 131.58613391957573 -5.0006715246672355 -15.41421635532693
    vertex 132.0002578716495 -3.000221232144256 -15.731987360495419
    vertex 131.58604368234643 -3.0002503114114476 -15.414150934121254
  endloop
endfacet
facet normal 0.6087598619018236 1.5149771684917268e-06 0.7933545427707448
  outer loop
    vertex 132.0002578716495 -3.000221232144256 -15.731987360495419
    vertex 131.58613391957573 -5.0006715246672355 -15.41421635532693
    vertex 132.0003481088788 -5.000642445400041 -15.732052781701094
  endloop
endfacet
facet normal 0.382681607762982 -1.2951889450643965e-05 0.9238802881933287
  outer loop
    vertex 132.0003481088788 -5.000642445400041 -15.732052781701094
    vertex 132.48262017520415 -3.0001929390092053 -15.931787252149212
    vertex 132.0002578716495 -3.000221232144256 -15.731987360495419
  endloop
endfacet
facet normal 0.382681607762982 -1.2951889450643965e-05 0.9238802881933287
  outer loop
    vertex 132.48262017520415 -3.0001929390092053 -15.931787252149212
    vertex 132.0003481088788 -5.000642445400041 -15.732052781701094
    vertex 132.48271041243345 -5.000614152264987 -15.931852673354888
  endloop
endfacet
facet normal -0.9999999998882239 -1.2399103986537322e-05 -8.355525806096077e-06
  outer loop
    vertex 118.49945803887576 17.000478881413482 45.40009228713649
    vertex 118.50043554318773 -5.500031078308282 43.3999331996295
    vertex 118.49967489669727 -7.499982701508394 45.40006887829322
  endloop
endfacet
facet normal -0.9999999998882239 -1.2399103986537322e-05 -8.355525806096077e-06
  outer loop
    vertex 118.50043554318773 -5.500031078308282 43.3999331996295
    vertex 118.49945803887576 17.000478881413482 45.40009228713649
    vertex 118.50043554318773 -4.000002429035758 43.39999392736732
  endloop
endfacet
facet normal -0.9999999998882239 -1.2399103986537322e-05 -8.355525806096077e-06
  outer loop
    vertex 118.50043554318773 -4.000002429035758 43.39999392736732
    vertex 118.49945803887576 17.000478881413482 45.40009228713649
    vertex 118.50043554318773 -1.000002429035758 43.39999392736732
  endloop
endfacet
facet normal -0.9999999998882239 -1.2399103986537322e-05 -8.355525806096077e-06
  outer loop
    vertex 118.50043554318773 -1.000002429035758 43.39999392736732
    vertex 118.49945803887576 17.000478881413482 45.40009228713649
    vertex 118.50043554318773 -1.000002429035758 41.39999392736732
  endloop
endfacet
facet normal -0.9999999998882239 -1.2399103986537322e-05 -8.355525806096077e-06
  outer loop
    vertex 118.50043554318773 -1.000002429035758 41.39999392736732
    vertex 118.49945803887576 17.000478881413482 45.40009228713649
    vertex 118.50034037312105 13.999999999999996 19.2
  endloop
endfacet
facet normal -0.9999999998882239 -1.2399103986537322e-05 -8.355525806096077e-06
  outer loop
    vertex 118.50034037312105 13.999999999999996 19.2
    vertex 118.49945803887576 17.000478881413482 45.40009228713649
    vertex 118.50039450173776 14.000000000030163 4.199981781704751
  endloop
endfacet
facet normal -0.9999999998882239 -1.2399103986537322e-05 -8.355525806096077e-06
  outer loop
    vertex 118.50039450173776 14.000000000030163 4.199981781704751
    vertex 118.49945803887576 17.000478881413482 45.40009228713649
    vertex 118.50039450173776 17.000021277939595 4.199981781704751
  endloop
endfacet
facet normal -0.9999999998882239 -1.2399103986537322e-05 -8.355525806096077e-06
  outer loop
    vertex 118.50043554318773 -1.000002429035758 41.39999392736732
    vertex 118.50030858229171 -3.9999999999999996 19.2
    vertex 118.50043554318773 -4.000002429035758 41.39999392736732
  endloop
endfacet
facet normal -0.9999999998882239 -1.2399103986537322e-05 -8.355525806096077e-06
  outer loop
    vertex 118.50030858229171 -3.9999999999999996 19.2
    vertex 118.50043554318773 -1.000002429035758 41.39999392736732
    vertex 118.50034037312105 13.999999999999996 19.2
  endloop
endfacet
facet normal -0.9999999998882239 -1.2399103986537322e-05 -8.355525806096077e-06
  outer loop
    vertex 118.49967489669727 -7.499982701508394 45.40006887829322
    vertex 118.50043574560908 -5.500028649272525 4.199939272262181
    vertex 118.50043574560908 -7.500049914170576 4.199939272262181
  endloop
endfacet
facet normal -0.9999999998882239 -1.2399103986537322e-05 -8.355525806096077e-06
  outer loop
    vertex 118.50043574560908 -5.500028649272525 4.199939272262181
    vertex 118.49967489669727 -7.499982701508394 45.40006887829322
    vertex 118.50043554318773 -5.500031078308282 43.3999331996295
  endloop
endfacet
facet normal 3.7561958836506526e-05 0.9999999991770052 1.5332613183406206e-05
  outer loop
    vertex 118.49945803887576 17.000478881413482 45.40009228713649
    vertex 147.5002100538885 17.000021277939595 4.199981781704751
    vertex 118.50039450173776 17.000021277939595 4.199981781704751
  endloop
endfacet
facet normal 3.7561958836506526e-05 0.9999999991770052 1.5332613183406206e-05
  outer loop
    vertex 147.5002100538885 17.000021277939595 4.199981781704751
    vertex 118.49945803887576 17.000478881413482 45.40009228713649
    vertex 147.5001676699995 16.998300300994906 45.40013531284845
  endloop
endfacet
facet normal 0.9999999999879468 4.603049072756135e-06 -1.7084003677716097e-06
  outer loop
    vertex 147.5002100538885 17.000021277939595 4.199981781704751
    vertex 147.50039321888073 -7.499998299259473 45.399480175080505
    vertex 147.5002100538885 -7.500043394449836 4.199981781704751
  endloop
endfacet
facet normal 0.9999999999879468 4.603049072756135e-06 -1.7084003677716097e-06
  outer loop
    vertex 147.50039321888073 -7.499998299259473 45.399480175080505
    vertex 147.5002100538885 17.000021277939595 4.199981781704751
    vertex 147.5001676699995 16.998300300994906 45.40013531284845
  endloop
endfacet
facet normal -1.5650980619286077e-07 -0.999999999999059 1.3629664875484066e-06
  outer loop
    vertex 147.5002100538885 -7.500043394449836 4.199981781704751
    vertex 118.49967489669727 -7.499982701508394 45.40006887829322
    vertex 118.50043574560908 -7.500049914170576 4.199939272262181
  endloop
endfacet
facet normal -1.5650980619286077e-07 -0.999999999999059 1.3629664875484066e-06
  outer loop
    vertex 118.49967489669727 -7.499982701508394 45.40006887829322
    vertex 147.5002100538885 -7.500043394449836 4.199981781704751
    vertex 147.50039321888073 -7.499998299259473 45.399480175080505
  endloop
endfacet
facet normal -9.697674965715595e-07 -1.1462210338299416e-06 0.9999999999988729
  outer loop
    vertex 147.5002100538885 -7.500043394449836 4.199981781704751
    vertex 118.50043574560908 -5.500028649272525 4.199939272262181
    vertex 118.50043574560908 -7.500049914170576 4.199939272262181
  endloop
endfacet
facet normal -9.697674965715595e-07 -1.1462210338299416e-06 0.9999999999988729
  outer loop
    vertex 118.50043574560908 -5.500028649272525 4.199939272262181
    vertex 147.5002100538885 -7.500043394449836 4.199981781704751
    vertex 144.50043574554385 -5.500000000000001 4.200000000000001
  endloop
endfacet
facet normal -9.697674965715595e-07 -1.1462210338299416e-06 0.9999999999988729
  outer loop
    vertex 144.50043574554385 -5.500000000000001 4.200000000000001
    vertex 147.5002100538885 -7.500043394449836 4.199981781704751
    vertex 144.50043574554385 -3.9999999999999996 4.200000000000001
  endloop
endfacet
facet normal -9.697674965715595e-07 -1.1462210338299416e-06 0.9999999999988729
  outer loop
    vertex 125.50039450157317 14.000001364527666 4.200029763505845
    vertex 118.50039450173776 17.000021277939595 4.199981781704751
    vertex 118.50039450173776 14.000000000030163 4.199981781704751
  endloop
endfacet
facet normal -9.697674965715595e-07 -1.1462210338299416e-06 0.9999999999988729
  outer loop
    vertex 118.50039450173776 17.000021277939595 4.199981781704751
    vertex 125.50039450157317 14.000001364527666 4.200029763505845
    vertex 147.5002100538885 17.000021277939595 4.199981781704751
  endloop
endfacet
facet normal -9.697674965715595e-07 -1.1462210338299416e-06 0.9999999999988729
  outer loop
    vertex 147.5002100538885 17.000021277939595 4.199981781704751
    vertex 125.50039450157317 14.000001364527666 4.200029763505845
    vertex 125.50043574544449 -3.999998635502498 4.199987254063278
  endloop
endfacet
facet normal -9.697674965715595e-07 -1.1462210338299416e-06 0.9999999999988729
  outer loop
    vertex 147.5002100538885 17.000021277939595 4.199981781704751
    vertex 125.50043574544449 -3.999998635502498 4.199987254063278
    vertex 144.50043574554385 -3.9999999999999996 4.200000000000001
  endloop
endfacet
facet normal -9.697674965715595e-07 -1.1462210338299416e-06 0.9999999999988729
  outer loop
    vertex 147.5002100538885 17.000021277939595 4.199981781704751
    vertex 144.50043574554385 -3.9999999999999996 4.200000000000001
    vertex 147.5002100538885 -7.500043394449836 4.199981781704751
  endloop
endfacet
facet normal 0.9999999999912939 8.755956110206305e-07 -4.079908269075306e-06
  outer loop
    vertex 147.50021005388848 -2.999999905806529 -24.000000000000007
    vertex 147.5002100538885 -4.999999905806526 -4.000000000000007
    vertex 147.50021005388848 -4.999999905806526 -24.000000000000007
  endloop
endfacet
facet normal 0.9999999999912939 8.755956110206305e-07 -4.079908269075306e-06
  outer loop
    vertex 147.50021005388848 2.901795321801037 -16.231136737308976
    vertex 147.50021005388848 -0.8999999058065219 -16.400000000000006
    vertex 147.50021005388848 -0.8999999058065219 -19.000000000000007
  endloop
endfacet
facet normal 0.9999999999912939 8.755956110206305e-07 -4.079908269075306e-06
  outer loop
    vertex 147.50021005388848 -0.8999999058065219 -16.400000000000006
    vertex 147.50021005388848 2.901795321801037 -16.231136737308976
    vertex 147.5002100538885 -0.8999999058065219 -11.600000000000007
  endloop
endfacet
facet normal 0.9999999999912939 8.755956110206305e-07 -4.079908269075306e-06
  outer loop
    vertex 147.5002100538885 -0.8999999058065219 -11.600000000000007
    vertex 147.50021005388848 2.901795321801037 -16.231136737308976
    vertex 147.5002100538885 -0.8999999058065219 -9.000000000000005
  endloop
endfacet
facet normal 0.9999999999912939 8.755956110206305e-07 -4.079908269075306e-06
  outer loop
    vertex 147.5002100538885 -0.8999999058065219 -9.000000000000005
    vertex 147.50021005388848 2.901795321801037 -16.231136737308976
    vertex 147.5002100538885 2.901795321801037 -11.731136737308976
  endloop
endfacet
facet normal 0.9999999999912939 8.755956110206305e-07 -4.079908269075306e-06
  outer loop
    vertex 147.50021005388848 -0.8999999058065219 -16.400000000000006
    vertex 147.5002100538885 -2.999999905806529 -11.600000000000007
    vertex 147.50021005388848 -2.999999905806529 -16.400000000000006
  endloop
endfacet
facet normal 0.9999999999912939 8.755956110206305e-07 -4.079908269075306e-06
  outer loop
    vertex 147.5002100538885 -2.999999905806529 -11.600000000000007
    vertex 147.50021005388848 -0.8999999058065219 -16.400000000000006
    vertex 147.5002100538885 -0.8999999058065219 -11.600000000000007
  endloop
endfacet
facet normal 0.9999999999912939 8.755956110206305e-07 -4.079908269075306e-06
  outer loop
    vertex 147.5002100538885 4.750000094193468 -9.900000000000004
    vertex 147.5002100538885 4.600000094193468 -6.100000000000006
    vertex 147.5002100538885 2.250000094193472 -6.100000000000006
  endloop
endfacet
facet normal 0.9999999999912939 8.755956110206305e-07 -4.079908269075306e-06
  outer loop
    vertex 147.5002100538885 4.600000094193468 -6.100000000000006
    vertex 147.5002100538885 4.750000094193468 -9.900000000000004
    vertex 147.5002100538885 4.600000094193468 -4.000000000000007
  endloop
endfacet
facet normal 0.9999999999912939 8.755956110206305e-07 -4.079908269075306e-06
  outer loop
    vertex 147.5002100538885 11.750000094193465 -6.100000000000006
    vertex 147.5002100538885 9.400000094193471 -6.100000000000006
    vertex 147.5002100538885 9.25000009419347 -9.900000000000004
  endloop
endfacet
facet normal 0.9999999999912939 8.755956110206305e-07 -4.079908269075306e-06
  outer loop
    vertex 147.5002100538885 -4.999999905806526 -4.000000000000007
    vertex 147.50043560276976 17.000021277939595 -2.00029349251552
    vertex 147.50043560276976 -7.500043394449836 -2.00029349251552
  endloop
endfacet
facet normal 0.9999999999912939 8.755956110206305e-07 -4.079908269075306e-06
  outer loop
    vertex 147.50043560276976 17.000021277939595 -2.00029349251552
    vertex 147.5002100538885 -4.999999905806526 -4.000000000000007
    vertex 147.5002100538885 -2.999999905806529 -4.000000000000007
  endloop
endfacet
facet normal 0.9999999999912939 8.755956110206305e-07 -4.079908269075306e-06
  outer loop
    vertex 147.5002100538885 -2.999999905806529 -4.000000000000007
    vertex 147.5002100538885 -4.999999905806526 -4.000000000000007
    vertex 147.50021005388848 -2.999999905806529 -24.000000000000007
  endloop
endfacet
facet normal 0.9999999999912939 8.755956110206305e-07 -4.079908269075306e-06
  outer loop
    vertex 147.5002100538885 -2.999999905806529 -4.000000000000007
    vertex 147.50021005388848 -2.999999905806529 -24.000000000000007
    vertex 147.50021005388848 -2.999999905806529 -16.400000000000006
  endloop
endfacet
facet normal 0.9999999999912939 8.755956110206305e-07 -4.079908269075306e-06
  outer loop
    vertex 147.5002100538885 -2.999999905806529 -4.000000000000007
    vertex 147.50021005388848 -2.999999905806529 -16.400000000000006
    vertex 147.5002100538885 -2.999999905806529 -11.600000000000007
  endloop
endfacet
facet normal 0.9999999999912939 8.755956110206305e-07 -4.079908269075306e-06
  outer loop
    vertex 147.50043560276976 17.000021277939595 -2.00029349251552
    vertex 147.5002100538885 -2.999999905806529 -4.000000000000007
    vertex 147.5002100538885 4.600000094193468 -4.000000000000007
  endloop
endfacet
facet normal 0.9999999999912939 8.755956110206305e-07 -4.079908269075306e-06
  outer loop
    vertex 147.50043560276976 17.000021277939595 -2.00029349251552
    vertex 147.5002100538885 4.600000094193468 -4.000000000000007
    vertex 147.5002100538885 9.400000094193471 -4.000000000000007
  endloop
endfacet
facet normal 0.9999999999912939 8.755956110206305e-07 -4.079908269075306e-06
  outer loop
    vertex 147.5002100538885 9.400000094193471 -4.000000000000007
    vertex 147.5002100538885 4.600000094193468 -4.000000000000007
    vertex 147.5002100538885 4.750000094193468 -9.900000000000004
  endloop
endfacet
facet normal 0.9999999999912939 8.755956110206305e-07 -4.079908269075306e-06
  outer loop
    vertex 147.5002100538885 9.400000094193471 -4.000000000000007
    vertex 147.5002100538885 4.750000094193468 -9.900000000000004
    vertex 147.5002100538885 9.25000009419347 -9.900000000000004
  endloop
endfacet
facet normal 0.9999999999912939 8.755956110206305e-07 -4.079908269075306e-06
  outer loop
    vertex 147.5002100538885 9.400000094193471 -4.000000000000007
    vertex 147.5002100538885 9.25000009419347 -9.900000000000004
    vertex 147.5002100538885 9.400000094193471 -6.100000000000006
  endloop
endfacet
facet normal 0.9999999999912939 8.755956110206305e-07 -4.079908269075306e-06
  outer loop
    vertex 147.50043560276976 17.000021277939595 -2.00029349251552
    vertex 147.5002100538885 9.400000094193471 -4.000000000000007
    vertex 147.5002100538885 17.000000094193467 -4.000000000000007
  endloop
endfacet
facet normal -2.798531573926265e-11 0.999999999943894 -1.0593021760387319e-05
  outer loop
    vertex 118.5005187816001 17.000021277939595 -2.0001402682033063
    vertex 147.5002100538885 17.000000094193467 -4.000000000000007
    vertex 118.5005187816001 17.000000094193446 -4.000000000000012
  endloop
endfacet
facet normal -2.798531573926265e-11 0.999999999943894 -1.0593021760387319e-05
  outer loop
    vertex 147.5002100538885 17.000000094193467 -4.000000000000007
    vertex 118.5005187816001 17.000021277939595 -2.0001402682033063
    vertex 147.50043560276976 17.000021277939595 -2.00029349251552
  endloop
endfacet
facet normal -5.283612127465904e-06 -1.4189323923952877e-22 -0.9999999999860418
  outer loop
    vertex 147.50043560276976 17.000021277939595 -2.00029349251552
    vertex 118.5005187816001 -7.500049914170576 -2.0001402682033063
    vertex 118.5005187816001 17.000021277939595 -2.0001402682033063
  endloop
endfacet
facet normal -5.283612127465904e-06 -1.4189323923952877e-22 -0.9999999999860418
  outer loop
    vertex 118.5005187816001 -7.500049914170576 -2.0001402682033063
    vertex 147.50043560276976 17.000021277939595 -2.00029349251552
    vertex 147.50043560276976 -7.500043394449836 -2.00029349251552
  endloop
endfacet
facet normal 2.2065904363507014e-05 -0.6248183341550825 -0.7807701638874042
  outer loop
    vertex 147.5002100538885 -4.999999905806526 -4.000000000000007
    vertex 118.5005187816001 -7.500049914170576 -2.0001402682033063
    vertex 118.50043986009541 -5.002616206584352 -4.000000000000007
  endloop
endfacet
facet normal 2.2065904363507014e-05 -0.6248183341550825 -0.7807701638874042
  outer loop
    vertex 118.5005187816001 -7.500049914170576 -2.0001402682033063
    vertex 147.5002100538885 -4.999999905806526 -4.000000000000007
    vertex 147.50043560276976 -7.500043394449836 -2.00029349251552
  endloop
endfacet
facet normal -0.9999999999990734 9.888246730266593e-07 -9.356983596679498e-07
  outer loop
    vertex 118.5005187816001 4.750000094193468 -9.90000000000001
    vertex 118.5005187816001 2.250000094193472 -6.100000000000011
    vertex 118.5005187816001 4.600000094193468 -6.100000000000011
  endloop
endfacet
facet normal -0.9999999999990734 9.888246730266593e-07 -9.356983596679498e-07
  outer loop
    vertex 118.5005187816001 17.000021277939595 -2.0001402682033063
    vertex 118.50043986009541 -5.002616206584352 -4.000000000000007
    vertex 118.5005187816001 -7.500049914170576 -2.0001402682033063
  endloop
endfacet
facet normal -0.9999999999990734 9.888246730266593e-07 -9.356983596679498e-07
  outer loop
    vertex 118.50043986009541 -5.002616206584352 -4.000000000000007
    vertex 118.5005187816001 17.000021277939595 -2.0001402682033063
    vertex 118.5005187816001 -2.999999905806529 -4.000000000000012
  endloop
endfacet
facet normal -0.9999999999990734 9.888246730266593e-07 -9.356983596679498e-07
  outer loop
    vertex 118.50043986009541 -5.002616206584352 -4.000000000000007
    vertex 118.5005187816001 -2.999999905806529 -4.000000000000012
    vertex 118.5005187816001 -4.999999905806526 -24.000000000000014
  endloop
endfacet
facet normal -0.9999999999990734 9.888246730266593e-07 -9.356983596679498e-07
  outer loop
    vertex 118.5005187816001 -2.999999905806529 -4.000000000000012
    vertex 118.5005187816001 17.000021277939595 -2.0001402682033063
    vertex 118.5005187816001 4.600000094193468 -4.000000000000012
  endloop
endfacet
facet normal -0.9999999999990734 9.888246730266593e-07 -9.356983596679498e-07
  outer loop
    vertex 118.5005187816001 4.600000094193468 -4.000000000000012
    vertex 118.5005187816001 17.000021277939595 -2.0001402682033063
    vertex 118.5005187816001 9.400000094193471 -4.000000000000012
  endloop
endfacet
facet normal -0.9999999999990734 9.888246730266593e-07 -9.356983596679498e-07
  outer loop
    vertex 118.5005187816001 4.600000094193468 -4.000000000000012
    vertex 118.5005187816001 9.400000094193471 -4.000000000000012
    vertex 118.5005187816001 4.600000094193468 -6.100000000000011
  endloop
endfacet
facet normal -0.9999999999990734 9.888246730266593e-07 -9.356983596679498e-07
  outer loop
    vertex 118.5005187816001 4.600000094193468 -6.100000000000011
    vertex 118.5005187816001 9.400000094193471 -4.000000000000012
    vertex 118.5005187816001 4.750000094193468 -9.90000000000001
  endloop
endfacet
facet normal -0.9999999999990734 9.888246730266593e-07 -9.356983596679498e-07
  outer loop
    vertex 118.5005187816001 4.750000094193468 -9.90000000000001
    vertex 118.5005187816001 9.400000094193471 -4.000000000000012
    vertex 118.5005187816001 9.25000009419347 -9.90000000000001
  endloop
endfacet
facet normal -0.9999999999990734 9.888246730266593e-07 -9.356983596679498e-07
  outer loop
    vertex 118.5005187816001 9.400000094193471 -4.000000000000012
    vertex 118.5005187816001 17.000021277939595 -2.0001402682033063
    vertex 118.5005187816001 17.000000094193446 -4.000000000000012
  endloop
endfacet
facet normal -0.9999999999990734 9.888246730266593e-07 -9.356983596679498e-07
  outer loop
    vertex 118.5005187816001 9.25000009419347 -9.90000000000001
    vertex 118.5005187816001 9.400000094193471 -6.100000000000011
    vertex 118.5005187816001 11.750000094193465 -6.100000000000011
  endloop
endfacet
facet normal -0.9999999999990734 9.888246730266593e-07 -9.356983596679498e-07
  outer loop
    vertex 118.5005187816001 9.400000094193471 -6.100000000000011
    vertex 118.5005187816001 9.25000009419347 -9.90000000000001
    vertex 118.5005187816001 9.400000094193471 -4.000000000000012
  endloop
endfacet
facet normal -0.9999999999990734 9.888246730266593e-07 -9.356983596679498e-07
  outer loop
    vertex 118.5005187816001 2.901795321801037 -11.731136737308983
    vertex 118.5005187816001 -0.8999999058065219 -11.600000000000012
    vertex 118.5005187816001 -0.8999999058065219 -9.000000000000012
  endloop
endfacet
facet normal -0.9999999999990734 9.888246730266593e-07 -9.356983596679498e-07
  outer loop
    vertex 118.5005187816001 -0.8999999058065219 -11.600000000000012
    vertex 118.5005187816001 2.901795321801037 -11.731136737308983
    vertex 118.5005187816001 -0.8999999058065219 -16.400000000000013
  endloop
endfacet
facet normal -0.9999999999990734 9.888246730266593e-07 -9.356983596679498e-07
  outer loop
    vertex 118.5005187816001 -0.8999999058065219 -16.400000000000013
    vertex 118.5005187816001 2.901795321801037 -11.731136737308983
    vertex 118.5005187816001 -0.8999999058065219 -19.000000000000014
  endloop
endfacet
facet normal -0.9999999999990734 9.888246730266593e-07 -9.356983596679498e-07
  outer loop
    vertex 118.5005187816001 -0.8999999058065219 -19.000000000000014
    vertex 118.5005187816001 2.901795321801037 -11.731136737308983
    vertex 118.5005187816001 2.901795321801037 -16.23113673730898
  endloop
endfacet
facet normal -0.9999999999990734 9.888246730266593e-07 -9.356983596679498e-07
  outer loop
    vertex 118.5005187816001 -0.8999999058065219 -11.600000000000012
    vertex 118.5005187816001 -2.999999905806529 -16.400000000000013
    vertex 118.5005187816001 -2.999999905806529 -11.600000000000012
  endloop
endfacet
facet normal -0.9999999999990734 9.888246730266593e-07 -9.356983596679498e-07
  outer loop
    vertex 118.5005187816001 -2.999999905806529 -16.400000000000013
    vertex 118.5005187816001 -0.8999999058065219 -11.600000000000012
    vertex 118.5005187816001 -0.8999999058065219 -16.400000000000013
  endloop
endfacet
facet normal -0.9999999999990734 9.888246730266593e-07 -9.356983596679498e-07
  outer loop
    vertex 118.5005187816001 -2.999999905806529 -4.000000000000012
    vertex 118.5005187816001 -2.999999905806529 -24.00000000000001
    vertex 118.5005187816001 -4.999999905806526 -24.000000000000014
  endloop
endfacet
facet normal -0.9999999999990734 9.888246730266593e-07 -9.356983596679498e-07
  outer loop
    vertex 118.5005187816001 -2.999999905806529 -24.00000000000001
    vertex 118.5005187816001 -2.999999905806529 -4.000000000000012
    vertex 118.5005187816001 -2.999999905806529 -11.600000000000012
  endloop
endfacet
facet normal -0.9999999999990734 9.888246730266593e-07 -9.356983596679498e-07
  outer loop
    vertex 118.5005187816001 -2.999999905806529 -24.00000000000001
    vertex 118.5005187816001 -2.999999905806529 -11.600000000000012
    vertex 118.5005187816001 -2.999999905806529 -16.400000000000013
  endloop
endfacet
facet normal -0.9999999998588083 -1.1476324830783806e-06 -1.6765036648363295e-05
  outer loop
    vertex 118.50043574560908 -5.500028649272525 4.199939272262181
    vertex 118.5005187816001 -7.500049914170576 -2.0001402682033063
    vertex 118.50043574560908 -7.500049914170576 4.199939272262181
  endloop
endfacet
facet normal -0.9999999998588083 -1.1476324830783806e-06 -1.6765036648363295e-05
  outer loop
    vertex 118.5005187816001 -7.500049914170576 -2.0001402682033063
    vertex 118.50043574560908 -5.500028649272525 4.199939272262181
    vertex 118.5005187816001 17.000021277939595 -2.0001402682033063
  endloop
endfacet
facet normal -0.9999999998588083 -1.1476324830783806e-06 -1.6765036648363295e-05
  outer loop
    vertex 118.5005187816001 17.000021277939595 -2.0001402682033063
    vertex 118.50043574560908 -5.500028649272525 4.199939272262181
    vertex 118.50039450173776 14.000000000030163 4.199981781704751
  endloop
endfacet
facet normal -0.9999999998588083 -1.1476324830783806e-06 -1.6765036648363295e-05
  outer loop
    vertex 118.5005187816001 17.000021277939595 -2.0001402682033063
    vertex 118.50039450173776 14.000000000030163 4.199981781704751
    vertex 118.50039450173776 17.000021277939595 4.199981781704751
  endloop
endfacet
facet normal -0.0 1.0 -0.0
  outer loop
    vertex 118.5005187816001 17.000021277939595 -2.0001402682033063
    vertex 147.5002100538885 17.000021277939595 4.199981781704751
    vertex 147.50043560276976 17.000021277939595 -2.00029349251552
  endloop
endfacet
facet normal -0.0 1.0 -0.0
  outer loop
    vertex 147.5002100538885 17.000021277939595 4.199981781704751
    vertex 118.5005187816001 17.000021277939595 -2.0001402682033063
    vertex 118.50039450173776 17.000021277939595 4.199981781704751
  endloop
endfacet
facet normal 2.2481915379294184e-07 -0.9999999999999749 5.5947024590210256e-12
  outer loop
    vertex 147.5002100538885 -7.500043394449836 4.199981781704751
    vertex 118.5005187816001 -7.500049914170576 -2.0001402682033063
    vertex 147.50043560276976 -7.500043394449836 -2.00029349251552
  endloop
endfacet
facet normal 2.2481915379294184e-07 -0.9999999999999749 5.5947024590210256e-12
  outer loop
    vertex 118.5005187816001 -7.500049914170576 -2.0001402682033063
    vertex 147.5002100538885 -7.500043394449836 4.199981781704751
    vertex 118.50043574560908 -7.500049914170576 4.199939272262181
  endloop
endfacet
facet normal 0.9999999993383484 -1.059847593484691e-31 3.637723667630486e-05
  outer loop
    vertex 147.50043560276976 17.000021277939595 -2.00029349251552
    vertex 147.5002100538885 -7.500043394449836 4.199981781704751
    vertex 147.50043560276976 -7.500043394449836 -2.00029349251552
  endloop
endfacet
facet normal 0.9999999993383484 -1.059847593484691e-31 3.637723667630486e-05
  outer loop
    vertex 147.5002100538885 -7.500043394449836 4.199981781704751
    vertex 147.50043560276976 17.000021277939595 -2.00029349251552
    vertex 147.5002100538885 17.000021277939595 4.199981781704751
  endloop
endfacet
endsolid gpu_font2
