solid gpu_font1_clamp
facet normal -0.0 -1.0 -0.0
  outer loop
    vertex 31.999961815291883 -14.999958275122218 40.000007873086766
    vertex 30.000031784092617 -14.999647978478302 -1.994968344146654
    vertex 31.999961815291883 -14.999958275122218 -1.995035479424722
  endloop
endfacet
facet normal -0.0 -1.0 -0.0
  outer loop
    vertex 30.000031784092617 -14.999647978478302 -1.994968344146654
    vertex 31.999961815291883 -14.999958275122218 40.000007873086766
    vertex 30.000031784092617 -14.999647978478302 40.000075008364846
  endloop
endfacet
facet normal 1.9753457407396944e-21 -5.049080415035975e-05 0.9999999987253394
  outer loop
    vertex 30.000031784092617 -14.999647978478302 40.000075008364846
    vertex 31.999364561384922 -5.200008656723223 40.0006463637722
    vertex 29.99929420927357 -5.199647836991155 40.00070109679206
  endloop
endfacet
facet normal 1.9753457407396944e-21 -5.049080415035975e-05 0.9999999987253394
  outer loop
    vertex 31.999364561384922 -5.200008656723223 40.0006463637722
    vertex 30.000031784092617 -14.999647978478302 40.000075008364846
    vertex 31.999961815291883 -14.999958275122218 40.000007873086766
  endloop
endfacet
facet normal 0.9999999997352185 2.0754287836063887e-05 9.94095509476253e-06
  outer loop
    vertex 31.999961815291883 -14.999958275122218 -1.995035479424722
    vertex 31.999595163562876 -10.849899139527826 3.2003170190435464
    vertex 31.999961815291883 -14.999958275122218 40.000007873086766
  endloop
endfacet
facet normal 0.9999999997352185 2.0754287836063887e-05 9.94095509476253e-06
  outer loop
    vertex 31.999595163562876 -10.849899139527826 3.2003170190435464
    vertex 31.999961815291883 -14.999958275122218 -1.995035479424722
    vertex 31.999595163562876 -10.781750792105962 2.6826789288385045
  endloop
endfacet
facet normal 0.9999999997352185 2.0754287836063887e-05 9.94095509476253e-06
  outer loop
    vertex 31.999595163562876 -10.781750792105962 2.6826789288385045
    vertex 31.999961815291883 -14.999958275122218 -1.995035479424722
    vertex 31.999595163562876 -10.581949947096703 2.2003170190435464
  endloop
endfacet
facet normal 0.9999999997352185 2.0754287836063887e-05 9.94095509476253e-06
  outer loop
    vertex 31.999595163562876 -10.581949947096703 2.2003170190435464
    vertex 31.999961815291883 -14.999958275122218 -1.995035479424722
    vertex 31.999595163562876 -10.26411270190092 1.7861034566704512
  endloop
endfacet
facet normal 0.9999999997352185 2.0754287836063887e-05 9.94095509476253e-06
  outer loop
    vertex 31.999595163562876 -10.26411270190092 1.7861034566704512
    vertex 31.999961815291883 -14.999958275122218 -1.995035479424722
    vertex 31.999595163562876 -9.849899139527825 1.4682662114746696
  endloop
endfacet
facet normal 0.9999999997352185 2.0754287836063887e-05 9.94095509476253e-06
  outer loop
    vertex 31.999595163562876 -9.849899139527825 1.4682662114746696
    vertex 31.999961815291883 -14.999958275122218 -1.995035479424722
    vertex 32.0001417150145 -5.199999858512843 -1.9999798012281074
  endloop
endfacet
facet normal 0.9999999997352185 2.0754287836063887e-05 9.94095509476253e-06
  outer loop
    vertex 31.999961815291883 -14.999958275122218 40.000007873086766
    vertex 31.999595163562876 -10.849899139527826 3.2003170190435464
    vertex 31.999595163562876 -10.849899139527828 23.500626165000313
  endloop
endfacet
facet normal 0.9999999997352185 2.0754287836063887e-05 9.94095509476253e-06
  outer loop
    vertex 31.999595163562876 -9.849899139527825 1.4682662114746696
    vertex 32.0001417150145 -5.199999858512843 -1.9999798012281074
    vertex 31.999595163562876 -9.367537229732866 1.2684653664654106
  endloop
endfacet
facet normal 0.9999999997352185 2.0754287836063887e-05 9.94095509476253e-06
  outer loop
    vertex 31.999595163562876 -9.367537229732866 1.2684653664654106
    vertex 32.0001417150145 -5.199999858512843 -1.9999798012281074
    vertex 31.999595163562876 -8.849899139527826 1.2003170190435475
  endloop
endfacet
facet normal 0.9999999997352185 2.0754287836063887e-05 9.94095509476253e-06
  outer loop
    vertex 31.999595163562876 -8.849899139527826 1.2003170190435475
    vertex 32.0001417150145 -5.199999858512843 -1.9999798012281074
    vertex 31.999595163562876 -8.332261049322785 1.2684653664654109
  endloop
endfacet
facet normal 0.9999999997352185 2.0754287836063887e-05 9.94095509476253e-06
  outer loop
    vertex 31.999595163562876 -8.332261049322785 1.2684653664654109
    vertex 32.0001417150145 -5.199999858512843 -1.9999798012281074
    vertex 31.999595163562876 -7.849899139527825 1.4682662114746703
  endloop
endfacet
facet normal 0.9999999997352185 2.0754287836063887e-05 9.94095509476253e-06
  outer loop
    vertex 31.999595163562876 -7.849899139527825 1.4682662114746703
    vertex 32.0001417150145 -5.199999858512843 -1.9999798012281074
    vertex 31.999595163562876 -7.435685577154731 1.7861034566704523
  endloop
endfacet
facet normal 0.9999999997352185 2.0754287836063887e-05 9.94095509476253e-06
  outer loop
    vertex 31.999595163562876 -7.435685577154731 1.7861034566704523
    vertex 32.0001417150145 -5.199999858512843 -1.9999798012281074
    vertex 31.999595163562876 -7.117848331958949 2.2003170190435477
  endloop
endfacet
facet normal 0.9999999997352185 2.0754287836063887e-05 9.94095509476253e-06
  outer loop
    vertex 31.999595163562876 -7.117848331958949 2.2003170190435477
    vertex 32.0001417150145 -5.199999858512843 -1.9999798012281074
    vertex 31.999595163562876 -6.918047486949688 2.682678928838506
  endloop
endfacet
facet normal 0.9999999997352185 2.0754287836063887e-05 9.94095509476253e-06
  outer loop
    vertex 31.999595163562876 -6.918047486949688 2.682678928838506
    vertex 32.0001417150145 -5.199999858512843 -1.9999798012281074
    vertex 31.999595163562876 -6.849899139527825 3.200317019043547
  endloop
endfacet
facet normal 0.9999999997352185 2.0754287836063887e-05 9.94095509476253e-06
  outer loop
    vertex 31.999595163562876 -6.849899139527825 3.200317019043547
    vertex 32.0001417150145 -5.199999858512843 -1.9999798012281074
    vertex 31.999595163562876 -6.849899139527824 23.500626165000313
  endloop
endfacet
facet normal 0.9999999997352185 2.0754287836063887e-05 9.94095509476253e-06
  outer loop
    vertex 31.999595163562876 -6.849899139527824 23.500626165000313
    vertex 32.0001417150145 -5.199999858512843 -1.9999798012281074
    vertex 31.999364561384922 -5.200008656723223 40.0006463637722
  endloop
endfacet
facet normal 0.9999999997352185 2.0754287836063887e-05 9.94095509476253e-06
  outer loop
    vertex 31.999961815291883 -14.999958275122218 40.000007873086766
    vertex 31.999595163562876 -10.781750792105964 24.018264255205356
    vertex 31.999364561384922 -5.200008656723223 40.0006463637722
  endloop
endfacet
facet normal 0.9999999997352185 2.0754287836063887e-05 9.94095509476253e-06
  outer loop
    vertex 31.999595163562876 -10.781750792105964 24.018264255205356
    vertex 31.999961815291883 -14.999958275122218 40.000007873086766
    vertex 31.999595163562876 -10.849899139527828 23.500626165000313
  endloop
endfacet
facet normal 0.9999999997352185 2.0754287836063887e-05 9.94095509476253e-06
  outer loop
    vertex 31.999364561384922 -5.200008656723223 40.0006463637722
    vertex 31.999595163562876 -10.781750792105964 24.018264255205356
    vertex 31.999595163562876 -10.581949947096705 24.500626165000313
  endloop
endfacet
facet normal 0.9999999997352185 2.0754287836063887e-05 9.94095509476253e-06
  outer loop
    vertex 31.999364561384922 -5.200008656723223 40.0006463637722
    vertex 31.999595163562876 -10.581949947096705 24.500626165000313
    vertex 31.999595163562876 -10.264112701900922 24.91483972737341
  endloop
endfacet
facet normal 0.9999999997352185 2.0754287836063887e-05 9.94095509476253e-06
  outer loop
    vertex 31.999364561384922 -5.200008656723223 40.0006463637722
    vertex 31.999595163562876 -10.264112701900922 24.91483972737341
    vertex 31.999595163562876 -9.849899139527828 25.23267697256919
  endloop
endfacet
facet normal 0.9999999997352185 2.0754287836063887e-05 9.94095509476253e-06
  outer loop
    vertex 31.999364561384922 -5.200008656723223 40.0006463637722
    vertex 31.999595163562876 -9.849899139527828 25.23267697256919
    vertex 31.999595163562876 -9.36753722973287 25.43247781757845
  endloop
endfacet
facet normal 0.9999999997352185 2.0754287836063887e-05 9.94095509476253e-06
  outer loop
    vertex 31.999364561384922 -5.200008656723223 40.0006463637722
    vertex 31.999595163562876 -9.36753722973287 25.43247781757845
    vertex 31.999595163562876 -8.849899139527826 25.500626165000316
  endloop
endfacet
facet normal 0.9999999997352185 2.0754287836063887e-05 9.94095509476253e-06
  outer loop
    vertex 31.999364561384922 -5.200008656723223 40.0006463637722
    vertex 31.999595163562876 -8.849899139527826 25.500626165000316
    vertex 31.999595163562876 -8.332261049322785 25.43247781757845
  endloop
endfacet
facet normal 0.9999999997352185 2.0754287836063887e-05 9.94095509476253e-06
  outer loop
    vertex 31.999364561384922 -5.200008656723223 40.0006463637722
    vertex 31.999595163562876 -8.332261049322785 25.43247781757845
    vertex 31.999595163562876 -7.849899139527825 25.23267697256919
  endloop
endfacet
facet normal 0.9999999997352185 2.0754287836063887e-05 9.94095509476253e-06
  outer loop
    vertex 31.999364561384922 -5.200008656723223 40.0006463637722
    vertex 31.999595163562876 -7.849899139527825 25.23267697256919
    vertex 31.999595163562876 -7.435685577154728 24.91483972737341
  endloop
endfacet
facet normal 0.9999999997352185 2.0754287836063887e-05 9.94095509476253e-06
  outer loop
    vertex 31.999364561384922 -5.200008656723223 40.0006463637722
    vertex 31.999595163562876 -7.435685577154728 24.91483972737341
    vertex 31.999595163562876 -7.117848331958946 24.500626165000316
  endloop
endfacet
facet normal 0.9999999997352185 2.0754287836063887e-05 9.94095509476253e-06
  outer loop
    vertex 31.999364561384922 -5.200008656723223 40.0006463637722
    vertex 31.999595163562876 -7.117848331958946 24.500626165000316
    vertex 31.999595163562876 -6.918047486949687 24.018264255205356
  endloop
endfacet
facet normal 0.9999999997352185 2.0754287836063887e-05 9.94095509476253e-06
  outer loop
    vertex 31.999364561384922 -5.200008656723223 40.0006463637722
    vertex 31.999595163562876 -6.918047486949687 24.018264255205356
    vertex 31.999595163562876 -6.849899139527824 23.500626165000313
  endloop
endfacet
facet normal 0.9999999997352185 2.0754287836063887e-05 9.94095509476253e-06
  outer loop
    vertex 31.999595163562876 -10.849899139527826 3.2003170190435464
    vertex 31.999595163562876 -10.781750792105964 22.982988074795273
    vertex 31.999595163562876 -10.849899139527828 23.500626165000313
  endloop
endfacet
facet normal 0.9999999997352185 2.0754287836063887e-05 9.94095509476253e-06
  outer loop
    vertex 31.999595163562876 -10.781750792105964 22.982988074795273
    vertex 31.999595163562876 -10.849899139527826 3.2003170190435464
    vertex 31.999595163562876 -10.781750792105962 3.7179551092485874
  endloop
endfacet
facet normal 0.9999999997352185 2.0754287836063887e-05 9.94095509476253e-06
  outer loop
    vertex 31.999595163562876 -10.781750792105964 22.982988074795273
    vertex 31.999595163562876 -10.781750792105962 3.7179551092485874
    vertex 31.999595163562876 -10.581949947096703 22.500626165000313
  endloop
endfacet
facet normal 0.9999999997352185 2.0754287836063887e-05 9.94095509476253e-06
  outer loop
    vertex 31.999595163562876 -10.581949947096703 22.500626165000313
    vertex 31.999595163562876 -10.781750792105962 3.7179551092485874
    vertex 31.999595163562876 -10.581949947096703 4.2003170190435455
  endloop
endfacet
facet normal 0.9999999997352185 2.0754287836063887e-05 9.94095509476253e-06
  outer loop
    vertex 31.999595163562876 -10.581949947096703 22.500626165000313
    vertex 31.999595163562876 -10.581949947096703 4.2003170190435455
    vertex 31.999595163562876 -10.26411270190092 4.614530581416641
  endloop
endfacet
facet normal 0.9999999997352185 2.0754287836063887e-05 9.94095509476253e-06
  outer loop
    vertex 31.999595163562876 -10.581949947096703 22.500626165000313
    vertex 31.999595163562876 -10.26411270190092 4.614530581416641
    vertex 31.999595163562876 -10.26411270190092 22.086412602627217
  endloop
endfacet
facet normal 0.9999999997352185 2.0754287836063887e-05 9.94095509476253e-06
  outer loop
    vertex 31.999595163562876 -10.26411270190092 22.086412602627217
    vertex 31.999595163562876 -10.26411270190092 4.614530581416641
    vertex 31.999595163562876 -9.849899139527826 4.932367826612423
  endloop
endfacet
facet normal 0.9999999997352185 2.0754287836063887e-05 9.94095509476253e-06
  outer loop
    vertex 31.999595163562876 -10.26411270190092 22.086412602627217
    vertex 31.999595163562876 -9.849899139527826 4.932367826612423
    vertex 31.999595163562876 -9.849899139527826 21.768575357431438
  endloop
endfacet
facet normal 0.9999999997352185 2.0754287836063887e-05 9.94095509476253e-06
  outer loop
    vertex 31.999595163562876 -9.849899139527826 21.768575357431438
    vertex 31.999595163562876 -9.849899139527826 4.932367826612423
    vertex 31.999595163562876 -9.367537229732868 5.132168671621683
  endloop
endfacet
facet normal 0.9999999997352185 2.0754287836063887e-05 9.94095509476253e-06
  outer loop
    vertex 31.999595163562876 -9.849899139527826 21.768575357431438
    vertex 31.999595163562876 -9.367537229732868 5.132168671621683
    vertex 31.999595163562876 -9.367537229732866 21.568774512422177
  endloop
endfacet
facet normal 0.9999999997352185 2.0754287836063887e-05 9.94095509476253e-06
  outer loop
    vertex 31.999595163562876 -9.367537229732866 21.568774512422177
    vertex 31.999595163562876 -9.367537229732868 5.132168671621683
    vertex 31.999595163562876 -8.849899139527826 5.200317019043546
  endloop
endfacet
facet normal 0.9999999997352185 2.0754287836063887e-05 9.94095509476253e-06
  outer loop
    vertex 31.999595163562876 -9.367537229732866 21.568774512422177
    vertex 31.999595163562876 -8.849899139527826 5.200317019043546
    vertex 31.999595163562876 -8.849899139527826 21.500626165000313
  endloop
endfacet
facet normal 0.9999999997352185 2.0754287836063887e-05 9.94095509476253e-06
  outer loop
    vertex 31.999595163562876 -8.849899139527826 21.500626165000313
    vertex 31.999595163562876 -8.849899139527826 5.200317019043546
    vertex 31.999595163562876 -8.332261049322785 5.132168671621683
  endloop
endfacet
facet normal 0.9999999997352185 2.0754287836063887e-05 9.94095509476253e-06
  outer loop
    vertex 31.999595163562876 -8.849899139527826 21.500626165000313
    vertex 31.999595163562876 -8.332261049322785 5.132168671621683
    vertex 31.999595163562876 -8.332261049322783 21.568774512422177
  endloop
endfacet
facet normal 0.9999999997352185 2.0754287836063887e-05 9.94095509476253e-06
  outer loop
    vertex 31.999595163562876 -8.332261049322783 21.568774512422177
    vertex 31.999595163562876 -8.332261049322785 5.132168671621683
    vertex 31.999595163562876 -7.8498991395278255 4.932367826612424
  endloop
endfacet
facet normal 0.9999999997352185 2.0754287836063887e-05 9.94095509476253e-06
  outer loop
    vertex 31.999595163562876 -8.332261049322783 21.568774512422177
    vertex 31.999595163562876 -7.8498991395278255 4.932367826612424
    vertex 31.999595163562876 -7.849899139527823 21.768575357431438
  endloop
endfacet
facet normal 0.9999999997352185 2.0754287836063887e-05 9.94095509476253e-06
  outer loop
    vertex 31.999595163562876 -7.849899139527823 21.768575357431438
    vertex 31.999595163562876 -7.8498991395278255 4.932367826612424
    vertex 31.999595163562876 -7.435685577154731 4.614530581416642
  endloop
endfacet
facet normal 0.9999999997352185 2.0754287836063887e-05 9.94095509476253e-06
  outer loop
    vertex 31.999595163562876 -7.849899139527823 21.768575357431438
    vertex 31.999595163562876 -7.435685577154731 4.614530581416642
    vertex 31.999595163562876 -7.435685577154728 22.08641260262722
  endloop
endfacet
facet normal 0.9999999997352185 2.0754287836063887e-05 9.94095509476253e-06
  outer loop
    vertex 31.999595163562876 -7.435685577154728 22.08641260262722
    vertex 31.999595163562876 -7.435685577154731 4.614530581416642
    vertex 31.999595163562876 -7.117848331958949 4.200317019043546
  endloop
endfacet
facet normal 0.9999999997352185 2.0754287836063887e-05 9.94095509476253e-06
  outer loop
    vertex 31.999595163562876 -7.435685577154728 22.08641260262722
    vertex 31.999595163562876 -7.117848331958949 4.200317019043546
    vertex 31.999595163562876 -7.117848331958946 22.500626165000313
  endloop
endfacet
facet normal 0.9999999997352185 2.0754287836063887e-05 9.94095509476253e-06
  outer loop
    vertex 31.999595163562876 -7.117848331958946 22.500626165000313
    vertex 31.999595163562876 -7.117848331958949 4.200317019043546
    vertex 31.999595163562876 -6.918047486949688 3.717955109248589
  endloop
endfacet
facet normal 0.9999999997352185 2.0754287836063887e-05 9.94095509476253e-06
  outer loop
    vertex 31.999595163562876 -7.117848331958946 22.500626165000313
    vertex 31.999595163562876 -6.918047486949688 3.717955109248589
    vertex 31.999595163562876 -6.918047486949687 22.982988074795273
  endloop
endfacet
facet normal 0.9999999997352185 2.0754287836063887e-05 9.94095509476253e-06
  outer loop
    vertex 31.999595163562876 -6.918047486949687 22.982988074795273
    vertex 31.999595163562876 -6.918047486949688 3.717955109248589
    vertex 31.999595163562876 -6.849899139527825 3.200317019043547
  endloop
endfacet
facet normal 0.9999999997352185 2.0754287836063887e-05 9.94095509476253e-06
  outer loop
    vertex 31.999595163562876 -6.918047486949687 22.982988074795273
    vertex 31.999595163562876 -6.849899139527825 3.200317019043547
    vertex 31.999595163562876 -6.849899139527824 23.500626165000313
  endloop
endfacet
facet normal 0.0 -0.13052619222005177 -0.9914448613738105
  outer loop
    vertex 31.999595163562876 -8.332261049322785 5.132168671621683
    vertex 30.000031784092638 -8.849707114072709 5.200354522137466
    vertex 30.000031784092638 -8.332069023867668 5.132206174715602
  endloop
endfacet
facet normal 0.0 -0.13052619222005177 -0.9914448613738105
  outer loop
    vertex 30.000031784092638 -8.849707114072709 5.200354522137466
    vertex 31.999595163562876 -8.332261049322785 5.132168671621683
    vertex 31.999595163562876 -8.849899139527826 5.200317019043546
  endloop
endfacet
facet normal 0.0 0.13052619222005146 -0.9914448613738105
  outer loop
    vertex 31.999595163562876 -8.849899139527826 5.200317019043546
    vertex 30.000031784092638 -9.367345204277752 5.132206174715602
    vertex 30.000031784092638 -8.849707114072709 5.200354522137466
  endloop
endfacet
facet normal 0.0 0.13052619222005146 -0.9914448613738105
  outer loop
    vertex 30.000031784092638 -9.367345204277752 5.132206174715602
    vertex 31.999595163562876 -8.849899139527826 5.200317019043546
    vertex 31.999595163562876 -9.367537229732868 5.132168671621683
  endloop
endfacet
facet normal -0.0 0.3826834323650902 -0.9238795325112867
  outer loop
    vertex 31.999595163562876 -9.367537229732868 5.132168671621683
    vertex 30.000031784092638 -9.84970711407271 4.932405329706343
    vertex 30.000031784092638 -9.367345204277752 5.132206174715602
  endloop
endfacet
facet normal -0.0 0.3826834323650902 -0.9238795325112867
  outer loop
    vertex 30.000031784092638 -9.84970711407271 4.932405329706343
    vertex 31.999595163562876 -9.367537229732868 5.132168671621683
    vertex 31.999595163562876 -9.849899139527826 4.932367826612423
  endloop
endfacet
facet normal -0.0 0.6087614290087205 -0.7933533402912354
  outer loop
    vertex 31.999595163562876 -9.849899139527826 4.932367826612423
    vertex 30.000031784092638 -10.263920676445805 4.614568084510561
    vertex 30.000031784092638 -9.84970711407271 4.932405329706343
  endloop
endfacet
facet normal -0.0 0.6087614290087205 -0.7933533402912354
  outer loop
    vertex 30.000031784092638 -10.263920676445805 4.614568084510561
    vertex 31.999595163562876 -9.849899139527826 4.932367826612423
    vertex 31.999595163562876 -10.26411270190092 4.614530581416641
  endloop
endfacet
facet normal -0.0 0.7933533402912356 -0.60876142900872
  outer loop
    vertex 30.000031784092638 -10.581757921641588 4.200354522137465
    vertex 31.999595163562876 -10.26411270190092 4.614530581416641
    vertex 31.999595163562876 -10.581949947096703 4.2003170190435455
  endloop
endfacet
facet normal -0.0 0.7933533402912356 -0.60876142900872
  outer loop
    vertex 31.999595163562876 -10.26411270190092 4.614530581416641
    vertex 30.000031784092638 -10.581757921641588 4.200354522137465
    vertex 30.000031784092638 -10.263920676445805 4.614568084510561
  endloop
endfacet
facet normal -0.0 0.923879532511287 -0.3826834323650895
  outer loop
    vertex 30.000031784092638 -10.781558766650846 3.7179926123425076
    vertex 31.999595163562876 -10.581949947096703 4.2003170190435455
    vertex 31.999595163562876 -10.781750792105962 3.7179551092485874
  endloop
endfacet
facet normal -0.0 0.923879532511287 -0.3826834323650895
  outer loop
    vertex 31.999595163562876 -10.581949947096703 4.2003170190435455
    vertex 30.000031784092638 -10.781558766650846 3.7179926123425076
    vertex 30.000031784092638 -10.581757921641588 4.200354522137465
  endloop
endfacet
facet normal -0.0 0.9914448613738104 -0.1305261922200518
  outer loop
    vertex 30.000031784092638 -10.84970711407271 3.200354522137466
    vertex 31.999595163562876 -10.781750792105962 3.7179551092485874
    vertex 31.999595163562876 -10.849899139527826 3.2003170190435464
  endloop
endfacet
facet normal -0.0 0.9914448613738104 -0.1305261922200518
  outer loop
    vertex 31.999595163562876 -10.781750792105962 3.7179551092485874
    vertex 30.000031784092638 -10.84970711407271 3.200354522137466
    vertex 30.000031784092638 -10.781558766650846 3.7179926123425076
  endloop
endfacet
facet normal 0.0 0.9914448613738102 0.1305261922200543
  outer loop
    vertex 30.000031784092638 -10.781558766650845 2.6827164319324206
    vertex 31.999595163562876 -10.849899139527826 3.2003170190435464
    vertex 31.999595163562876 -10.781750792105962 2.6826789288385045
  endloop
endfacet
facet normal 0.0 0.9914448613738102 0.1305261922200543
  outer loop
    vertex 31.999595163562876 -10.849899139527826 3.2003170190435464
    vertex 30.000031784092638 -10.781558766650845 2.6827164319324206
    vertex 30.000031784092638 -10.84970711407271 3.200354522137466
  endloop
endfacet
facet normal 0.0 0.923879532511287 0.3826834323650892
  outer loop
    vertex 30.000031784092638 -10.581757921641586 2.2003545221374625
    vertex 31.999595163562876 -10.781750792105962 2.6826789288385045
    vertex 31.999595163562876 -10.581949947096703 2.2003170190435464
  endloop
endfacet
facet normal 0.0 0.923879532511287 0.3826834323650892
  outer loop
    vertex 31.999595163562876 -10.781750792105962 2.6826789288385045
    vertex 30.000031784092638 -10.581757921641586 2.2003545221374625
    vertex 30.000031784092638 -10.781558766650845 2.6827164319324206
  endloop
endfacet
facet normal 0.0 0.7933533402912349 0.608761429008721
  outer loop
    vertex 30.000031784092638 -10.263920676445805 1.7861409597643674
    vertex 31.999595163562876 -10.581949947096703 2.2003170190435464
    vertex 31.999595163562876 -10.26411270190092 1.7861034566704512
  endloop
endfacet
facet normal 0.0 0.7933533402912349 0.608761429008721
  outer loop
    vertex 31.999595163562876 -10.581949947096703 2.2003170190435464
    vertex 30.000031784092638 -10.263920676445805 1.7861409597643674
    vertex 30.000031784092638 -10.581757921641586 2.2003545221374625
  endloop
endfacet
facet normal 0.0 0.6087614290087201 0.7933533402912357
  outer loop
    vertex 31.999595163562876 -10.26411270190092 1.7861034566704512
    vertex 30.000031784092638 -9.849707114072709 1.468303714568588
    vertex 30.000031784092638 -10.263920676445805 1.7861409597643674
  endloop
endfacet
facet normal 0.0 0.6087614290087201 0.7933533402912357
  outer loop
    vertex 30.000031784092638 -9.849707114072709 1.468303714568588
    vertex 31.999595163562876 -10.26411270190092 1.7861034566704512
    vertex 31.999595163562876 -9.849899139527825 1.4682662114746696
  endloop
endfacet
facet normal 0.0 0.38268343236508956 0.9238795325112868
  outer loop
    vertex 31.999595163562876 -9.849899139527825 1.4682662114746696
    vertex 30.000031784092638 -9.36734520427775 1.268502869559329
    vertex 30.000031784092638 -9.849707114072709 1.468303714568588
  endloop
endfacet
facet normal 0.0 0.38268343236508956 0.9238795325112868
  outer loop
    vertex 30.000031784092638 -9.36734520427775 1.268502869559329
    vertex 31.999595163562876 -9.849899139527825 1.4682662114746696
    vertex 31.999595163562876 -9.367537229732866 1.2684653664654106
  endloop
endfacet
facet normal 0.0 0.13052619222005113 0.9914448613738105
  outer loop
    vertex 31.999595163562876 -9.367537229732866 1.2684653664654106
    vertex 30.000031784092638 -8.849707114072709 1.2003545221374659
    vertex 30.000031784092638 -9.36734520427775 1.268502869559329
  endloop
endfacet
facet normal 0.0 0.13052619222005113 0.9914448613738105
  outer loop
    vertex 30.000031784092638 -8.849707114072709 1.2003545221374659
    vertex 31.999595163562876 -9.367537229732866 1.2684653664654106
    vertex 31.999595163562876 -8.849899139527826 1.2003170190435475
  endloop
endfacet
facet normal -0.0 -0.1305261922200518 0.9914448613738104
  outer loop
    vertex 31.999595163562876 -8.849899139527826 1.2003170190435475
    vertex 30.000031784092638 -8.332069023867668 1.2685028695593294
    vertex 30.000031784092638 -8.849707114072709 1.2003545221374659
  endloop
endfacet
facet normal -0.0 -0.1305261922200518 0.9914448613738104
  outer loop
    vertex 30.000031784092638 -8.332069023867668 1.2685028695593294
    vertex 31.999595163562876 -8.849899139527826 1.2003170190435475
    vertex 31.999595163562876 -8.332261049322785 1.2684653664654109
  endloop
endfacet
facet normal -0.0 -0.3826834323650892 0.9238795325112871
  outer loop
    vertex 31.999595163562876 -8.332261049322785 1.2684653664654109
    vertex 30.000031784092638 -7.849707114072709 1.4683037145685889
    vertex 30.000031784092638 -8.332069023867668 1.2685028695593294
  endloop
endfacet
facet normal -0.0 -0.3826834323650892 0.9238795325112871
  outer loop
    vertex 30.000031784092638 -7.849707114072709 1.4683037145685889
    vertex 31.999595163562876 -8.332261049322785 1.2684653664654109
    vertex 31.999595163562876 -7.849899139527825 1.4682662114746703
  endloop
endfacet
facet normal -0.0 -0.6087614290087218 0.7933533402912344
  outer loop
    vertex 31.999595163562876 -7.849899139527825 1.4682662114746703
    vertex 30.000031784092638 -7.435493551699615 1.7861409597643685
    vertex 30.000031784092638 -7.849707114072709 1.4683037145685889
  endloop
endfacet
facet normal -0.0 -0.6087614290087218 0.7933533402912344
  outer loop
    vertex 30.000031784092638 -7.435493551699615 1.7861409597643685
    vertex 31.999595163562876 -7.849899139527825 1.4682662114746703
    vertex 31.999595163562876 -7.435685577154731 1.7861034566704523
  endloop
endfacet
facet normal -0.0 -0.7933533402912353 0.6087614290087208
  outer loop
    vertex 31.999595163562876 -7.117848331958949 2.2003170190435477
    vertex 30.000031784092638 -7.435493551699615 1.7861409597643685
    vertex 31.999595163562876 -7.435685577154731 1.7861034566704523
  endloop
endfacet
facet normal -0.0 -0.7933533402912353 0.6087614290087208
  outer loop
    vertex 30.000031784092638 -7.435493551699615 1.7861409597643685
    vertex 31.999595163562876 -7.117848331958949 2.2003170190435477
    vertex 30.000031784092638 -7.117656306503832 2.200354522137464
  endloop
endfacet
facet normal -0.0 -0.9238795325112861 0.38268343236509156
  outer loop
    vertex 31.999595163562876 -6.918047486949688 2.682678928838506
    vertex 30.000031784092638 -7.117656306503832 2.200354522137464
    vertex 31.999595163562876 -7.117848331958949 2.2003170190435477
  endloop
endfacet
facet normal -0.0 -0.9238795325112861 0.38268343236509156
  outer loop
    vertex 30.000031784092638 -7.117656306503832 2.200354522137464
    vertex 31.999595163562876 -6.918047486949688 2.682678928838506
    vertex 30.000031784092638 -6.917855461494573 2.682716431932422
  endloop
endfacet
facet normal -0.0 -0.9914448613738104 0.1305261922200518
  outer loop
    vertex 31.999595163562876 -6.849899139527825 3.200317019043547
    vertex 30.000031784092638 -6.917855461494573 2.682716431932422
    vertex 31.999595163562876 -6.918047486949688 2.682678928838506
  endloop
endfacet
facet normal -0.0 -0.9914448613738104 0.1305261922200518
  outer loop
    vertex 30.000031784092638 -6.917855461494573 2.682716431932422
    vertex 31.999595163562876 -6.849899139527825 3.200317019043547
    vertex 30.000031784092638 -6.849707114072709 3.200354522137467
  endloop
endfacet
facet normal -0.0 -0.9914448613738104 -0.13052619222005163
  outer loop
    vertex 31.999595163562876 -6.918047486949688 3.717955109248589
    vertex 30.000031784092638 -6.849707114072709 3.200354522137467
    vertex 31.999595163562876 -6.849899139527825 3.200317019043547
  endloop
endfacet
facet normal -0.0 -0.9914448613738104 -0.13052619222005163
  outer loop
    vertex 30.000031784092638 -6.849707114072709 3.200354522137467
    vertex 31.999595163562876 -6.918047486949688 3.717955109248589
    vertex 30.000031784092638 -6.917855461494573 3.717992612342509
  endloop
endfacet
facet normal -0.0 -0.9238795325112861 -0.38268343236509184
  outer loop
    vertex 31.999595163562876 -7.117848331958949 4.200317019043546
    vertex 30.000031784092638 -6.917855461494573 3.717992612342509
    vertex 31.999595163562876 -6.918047486949688 3.717955109248589
  endloop
endfacet
facet normal -0.0 -0.9238795325112861 -0.38268343236509184
  outer loop
    vertex 30.000031784092638 -6.917855461494573 3.717992612342509
    vertex 31.999595163562876 -7.117848331958949 4.200317019043546
    vertex 30.000031784092638 -7.117656306503832 4.2003545221374665
  endloop
endfacet
facet normal -0.0 -0.7933533402912353 -0.6087614290087208
  outer loop
    vertex 31.999595163562876 -7.435685577154731 4.614530581416642
    vertex 30.000031784092638 -7.117656306503832 4.2003545221374665
    vertex 31.999595163562876 -7.117848331958949 4.200317019043546
  endloop
endfacet
facet normal -0.0 -0.7933533402912353 -0.6087614290087208
  outer loop
    vertex 30.000031784092638 -7.117656306503832 4.2003545221374665
    vertex 31.999595163562876 -7.435685577154731 4.614530581416642
    vertex 30.000031784092638 -7.435493551699615 4.614568084510561
  endloop
endfacet
facet normal -0.0 -0.6087614290087205 -0.7933533402912354
  outer loop
    vertex 31.999595163562876 -7.435685577154731 4.614530581416642
    vertex 30.000031784092638 -7.84970711407271 4.932405329706343
    vertex 30.000031784092638 -7.435493551699615 4.614568084510561
  endloop
endfacet
facet normal -0.0 -0.6087614290087205 -0.7933533402912354
  outer loop
    vertex 30.000031784092638 -7.84970711407271 4.932405329706343
    vertex 31.999595163562876 -7.435685577154731 4.614530581416642
    vertex 31.999595163562876 -7.8498991395278255 4.932367826612424
  endloop
endfacet
facet normal -0.0 -0.38268343236508895 -0.9238795325112871
  outer loop
    vertex 31.999595163562876 -7.8498991395278255 4.932367826612424
    vertex 30.000031784092638 -8.332069023867668 5.132206174715602
    vertex 30.000031784092638 -7.84970711407271 4.932405329706343
  endloop
endfacet
facet normal -0.0 -0.38268343236508895 -0.9238795325112871
  outer loop
    vertex 30.000031784092638 -8.332069023867668 5.132206174715602
    vertex 31.999595163562876 -7.8498991395278255 4.932367826612424
    vertex 31.999595163562876 -8.332261049322785 5.132168671621683
  endloop
endfacet
facet normal 0.00013177701930009724 -0.00015334291262837518 -0.999999979560384
  outer loop
    vertex 30.000082074674935 -5.208139184551249 -1.9938953183969705
    vertex 31.999961815291883 -14.999958275122218 -1.995035479424722
    vertex 30.000031784092617 -14.999647978478302 -1.994968344146654
  endloop
endfacet
facet normal 0.00013177701930009724 -0.00015334291262837518 -0.999999979560384
  outer loop
    vertex 31.999961815291883 -14.999958275122218 -1.995035479424722
    vertex 30.000082074674935 -5.208139184551249 -1.9938953183969705
    vertex 32.0001417150145 -5.199999858512843 -1.9999798012281074
  endloop
endfacet
facet normal -0.0 -0.1305261922200518 -0.9914448613738104
  outer loop
    vertex 31.999595163562876 -8.332261049322785 25.43247781757845
    vertex 30.000031784092617 -8.849707114072709 25.500663668094255
    vertex 30.000031784092617 -8.332069023867668 25.43251532067239
  endloop
endfacet
facet normal -0.0 -0.1305261922200518 -0.9914448613738104
  outer loop
    vertex 30.000031784092617 -8.849707114072709 25.500663668094255
    vertex 31.999595163562876 -8.332261049322785 25.43247781757845
    vertex 31.999595163562876 -8.849899139527826 25.500626165000316
  endloop
endfacet
facet normal -0.0 0.1305261922200511 -0.9914448613738106
  outer loop
    vertex 31.999595163562876 -8.849899139527826 25.500626165000316
    vertex 30.000031784092617 -9.367345204277754 25.43251532067239
    vertex 30.000031784092617 -8.849707114072709 25.500663668094255
  endloop
endfacet
facet normal -0.0 0.1305261922200511 -0.9914448613738106
  outer loop
    vertex 30.000031784092617 -9.367345204277754 25.43251532067239
    vertex 31.999595163562876 -8.849899139527826 25.500626165000316
    vertex 31.999595163562876 -9.36753722973287 25.43247781757845
  endloop
endfacet
facet normal -0.0 0.3826834323650913 -0.9238795325112861
  outer loop
    vertex 31.999595163562876 -9.36753722973287 25.43247781757845
    vertex 30.000031784092617 -9.849707114072713 25.232714475663116
    vertex 30.000031784092617 -9.367345204277754 25.43251532067239
  endloop
endfacet
facet normal -0.0 0.3826834323650913 -0.9238795325112861
  outer loop
    vertex 30.000031784092617 -9.849707114072713 25.232714475663116
    vertex 31.999595163562876 -9.36753722973287 25.43247781757845
    vertex 31.999595163562876 -9.849899139527828 25.23267697256919
  endloop
endfacet
facet normal -0.0 0.6087614290087213 -0.7933533402912347
  outer loop
    vertex 31.999595163562876 -9.849899139527828 25.23267697256919
    vertex 30.000031784092617 -10.263920676445807 24.914877230467333
    vertex 30.000031784092617 -9.849707114072713 25.232714475663116
  endloop
endfacet
facet normal -0.0 0.6087614290087213 -0.7933533402912347
  outer loop
    vertex 30.000031784092617 -10.263920676445807 24.914877230467333
    vertex 31.999595163562876 -9.849899139527828 25.23267697256919
    vertex 31.999595163562876 -10.264112701900922 24.91483972737341
  endloop
endfacet
facet normal -0.0 0.7933533402912367 -0.6087614290087188
  outer loop
    vertex 30.000031784092617 -10.58175792164159 24.500663668094237
    vertex 31.999595163562876 -10.264112701900922 24.91483972737341
    vertex 31.999595163562876 -10.581949947096705 24.500626165000313
  endloop
endfacet
facet normal -0.0 0.7933533402912367 -0.6087614290087188
  outer loop
    vertex 31.999595163562876 -10.264112701900922 24.91483972737341
    vertex 30.000031784092617 -10.58175792164159 24.500663668094237
    vertex 30.000031784092617 -10.263920676445807 24.914877230467333
  endloop
endfacet
facet normal -0.0 0.9238795325112871 -0.38268343236508895
  outer loop
    vertex 30.000031784092617 -10.781558766650848 24.018301758299277
    vertex 31.999595163562876 -10.581949947096705 24.500626165000313
    vertex 31.999595163562876 -10.781750792105964 24.018264255205356
  endloop
endfacet
facet normal -0.0 0.9238795325112871 -0.38268343236508895
  outer loop
    vertex 31.999595163562876 -10.581949947096705 24.500626165000313
    vertex 30.000031784092617 -10.781558766650848 24.018301758299277
    vertex 30.000031784092617 -10.58175792164159 24.500663668094237
  endloop
endfacet
facet normal -0.0 0.9914448613738104 -0.13052619222005216
  outer loop
    vertex 30.000031784092617 -10.84970711407271 23.500663668094237
    vertex 31.999595163562876 -10.781750792105964 24.018264255205356
    vertex 31.999595163562876 -10.849899139527828 23.500626165000313
  endloop
endfacet
facet normal -0.0 0.9914448613738104 -0.13052619222005216
  outer loop
    vertex 31.999595163562876 -10.781750792105964 24.018264255205356
    vertex 30.000031784092617 -10.84970711407271 23.500663668094237
    vertex 30.000031784092617 -10.781558766650848 24.018301758299277
  endloop
endfacet
facet normal 0.0 0.9914448613738105 0.13052619222005143
  outer loop
    vertex 30.000031784092617 -10.781558766650848 22.983025577889194
    vertex 31.999595163562876 -10.849899139527828 23.500626165000313
    vertex 31.999595163562876 -10.781750792105964 22.982988074795273
  endloop
endfacet
facet normal 0.0 0.9914448613738105 0.13052619222005143
  outer loop
    vertex 31.999595163562876 -10.849899139527828 23.500626165000313
    vertex 30.000031784092617 -10.781558766650848 22.983025577889194
    vertex 30.000031784092617 -10.84970711407271 23.500663668094237
  endloop
endfacet
facet normal 0.0 0.9238795325112861 0.3826834323650913
  outer loop
    vertex 30.000031784092617 -10.581757921641588 22.500663668094237
    vertex 31.999595163562876 -10.781750792105964 22.982988074795273
    vertex 31.999595163562876 -10.581949947096703 22.500626165000313
  endloop
endfacet
facet normal 0.0 0.9238795325112861 0.3826834323650913
  outer loop
    vertex 31.999595163562876 -10.781750792105964 22.982988074795273
    vertex 30.000031784092617 -10.581757921641588 22.500663668094237
    vertex 30.000031784092617 -10.781558766650848 22.983025577889194
  endloop
endfacet
facet normal 0.0 0.7933533402912367 0.6087614290087188
  outer loop
    vertex 30.000031784092617 -10.263920676445805 22.08645010572114
    vertex 31.999595163562876 -10.581949947096703 22.500626165000313
    vertex 31.999595163562876 -10.26411270190092 22.086412602627217
  endloop
endfacet
facet normal 0.0 0.7933533402912367 0.6087614290087188
  outer loop
    vertex 31.999595163562876 -10.581949947096703 22.500626165000313
    vertex 30.000031784092617 -10.263920676445805 22.08645010572114
    vertex 30.000031784092617 -10.581757921641588 22.500663668094237
  endloop
endfacet
facet normal 0.0 0.608761429008718 0.7933533402912374
  outer loop
    vertex 31.999595163562876 -10.26411270190092 22.086412602627217
    vertex 30.000031784092617 -9.84970711407271 21.76861286052536
    vertex 30.000031784092617 -10.263920676445805 22.08645010572114
  endloop
endfacet
facet normal 0.0 0.608761429008718 0.7933533402912374
  outer loop
    vertex 30.000031784092617 -9.84970711407271 21.76861286052536
    vertex 31.999595163562876 -10.26411270190092 22.086412602627217
    vertex 31.999595163562876 -9.849899139527826 21.768575357431438
  endloop
endfacet
facet normal 0.0 0.3826834323650904 0.9238795325112866
  outer loop
    vertex 31.999595163562876 -9.849899139527826 21.768575357431438
    vertex 30.000031784092617 -9.36734520427775 21.5688120155161
    vertex 30.000031784092617 -9.84970711407271 21.76861286052536
  endloop
endfacet
facet normal 0.0 0.3826834323650904 0.9238795325112866
  outer loop
    vertex 30.000031784092617 -9.36734520427775 21.5688120155161
    vertex 31.999595163562876 -9.849899139527826 21.768575357431438
    vertex 31.999595163562876 -9.367537229732866 21.568774512422177
  endloop
endfacet
facet normal 0.0 0.1305261922200518 0.9914448613738104
  outer loop
    vertex 31.999595163562876 -9.367537229732866 21.568774512422177
    vertex 30.000031784092617 -8.849707114072709 21.500663668094237
    vertex 30.000031784092617 -9.36734520427775 21.5688120155161
  endloop
endfacet
facet normal 0.0 0.1305261922200518 0.9914448613738104
  outer loop
    vertex 30.000031784092617 -8.849707114072709 21.500663668094237
    vertex 31.999595163562876 -9.367537229732866 21.568774512422177
    vertex 31.999595163562876 -8.849899139527826 21.500626165000313
  endloop
endfacet
facet normal -0.0 -0.13052619222005143 0.9914448613738105
  outer loop
    vertex 31.999595163562876 -8.849899139527826 21.500626165000313
    vertex 30.000031784092617 -8.332069023867668 21.5688120155161
    vertex 30.000031784092617 -8.849707114072709 21.500663668094237
  endloop
endfacet
facet normal -0.0 -0.13052619222005143 0.9914448613738105
  outer loop
    vertex 30.000031784092617 -8.332069023867668 21.5688120155161
    vertex 31.999595163562876 -8.849899139527826 21.500626165000313
    vertex 31.999595163562876 -8.332261049322783 21.568774512422177
  endloop
endfacet
facet normal -0.0 -0.3826834323650904 0.9238795325112866
  outer loop
    vertex 31.999595163562876 -8.332261049322783 21.568774512422177
    vertex 30.000031784092617 -7.849707114072707 21.76861286052536
    vertex 30.000031784092617 -8.332069023867668 21.5688120155161
  endloop
endfacet
facet normal -0.0 -0.3826834323650904 0.9238795325112866
  outer loop
    vertex 30.000031784092617 -7.849707114072707 21.76861286052536
    vertex 31.999595163562876 -8.332261049322783 21.568774512422177
    vertex 31.999595163562876 -7.849899139527823 21.768575357431438
  endloop
endfacet
facet normal -0.0 -0.6087614290087213 0.7933533402912347
  outer loop
    vertex 31.999595163562876 -7.849899139527823 21.768575357431438
    vertex 30.000031784092617 -7.435493551699612 22.08645010572114
    vertex 30.000031784092617 -7.849707114072707 21.76861286052536
  endloop
endfacet
facet normal -0.0 -0.6087614290087213 0.7933533402912347
  outer loop
    vertex 30.000031784092617 -7.435493551699612 22.08645010572114
    vertex 31.999595163562876 -7.849899139527823 21.768575357431438
    vertex 31.999595163562876 -7.435685577154728 22.08641260262722
  endloop
endfacet
facet normal -0.0 -0.7933533402912347 0.6087614290087213
  outer loop
    vertex 31.999595163562876 -7.117848331958946 22.500626165000313
    vertex 30.000031784092617 -7.435493551699612 22.08645010572114
    vertex 31.999595163562876 -7.435685577154728 22.08641260262722
  endloop
endfacet
facet normal -0.0 -0.7933533402912347 0.6087614290087213
  outer loop
    vertex 30.000031784092617 -7.435493551699612 22.08645010572114
    vertex 31.999595163562876 -7.117848331958946 22.500626165000313
    vertex 30.000031784092617 -7.11765630650383 22.500663668094237
  endloop
endfacet
facet normal -0.0 -0.9238795325112871 0.38268343236508895
  outer loop
    vertex 31.999595163562876 -6.918047486949687 22.982988074795273
    vertex 30.000031784092617 -7.11765630650383 22.500663668094237
    vertex 31.999595163562876 -7.117848331958946 22.500626165000313
  endloop
endfacet
facet normal -0.0 -0.9238795325112871 0.38268343236508895
  outer loop
    vertex 30.000031784092617 -7.11765630650383 22.500663668094237
    vertex 31.999595163562876 -6.918047486949687 22.982988074795273
    vertex 30.000031784092617 -6.917855461494571 22.983025577889194
  endloop
endfacet
facet normal -0.0 -0.9914448613738105 0.13052619222005143
  outer loop
    vertex 31.999595163562876 -6.849899139527824 23.500626165000313
    vertex 30.000031784092617 -6.917855461494571 22.983025577889194
    vertex 31.999595163562876 -6.918047486949687 22.982988074795273
  endloop
endfacet
facet normal -0.0 -0.9914448613738105 0.13052619222005143
  outer loop
    vertex 30.000031784092617 -6.917855461494571 22.983025577889194
    vertex 31.999595163562876 -6.849899139527824 23.500626165000313
    vertex 30.000031784092617 -6.849707114072707 23.500663668094237
  endloop
endfacet
facet normal -0.0 -0.9914448613738105 -0.13052619222005143
  outer loop
    vertex 31.999595163562876 -6.918047486949687 24.018264255205356
    vertex 30.000031784092617 -6.849707114072707 23.500663668094237
    vertex 31.999595163562876 -6.849899139527824 23.500626165000313
  endloop
endfacet
facet normal -0.0 -0.9914448613738105 -0.13052619222005143
  outer loop
    vertex 30.000031784092617 -6.849707114072707 23.500663668094237
    vertex 31.999595163562876 -6.918047486949687 24.018264255205356
    vertex 30.000031784092617 -6.917855461494571 24.01830175829928
  endloop
endfacet
facet normal -0.0 -0.9238795325112871 -0.38268343236508895
  outer loop
    vertex 31.999595163562876 -7.117848331958946 24.500626165000316
    vertex 30.000031784092617 -6.917855461494571 24.01830175829928
    vertex 31.999595163562876 -6.918047486949687 24.018264255205356
  endloop
endfacet
facet normal -0.0 -0.9238795325112871 -0.38268343236508895
  outer loop
    vertex 30.000031784092617 -6.917855461494571 24.01830175829928
    vertex 31.999595163562876 -7.117848331958946 24.500626165000316
    vertex 30.000031784092617 -7.11765630650383 24.50066366809424
  endloop
endfacet
facet normal -0.0 -0.7933533402912347 -0.6087614290087213
  outer loop
    vertex 31.999595163562876 -7.435685577154728 24.91483972737341
    vertex 30.000031784092617 -7.11765630650383 24.50066366809424
    vertex 31.999595163562876 -7.117848331958946 24.500626165000316
  endloop
endfacet
facet normal -0.0 -0.7933533402912347 -0.6087614290087213
  outer loop
    vertex 30.000031784092617 -7.11765630650383 24.50066366809424
    vertex 31.999595163562876 -7.435685577154728 24.91483972737341
    vertex 30.000031784092617 -7.435493551699612 24.914877230467333
  endloop
endfacet
facet normal -0.0 -0.60876142900872 -0.7933533402912356
  outer loop
    vertex 31.999595163562876 -7.435685577154728 24.91483972737341
    vertex 30.000031784092617 -7.849707114072709 25.232714475663116
    vertex 30.000031784092617 -7.435493551699612 24.914877230467333
  endloop
endfacet
facet normal -0.0 -0.60876142900872 -0.7933533402912356
  outer loop
    vertex 30.000031784092617 -7.849707114072709 25.232714475663116
    vertex 31.999595163562876 -7.435685577154728 24.91483972737341
    vertex 31.999595163562876 -7.849899139527825 25.23267697256919
  endloop
endfacet
facet normal -0.0 -0.3826834323650904 -0.9238795325112866
  outer loop
    vertex 31.999595163562876 -7.849899139527825 25.23267697256919
    vertex 30.000031784092617 -8.332069023867668 25.43251532067239
    vertex 30.000031784092617 -7.849707114072709 25.232714475663116
  endloop
endfacet
facet normal -0.0 -0.3826834323650904 -0.9238795325112866
  outer loop
    vertex 30.000031784092617 -8.332069023867668 25.43251532067239
    vertex 31.999595163562876 -7.849899139527825 25.23267697256919
    vertex 31.999595163562876 -8.332261049322785 25.43247781757845
  endloop
endfacet
facet normal -0.0006802477552516805 0.999999763531588 -0.00010099385942304632
  outer loop
    vertex 30.000082074674935 -5.208139184551249 -1.9938953183969705
    vertex 31.999364561384922 -5.200008656723223 40.0006463637722
    vertex 32.0001417150145 -5.199999858512843 -1.9999798012281074
  endloop
endfacet
facet normal -0.0006802477552516805 0.999999763531588 -0.00010099385942304632
  outer loop
    vertex 31.999364561384922 -5.200008656723223 40.0006463637722
    vertex 30.000082074674935 -5.208139184551249 -1.9938953183969705
    vertex 29.99929420927357 -5.199647836991155 40.00070109679206
  endloop
endfacet
facet normal -0.9999999988037853 -4.800549414733439e-05 -9.375603637580194e-06
  outer loop
    vertex 30.000031784092617 -10.781558766650848 22.983025577889194
    vertex 30.000031784092638 -10.84970711407271 3.200354522137466
    vertex 30.000031784092617 -10.84970711407271 23.500663668094237
  endloop
endfacet
facet normal -0.9999999988037853 -4.800549414733439e-05 -9.375603637580194e-06
  outer loop
    vertex 30.000031784092638 -10.84970711407271 3.200354522137466
    vertex 30.000031784092617 -10.781558766650848 22.983025577889194
    vertex 30.000031784092638 -10.781558766650846 3.7179926123425076
  endloop
endfacet
facet normal -0.9999999988037853 -4.800549414733439e-05 -9.375603637580194e-06
  outer loop
    vertex 30.000031784092638 -10.781558766650846 3.7179926123425076
    vertex 30.000031784092617 -10.781558766650848 22.983025577889194
    vertex 30.000031784092617 -10.581757921641588 22.500663668094237
  endloop
endfacet
facet normal -0.9999999988037853 -4.800549414733439e-05 -9.375603637580194e-06
  outer loop
    vertex 30.000031784092638 -10.781558766650846 3.7179926123425076
    vertex 30.000031784092617 -10.581757921641588 22.500663668094237
    vertex 30.000031784092638 -10.581757921641588 4.200354522137465
  endloop
endfacet
facet normal -0.9999999988037853 -4.800549414733439e-05 -9.375603637580194e-06
  outer loop
    vertex 30.000031784092638 -10.581757921641588 4.200354522137465
    vertex 30.000031784092617 -10.581757921641588 22.500663668094237
    vertex 30.000031784092617 -10.263920676445805 22.08645010572114
  endloop
endfacet
facet normal -0.9999999988037853 -4.800549414733439e-05 -9.375603637580194e-06
  outer loop
    vertex 30.000031784092638 -10.581757921641588 4.200354522137465
    vertex 30.000031784092617 -10.263920676445805 22.08645010572114
    vertex 30.000031784092638 -10.263920676445805 4.614568084510561
  endloop
endfacet
facet normal -0.9999999988037853 -4.800549414733439e-05 -9.375603637580194e-06
  outer loop
    vertex 30.000031784092638 -10.263920676445805 4.614568084510561
    vertex 30.000031784092617 -10.263920676445805 22.08645010572114
    vertex 30.000031784092617 -9.84970711407271 21.76861286052536
  endloop
endfacet
facet normal -0.9999999988037853 -4.800549414733439e-05 -9.375603637580194e-06
  outer loop
    vertex 30.000031784092638 -10.263920676445805 4.614568084510561
    vertex 30.000031784092617 -9.84970711407271 21.76861286052536
    vertex 30.000031784092638 -9.84970711407271 4.932405329706343
  endloop
endfacet
facet normal -0.9999999988037853 -4.800549414733439e-05 -9.375603637580194e-06
  outer loop
    vertex 30.000031784092638 -9.84970711407271 4.932405329706343
    vertex 30.000031784092617 -9.84970711407271 21.76861286052536
    vertex 30.000031784092617 -9.36734520427775 21.5688120155161
  endloop
endfacet
facet normal -0.9999999988037853 -4.800549414733439e-05 -9.375603637580194e-06
  outer loop
    vertex 30.000031784092638 -9.84970711407271 4.932405329706343
    vertex 30.000031784092617 -9.36734520427775 21.5688120155161
    vertex 30.000031784092638 -9.367345204277752 5.132206174715602
  endloop
endfacet
facet normal -0.9999999988037853 -4.800549414733439e-05 -9.375603637580194e-06
  outer loop
    vertex 30.000031784092638 -9.367345204277752 5.132206174715602
    vertex 30.000031784092617 -9.36734520427775 21.5688120155161
    vertex 30.000031784092638 -8.849707114072709 5.200354522137466
  endloop
endfacet
facet normal -0.9999999988037853 -4.800549414733439e-05 -9.375603637580194e-06
  outer loop
    vertex 30.000031784092638 -8.849707114072709 5.200354522137466
    vertex 30.000031784092617 -9.36734520427775 21.5688120155161
    vertex 30.000031784092617 -8.849707114072709 21.500663668094237
  endloop
endfacet
facet normal -0.9999999988037853 -4.800549414733439e-05 -9.375603637580194e-06
  outer loop
    vertex 30.000031784092638 -8.849707114072709 5.200354522137466
    vertex 30.000031784092617 -8.849707114072709 21.500663668094237
    vertex 30.000031784092617 -8.332069023867668 21.5688120155161
  endloop
endfacet
facet normal -0.9999999988037853 -4.800549414733439e-05 -9.375603637580194e-06
  outer loop
    vertex 30.000031784092638 -8.849707114072709 5.200354522137466
    vertex 30.000031784092617 -8.332069023867668 21.5688120155161
    vertex 30.000031784092638 -8.332069023867668 5.132206174715602
  endloop
endfacet
facet normal -0.9999999988037853 -4.800549414733439e-05 -9.375603637580194e-06
  outer loop
    vertex 30.000031784092638 -8.332069023867668 5.132206174715602
    vertex 30.000031784092617 -8.332069023867668 21.5688120155161
    vertex 30.000031784092638 -7.84970711407271 4.932405329706343
  endloop
endfacet
facet normal -0.9999999988037853 -4.800549414733439e-05 -9.375603637580194e-06
  outer loop
    vertex 30.000031784092638 -7.84970711407271 4.932405329706343
    vertex 30.000031784092617 -8.332069023867668 21.5688120155161
    vertex 30.000031784092617 -7.849707114072707 21.76861286052536
  endloop
endfacet
facet normal -0.9999999988037853 -4.800549414733439e-05 -9.375603637580194e-06
  outer loop
    vertex 30.000031784092638 -7.84970711407271 4.932405329706343
    vertex 30.000031784092617 -7.849707114072707 21.76861286052536
    vertex 30.000031784092638 -7.435493551699615 4.614568084510561
  endloop
endfacet
facet normal -0.9999999988037853 -4.800549414733439e-05 -9.375603637580194e-06
  outer loop
    vertex 30.000031784092638 -7.435493551699615 4.614568084510561
    vertex 30.000031784092617 -7.849707114072707 21.76861286052536
    vertex 30.000031784092617 -7.435493551699612 22.08645010572114
  endloop
endfacet
facet normal -0.9999999988037853 -4.800549414733439e-05 -9.375603637580194e-06
  outer loop
    vertex 30.000031784092638 -7.435493551699615 4.614568084510561
    vertex 30.000031784092617 -7.435493551699612 22.08645010572114
    vertex 30.000031784092638 -7.117656306503832 4.2003545221374665
  endloop
endfacet
facet normal -0.9999999988037853 -4.800549414733439e-05 -9.375603637580194e-06
  outer loop
    vertex 30.000031784092638 -7.117656306503832 4.2003545221374665
    vertex 30.000031784092617 -7.435493551699612 22.08645010572114
    vertex 30.000031784092617 -7.11765630650383 22.500663668094237
  endloop
endfacet
facet normal -0.9999999988037853 -4.800549414733439e-05 -9.375603637580194e-06
  outer loop
    vertex 30.000031784092638 -7.117656306503832 4.2003545221374665
    vertex 30.000031784092617 -7.11765630650383 22.500663668094237
    vertex 30.000031784092638 -6.917855461494573 3.717992612342509
  endloop
endfacet
facet normal -0.9999999988037853 -4.800549414733439e-05 -9.375603637580194e-06
  outer loop
    vertex 30.000031784092638 -6.917855461494573 3.717992612342509
    vertex 30.000031784092617 -7.11765630650383 22.500663668094237
    vertex 30.000031784092617 -6.917855461494571 22.983025577889194
  endloop
endfacet
facet normal -0.9999999988037853 -4.800549414733439e-05 -9.375603637580194e-06
  outer loop
    vertex 30.000031784092638 -6.917855461494573 3.717992612342509
    vertex 30.000031784092617 -6.917855461494571 22.983025577889194
    vertex 30.000031784092638 -6.849707114072709 3.200354522137467
  endloop
endfacet
facet normal -0.9999999988037853 -4.800549414733439e-05 -9.375603637580194e-06
  outer loop
    vertex 30.000031784092638 -6.849707114072709 3.200354522137467
    vertex 30.000031784092617 -6.917855461494571 22.983025577889194
    vertex 30.000031784092617 -6.849707114072707 23.500663668094237
  endloop
endfacet
facet normal -0.9999999988037853 -4.800549414733439e-05 -9.375603637580194e-06
  outer loop
    vertex 30.000031784092617 -14.999647978478302 40.000075008364846
    vertex 30.000031784092617 -10.781558766650848 24.018301758299277
    vertex 30.000031784092617 -14.999647978478302 -1.994968344146654
  endloop
endfacet
facet normal -0.9999999988037853 -4.800549414733439e-05 -9.375603637580194e-06
  outer loop
    vertex 30.000031784092617 -10.781558766650848 24.018301758299277
    vertex 30.000031784092617 -14.999647978478302 40.000075008364846
    vertex 29.99929420927357 -5.199647836991155 40.00070109679206
  endloop
endfacet
facet normal -0.9999999988037853 -4.800549414733439e-05 -9.375603637580194e-06
  outer loop
    vertex 30.000031784092617 -14.999647978478302 -1.994968344146654
    vertex 30.000031784092617 -10.781558766650848 24.018301758299277
    vertex 30.000031784092617 -10.84970711407271 23.500663668094237
  endloop
endfacet
facet normal -0.9999999988037853 -4.800549414733439e-05 -9.375603637580194e-06
  outer loop
    vertex 30.000031784092617 -10.781558766650848 24.018301758299277
    vertex 29.99929420927357 -5.199647836991155 40.00070109679206
    vertex 30.000031784092617 -10.58175792164159 24.500663668094237
  endloop
endfacet
facet normal -0.9999999988037853 -4.800549414733439e-05 -9.375603637580194e-06
  outer loop
    vertex 30.000031784092617 -10.58175792164159 24.500663668094237
    vertex 29.99929420927357 -5.199647836991155 40.00070109679206
    vertex 30.000031784092617 -10.263920676445807 24.914877230467333
  endloop
endfacet
facet normal -0.9999999988037853 -4.800549414733439e-05 -9.375603637580194e-06
  outer loop
    vertex 30.000031784092617 -10.263920676445807 24.914877230467333
    vertex 29.99929420927357 -5.199647836991155 40.00070109679206
    vertex 30.000031784092617 -9.849707114072713 25.232714475663116
  endloop
endfacet
facet normal -0.9999999988037853 -4.800549414733439e-05 -9.375603637580194e-06
  outer loop
    vertex 30.000031784092617 -9.849707114072713 25.232714475663116
    vertex 29.99929420927357 -5.199647836991155 40.00070109679206
    vertex 30.000031784092617 -9.367345204277754 25.43251532067239
  endloop
endfacet
facet normal -0.9999999988037853 -4.800549414733439e-05 -9.375603637580194e-06
  outer loop
    vertex 30.000031784092617 -9.367345204277754 25.43251532067239
    vertex 29.99929420927357 -5.199647836991155 40.00070109679206
    vertex 30.000031784092617 -8.849707114072709 25.500663668094255
  endloop
endfacet
facet normal -0.9999999988037853 -4.800549414733439e-05 -9.375603637580194e-06
  outer loop
    vertex 30.000031784092617 -8.849707114072709 25.500663668094255
    vertex 29.99929420927357 -5.199647836991155 40.00070109679206
    vertex 30.000031784092617 -8.332069023867668 25.43251532067239
  endloop
endfacet
facet normal -0.9999999988037853 -4.800549414733439e-05 -9.375603637580194e-06
  outer loop
    vertex 30.000031784092617 -8.332069023867668 25.43251532067239
    vertex 29.99929420927357 -5.199647836991155 40.00070109679206
    vertex 30.000031784092617 -7.849707114072709 25.232714475663116
  endloop
endfacet
facet normal -0.9999999988037853 -4.800549414733439e-05 -9.375603637580194e-06
  outer loop
    vertex 30.000031784092617 -7.849707114072709 25.232714475663116
    vertex 29.99929420927357 -5.199647836991155 40.00070109679206
    vertex 30.000031784092617 -7.435493551699612 24.914877230467333
  endloop
endfacet
facet normal -0.9999999988037853 -4.800549414733439e-05 -9.375603637580194e-06
  outer loop
    vertex 30.000031784092617 -7.435493551699612 24.914877230467333
    vertex 29.99929420927357 -5.199647836991155 40.00070109679206
    vertex 30.000031784092617 -7.11765630650383 24.50066366809424
  endloop
endfacet
facet normal -0.9999999988037853 -4.800549414733439e-05 -9.375603637580194e-06
  outer loop
    vertex 30.000031784092617 -7.11765630650383 24.50066366809424
    vertex 29.99929420927357 -5.199647836991155 40.00070109679206
    vertex 30.000031784092617 -6.917855461494571 24.01830175829928
  endloop
endfacet
facet normal -0.9999999988037853 -4.800549414733439e-05 -9.375603637580194e-06
  outer loop
    vertex 30.000031784092617 -6.917855461494571 24.01830175829928
    vertex 29.99929420927357 -5.199647836991155 40.00070109679206
    vertex 30.000031784092617 -6.849707114072707 23.500663668094237
  endloop
endfacet
facet normal -0.9999999988037853 -4.800549414733439e-05 -9.375603637580194e-06
  outer loop
    vertex 30.000031784092617 -6.849707114072707 23.500663668094237
    vertex 29.99929420927357 -5.199647836991155 40.00070109679206
    vertex 30.000082074674935 -5.208139184551249 -1.9938953183969705
  endloop
endfacet
facet normal -0.9999999988037853 -4.800549414733439e-05 -9.375603637580194e-06
  outer loop
    vertex 30.000031784092617 -14.999647978478302 -1.994968344146654
    vertex 30.000031784092638 -9.849707114072709 1.468303714568588
    vertex 30.000082074674935 -5.208139184551249 -1.9938953183969705
  endloop
endfacet
facet normal -0.9999999988037853 -4.800549414733439e-05 -9.375603637580194e-06
  outer loop
    vertex 30.000031784092638 -9.849707114072709 1.468303714568588
    vertex 30.000031784092617 -14.999647978478302 -1.994968344146654
    vertex 30.000031784092638 -10.263920676445805 1.7861409597643674
  endloop
endfacet
facet normal -0.9999999988037853 -4.800549414733439e-05 -9.375603637580194e-06
  outer loop
    vertex 30.000031784092638 -10.263920676445805 1.7861409597643674
    vertex 30.000031784092617 -14.999647978478302 -1.994968344146654
    vertex 30.000031784092638 -10.581757921641586 2.2003545221374625
  endloop
endfacet
facet normal -0.9999999988037853 -4.800549414733439e-05 -9.375603637580194e-06
  outer loop
    vertex 30.000031784092638 -10.581757921641586 2.2003545221374625
    vertex 30.000031784092617 -14.999647978478302 -1.994968344146654
    vertex 30.000031784092638 -10.781558766650845 2.6827164319324206
  endloop
endfacet
facet normal -0.9999999988037853 -4.800549414733439e-05 -9.375603637580194e-06
  outer loop
    vertex 30.000031784092638 -10.781558766650845 2.6827164319324206
    vertex 30.000031784092617 -14.999647978478302 -1.994968344146654
    vertex 30.000031784092638 -10.84970711407271 3.200354522137466
  endloop
endfacet
facet normal -0.9999999988037853 -4.800549414733439e-05 -9.375603637580194e-06
  outer loop
    vertex 30.000031784092638 -10.84970711407271 3.200354522137466
    vertex 30.000031784092617 -14.999647978478302 -1.994968344146654
    vertex 30.000031784092617 -10.84970711407271 23.500663668094237
  endloop
endfacet
facet normal -0.9999999988037853 -4.800549414733439e-05 -9.375603637580194e-06
  outer loop
    vertex 30.000082074674935 -5.208139184551249 -1.9938953183969705
    vertex 30.000031784092638 -9.849707114072709 1.468303714568588
    vertex 30.000031784092638 -9.36734520427775 1.268502869559329
  endloop
endfacet
facet normal -0.9999999988037853 -4.800549414733439e-05 -9.375603637580194e-06
  outer loop
    vertex 30.000082074674935 -5.208139184551249 -1.9938953183969705
    vertex 30.000031784092638 -9.36734520427775 1.268502869559329
    vertex 30.000031784092638 -8.849707114072709 1.2003545221374659
  endloop
endfacet
facet normal -0.9999999988037853 -4.800549414733439e-05 -9.375603637580194e-06
  outer loop
    vertex 30.000082074674935 -5.208139184551249 -1.9938953183969705
    vertex 30.000031784092638 -8.849707114072709 1.2003545221374659
    vertex 30.000031784092638 -8.332069023867668 1.2685028695593294
  endloop
endfacet
facet normal -0.9999999988037853 -4.800549414733439e-05 -9.375603637580194e-06
  outer loop
    vertex 30.000082074674935 -5.208139184551249 -1.9938953183969705
    vertex 30.000031784092638 -8.332069023867668 1.2685028695593294
    vertex 30.000031784092638 -7.849707114072709 1.4683037145685889
  endloop
endfacet
facet normal -0.9999999988037853 -4.800549414733439e-05 -9.375603637580194e-06
  outer loop
    vertex 30.000082074674935 -5.208139184551249 -1.9938953183969705
    vertex 30.000031784092638 -7.849707114072709 1.4683037145685889
    vertex 30.000031784092638 -7.435493551699615 1.7861409597643685
  endloop
endfacet
facet normal -0.9999999988037853 -4.800549414733439e-05 -9.375603637580194e-06
  outer loop
    vertex 30.000082074674935 -5.208139184551249 -1.9938953183969705
    vertex 30.000031784092638 -7.435493551699615 1.7861409597643685
    vertex 30.000031784092638 -7.117656306503832 2.200354522137464
  endloop
endfacet
facet normal -0.9999999988037853 -4.800549414733439e-05 -9.375603637580194e-06
  outer loop
    vertex 30.000082074674935 -5.208139184551249 -1.9938953183969705
    vertex 30.000031784092638 -7.117656306503832 2.200354522137464
    vertex 30.000031784092638 -6.917855461494573 2.682716431932422
  endloop
endfacet
facet normal -0.9999999988037853 -4.800549414733439e-05 -9.375603637580194e-06
  outer loop
    vertex 30.000082074674935 -5.208139184551249 -1.9938953183969705
    vertex 30.000031784092638 -6.917855461494573 2.682716431932422
    vertex 30.000031784092638 -6.849707114072709 3.200354522137467
  endloop
endfacet
facet normal -0.9999999988037853 -4.800549414733439e-05 -9.375603637580194e-06
  outer loop
    vertex 30.000082074674935 -5.208139184551249 -1.9938953183969705
    vertex 30.000031784092638 -6.849707114072709 3.200354522137467
    vertex 30.000031784092617 -6.849707114072707 23.500663668094237
  endloop
endfacet
endsolid gpu_font1_clamp
