solid psu_support_under_l
facet normal 0.0 -1.0 0.0
  outer loop
    vertex 16.999999999999975 11.100000000000003 5.599999999999974
    vertex 10.999999999999973 11.100000000000003 2.9999999999999973
    vertex 16.999999999999975 11.100000000000003 2.999999999999993
  endloop
endfacet
facet normal 0.0 -1.0 0.0
  outer loop
    vertex 10.999999999999973 11.100000000000003 2.9999999999999973
    vertex 16.999999999999975 11.100000000000003 5.599999999999974
    vertex 10.999999999999973 11.100000000000003 5.599999999999997
  endloop
endfacet
facet normal -2.46747067222941e-15 3.692813250955576e-15 -1.0
  outer loop
    vertex 16.999999999999975 11.100000000000003 5.599999999999974
    vertex 10.999999999999973 9.000000000000002 5.599999999999981
    vertex 10.999999999999973 11.100000000000003 5.599999999999997
  endloop
endfacet
facet normal -2.46747067222941e-15 3.692813250955576e-15 -1.0
  outer loop
    vertex 10.999999999999973 9.000000000000002 5.599999999999981
    vertex 16.999999999999975 11.100000000000003 5.599999999999974
    vertex 16.999999999999975 9.000000000000002 5.599999999999974
  endloop
endfacet
facet normal -9.202292580595408e-18 0.5834383257109247 0.8121574478459415
  outer loop
    vertex 16.999999999999986 11.100000000000003 12.999999999999993
    vertex 10.999999999999973 14.901795227607572 10.268863262691026
    vertex 10.999999999999973 11.100000000000003 12.999999999999993
  endloop
endfacet
facet normal -9.202292580595408e-18 0.5834383257109247 0.8121574478459415
  outer loop
    vertex 10.999999999999973 14.901795227607572 10.268863262691026
    vertex 16.999999999999986 11.100000000000003 12.999999999999993
    vertex 16.999999999999986 14.901795227607572 10.268863262691017
  endloop
endfacet
facet normal 8.247223921767845e-33 0.5887168776075821 -0.8083393087187949
  outer loop
    vertex 16.999999999999975 14.901795227607572 5.7688632626910055
    vertex 10.999999999999973 11.100000000000003 2.9999999999999973
    vertex 10.999999999999973 14.901795227607572 5.768863262691028
  endloop
endfacet
facet normal 8.247223921767845e-33 0.5887168776075821 -0.8083393087187949
  outer loop
    vertex 10.999999999999973 11.100000000000003 2.9999999999999973
    vertex 16.999999999999975 14.901795227607572 5.7688632626910055
    vertex 16.999999999999975 11.100000000000003 2.999999999999993
  endloop
endfacet
facet normal 1.4099832412739462e-15 -0.0 1.0
  outer loop
    vertex 16.999999999999986 9.000000000000002 10.399999999999991
    vertex 10.999999999999973 11.100000000000003 10.399999999999999
    vertex 10.999999999999973 9.000000000000002 10.399999999999999
  endloop
endfacet
facet normal 1.4099832412739462e-15 -0.0 1.0
  outer loop
    vertex 10.999999999999973 11.100000000000003 10.399999999999999
    vertex 16.999999999999986 9.000000000000002 10.399999999999991
    vertex 16.999999999999986 11.100000000000003 10.399999999999991
  endloop
endfacet
facet normal 0.0 1.0 0.0
  outer loop
    vertex 10.999999999999973 14.901795227607572 5.768863262691028
    vertex 16.999999999999986 14.901795227607572 10.268863262691017
    vertex 16.999999999999975 14.901795227607572 5.7688632626910055
  endloop
endfacet
facet normal 0.0 1.0 0.0
  outer loop
    vertex 16.999999999999986 14.901795227607572 10.268863262691017
    vertex 10.999999999999973 14.901795227607572 5.768863262691028
    vertex 10.999999999999973 14.901795227607572 10.268863262691026
  endloop
endfacet
facet normal -9.202292580595408e-18 0.5834383257109247 0.8121574478459415
  outer loop
    vertex 29.99999999999998 11.100000000000003 12.999999999999988
    vertex 23.999999999999968 14.901795227607572 10.26886326269102
    vertex 23.999999999999968 11.100000000000003 12.999999999999991
  endloop
endfacet
facet normal -9.202292580595408e-18 0.5834383257109247 0.8121574478459415
  outer loop
    vertex 23.999999999999968 14.901795227607572 10.26886326269102
    vertex 29.99999999999998 11.100000000000003 12.999999999999988
    vertex 29.99999999999998 14.901795227607572 10.268863262691013
  endloop
endfacet
facet normal 8.247223921767845e-33 0.5887168776075821 -0.8083393087187949
  outer loop
    vertex 29.999999999999968 14.901795227607572 5.768863262691
    vertex 23.999999999999968 11.100000000000003 2.9999999999999925
    vertex 23.999999999999968 14.901795227607572 5.768863262691023
  endloop
endfacet
facet normal 8.247223921767845e-33 0.5887168776075821 -0.8083393087187949
  outer loop
    vertex 23.999999999999968 11.100000000000003 2.9999999999999925
    vertex 29.999999999999968 14.901795227607572 5.768863262691
    vertex 29.999999999999968 11.100000000000003 2.999999999999988
  endloop
endfacet
facet normal -2.2912227670701675e-15 4.196378694267699e-15 -1.0
  outer loop
    vertex 29.999999999999968 11.100000000000003 5.5999999999999694
    vertex 23.99999999999997 9.000000000000002 5.599999999999974
    vertex 23.999999999999968 11.100000000000003 5.599999999999992
  endloop
endfacet
facet normal -2.2912227670701675e-15 4.196378694267699e-15 -1.0
  outer loop
    vertex 23.99999999999997 9.000000000000002 5.599999999999974
    vertex 29.999999999999968 11.100000000000003 5.5999999999999694
    vertex 29.999999999999968 9.000000000000002 5.5999999999999694
  endloop
endfacet
facet normal 1.0574874309554595e-15 1.0071308866242481e-15 1.0
  outer loop
    vertex 29.99999999999998 9.000000000000002 10.399999999999991
    vertex 23.999999999999968 11.100000000000003 10.399999999999995
    vertex 23.999999999999968 9.000000000000002 10.399999999999995
  endloop
endfacet
facet normal 1.0574874309554595e-15 1.0071308866242481e-15 1.0
  outer loop
    vertex 23.999999999999968 11.100000000000003 10.399999999999995
    vertex 29.99999999999998 9.000000000000002 10.399999999999991
    vertex 29.99999999999998 11.100000000000003 10.399999999999986
  endloop
endfacet
facet normal 0.0 -1.0 0.0
  outer loop
    vertex 29.999999999999968 11.100000000000003 5.5999999999999694
    vertex 23.999999999999968 11.100000000000003 2.9999999999999925
    vertex 29.999999999999968 11.100000000000003 2.999999999999988
  endloop
endfacet
facet normal 0.0 -1.0 0.0
  outer loop
    vertex 23.999999999999968 11.100000000000003 2.9999999999999925
    vertex 29.999999999999968 11.100000000000003 5.5999999999999694
    vertex 23.999999999999968 11.100000000000003 5.599999999999992
  endloop
endfacet
facet normal 0.0 1.0 0.0
  outer loop
    vertex 23.999999999999968 14.901795227607572 5.768863262691023
    vertex 29.99999999999998 14.901795227607572 10.268863262691013
    vertex 29.999999999999968 14.901795227607572 5.768863262691
  endloop
endfacet
facet normal 0.0 1.0 0.0
  outer loop
    vertex 29.99999999999998 14.901795227607572 10.268863262691013
    vertex 23.999999999999968 14.901795227607572 5.768863262691023
    vertex 23.999999999999968 14.901795227607572 10.26886326269102
  endloop
endfacet
facet normal -1.0 -4.524590120691636e-16 -8.105469984054207e-17
  outer loop
    vertex 23.999999999999968 14.901795227607572 10.26886326269102
    vertex 23.999999999999968 11.100000000000003 10.399999999999995
    vertex 23.999999999999968 11.100000000000003 12.999999999999991
  endloop
endfacet
facet normal -1.0 -4.524590120691636e-16 -8.105469984054207e-17
  outer loop
    vertex 23.999999999999968 11.100000000000003 10.399999999999995
    vertex 23.999999999999968 14.901795227607572 10.26886326269102
    vertex 23.999999999999968 11.100000000000003 5.599999999999992
  endloop
endfacet
facet normal -1.0 -4.524590120691636e-16 -8.105469984054207e-17
  outer loop
    vertex 23.999999999999968 11.100000000000003 5.599999999999992
    vertex 23.999999999999968 14.901795227607572 10.26886326269102
    vertex 23.999999999999968 11.100000000000003 2.9999999999999925
  endloop
endfacet
facet normal -1.0 -4.524590120691636e-16 -8.105469984054207e-17
  outer loop
    vertex 23.999999999999968 11.100000000000003 2.9999999999999925
    vertex 23.999999999999968 14.901795227607572 10.26886326269102
    vertex 23.999999999999968 14.901795227607572 5.768863262691023
  endloop
endfacet
facet normal -1.0 -4.524590120691636e-16 -8.105469984054207e-17
  outer loop
    vertex 23.999999999999968 11.100000000000003 10.399999999999995
    vertex 23.99999999999997 9.000000000000002 5.599999999999974
    vertex 23.999999999999968 9.000000000000002 10.399999999999995
  endloop
endfacet
facet normal -1.0 -4.524590120691636e-16 -8.105469984054207e-17
  outer loop
    vertex 23.99999999999997 9.000000000000002 5.599999999999974
    vertex 23.999999999999968 11.100000000000003 10.399999999999995
    vertex 23.999999999999968 11.100000000000003 5.599999999999992
  endloop
endfacet
facet normal 0.0 -1.0 0.0
  outer loop
    vertex 29.99999999999998 11.100000000000003 12.999999999999988
    vertex 23.999999999999968 11.100000000000003 10.399999999999995
    vertex 29.99999999999998 11.100000000000003 10.399999999999986
  endloop
endfacet
facet normal 0.0 -1.0 0.0
  outer loop
    vertex 23.999999999999968 11.100000000000003 10.399999999999995
    vertex 29.99999999999998 11.100000000000003 12.999999999999988
    vertex 23.999999999999968 11.100000000000003 12.999999999999991
  endloop
endfacet
facet normal 1.0 -2.9644251033292734e-16 -1.6341516648522342e-15
  outer loop
    vertex 16.999999999999975 14.901795227607572 5.7688632626910055
    vertex 16.999999999999975 11.100000000000003 5.599999999999974
    vertex 16.999999999999975 11.100000000000003 2.999999999999993
  endloop
endfacet
facet normal 1.0 -2.9644251033292734e-16 -1.6341516648522342e-15
  outer loop
    vertex 16.999999999999975 11.100000000000003 5.599999999999974
    vertex 16.999999999999975 14.901795227607572 5.7688632626910055
    vertex 16.999999999999986 11.100000000000003 10.399999999999991
  endloop
endfacet
facet normal 1.0 -2.9644251033292734e-16 -1.6341516648522342e-15
  outer loop
    vertex 16.999999999999986 11.100000000000003 10.399999999999991
    vertex 16.999999999999975 14.901795227607572 5.7688632626910055
    vertex 16.999999999999986 11.100000000000003 12.999999999999993
  endloop
endfacet
facet normal 1.0 -2.9644251033292734e-16 -1.6341516648522342e-15
  outer loop
    vertex 16.999999999999986 11.100000000000003 12.999999999999993
    vertex 16.999999999999975 14.901795227607572 5.7688632626910055
    vertex 16.999999999999986 14.901795227607572 10.268863262691017
  endloop
endfacet
facet normal 1.0 -2.9644251033292734e-16 -1.6341516648522342e-15
  outer loop
    vertex 16.999999999999975 11.100000000000003 5.599999999999974
    vertex 16.999999999999986 9.000000000000002 10.399999999999991
    vertex 16.999999999999975 9.000000000000002 5.599999999999974
  endloop
endfacet
facet normal 1.0 -2.9644251033292734e-16 -1.6341516648522342e-15
  outer loop
    vertex 16.999999999999986 9.000000000000002 10.399999999999991
    vertex 16.999999999999975 11.100000000000003 5.599999999999974
    vertex 16.999999999999986 11.100000000000003 10.399999999999991
  endloop
endfacet
facet normal -1.0 0.0 0.0
  outer loop
    vertex 10.999999999999973 9.000000000000002 17.999999999999996
    vertex 10.999999999999973 5.000000000000002 -0.49999999999999856
    vertex 10.999999999999973 5.000000000000002 17.999999999999996
  endloop
endfacet
facet normal -1.0 0.0 0.0
  outer loop
    vertex 10.999999999999973 14.901795227607572 10.268863262691026
    vertex 10.999999999999973 11.100000000000003 10.399999999999999
    vertex 10.999999999999973 11.100000000000003 12.999999999999993
  endloop
endfacet
facet normal -1.0 0.0 0.0
  outer loop
    vertex 10.999999999999973 11.100000000000003 10.399999999999999
    vertex 10.999999999999973 14.901795227607572 10.268863262691026
    vertex 10.999999999999973 11.100000000000003 5.599999999999997
  endloop
endfacet
facet normal -1.0 0.0 0.0
  outer loop
    vertex 10.999999999999973 11.100000000000003 5.599999999999997
    vertex 10.999999999999973 14.901795227607572 10.268863262691026
    vertex 10.999999999999973 11.100000000000003 2.9999999999999973
  endloop
endfacet
facet normal -1.0 0.0 0.0
  outer loop
    vertex 10.999999999999973 11.100000000000003 2.9999999999999973
    vertex 10.999999999999973 14.901795227607572 10.268863262691026
    vertex 10.999999999999973 14.901795227607572 5.768863262691028
  endloop
endfacet
facet normal -1.0 0.0 0.0
  outer loop
    vertex 10.999999999999973 11.100000000000003 10.399999999999999
    vertex 10.999999999999973 9.000000000000002 5.599999999999981
    vertex 10.999999999999973 9.000000000000002 10.399999999999999
  endloop
endfacet
facet normal -1.0 0.0 0.0
  outer loop
    vertex 10.999999999999973 9.000000000000002 5.599999999999981
    vertex 10.999999999999973 11.100000000000003 10.399999999999999
    vertex 10.999999999999973 11.100000000000003 5.599999999999997
  endloop
endfacet
facet normal -1.0 0.0 0.0
  outer loop
    vertex 10.999999999999973 5.000000000000002 -0.49999999999999856
    vertex 10.999999999999973 -10.999999999999995 -2.5000000000000044
    vertex 10.999999999999973 -10.999999999999995 -0.5000000000000028
  endloop
endfacet
facet normal -1.0 0.0 0.0
  outer loop
    vertex 10.999999999999973 -10.999999999999995 -2.5000000000000044
    vertex 10.999999999999973 5.000000000000002 -0.49999999999999856
    vertex 10.999999999999973 9.000000000000002 -2.5000000000000018
  endloop
endfacet
facet normal -1.0 0.0 0.0
  outer loop
    vertex 10.999999999999973 9.000000000000002 -2.5000000000000018
    vertex 10.999999999999973 5.000000000000002 -0.49999999999999856
    vertex 10.999999999999973 9.000000000000002 17.999999999999996
  endloop
endfacet
facet normal -1.0 0.0 0.0
  outer loop
    vertex 10.999999999999973 9.000000000000002 -2.5000000000000018
    vertex 10.999999999999973 9.000000000000002 17.999999999999996
    vertex 10.999999999999973 9.000000000000002 10.399999999999999
  endloop
endfacet
facet normal -1.0 0.0 0.0
  outer loop
    vertex 10.999999999999973 9.000000000000002 -2.5000000000000018
    vertex 10.999999999999973 9.000000000000002 10.399999999999999
    vertex 10.999999999999973 9.000000000000002 5.599999999999981
  endloop
endfacet
facet normal 0.0 -1.0 0.0
  outer loop
    vertex 16.999999999999986 11.100000000000003 12.999999999999993
    vertex 10.999999999999973 11.100000000000003 10.399999999999999
    vertex 16.999999999999986 11.100000000000003 10.399999999999991
  endloop
endfacet
facet normal 0.0 -1.0 0.0
  outer loop
    vertex 10.999999999999973 11.100000000000003 10.399999999999999
    vertex 16.999999999999986 11.100000000000003 12.999999999999993
    vertex 10.999999999999973 11.100000000000003 12.999999999999993
  endloop
endfacet
facet normal -0.7767749152718046 -0.6214199322174341 0.10226435765876879
  outer loop
    vertex 22.099999999999973 9.000000000000002 7.99999999999998
    vertex 23.590962644124993 6.999999999999972 7.171779055671913
    vertex 23.699999999999974 6.999999999999972 7.99999999999998
  endloop
endfacet
facet normal -0.7767749152718046 -0.6214199322174341 0.10226435765876879
  outer loop
    vertex 23.590962644124993 6.999999999999972 7.171779055671913
    vertex 22.099999999999973 9.000000000000002 7.99999999999998
    vertex 22.045481322062486 9.000000000000002 7.585889527835946
  endloop
endfacet
facet normal -0.4769509892700935 -0.6214199322174337 0.6215746308185038
  outer loop
    vertex 22.09999999999997 6.999999999999971 5.228718707889777
    vertex 21.63137084989845 9.000000000000002 6.868629150101504
    vertex 21.299999999999972 9.000000000000002 6.614359353944878
  endloop
endfacet
facet normal -0.4769509892700935 -0.6214199322174337 0.6215746308185038
  outer loop
    vertex 21.63137084989845 9.000000000000002 6.868629150101504
    vertex 22.09999999999997 6.999999999999971 5.228718707889777
    vertex 22.762741699796926 6.999999999999972 5.737258300203028
  endloop
endfacet
facet normal -0.6215746308185016 -0.6214199322174343 -0.4769509892700958
  outer loop
    vertex 21.63137084989845 9.000000000000002 9.131370849898456
    vertex 23.271281292110178 6.999999999999973 9.59999999999998
    vertex 22.762741699796926 6.999999999999973 10.26274169979693
  endloop
endfacet
facet normal -0.6215746308185016 -0.6214199322174343 -0.4769509892700958
  outer loop
    vertex 23.271281292110178 6.999999999999973 9.59999999999998
    vertex 21.63137084989845 9.000000000000002 9.131370849898456
    vertex 21.885640646055077 9.000000000000002 8.79999999999998
  endloop
endfacet
facet normal 0.47695098927009705 -0.621419932217434 0.6215746308185008
  outer loop
    vertex 18.89999999999997 6.999999999999971 5.228718707889777
    vertex 19.368629150101498 9.000000000000002 6.868629150101504
    vertex 18.237258300203024 6.999999999999972 5.737258300203028
  endloop
endfacet
facet normal 0.47695098927009705 -0.621419932217434 0.6215746308185008
  outer loop
    vertex 19.368629150101498 9.000000000000002 6.868629150101504
    vertex 18.89999999999997 6.999999999999971 5.228718707889777
    vertex 19.69999999999997 9.000000000000002 6.614359353944878
  endloop
endfacet
facet normal -0.2998239260017083 -0.6214199322174344 -0.7238389884772728
  outer loop
    vertex 21.299999999999976 9.000000000000002 9.385640646055082
    vertex 21.32822094432804 6.999999999999973 11.090962644124998
    vertex 20.91411047216401 9.000000000000002 9.54548132206249
  endloop
endfacet
facet normal -0.2998239260017083 -0.6214199322174344 -0.7238389884772728
  outer loop
    vertex 21.32822094432804 6.999999999999973 11.090962644124998
    vertex 21.299999999999976 9.000000000000002 9.385640646055082
    vertex 22.099999999999977 6.999999999999973 10.771281292110183
  endloop
endfacet
facet normal 0.723838988477272 -0.6214199322174341 0.299823926001711
  outer loop
    vertex 19.114359353944874 9.000000000000002 7.1999999999999815
    vertex 17.409037355874954 6.999999999999972 7.171779055671916
    vertex 17.728718707889772 6.999999999999972 6.399999999999983
  endloop
endfacet
facet normal 0.723838988477272 -0.6214199322174341 0.299823926001711
  outer loop
    vertex 17.409037355874954 6.999999999999972 7.171779055671916
    vertex 19.114359353944874 9.000000000000002 7.1999999999999815
    vertex 18.954518677937465 9.000000000000002 7.585889527835948
  endloop
endfacet
facet normal -0.7767749152718044 -0.6214199322174342 -0.10226435765876876
  outer loop
    vertex 22.045481322062486 9.000000000000002 8.414110472164014
    vertex 23.699999999999974 6.999999999999972 7.99999999999998
    vertex 23.590962644124993 6.999999999999972 8.828220944328047
  endloop
endfacet
facet normal -0.7767749152718044 -0.6214199322174342 -0.10226435765876876
  outer loop
    vertex 23.699999999999974 6.999999999999972 7.99999999999998
    vertex 22.045481322062486 9.000000000000002 8.414110472164014
    vertex 22.099999999999973 9.000000000000002 7.99999999999998
  endloop
endfacet
facet normal -0.723838988477272 -0.6214199322174342 0.2998239260017107
  outer loop
    vertex 22.045481322062486 9.000000000000002 7.585889527835946
    vertex 23.271281292110178 6.999999999999972 6.39999999999998
    vertex 23.590962644124993 6.999999999999972 7.171779055671913
  endloop
endfacet
facet normal -0.723838988477272 -0.6214199322174342 0.2998239260017107
  outer loop
    vertex 23.271281292110178 6.999999999999972 6.39999999999998
    vertex 22.045481322062486 9.000000000000002 7.585889527835946
    vertex 21.885640646055077 9.000000000000002 7.19999999999998
  endloop
endfacet
facet normal 0.7767749152718041 -0.6214199322174339 -0.10226435765877379
  outer loop
    vertex 18.899999999999974 9.000000000000002 7.99999999999998
    vertex 17.409037355874958 6.999999999999972 8.828220944328049
    vertex 17.299999999999972 6.999999999999972 7.99999999999998
  endloop
endfacet
facet normal 0.7767749152718041 -0.6214199322174339 -0.10226435765877379
  outer loop
    vertex 17.409037355874958 6.999999999999972 8.828220944328049
    vertex 18.899999999999974 9.000000000000002 7.99999999999998
    vertex 18.954518677937465 9.000000000000002 8.414110472164014
  endloop
endfacet
facet normal -0.6215746308185014 -0.621419932217434 0.4769509892700962
  outer loop
    vertex 21.885640646055077 9.000000000000002 7.19999999999998
    vertex 22.762741699796926 6.999999999999972 5.737258300203028
    vertex 23.271281292110178 6.999999999999972 6.39999999999998
  endloop
endfacet
facet normal -0.6215746308185014 -0.621419932217434 0.4769509892700962
  outer loop
    vertex 22.762741699796926 6.999999999999972 5.737258300203028
    vertex 21.885640646055077 9.000000000000002 7.19999999999998
    vertex 21.63137084989845 9.000000000000002 6.868629150101504
  endloop
endfacet
facet normal 0.102264357658771 -0.6214199322174337 0.7767749152718046
  outer loop
    vertex 20.499999999999975 6.999999999999971 4.79999999999998
    vertex 20.08588952783594 9.000000000000002 6.454518677937471
    vertex 19.671779055671905 6.999999999999971 4.909037355874962
  endloop
endfacet
facet normal 0.102264357658771 -0.6214199322174337 0.7767749152718046
  outer loop
    vertex 20.08588952783594 9.000000000000002 6.454518677937471
    vertex 20.499999999999975 6.999999999999971 4.79999999999998
    vertex 20.499999999999975 9.000000000000002 6.39999999999998
  endloop
endfacet
facet normal 0.6215746308185013 -0.6214199322174343 -0.47695098927009594
  outer loop
    vertex 19.114359353944874 9.000000000000002 8.799999999999981
    vertex 18.237258300203024 6.999999999999973 10.262741699796933
    vertex 17.728718707889772 6.999999999999973 9.599999999999982
  endloop
endfacet
facet normal 0.6215746308185013 -0.6214199322174343 -0.47695098927009594
  outer loop
    vertex 18.237258300203024 6.999999999999973 10.262741699796933
    vertex 19.114359353944874 9.000000000000002 8.799999999999981
    vertex 19.368629150101498 9.000000000000002 9.131370849898456
  endloop
endfacet
facet normal 0.6215746308185026 -0.621419932217434 0.47695098927009477
  outer loop
    vertex 19.368629150101498 9.000000000000002 6.868629150101504
    vertex 17.728718707889772 6.999999999999972 6.399999999999983
    vertex 18.237258300203024 6.999999999999972 5.737258300203028
  endloop
endfacet
facet normal 0.6215746308185026 -0.621419932217434 0.47695098927009477
  outer loop
    vertex 17.728718707889772 6.999999999999972 6.399999999999983
    vertex 19.368629150101498 9.000000000000002 6.868629150101504
    vertex 19.114359353944874 9.000000000000002 7.1999999999999815
  endloop
endfacet
facet normal 0.7767749152718044 -0.6214199322174342 0.10226435765876926
  outer loop
    vertex 18.954518677937465 9.000000000000002 7.585889527835948
    vertex 17.299999999999972 6.999999999999972 7.99999999999998
    vertex 17.409037355874954 6.999999999999972 7.171779055671916
  endloop
endfacet
facet normal 0.7767749152718044 -0.6214199322174342 0.10226435765876926
  outer loop
    vertex 17.299999999999972 6.999999999999972 7.99999999999998
    vertex 18.954518677937465 9.000000000000002 7.585889527835948
    vertex 18.899999999999974 9.000000000000002 7.99999999999998
  endloop
endfacet
facet normal 0.29982392600170854 -0.6214199322174337 0.7238389884772732
  outer loop
    vertex 19.671779055671905 6.999999999999971 4.909037355874962
    vertex 19.69999999999997 9.000000000000002 6.614359353944878
    vertex 18.89999999999997 6.999999999999971 5.228718707889777
  endloop
endfacet
facet normal 0.29982392600170854 -0.6214199322174337 0.7238389884772732
  outer loop
    vertex 19.69999999999997 9.000000000000002 6.614359353944878
    vertex 19.671779055671905 6.999999999999971 4.909037355874962
    vertex 20.08588952783594 9.000000000000002 6.454518677937471
  endloop
endfacet
facet normal -0.7238389884772722 -0.6214199322174344 -0.2998239260017096
  outer loop
    vertex 23.271281292110178 6.999999999999973 9.59999999999998
    vertex 22.045481322062486 9.000000000000002 8.414110472164014
    vertex 23.590962644124993 6.999999999999972 8.828220944328047
  endloop
endfacet
facet normal -0.7238389884772722 -0.6214199322174344 -0.2998239260017096
  outer loop
    vertex 22.045481322062486 9.000000000000002 8.414110472164014
    vertex 23.271281292110178 6.999999999999973 9.59999999999998
    vertex 21.885640646055077 9.000000000000002 8.79999999999998
  endloop
endfacet
facet normal -0.10226435765877089 -0.6214199322174343 -0.7767749152718041
  outer loop
    vertex 20.91411047216401 9.000000000000002 9.54548132206249
    vertex 20.499999999999975 6.999999999999973 11.19999999999998
    vertex 20.499999999999975 9.000000000000002 9.59999999999998
  endloop
endfacet
facet normal -0.10226435765877089 -0.6214199322174343 -0.7767749152718041
  outer loop
    vertex 20.499999999999975 6.999999999999973 11.19999999999998
    vertex 20.91411047216401 9.000000000000002 9.54548132206249
    vertex 21.32822094432804 6.999999999999973 11.090962644124998
  endloop
endfacet
facet normal -0.4769509892700973 -0.6214199322174343 -0.6215746308185004
  outer loop
    vertex 21.63137084989845 9.000000000000002 9.131370849898456
    vertex 22.099999999999977 6.999999999999973 10.771281292110183
    vertex 21.299999999999976 9.000000000000002 9.385640646055082
  endloop
endfacet
facet normal -0.4769509892700973 -0.6214199322174343 -0.6215746308185004
  outer loop
    vertex 22.099999999999977 6.999999999999973 10.771281292110183
    vertex 21.63137084989845 9.000000000000002 9.131370849898456
    vertex 22.762741699796926 6.999999999999973 10.26274169979693
  endloop
endfacet
facet normal 0.10226435765877165 -0.6214199322174342 -0.7767749152718041
  outer loop
    vertex 20.085889527835942 9.000000000000002 9.54548132206249
    vertex 20.499999999999975 6.999999999999973 11.19999999999998
    vertex 19.67177905567191 6.999999999999973 11.090962644124998
  endloop
endfacet
facet normal 0.10226435765877165 -0.6214199322174342 -0.7767749152718041
  outer loop
    vertex 20.499999999999975 6.999999999999973 11.19999999999998
    vertex 20.085889527835942 9.000000000000002 9.54548132206249
    vertex 20.499999999999975 9.000000000000002 9.59999999999998
  endloop
endfacet
facet normal -0.10226435765877187 -0.6214199322174337 0.7767749152718043
  outer loop
    vertex 21.328220944328038 6.999999999999971 4.909037355874962
    vertex 20.499999999999975 9.000000000000002 6.39999999999998
    vertex 20.499999999999975 6.999999999999971 4.79999999999998
  endloop
endfacet
facet normal -0.10226435765877187 -0.6214199322174337 0.7767749152718043
  outer loop
    vertex 20.499999999999975 9.000000000000002 6.39999999999998
    vertex 21.328220944328038 6.999999999999971 4.909037355874962
    vertex 20.914110472164005 9.000000000000002 6.454518677937471
  endloop
endfacet
facet normal -0.2998239260017086 -0.6214199322174336 0.7238389884772733
  outer loop
    vertex 21.328220944328038 6.999999999999971 4.909037355874962
    vertex 21.299999999999972 9.000000000000002 6.614359353944878
    vertex 20.914110472164005 9.000000000000002 6.454518677937471
  endloop
endfacet
facet normal -0.2998239260017086 -0.6214199322174336 0.7238389884772733
  outer loop
    vertex 21.299999999999972 9.000000000000002 6.614359353944878
    vertex 21.328220944328038 6.999999999999971 4.909037355874962
    vertex 22.09999999999997 6.999999999999971 5.228718707889777
  endloop
endfacet
facet normal 0.47695098927009266 -0.621419932217434 -0.6215746308185041
  outer loop
    vertex 19.368629150101498 9.000000000000002 9.131370849898456
    vertex 18.899999999999977 6.999999999999973 10.771281292110183
    vertex 18.237258300203024 6.999999999999973 10.262741699796933
  endloop
endfacet
facet normal 0.47695098927009266 -0.621419932217434 -0.6215746308185041
  outer loop
    vertex 18.899999999999977 6.999999999999973 10.771281292110183
    vertex 19.368629150101498 9.000000000000002 9.131370849898456
    vertex 19.699999999999974 9.000000000000002 9.385640646055082
  endloop
endfacet
facet normal 0.7238389884772741 -0.6214199322174341 -0.29982392600170554
  outer loop
    vertex 18.954518677937465 9.000000000000002 8.414110472164014
    vertex 17.728718707889772 6.999999999999973 9.599999999999982
    vertex 17.409037355874958 6.999999999999972 8.828220944328049
  endloop
endfacet
facet normal 0.7238389884772741 -0.6214199322174341 -0.29982392600170554
  outer loop
    vertex 17.728718707889772 6.999999999999973 9.599999999999982
    vertex 18.954518677937465 9.000000000000002 8.414110472164014
    vertex 19.114359353944874 9.000000000000002 8.799999999999981
  endloop
endfacet
facet normal 0.2998239260017087 -0.6214199322174342 -0.7238389884772729
  outer loop
    vertex 19.699999999999974 9.000000000000002 9.385640646055082
    vertex 19.67177905567191 6.999999999999973 11.090962644124998
    vertex 18.899999999999977 6.999999999999973 10.771281292110183
  endloop
endfacet
facet normal 0.2998239260017087 -0.6214199322174342 -0.7238389884772729
  outer loop
    vertex 19.67177905567191 6.999999999999973 11.090962644124998
    vertex 19.699999999999974 9.000000000000002 9.385640646055082
    vertex 20.085889527835942 9.000000000000002 9.54548132206249
  endloop
endfacet
facet normal 1.0 4.2714288380177284e-16 -6.848968819760752e-16
  outer loop
    vertex 29.999999999999996 9.000000000000004 -2.5000000000000027
    vertex 29.99999999999998 -10.999999999999995 -0.5000000000000028
    vertex 29.99999999999998 -10.999999999999995 -2.500000000000004
  endloop
endfacet
facet normal 1.0 4.2714288380177284e-16 -6.848968819760752e-16
  outer loop
    vertex 29.99999999999998 -10.999999999999995 -0.5000000000000028
    vertex 29.999999999999996 9.000000000000004 -2.5000000000000027
    vertex 29.99999999999998 5.000000000000002 -0.4999999999999982
  endloop
endfacet
facet normal 1.0 4.2714288380177284e-16 -6.848968819760752e-16
  outer loop
    vertex 29.99999999999998 5.000000000000002 -0.4999999999999982
    vertex 29.999999999999996 9.000000000000004 -2.5000000000000027
    vertex 29.999999999999996 5.000000000000003 17.999999999999996
  endloop
endfacet
facet normal 1.0 4.2714288380177284e-16 -6.848968819760752e-16
  outer loop
    vertex 29.999999999999996 5.000000000000003 17.999999999999996
    vertex 29.999999999999996 9.000000000000004 -2.5000000000000027
    vertex 29.999999999999968 9.000000000000002 5.5999999999999694
  endloop
endfacet
facet normal 1.0 4.2714288380177284e-16 -6.848968819760752e-16
  outer loop
    vertex 29.999999999999968 14.901795227607572 5.768863262691
    vertex 29.999999999999968 11.100000000000003 5.5999999999999694
    vertex 29.999999999999968 11.100000000000003 2.999999999999988
  endloop
endfacet
facet normal 1.0 4.2714288380177284e-16 -6.848968819760752e-16
  outer loop
    vertex 29.999999999999968 11.100000000000003 5.5999999999999694
    vertex 29.999999999999968 14.901795227607572 5.768863262691
    vertex 29.99999999999998 11.100000000000003 10.399999999999986
  endloop
endfacet
facet normal 1.0 4.2714288380177284e-16 -6.848968819760752e-16
  outer loop
    vertex 29.99999999999998 11.100000000000003 10.399999999999986
    vertex 29.999999999999968 14.901795227607572 5.768863262691
    vertex 29.99999999999998 11.100000000000003 12.999999999999988
  endloop
endfacet
facet normal 1.0 4.2714288380177284e-16 -6.848968819760752e-16
  outer loop
    vertex 29.99999999999998 11.100000000000003 12.999999999999988
    vertex 29.999999999999968 14.901795227607572 5.768863262691
    vertex 29.99999999999998 14.901795227607572 10.268863262691013
  endloop
endfacet
facet normal 1.0 4.2714288380177284e-16 -6.848968819760752e-16
  outer loop
    vertex 29.999999999999968 11.100000000000003 5.5999999999999694
    vertex 29.99999999999998 9.000000000000002 10.399999999999991
    vertex 29.999999999999968 9.000000000000002 5.5999999999999694
  endloop
endfacet
facet normal 1.0 4.2714288380177284e-16 -6.848968819760752e-16
  outer loop
    vertex 29.99999999999998 9.000000000000002 10.399999999999991
    vertex 29.999999999999968 11.100000000000003 5.5999999999999694
    vertex 29.99999999999998 11.100000000000003 10.399999999999986
  endloop
endfacet
facet normal 1.0 4.2714288380177284e-16 -6.848968819760752e-16
  outer loop
    vertex 29.999999999999996 5.000000000000003 17.999999999999996
    vertex 29.99999999999998 9.000000000000002 10.399999999999991
    vertex 29.999999999999996 9.000000000000004 17.999999999999996
  endloop
endfacet
facet normal 1.0 4.2714288380177284e-16 -6.848968819760752e-16
  outer loop
    vertex 29.99999999999998 9.000000000000002 10.399999999999991
    vertex 29.999999999999996 5.000000000000003 17.999999999999996
    vertex 29.999999999999968 9.000000000000002 5.5999999999999694
  endloop
endfacet
facet normal -3.4746668721407336e-17 1.0 -7.550032804685674e-32
  outer loop
    vertex 16.999999999999975 9.000000000000002 5.599999999999974
    vertex 23.99999999999997 9.000000000000002 5.599999999999974
    vertex 29.999999999999968 9.000000000000002 5.5999999999999694
  endloop
endfacet
facet normal -3.4746668721407336e-17 1.0 -7.550032804685674e-32
  outer loop
    vertex 23.99999999999997 9.000000000000002 5.599999999999974
    vertex 16.999999999999975 9.000000000000002 5.599999999999974
    vertex 20.08588952783594 9.000000000000002 6.454518677937471
  endloop
endfacet
facet normal -3.4746668721407336e-17 1.0 -7.550032804685674e-32
  outer loop
    vertex 20.08588952783594 9.000000000000002 6.454518677937471
    vertex 16.999999999999975 9.000000000000002 5.599999999999974
    vertex 19.69999999999997 9.000000000000002 6.614359353944878
  endloop
endfacet
facet normal -3.4746668721407336e-17 1.0 -7.550032804685674e-32
  outer loop
    vertex 19.69999999999997 9.000000000000002 6.614359353944878
    vertex 16.999999999999975 9.000000000000002 5.599999999999974
    vertex 19.368629150101498 9.000000000000002 6.868629150101504
  endloop
endfacet
facet normal -3.4746668721407336e-17 1.0 -7.550032804685674e-32
  outer loop
    vertex 19.368629150101498 9.000000000000002 6.868629150101504
    vertex 16.999999999999975 9.000000000000002 5.599999999999974
    vertex 19.114359353944874 9.000000000000002 7.1999999999999815
  endloop
endfacet
facet normal -3.4746668721407336e-17 1.0 -7.550032804685674e-32
  outer loop
    vertex 19.114359353944874 9.000000000000002 7.1999999999999815
    vertex 16.999999999999975 9.000000000000002 5.599999999999974
    vertex 16.999999999999986 9.000000000000002 10.399999999999991
  endloop
endfacet
facet normal -3.4746668721407336e-17 1.0 -7.550032804685674e-32
  outer loop
    vertex 23.99999999999997 9.000000000000002 5.599999999999974
    vertex 20.08588952783594 9.000000000000002 6.454518677937471
    vertex 20.499999999999975 9.000000000000002 6.39999999999998
  endloop
endfacet
facet normal -3.4746668721407336e-17 1.0 -7.550032804685674e-32
  outer loop
    vertex 19.114359353944874 9.000000000000002 7.1999999999999815
    vertex 16.999999999999986 9.000000000000002 10.399999999999991
    vertex 18.954518677937465 9.000000000000002 7.585889527835948
  endloop
endfacet
facet normal -3.4746668721407336e-17 1.0 -7.550032804685674e-32
  outer loop
    vertex 18.954518677937465 9.000000000000002 7.585889527835948
    vertex 16.999999999999986 9.000000000000002 10.399999999999991
    vertex 18.899999999999974 9.000000000000002 7.99999999999998
  endloop
endfacet
facet normal -3.4746668721407336e-17 1.0 -7.550032804685674e-32
  outer loop
    vertex 18.899999999999974 9.000000000000002 7.99999999999998
    vertex 16.999999999999986 9.000000000000002 10.399999999999991
    vertex 18.954518677937465 9.000000000000002 8.414110472164014
  endloop
endfacet
facet normal -3.4746668721407336e-17 1.0 -7.550032804685674e-32
  outer loop
    vertex 18.954518677937465 9.000000000000002 8.414110472164014
    vertex 16.999999999999986 9.000000000000002 10.399999999999991
    vertex 19.114359353944874 9.000000000000002 8.799999999999981
  endloop
endfacet
facet normal -3.4746668721407336e-17 1.0 -7.550032804685674e-32
  outer loop
    vertex 19.114359353944874 9.000000000000002 8.799999999999981
    vertex 16.999999999999986 9.000000000000002 10.399999999999991
    vertex 19.368629150101498 9.000000000000002 9.131370849898456
  endloop
endfacet
facet normal -3.4746668721407336e-17 1.0 -7.550032804685674e-32
  outer loop
    vertex 19.368629150101498 9.000000000000002 9.131370849898456
    vertex 16.999999999999986 9.000000000000002 10.399999999999991
    vertex 19.699999999999974 9.000000000000002 9.385640646055082
  endloop
endfacet
facet normal -3.4746668721407336e-17 1.0 -7.550032804685674e-32
  outer loop
    vertex 19.699999999999974 9.000000000000002 9.385640646055082
    vertex 16.999999999999986 9.000000000000002 10.399999999999991
    vertex 20.085889527835942 9.000000000000002 9.54548132206249
  endloop
endfacet
facet normal -3.4746668721407336e-17 1.0 -7.550032804685674e-32
  outer loop
    vertex 20.085889527835942 9.000000000000002 9.54548132206249
    vertex 16.999999999999986 9.000000000000002 10.399999999999991
    vertex 20.499999999999975 9.000000000000002 9.59999999999998
  endloop
endfacet
facet normal -3.4746668721407336e-17 1.0 -7.550032804685674e-32
  outer loop
    vertex 23.99999999999997 9.000000000000002 5.599999999999974
    vertex 21.885640646055077 9.000000000000002 7.19999999999998
    vertex 23.999999999999968 9.000000000000002 10.399999999999995
  endloop
endfacet
facet normal -3.4746668721407336e-17 1.0 -7.550032804685674e-32
  outer loop
    vertex 21.885640646055077 9.000000000000002 7.19999999999998
    vertex 23.99999999999997 9.000000000000002 5.599999999999974
    vertex 21.63137084989845 9.000000000000002 6.868629150101504
  endloop
endfacet
facet normal -3.4746668721407336e-17 1.0 -7.550032804685674e-32
  outer loop
    vertex 21.63137084989845 9.000000000000002 6.868629150101504
    vertex 23.99999999999997 9.000000000000002 5.599999999999974
    vertex 21.299999999999972 9.000000000000002 6.614359353944878
  endloop
endfacet
facet normal -3.4746668721407336e-17 1.0 -7.550032804685674e-32
  outer loop
    vertex 21.299999999999972 9.000000000000002 6.614359353944878
    vertex 23.99999999999997 9.000000000000002 5.599999999999974
    vertex 20.914110472164005 9.000000000000002 6.454518677937471
  endloop
endfacet
facet normal -3.4746668721407336e-17 1.0 -7.550032804685674e-32
  outer loop
    vertex 20.914110472164005 9.000000000000002 6.454518677937471
    vertex 23.99999999999997 9.000000000000002 5.599999999999974
    vertex 20.499999999999975 9.000000000000002 6.39999999999998
  endloop
endfacet
facet normal -3.4746668721407336e-17 1.0 -7.550032804685674e-32
  outer loop
    vertex 23.999999999999968 9.000000000000002 10.399999999999995
    vertex 21.885640646055077 9.000000000000002 7.19999999999998
    vertex 22.045481322062486 9.000000000000002 7.585889527835946
  endloop
endfacet
facet normal -3.4746668721407336e-17 1.0 -7.550032804685674e-32
  outer loop
    vertex 23.999999999999968 9.000000000000002 10.399999999999995
    vertex 22.045481322062486 9.000000000000002 7.585889527835946
    vertex 22.099999999999973 9.000000000000002 7.99999999999998
  endloop
endfacet
facet normal -3.4746668721407336e-17 1.0 -7.550032804685674e-32
  outer loop
    vertex 23.999999999999968 9.000000000000002 10.399999999999995
    vertex 22.099999999999973 9.000000000000002 7.99999999999998
    vertex 22.045481322062486 9.000000000000002 8.414110472164014
  endloop
endfacet
facet normal -3.4746668721407336e-17 1.0 -7.550032804685674e-32
  outer loop
    vertex 23.999999999999968 9.000000000000002 10.399999999999995
    vertex 22.045481322062486 9.000000000000002 8.414110472164014
    vertex 21.885640646055077 9.000000000000002 8.79999999999998
  endloop
endfacet
facet normal -3.4746668721407336e-17 1.0 -7.550032804685674e-32
  outer loop
    vertex 23.999999999999968 9.000000000000002 10.399999999999995
    vertex 21.885640646055077 9.000000000000002 8.79999999999998
    vertex 21.63137084989845 9.000000000000002 9.131370849898456
  endloop
endfacet
facet normal -3.4746668721407336e-17 1.0 -7.550032804685674e-32
  outer loop
    vertex 23.999999999999968 9.000000000000002 10.399999999999995
    vertex 21.63137084989845 9.000000000000002 9.131370849898456
    vertex 21.299999999999976 9.000000000000002 9.385640646055082
  endloop
endfacet
facet normal -3.4746668721407336e-17 1.0 -7.550032804685674e-32
  outer loop
    vertex 23.999999999999968 9.000000000000002 10.399999999999995
    vertex 21.299999999999976 9.000000000000002 9.385640646055082
    vertex 20.91411047216401 9.000000000000002 9.54548132206249
  endloop
endfacet
facet normal -3.4746668721407336e-17 1.0 -7.550032804685674e-32
  outer loop
    vertex 23.999999999999968 9.000000000000002 10.399999999999995
    vertex 20.91411047216401 9.000000000000002 9.54548132206249
    vertex 20.499999999999975 9.000000000000002 9.59999999999998
  endloop
endfacet
facet normal -3.4746668721407336e-17 1.0 -7.550032804685674e-32
  outer loop
    vertex 23.999999999999968 9.000000000000002 10.399999999999995
    vertex 20.499999999999975 9.000000000000002 9.59999999999998
    vertex 16.999999999999986 9.000000000000002 10.399999999999991
  endloop
endfacet
facet normal -3.4746668721407336e-17 1.0 -7.550032804685674e-32
  outer loop
    vertex 23.999999999999968 9.000000000000002 10.399999999999995
    vertex 16.999999999999986 9.000000000000002 10.399999999999991
    vertex 10.999999999999973 9.000000000000002 10.399999999999999
  endloop
endfacet
facet normal -3.4746668721407336e-17 1.0 -7.550032804685674e-32
  outer loop
    vertex 23.999999999999968 9.000000000000002 10.399999999999995
    vertex 29.999999999999996 9.000000000000004 17.999999999999996
    vertex 29.99999999999998 9.000000000000002 10.399999999999991
  endloop
endfacet
facet normal -3.4746668721407336e-17 1.0 -7.550032804685674e-32
  outer loop
    vertex 29.999999999999996 9.000000000000004 17.999999999999996
    vertex 23.999999999999968 9.000000000000002 10.399999999999995
    vertex 10.999999999999973 9.000000000000002 10.399999999999999
  endloop
endfacet
facet normal -3.4746668721407336e-17 1.0 -7.550032804685674e-32
  outer loop
    vertex 29.999999999999996 9.000000000000004 17.999999999999996
    vertex 10.999999999999973 9.000000000000002 10.399999999999999
    vertex 10.999999999999973 9.000000000000002 17.999999999999996
  endloop
endfacet
facet normal -3.4746668721407336e-17 1.0 -7.550032804685674e-32
  outer loop
    vertex 10.999999999999973 9.000000000000002 -2.5000000000000018
    vertex 29.999999999999968 9.000000000000002 5.5999999999999694
    vertex 29.999999999999996 9.000000000000004 -2.5000000000000027
  endloop
endfacet
facet normal -3.4746668721407336e-17 1.0 -7.550032804685674e-32
  outer loop
    vertex 29.999999999999968 9.000000000000002 5.5999999999999694
    vertex 10.999999999999973 9.000000000000002 -2.5000000000000018
    vertex 16.999999999999975 9.000000000000002 5.599999999999974
  endloop
endfacet
facet normal -3.4746668721407336e-17 1.0 -7.550032804685674e-32
  outer loop
    vertex 16.999999999999975 9.000000000000002 5.599999999999974
    vertex 10.999999999999973 9.000000000000002 -2.5000000000000018
    vertex 10.999999999999973 9.000000000000002 5.599999999999981
  endloop
endfacet
facet normal 2.079149516397607e-17 -3.19069483477941e-17 -1.0
  outer loop
    vertex 29.999999999999996 9.000000000000004 -2.5000000000000027
    vertex 10.999999999999973 -10.999999999999995 -2.5000000000000044
    vertex 10.999999999999973 9.000000000000002 -2.5000000000000018
  endloop
endfacet
facet normal 2.079149516397607e-17 -3.19069483477941e-17 -1.0
  outer loop
    vertex 10.999999999999973 -10.999999999999995 -2.5000000000000044
    vertex 29.999999999999996 9.000000000000004 -2.5000000000000027
    vertex 29.99999999999998 -10.999999999999995 -2.500000000000004
  endloop
endfacet
facet normal -3.710482213878811e-17 -1.0 -3.5249581031848684e-16
  outer loop
    vertex 29.99999999999998 -10.999999999999995 -2.500000000000004
    vertex 10.999999999999973 -10.999999999999995 -0.5000000000000028
    vertex 10.999999999999973 -10.999999999999995 -2.5000000000000044
  endloop
endfacet
facet normal -3.710482213878811e-17 -1.0 -3.5249581031848684e-16
  outer loop
    vertex 10.999999999999973 -10.999999999999995 -0.5000000000000028
    vertex 29.99999999999998 -10.999999999999995 -2.500000000000004
    vertex 29.99999999999998 -10.999999999999995 -0.5000000000000028
  endloop
endfacet
facet normal -0.0 -0.0 1.0
  outer loop
    vertex 29.999999999999996 5.000000000000003 17.999999999999996
    vertex 10.999999999999973 9.000000000000002 17.999999999999996
    vertex 10.999999999999973 5.000000000000002 17.999999999999996
  endloop
endfacet
facet normal -0.0 -0.0 1.0
  outer loop
    vertex 10.999999999999973 9.000000000000002 17.999999999999996
    vertex 29.999999999999996 5.000000000000003 17.999999999999996
    vertex 29.999999999999996 9.000000000000004 17.999999999999996
  endloop
endfacet
facet normal -9.27620553469703e-18 -1.7624790515924357e-17 1.0
  outer loop
    vertex 29.99999999999998 -10.999999999999995 -0.5000000000000028
    vertex 10.999999999999973 5.000000000000002 -0.49999999999999856
    vertex 10.999999999999973 -10.999999999999995 -0.5000000000000028
  endloop
endfacet
facet normal -9.27620553469703e-18 -1.7624790515924357e-17 1.0
  outer loop
    vertex 10.999999999999973 5.000000000000002 -0.49999999999999856
    vertex 29.99999999999998 -10.999999999999995 -0.5000000000000028
    vertex 29.99999999999998 5.000000000000002 -0.4999999999999982
  endloop
endfacet
facet normal -2.394741599871273e-16 -1.0 7.03885792781506e-16
  outer loop
    vertex 29.99999999999998 5.000000000000002 -0.4999999999999982
    vertex 21.328220944328038 4.999999999999971 4.909037355874964
    vertex 20.499999999999975 4.999999999999971 4.799999999999981
  endloop
endfacet
facet normal -2.394741599871273e-16 -1.0 7.03885792781506e-16
  outer loop
    vertex 21.328220944328038 4.999999999999971 4.909037355874964
    vertex 29.99999999999998 5.000000000000002 -0.4999999999999982
    vertex 22.09999999999997 4.999999999999971 5.228718707889778
  endloop
endfacet
facet normal -2.394741599871273e-16 -1.0 7.03885792781506e-16
  outer loop
    vertex 22.09999999999997 4.999999999999971 5.228718707889778
    vertex 29.99999999999998 5.000000000000002 -0.4999999999999982
    vertex 22.762741699796926 4.999999999999972 5.73725830020303
  endloop
endfacet
facet normal -2.394741599871273e-16 -1.0 7.03885792781506e-16
  outer loop
    vertex 22.762741699796926 4.999999999999972 5.73725830020303
    vertex 29.99999999999998 5.000000000000002 -0.4999999999999982
    vertex 23.271281292110178 4.999999999999972 6.399999999999981
  endloop
endfacet
facet normal -2.394741599871273e-16 -1.0 7.03885792781506e-16
  outer loop
    vertex 23.271281292110178 4.999999999999972 6.399999999999981
    vertex 29.99999999999998 5.000000000000002 -0.4999999999999982
    vertex 29.999999999999996 5.000000000000003 17.999999999999996
  endloop
endfacet
facet normal -2.394741599871273e-16 -1.0 7.03885792781506e-16
  outer loop
    vertex 23.271281292110178 4.999999999999972 6.399999999999981
    vertex 29.999999999999996 5.000000000000003 17.999999999999996
    vertex 23.590962644124993 4.999999999999972 7.171779055671914
  endloop
endfacet
facet normal -2.394741599871273e-16 -1.0 7.03885792781506e-16
  outer loop
    vertex 23.590962644124993 4.999999999999972 7.171779055671914
    vertex 29.999999999999996 5.000000000000003 17.999999999999996
    vertex 23.699999999999974 4.999999999999972 7.999999999999981
  endloop
endfacet
facet normal -2.394741599871273e-16 -1.0 7.03885792781506e-16
  outer loop
    vertex 23.699999999999974 4.999999999999972 7.999999999999981
    vertex 29.999999999999996 5.000000000000003 17.999999999999996
    vertex 23.590962644124993 4.999999999999972 8.828220944328049
  endloop
endfacet
facet normal -2.394741599871273e-16 -1.0 7.03885792781506e-16
  outer loop
    vertex 23.590962644124993 4.999999999999972 8.828220944328049
    vertex 29.999999999999996 5.000000000000003 17.999999999999996
    vertex 23.271281292110178 4.999999999999973 9.599999999999982
  endloop
endfacet
facet normal -2.394741599871273e-16 -1.0 7.03885792781506e-16
  outer loop
    vertex 23.271281292110178 4.999999999999973 9.599999999999982
    vertex 29.999999999999996 5.000000000000003 17.999999999999996
    vertex 22.762741699796926 4.999999999999973 10.262741699796932
  endloop
endfacet
facet normal -2.394741599871273e-16 -1.0 7.03885792781506e-16
  outer loop
    vertex 22.762741699796926 4.999999999999973 10.262741699796932
    vertex 29.999999999999996 5.000000000000003 17.999999999999996
    vertex 22.099999999999977 4.999999999999973 10.771281292110185
  endloop
endfacet
facet normal -2.394741599871273e-16 -1.0 7.03885792781506e-16
  outer loop
    vertex 22.099999999999977 4.999999999999973 10.771281292110185
    vertex 29.999999999999996 5.000000000000003 17.999999999999996
    vertex 21.32822094432804 4.999999999999973 11.090962644124998
  endloop
endfacet
facet normal -2.394741599871273e-16 -1.0 7.03885792781506e-16
  outer loop
    vertex 21.32822094432804 4.999999999999973 11.090962644124998
    vertex 29.999999999999996 5.000000000000003 17.999999999999996
    vertex 20.499999999999975 4.999999999999973 11.199999999999982
  endloop
endfacet
facet normal -2.394741599871273e-16 -1.0 7.03885792781506e-16
  outer loop
    vertex 10.999999999999973 5.000000000000002 -0.49999999999999856
    vertex 17.728718707889772 4.999999999999972 6.399999999999984
    vertex 10.999999999999973 5.000000000000002 17.999999999999996
  endloop
endfacet
facet normal -2.394741599871273e-16 -1.0 7.03885792781506e-16
  outer loop
    vertex 17.728718707889772 4.999999999999972 6.399999999999984
    vertex 10.999999999999973 5.000000000000002 -0.49999999999999856
    vertex 18.237258300203024 4.999999999999972 5.73725830020303
  endloop
endfacet
facet normal -2.394741599871273e-16 -1.0 7.03885792781506e-16
  outer loop
    vertex 18.237258300203024 4.999999999999972 5.73725830020303
    vertex 10.999999999999973 5.000000000000002 -0.49999999999999856
    vertex 18.89999999999997 4.999999999999971 5.228718707889778
  endloop
endfacet
facet normal -2.394741599871273e-16 -1.0 7.03885792781506e-16
  outer loop
    vertex 18.89999999999997 4.999999999999971 5.228718707889778
    vertex 10.999999999999973 5.000000000000002 -0.49999999999999856
    vertex 29.99999999999998 5.000000000000002 -0.4999999999999982
  endloop
endfacet
facet normal -2.394741599871273e-16 -1.0 7.03885792781506e-16
  outer loop
    vertex 18.89999999999997 4.999999999999971 5.228718707889778
    vertex 29.99999999999998 5.000000000000002 -0.4999999999999982
    vertex 19.671779055671905 4.999999999999971 4.909037355874964
  endloop
endfacet
facet normal -2.394741599871273e-16 -1.0 7.03885792781506e-16
  outer loop
    vertex 19.671779055671905 4.999999999999971 4.909037355874964
    vertex 29.99999999999998 5.000000000000002 -0.4999999999999982
    vertex 20.499999999999975 4.999999999999971 4.799999999999981
  endloop
endfacet
facet normal -2.394741599871273e-16 -1.0 7.03885792781506e-16
  outer loop
    vertex 10.999999999999973 5.000000000000002 17.999999999999996
    vertex 17.728718707889772 4.999999999999972 6.399999999999984
    vertex 17.409037355874954 4.999999999999972 7.171779055671918
  endloop
endfacet
facet normal -2.394741599871273e-16 -1.0 7.03885792781506e-16
  outer loop
    vertex 10.999999999999973 5.000000000000002 17.999999999999996
    vertex 17.409037355874954 4.999999999999972 7.171779055671918
    vertex 17.299999999999972 4.999999999999972 7.999999999999981
  endloop
endfacet
facet normal -2.394741599871273e-16 -1.0 7.03885792781506e-16
  outer loop
    vertex 10.999999999999973 5.000000000000002 17.999999999999996
    vertex 17.299999999999972 4.999999999999972 7.999999999999981
    vertex 17.409037355874958 4.999999999999972 8.82822094432805
  endloop
endfacet
facet normal -2.394741599871273e-16 -1.0 7.03885792781506e-16
  outer loop
    vertex 10.999999999999973 5.000000000000002 17.999999999999996
    vertex 17.409037355874958 4.999999999999972 8.82822094432805
    vertex 17.728718707889772 4.999999999999973 9.599999999999984
  endloop
endfacet
facet normal -2.394741599871273e-16 -1.0 7.03885792781506e-16
  outer loop
    vertex 10.999999999999973 5.000000000000002 17.999999999999996
    vertex 17.728718707889772 4.999999999999973 9.599999999999984
    vertex 18.237258300203024 4.999999999999973 10.262741699796935
  endloop
endfacet
facet normal -2.394741599871273e-16 -1.0 7.03885792781506e-16
  outer loop
    vertex 10.999999999999973 5.000000000000002 17.999999999999996
    vertex 18.237258300203024 4.999999999999973 10.262741699796935
    vertex 18.899999999999977 4.999999999999973 10.771281292110185
  endloop
endfacet
facet normal -2.394741599871273e-16 -1.0 7.03885792781506e-16
  outer loop
    vertex 10.999999999999973 5.000000000000002 17.999999999999996
    vertex 18.899999999999977 4.999999999999973 10.771281292110185
    vertex 19.67177905567191 4.999999999999973 11.090962644124998
  endloop
endfacet
facet normal -2.394741599871273e-16 -1.0 7.03885792781506e-16
  outer loop
    vertex 10.999999999999973 5.000000000000002 17.999999999999996
    vertex 19.67177905567191 4.999999999999973 11.090962644124998
    vertex 20.499999999999975 4.999999999999973 11.199999999999982
  endloop
endfacet
facet normal -2.394741599871273e-16 -1.0 7.03885792781506e-16
  outer loop
    vertex 10.999999999999973 5.000000000000002 17.999999999999996
    vertex 20.499999999999975 4.999999999999973 11.199999999999982
    vertex 29.999999999999996 5.000000000000003 17.999999999999996
  endloop
endfacet
facet normal 0.99144486137381 -3.2930095764061186e-16 -0.13052619222005526
  outer loop
    vertex 17.299999999999972 6.999999999999972 7.99999999999998
    vertex 17.409037355874958 4.999999999999972 8.82822094432805
    vertex 17.299999999999972 4.999999999999972 7.999999999999981
  endloop
endfacet
facet normal 0.99144486137381 -3.2930095764061186e-16 -0.13052619222005526
  outer loop
    vertex 17.409037355874958 4.999999999999972 8.82822094432805
    vertex 17.299999999999972 6.999999999999972 7.99999999999998
    vertex 17.409037355874958 6.999999999999972 8.828220944328049
  endloop
endfacet
facet normal 0.9238795325112881 -4.906107061520874e-16 -0.3826834323650867
  outer loop
    vertex 17.409037355874958 6.999999999999972 8.828220944328049
    vertex 17.728718707889772 4.999999999999973 9.599999999999984
    vertex 17.409037355874958 4.999999999999972 8.82822094432805
  endloop
endfacet
facet normal 0.9238795325112881 -4.906107061520874e-16 -0.3826834323650867
  outer loop
    vertex 17.728718707889772 4.999999999999973 9.599999999999984
    vertex 17.409037355874958 6.999999999999972 8.828220944328049
    vertex 17.728718707889772 6.999999999999973 9.599999999999982
  endloop
endfacet
facet normal 0.7933533402912344 -6.184861458118314e-16 -0.6087614290087217
  outer loop
    vertex 17.728718707889772 6.999999999999973 9.599999999999982
    vertex 18.237258300203024 4.999999999999973 10.262741699796935
    vertex 17.728718707889772 4.999999999999973 9.599999999999984
  endloop
endfacet
facet normal 0.7933533402912344 -6.184861458118314e-16 -0.6087614290087217
  outer loop
    vertex 18.237258300203024 4.999999999999973 10.262741699796935
    vertex 17.728718707889772 6.999999999999973 9.599999999999982
    vertex 18.237258300203024 6.999999999999973 10.262741699796933
  endloop
endfacet
facet normal 0.6087614290087179 -7.042127767311794e-16 -0.7933533402912373
  outer loop
    vertex 18.899999999999977 6.999999999999973 10.771281292110183
    vertex 18.237258300203024 4.999999999999973 10.262741699796935
    vertex 18.237258300203024 6.999999999999973 10.262741699796933
  endloop
endfacet
facet normal 0.6087614290087179 -7.042127767311794e-16 -0.7933533402912373
  outer loop
    vertex 18.237258300203024 4.999999999999973 10.262741699796935
    vertex 18.899999999999977 6.999999999999973 10.771281292110183
    vertex 18.899999999999977 4.999999999999973 10.771281292110185
  endloop
endfacet
facet normal 0.38268343236508967 -7.419484706829348e-16 -0.923879532511287
  outer loop
    vertex 19.67177905567191 6.999999999999973 11.090962644124998
    vertex 18.899999999999977 4.999999999999973 10.771281292110185
    vertex 18.899999999999977 6.999999999999973 10.771281292110183
  endloop
endfacet
facet normal 0.38268343236508967 -7.419484706829348e-16 -0.923879532511287
  outer loop
    vertex 18.899999999999977 4.999999999999973 10.771281292110185
    vertex 19.67177905567191 6.999999999999973 11.090962644124998
    vertex 19.67177905567191 4.999999999999973 11.090962644124998
  endloop
endfacet
facet normal 0.13052619222005282 -7.291216024854703e-16 -0.9914448613738104
  outer loop
    vertex 20.499999999999975 6.999999999999973 11.19999999999998
    vertex 19.67177905567191 4.999999999999973 11.090962644124998
    vertex 19.67177905567191 6.999999999999973 11.090962644124998
  endloop
endfacet
facet normal 0.13052619222005282 -7.291216024854703e-16 -0.9914448613738104
  outer loop
    vertex 19.67177905567191 4.999999999999973 11.090962644124998
    vertex 20.499999999999975 6.999999999999973 11.19999999999998
    vertex 20.499999999999975 4.999999999999973 11.199999999999982
  endloop
endfacet
facet normal -0.13052619222005193 -6.666063020090396e-16 -0.9914448613738104
  outer loop
    vertex 21.32822094432804 6.999999999999973 11.090962644124998
    vertex 20.499999999999975 4.999999999999973 11.199999999999982
    vertex 20.499999999999975 6.999999999999973 11.19999999999998
  endloop
endfacet
facet normal -0.13052619222005193 -6.666063020090396e-16 -0.9914448613738104
  outer loop
    vertex 20.499999999999975 4.999999999999973 11.199999999999982
    vertex 21.32822094432804 6.999999999999973 11.090962644124998
    vertex 21.32822094432804 4.999999999999973 11.090962644124998
  endloop
endfacet
facet normal -0.38268343236508967 -5.586628836696938e-16 -0.923879532511287
  outer loop
    vertex 22.099999999999977 6.999999999999973 10.771281292110183
    vertex 21.32822094432804 4.999999999999973 11.090962644124998
    vertex 21.32822094432804 6.999999999999973 11.090962644124998
  endloop
endfacet
facet normal -0.38268343236508967 -5.586628836696938e-16 -0.923879532511287
  outer loop
    vertex 21.32822094432804 4.999999999999973 11.090962644124998
    vertex 22.099999999999977 6.999999999999973 10.771281292110183
    vertex 22.099999999999977 4.999999999999973 10.771281292110185
  endloop
endfacet
facet normal -0.6087614290087233 -4.1264751304232335e-16 -0.7933533402912333
  outer loop
    vertex 22.762741699796926 6.999999999999973 10.26274169979693
    vertex 22.099999999999977 4.999999999999973 10.771281292110185
    vertex 22.099999999999977 6.999999999999973 10.771281292110183
  endloop
endfacet
facet normal -0.6087614290087233 -4.1264751304232335e-16 -0.7933533402912333
  outer loop
    vertex 22.099999999999977 4.999999999999973 10.771281292110185
    vertex 22.762741699796926 6.999999999999973 10.26274169979693
    vertex 22.762741699796926 4.999999999999973 10.262741699796932
  endloop
endfacet
facet normal -0.7933533402912344 -2.3851089633338155e-16 -0.6087614290087217
  outer loop
    vertex 22.762741699796926 6.999999999999973 10.26274169979693
    vertex 23.271281292110178 4.999999999999973 9.599999999999982
    vertex 22.762741699796926 4.999999999999973 10.262741699796932
  endloop
endfacet
facet normal -0.7933533402912344 -2.3851089633338155e-16 -0.6087614290087217
  outer loop
    vertex 23.271281292110178 4.999999999999973 9.599999999999982
    vertex 22.762741699796926 6.999999999999973 10.26274169979693
    vertex 23.271281292110178 6.999999999999973 9.59999999999998
  endloop
endfacet
facet normal -0.9238795325112856 -4.8120156197210904e-17 -0.38268343236509245
  outer loop
    vertex 23.271281292110178 4.999999999999973 9.599999999999982
    vertex 23.590962644124993 6.999999999999972 8.828220944328047
    vertex 23.590962644124993 4.999999999999972 8.828220944328049
  endloop
endfacet
facet normal -0.9238795325112856 -4.8120156197210904e-17 -0.38268343236509245
  outer loop
    vertex 23.590962644124993 6.999999999999972 8.828220944328047
    vertex 23.271281292110178 4.999999999999973 9.599999999999982
    vertex 23.271281292110178 6.999999999999973 9.59999999999998
  endloop
endfacet
facet normal -0.9914448613738108 1.4554989306148678e-16 -0.13052619222004908
  outer loop
    vertex 23.590962644124993 6.999999999999972 8.828220944328047
    vertex 23.699999999999974 4.999999999999972 7.999999999999981
    vertex 23.590962644124993 4.999999999999972 8.828220944328049
  endloop
endfacet
facet normal -0.9914448613738108 1.4554989306148678e-16 -0.13052619222004908
  outer loop
    vertex 23.699999999999974 4.999999999999972 7.999999999999981
    vertex 23.590962644124993 6.999999999999972 8.828220944328047
    vertex 23.699999999999974 6.999999999999972 7.99999999999998
  endloop
endfacet
facet normal -0.9914448613738108 3.2930095764060767e-16 0.13052619222004908
  outer loop
    vertex 23.699999999999974 6.999999999999972 7.99999999999998
    vertex 23.590962644124993 4.999999999999972 7.171779055671914
    vertex 23.699999999999974 4.999999999999972 7.999999999999981
  endloop
endfacet
facet normal -0.9914448613738108 3.2930095764060767e-16 0.13052619222004908
  outer loop
    vertex 23.590962644124993 4.999999999999972 7.171779055671914
    vertex 23.699999999999974 6.999999999999972 7.99999999999998
    vertex 23.590962644124993 6.999999999999972 7.171779055671913
  endloop
endfacet
facet normal -0.9238795325112856 4.906107061520909e-16 0.38268343236509245
  outer loop
    vertex 23.590962644124993 6.999999999999972 7.171779055671913
    vertex 23.271281292110178 4.999999999999972 6.399999999999981
    vertex 23.590962644124993 4.999999999999972 7.171779055671914
  endloop
endfacet
facet normal -0.9238795325112856 4.906107061520909e-16 0.38268343236509245
  outer loop
    vertex 23.271281292110178 4.999999999999972 6.399999999999981
    vertex 23.590962644124993 6.999999999999972 7.171779055671913
    vertex 23.271281292110178 6.999999999999972 6.39999999999998
  endloop
endfacet
facet normal -0.7933533402912344 6.184861458118314e-16 0.6087614290087217
  outer loop
    vertex 23.271281292110178 6.999999999999972 6.39999999999998
    vertex 22.762741699796926 4.999999999999972 5.73725830020303
    vertex 23.271281292110178 4.999999999999972 6.399999999999981
  endloop
endfacet
facet normal -0.7933533402912344 6.184861458118314e-16 0.6087614290087217
  outer loop
    vertex 22.762741699796926 4.999999999999972 5.73725830020303
    vertex 23.271281292110178 6.999999999999972 6.39999999999998
    vertex 22.762741699796926 6.999999999999972 5.737258300203028
  endloop
endfacet
facet normal -0.6087614290087201 7.042127767311789e-16 0.7933533402912358
  outer loop
    vertex 22.762741699796926 4.999999999999972 5.73725830020303
    vertex 22.09999999999997 6.999999999999971 5.228718707889777
    vertex 22.09999999999997 4.999999999999971 5.228718707889778
  endloop
endfacet
facet normal -0.6087614290087201 7.042127767311789e-16 0.7933533402912358
  outer loop
    vertex 22.09999999999997 6.999999999999971 5.228718707889777
    vertex 22.762741699796926 4.999999999999972 5.73725830020303
    vertex 22.762741699796926 6.999999999999972 5.737258300203028
  endloop
endfacet
facet normal -0.38268343236508967 7.419484706829348e-16 0.923879532511287
  outer loop
    vertex 22.09999999999997 4.999999999999971 5.228718707889778
    vertex 21.328220944328038 6.999999999999971 4.909037355874962
    vertex 21.328220944328038 4.999999999999971 4.909037355874964
  endloop
endfacet
facet normal -0.38268343236508967 7.419484706829348e-16 0.923879532511287
  outer loop
    vertex 21.328220944328038 6.999999999999971 4.909037355874962
    vertex 22.09999999999997 4.999999999999971 5.228718707889778
    vertex 22.09999999999997 6.999999999999971 5.228718707889777
  endloop
endfacet
facet normal -0.13052619222005282 7.291216024854703e-16 0.9914448613738104
  outer loop
    vertex 21.328220944328038 4.999999999999971 4.909037355874964
    vertex 20.499999999999975 6.999999999999971 4.79999999999998
    vertex 20.499999999999975 4.999999999999971 4.799999999999981
  endloop
endfacet
facet normal -0.13052619222005282 7.291216024854703e-16 0.9914448613738104
  outer loop
    vertex 20.499999999999975 6.999999999999971 4.79999999999998
    vertex 21.328220944328038 4.999999999999971 4.909037355874964
    vertex 21.328220944328038 6.999999999999971 4.909037355874962
  endloop
endfacet
facet normal 0.13052619222005193 6.666063020090396e-16 0.9914448613738104
  outer loop
    vertex 20.499999999999975 4.999999999999971 4.799999999999981
    vertex 19.671779055671905 6.999999999999971 4.909037355874962
    vertex 19.671779055671905 4.999999999999971 4.909037355874964
  endloop
endfacet
facet normal 0.13052619222005193 6.666063020090396e-16 0.9914448613738104
  outer loop
    vertex 19.671779055671905 6.999999999999971 4.909037355874962
    vertex 20.499999999999975 4.999999999999971 4.799999999999981
    vertex 20.499999999999975 6.999999999999971 4.79999999999998
  endloop
endfacet
facet normal 0.38268343236508967 5.586628836696938e-16 0.923879532511287
  outer loop
    vertex 19.671779055671905 4.999999999999971 4.909037355874964
    vertex 18.89999999999997 6.999999999999971 5.228718707889777
    vertex 18.89999999999997 4.999999999999971 5.228718707889778
  endloop
endfacet
facet normal 0.38268343236508967 5.586628836696938e-16 0.923879532511287
  outer loop
    vertex 18.89999999999997 6.999999999999971 5.228718707889777
    vertex 19.671779055671905 4.999999999999971 4.909037355874964
    vertex 19.671779055671905 6.999999999999971 4.909037355874962
  endloop
endfacet
facet normal 0.6087614290087233 4.1264751304232335e-16 0.7933533402912333
  outer loop
    vertex 18.89999999999997 4.999999999999971 5.228718707889778
    vertex 18.237258300203024 6.999999999999972 5.737258300203028
    vertex 18.237258300203024 4.999999999999972 5.73725830020303
  endloop
endfacet
facet normal 0.6087614290087233 4.1264751304232335e-16 0.7933533402912333
  outer loop
    vertex 18.237258300203024 6.999999999999972 5.737258300203028
    vertex 18.89999999999997 4.999999999999971 5.228718707889778
    vertex 18.89999999999997 6.999999999999971 5.228718707889777
  endloop
endfacet
facet normal 0.7933533402912358 2.385108963333801e-16 0.6087614290087201
  outer loop
    vertex 18.237258300203024 6.999999999999972 5.737258300203028
    vertex 17.728718707889772 4.999999999999972 6.399999999999984
    vertex 18.237258300203024 4.999999999999972 5.73725830020303
  endloop
endfacet
facet normal 0.7933533402912358 2.385108963333801e-16 0.6087614290087201
  outer loop
    vertex 17.728718707889772 4.999999999999972 6.399999999999984
    vertex 18.237258300203024 6.999999999999972 5.737258300203028
    vertex 17.728718707889772 6.999999999999972 6.399999999999983
  endloop
endfacet
facet normal 0.9238795325112856 4.8120156197210904e-17 0.38268343236509245
  outer loop
    vertex 17.728718707889772 6.999999999999972 6.399999999999983
    vertex 17.409037355874954 4.999999999999972 7.171779055671918
    vertex 17.728718707889772 4.999999999999972 6.399999999999984
  endloop
endfacet
facet normal 0.9238795325112856 4.8120156197210904e-17 0.38268343236509245
  outer loop
    vertex 17.409037355874954 4.999999999999972 7.171779055671918
    vertex 17.728718707889772 6.999999999999972 6.399999999999983
    vertex 17.409037355874954 6.999999999999972 7.171779055671916
  endloop
endfacet
facet normal 0.9914448613738108 -1.455498930614864e-16 0.13052619222004952
  outer loop
    vertex 17.409037355874954 6.999999999999972 7.171779055671916
    vertex 17.299999999999972 4.999999999999972 7.999999999999981
    vertex 17.409037355874954 4.999999999999972 7.171779055671918
  endloop
endfacet
facet normal 0.9914448613738108 -1.455498930614864e-16 0.13052619222004952
  outer loop
    vertex 17.299999999999972 4.999999999999972 7.999999999999981
    vertex 17.409037355874954 6.999999999999972 7.171779055671916
    vertex 17.299999999999972 6.999999999999972 7.99999999999998
  endloop
endfacet
endsolid psu_support_under_l
