solid psu_slide_inner
facet normal 7.04991620636972e-16 1.0 -2.014261773248514e-15
  outer loop
    vertex -9.000000000000014 -22.157540743379187 3.244558579516668e-16
    vertex -2.9999999999999636 -22.157540743379187 2.099999999999997
    vertex -3.000000000000001 -22.15754074337919 -8.152979985820343e-16
  endloop
endfacet
facet normal 7.04991620636972e-16 1.0 -2.014261773248514e-15
  outer loop
    vertex -2.9999999999999636 -22.157540743379187 2.099999999999997
    vertex -9.000000000000014 -22.157540743379187 3.244558579516668e-16
    vertex -8.999999999999964 -22.157540743379183 2.100000000000003
  endloop
endfacet
facet normal -9.399888275159649e-16 -1.0 2.5799229396399524e-30
  outer loop
    vertex -2.9999999999999862 -26.95754074337921 2.0999999999999868
    vertex -8.999999999999998 -26.9575407433792 -1.2782496649771397e-15
    vertex -2.9999999999999862 -26.95754074337921 -2.4180035215108414e-15
  endloop
endfacet
facet normal -9.399888275159649e-16 -1.0 2.5799229396399524e-30
  outer loop
    vertex -8.999999999999998 -26.9575407433792 -1.2782496649771397e-15
    vertex -2.9999999999999862 -26.95754074337921 2.0999999999999868
    vertex -8.999999999999986 -26.9575407433792 2.099999999999993
  endloop
endfacet
facet normal -1.0339920610602189e-15 -5.287437154777343e-15 -1.0
  outer loop
    vertex -8.999999999999986 -26.9575407433792 2.099999999999993
    vertex -3.0000000000000084 -29.557540743379185 2.1000000000000005
    vertex -9.000000000000009 -29.55754074337918 2.1000000000000068
  endloop
endfacet
facet normal -1.0339920610602189e-15 -5.287437154777343e-15 -1.0
  outer loop
    vertex -3.0000000000000084 -29.557540743379185 2.1000000000000005
    vertex -8.999999999999986 -26.9575407433792 2.099999999999993
    vertex -2.9999999999999862 -26.95754074337921 2.0999999999999868
  endloop
endfacet
facet normal -1.8493584039704497e-16 -0.8121574478459428 0.5834383257109227
  outer loop
    vertex -2.9999999999999747 -26.826404006070234 5.901795227607566
    vertex -9.000000000000009 -29.55754074337918 2.1000000000000068
    vertex -3.0000000000000084 -29.557540743379185 2.1000000000000005
  endloop
endfacet
facet normal -1.8493584039704497e-16 -0.8121574478459428 0.5834383257109227
  outer loop
    vertex -9.000000000000009 -29.55754074337918 2.1000000000000068
    vertex -2.9999999999999747 -26.826404006070234 5.901795227607566
    vertex -8.999999999999975 -26.826404006070227 5.901795227607572
  endloop
endfacet
facet normal 1.0339920610602128e-15 -9.399888275159623e-16 1.0
  outer loop
    vertex -8.999999999999975 -26.826404006070227 5.901795227607572
    vertex -2.9999999999999973 -22.32640400607024 5.90179522760757
    vertex -8.999999999999998 -22.326404006070234 5.901795227607576
  endloop
endfacet
facet normal 1.0339920610602128e-15 -9.399888275159623e-16 1.0
  outer loop
    vertex -2.9999999999999973 -22.32640400607024 5.90179522760757
    vertex -8.999999999999975 -26.826404006070227 5.901795227607572
    vertex -2.9999999999999747 -26.826404006070234 5.901795227607566
  endloop
endfacet
facet normal 1.3932294750459327e-15 0.808339308718792 0.5887168776075863
  outer loop
    vertex -8.999999999999986 -19.55754074337918 2.100000000000016
    vertex -2.9999999999999973 -22.32640400607024 5.90179522760757
    vertex -2.9999999999999862 -19.55754074337919 2.10000000000001
  endloop
endfacet
facet normal 1.3932294750459327e-15 0.808339308718792 0.5887168776075863
  outer loop
    vertex -2.9999999999999973 -22.32640400607024 5.90179522760757
    vertex -8.999999999999986 -19.55754074337918 2.100000000000016
    vertex -8.999999999999998 -22.326404006070234 5.901795227607576
  endloop
endfacet
facet normal -1.033992061060209e-15 5.0162865314553844e-15 -1.0
  outer loop
    vertex -2.9999999999999862 -19.55754074337919 2.10000000000001
    vertex -8.999999999999964 -22.157540743379183 2.100000000000003
    vertex -8.999999999999986 -19.55754074337918 2.100000000000016
  endloop
endfacet
facet normal -1.033992061060209e-15 5.0162865314553844e-15 -1.0
  outer loop
    vertex -8.999999999999964 -22.157540743379183 2.100000000000003
    vertex -2.9999999999999862 -19.55754074337919 2.10000000000001
    vertex -2.9999999999999636 -22.157540743379187 2.099999999999997
  endloop
endfacet
facet normal -1.0 -8.019039283837076e-17 4.911627490980021e-17
  outer loop
    vertex -8.999999999999998 -26.9575407433792 -1.2782496649771397e-15
    vertex -9.0 -29.557540743379214 -3.9999999999999996
    vertex -9.0 -29.557540743379214 -1.2337353361147244e-15
  endloop
endfacet
facet normal -1.0 -8.019039283837076e-17 4.911627490980021e-17
  outer loop
    vertex -8.999999999999975 -26.826404006070227 5.901795227607572
    vertex -8.999999999999986 -26.9575407433792 2.099999999999993
    vertex -9.000000000000009 -29.55754074337918 2.1000000000000068
  endloop
endfacet
facet normal -1.0 -8.019039283837076e-17 4.911627490980021e-17
  outer loop
    vertex -8.999999999999986 -26.9575407433792 2.099999999999993
    vertex -8.999999999999975 -26.826404006070227 5.901795227607572
    vertex -8.999999999999998 -26.9575407433792 -1.2782496649771397e-15
  endloop
endfacet
facet normal -1.0 -8.019039283837076e-17 4.911627490980021e-17
  outer loop
    vertex -8.999999999999998 -22.326404006070234 5.901795227607576
    vertex -8.999999999999964 -22.157540743379183 2.100000000000003
    vertex -9.000000000000014 -22.157540743379187 3.244558579516668e-16
  endloop
endfacet
facet normal -1.0 -8.019039283837076e-17 4.911627490980021e-17
  outer loop
    vertex -8.999999999999964 -22.157540743379183 2.100000000000003
    vertex -8.999999999999998 -22.326404006070234 5.901795227607576
    vertex -8.999999999999986 -19.55754074337918 2.100000000000016
  endloop
endfacet
facet normal -1.0 -8.019039283837076e-17 4.911627490980021e-17
  outer loop
    vertex -8.999999999999998 -31.016827553025387 -6.4262716325997
    vertex -8.999999999999998 -31.657540743379222 -20.000000000000007
    vertex -8.999999999999998 -31.658022198080616 -7.688843929909548
  endloop
endfacet
facet normal -1.0 -8.019039283837076e-17 4.911627490980021e-17
  outer loop
    vertex -8.999999999999998 -31.657540743379222 -20.000000000000007
    vertex -8.999999999999998 -31.016827553025387 -6.4262716325997
    vertex -8.999999999999998 -11.857540743379202 -20.000000000000007
  endloop
endfacet
facet normal -1.0 -8.019039283837076e-17 4.911627490980021e-17
  outer loop
    vertex -8.999999999999998 -11.857540743379202 -20.000000000000007
    vertex -8.999999999999998 -31.016827553025387 -6.4262716325997
    vertex -8.999999999999998 -30.316135288980675 -5.195723084232081
  endloop
endfacet
facet normal -1.0 -8.019039283837076e-17 4.911627490980021e-17
  outer loop
    vertex -8.999999999999998 -11.857540743379202 -20.000000000000007
    vertex -8.999999999999998 -30.316135288980675 -5.195723084232081
    vertex -9.0 -29.557540743379214 -3.9999999999999996
  endloop
endfacet
facet normal -1.0 -8.019039283837076e-17 4.911627490980021e-17
  outer loop
    vertex -8.999999999999998 -11.857540743379202 -20.000000000000007
    vertex -9.0 -29.557540743379214 -3.9999999999999996
    vertex -9.0 -17.346323573076077 -14.234544445725405
  endloop
endfacet
facet normal -1.0 -8.019039283837076e-17 4.911627490980021e-17
  outer loop
    vertex -9.0 -17.346323573076077 -14.234544445725405
    vertex -9.0 -29.557540743379214 -3.9999999999999996
    vertex -9.0 -18.000476757420515 -13.416813786412371
  endloop
endfacet
facet normal -1.0 -8.019039283837076e-17 4.911627490980021e-17
  outer loop
    vertex -9.0 -18.000476757420515 -13.416813786412371
    vertex -9.0 -29.557540743379214 -3.9999999999999996
    vertex -8.999999999999998 -26.9575407433792 -1.2782496649771397e-15
  endloop
endfacet
facet normal -1.0 -8.019039283837076e-17 4.911627490980021e-17
  outer loop
    vertex -9.0 -18.000476757420515 -13.416813786412371
    vertex -8.999999999999998 -26.9575407433792 -1.2782496649771397e-15
    vertex -9.000000000000002 -18.54964937484477 -12.525180870891694
  endloop
endfacet
facet normal -1.0 -8.019039283837076e-17 4.911627490980021e-17
  outer loop
    vertex -9.000000000000002 -18.54964937484477 -12.525180870891694
    vertex -8.999999999999998 -26.9575407433792 -1.2782496649771397e-15
    vertex -9.000000000000002 -18.98558707665104 -11.573047403402834
  endloop
endfacet
facet normal -1.0 -8.019039283837076e-17 4.911627490980021e-17
  outer loop
    vertex -9.000000000000002 -18.98558707665104 -11.573047403402834
    vertex -8.999999999999998 -26.9575407433792 -1.2782496649771397e-15
    vertex -8.999999999999975 -26.826404006070227 5.901795227607572
  endloop
endfacet
facet normal -1.0 -8.019039283837076e-17 4.911627490980021e-17
  outer loop
    vertex -9.000000000000002 -18.98558707665104 -11.573047403402834
    vertex -8.999999999999975 -26.826404006070227 5.901795227607572
    vertex -9.000000000000002 -19.301737493534965 -10.574724442797084
  endloop
endfacet
facet normal -1.0 -8.019039283837076e-17 4.911627490980021e-17
  outer loop
    vertex -9.000000000000002 -19.301737493534965 -10.574724442797084
    vertex -8.999999999999975 -26.826404006070227 5.901795227607572
    vertex -9.000000000000014 -22.157540743379187 3.244558579516668e-16
  endloop
endfacet
facet normal -1.0 -8.019039283837076e-17 4.911627490980021e-17
  outer loop
    vertex -9.000000000000014 -22.157540743379187 3.244558579516668e-16
    vertex -8.999999999999975 -26.826404006070227 5.901795227607572
    vertex -8.999999999999998 -22.326404006070234 5.901795227607576
  endloop
endfacet
facet normal -1.0 -8.019039283837076e-17 4.911627490980021e-17
  outer loop
    vertex -9.000000000000002 -19.301737493534965 -10.574724442797084
    vertex -9.000000000000014 -22.157540743379187 3.244558579516668e-16
    vertex -9.000000000000002 -19.493348721087767 -9.545217299915498
  endloop
endfacet
facet normal -1.0 -8.019039283837076e-17 4.911627490980021e-17
  outer loop
    vertex -9.000000000000002 -19.493348721087767 -9.545217299915498
    vertex -9.000000000000014 -22.157540743379187 3.244558579516668e-16
    vertex -9.000000000000002 -19.557540743379214 -8.500000000000004
  endloop
endfacet
facet normal -1.0 -8.019039283837076e-17 4.911627490980021e-17
  outer loop
    vertex -9.000000000000002 -19.557540743379214 -8.500000000000004
    vertex -9.000000000000014 -22.157540743379187 3.244558579516668e-16
    vertex -9.0 -19.557540743379214 -1.2337353361147244e-15
  endloop
endfacet
facet normal -1.0 -8.019039283837076e-17 4.911627490980021e-17
  outer loop
    vertex -8.999999999999998 -11.857540743379202 -20.000000000000007
    vertex -9.0 -17.346323573076077 -14.234544445725405
    vertex -9.0 -16.597022082769154 -14.966081933754781
  endloop
endfacet
facet normal -1.0 -8.019039283837076e-17 4.911627490980021e-17
  outer loop
    vertex -8.999999999999998 -11.857540743379202 -20.000000000000007
    vertex -9.0 -16.597022082769154 -14.966081933754781
    vertex -9.0 -15.763834675745906 -15.60043086340342
  endloop
endfacet
facet normal -1.0 -8.019039283837076e-17 4.911627490980021e-17
  outer loop
    vertex -8.999999999999998 -11.857540743379202 -20.000000000000007
    vertex -9.0 -15.763834675745906 -15.60043086340342
    vertex -9.0 -14.859284590001016 -16.128056641912597
  endloop
endfacet
facet normal -1.0 -8.019039283837076e-17 4.911627490980021e-17
  outer loop
    vertex -8.999999999999998 -11.857540743379202 -20.000000000000007
    vertex -9.0 -14.859284590001016 -16.128056641912597
    vertex -8.999999999999998 -13.896967681528483 -16.541028780726304
  endloop
endfacet
facet normal -1.0 -8.019039283837076e-17 4.911627490980021e-17
  outer loop
    vertex -8.999999999999998 -11.857540743379202 -20.000000000000007
    vertex -8.999999999999998 -13.896967681528483 -16.541028780726304
    vertex -8.999999999999998 -12.891348071568656 -16.833140094839177
  endloop
endfacet
facet normal -1.0 -8.019039283837076e-17 4.911627490980021e-17
  outer loop
    vertex -8.999999999999998 -11.857540743379202 -20.000000000000007
    vertex -8.999999999999998 -12.891348071568656 -16.833140094839177
    vertex -8.999999999999998 -11.857540743379202 -17.000000000000007
  endloop
endfacet
facet normal -1.0 -8.019039283837076e-17 4.911627490980021e-17
  outer loop
    vertex -8.999999999999998 -34.500315286285996 -18.585099075609104
    vertex -8.999999999999998 -34.557540743379214 -87.0
    vertex -8.999999999999998 -34.557540743379214 -20.000000000000007
  endloop
endfacet
facet normal -1.0 -8.019039283837076e-17 4.911627490980021e-17
  outer loop
    vertex -8.999999999999998 -34.557540743379214 -87.0
    vertex -8.999999999999998 -34.500315286285996 -18.585099075609104
    vertex -8.999999999999998 -31.657540743379222 -84.0
  endloop
endfacet
facet normal -1.0 -8.019039283837076e-17 4.911627490980021e-17
  outer loop
    vertex -8.999999999999998 -34.557540743379214 -87.0
    vertex -8.999999999999998 -31.657540743379222 -84.0
    vertex -8.999999999999998 -11.857540743379213 -87.0
  endloop
endfacet
facet normal -1.0 -8.019039283837076e-17 4.911627490980021e-17
  outer loop
    vertex -8.999999999999998 -31.657540743379222 -84.0
    vertex -8.999999999999998 -34.500315286285996 -18.585099075609104
    vertex -8.999999999999998 -34.375660998939054 -17.17453865952343
  endloop
endfacet
facet normal -1.0 -8.019039283837076e-17 4.911627490980021e-17
  outer loop
    vertex -8.999999999999998 -31.657540743379222 -84.0
    vertex -8.999999999999998 -34.375660998939054 -17.17453865952343
    vertex -8.999999999999998 -34.183861694448595 -15.771530318287091
  endloop
endfacet
facet normal -1.0 -8.019039283837076e-17 4.911627490980021e-17
  outer loop
    vertex -8.999999999999998 -31.657540743379222 -84.0
    vertex -8.999999999999998 -34.183861694448595 -15.771530318287091
    vertex -8.999999999999998 -33.9253540618231 -14.379268423866316
  endloop
endfacet
facet normal -1.0 -8.019039283837076e-17 4.911627490980021e-17
  outer loop
    vertex -8.999999999999998 -31.657540743379222 -84.0
    vertex -8.999999999999998 -33.9253540618231 -14.379268423866316
    vertex -8.999999999999998 -33.60072667171494 -13.000922880697507
  endloop
endfacet
facet normal -1.0 -8.019039283837076e-17 4.911627490980021e-17
  outer loop
    vertex -8.999999999999998 -31.657540743379222 -84.0
    vertex -8.999999999999998 -33.60072667171494 -13.000922880697507
    vertex -8.999999999999998 -33.21071863636171 -11.639631908442976
  endloop
endfacet
facet normal -1.0 -8.019039283837076e-17 4.911627490980021e-17
  outer loop
    vertex -8.999999999999998 -31.657540743379222 -84.0
    vertex -8.999999999999998 -33.21071863636171 -11.639631908442976
    vertex -8.999999999999998 -32.75621792677407 -10.298494896886703
  endloop
endfacet
facet normal -1.0 -8.019039283837076e-17 4.911627490980021e-17
  outer loop
    vertex -8.999999999999998 -31.657540743379222 -84.0
    vertex -8.999999999999998 -32.75621792677407 -10.298494896886703
    vertex -8.999999999999998 -32.23825935100173 -8.980565349237944
  endloop
endfacet
facet normal -1.0 -8.019039283837076e-17 4.911627490980021e-17
  outer loop
    vertex -8.999999999999998 -31.657540743379222 -84.0
    vertex -8.999999999999998 -32.23825935100173 -8.980565349237944
    vertex -8.999999999999998 -31.658022198080616 -7.688843929909548
  endloop
endfacet
facet normal -1.0 -8.019039283837076e-17 4.911627490980021e-17
  outer loop
    vertex -8.999999999999998 -31.657540743379222 -84.0
    vertex -8.999999999999998 -31.658022198080616 -7.688843929909548
    vertex -8.999999999999998 -31.657540743379222 -20.000000000000007
  endloop
endfacet
facet normal -1.0 -8.019039283837076e-17 4.911627490980021e-17
  outer loop
    vertex -8.999999999999998 -11.857540743379213 -87.0
    vertex -8.999999999999998 -31.657540743379222 -84.0
    vertex -8.999999999999998 -11.857540743379213 -84.0
  endloop
endfacet
facet normal 2.0669192699632312e-16 -2.2682013400178856e-17 1.0
  outer loop
    vertex 3.0000000000000004 -29.557540743379214 -2.6437185773886524e-15
    vertex -8.999999999999998 -26.9575407433792 -1.2782496649771397e-15
    vertex -9.0 -29.557540743379214 -1.2337353361147244e-15
  endloop
endfacet
facet normal 2.0669192699632312e-16 -2.2682013400178856e-17 1.0
  outer loop
    vertex -8.999999999999998 -26.9575407433792 -1.2782496649771397e-15
    vertex 3.0000000000000004 -29.557540743379214 -2.6437185773886524e-15
    vertex -2.9999999999999862 -26.95754074337921 -2.4180035215108414e-15
  endloop
endfacet
facet normal 2.0669192699632312e-16 -2.2682013400178856e-17 1.0
  outer loop
    vertex -2.9999999999999862 -26.95754074337921 -2.4180035215108414e-15
    vertex 3.0000000000000004 -29.557540743379214 -2.6437185773886524e-15
    vertex -1.1313708498984756 -25.688911593277687 1.0574874309554616e-14
  endloop
endfacet
facet normal 2.0669192699632312e-16 -2.2682013400178856e-17 1.0
  outer loop
    vertex -2.9999999999999862 -26.95754074337921 -2.4180035215108414e-15
    vertex -1.1313708498984756 -25.688911593277687 1.0574874309554616e-14
    vertex -1.385640646055101 -25.357540743379214 1.0574874309554616e-14
  endloop
endfacet
facet normal 2.0669192699632312e-16 -2.2682013400178856e-17 1.0
  outer loop
    vertex -2.9999999999999862 -26.95754074337921 -2.4180035215108414e-15
    vertex -1.385640646055101 -25.357540743379214 1.0574874309554616e-14
    vertex -1.5454813220625085 -24.971651215543247 1.0574874309554616e-14
  endloop
endfacet
facet normal 2.0669192699632312e-16 -2.2682013400178856e-17 1.0
  outer loop
    vertex -2.9999999999999862 -26.95754074337921 -2.4180035215108414e-15
    vertex -1.5454813220625085 -24.971651215543247 1.0574874309554616e-14
    vertex -1.6000000000000003 -24.557540743379214 1.0574874309554616e-14
  endloop
endfacet
facet normal 2.0669192699632312e-16 -2.2682013400178856e-17 1.0
  outer loop
    vertex -1.1313708498984756 -25.688911593277687 1.0574874309554616e-14
    vertex 3.0000000000000004 -29.557540743379214 -2.6437185773886524e-15
    vertex -0.8214903241928868 -25.926691283700695 1.0574874309554616e-14
  endloop
endfacet
facet normal 2.0669192699632312e-16 -2.2682013400178856e-17 1.0
  outer loop
    vertex -0.8214903241928868 -25.926691283700695 1.0574874309554616e-14
    vertex 3.0000000000000004 -29.557540743379214 -2.6437185773886524e-15
    vertex -0.7999999999999996 -25.94318138943431 1.0574874309554616e-14
  endloop
endfacet
facet normal 2.0669192699632312e-16 -2.2682013400178856e-17 1.0
  outer loop
    vertex -0.7999999999999996 -25.94318138943431 1.0574874309554616e-14
    vertex 3.0000000000000004 -29.557540743379214 -2.6437185773886524e-15
    vertex -0.4141104721640313 -26.10302206544172 1.0574874309554616e-14
  endloop
endfacet
facet normal 2.0669192699632312e-16 -2.2682013400178856e-17 1.0
  outer loop
    vertex -0.4141104721640313 -26.10302206544172 1.0574874309554616e-14
    vertex 3.0000000000000004 -29.557540743379214 -2.6437185773886524e-15
    vertex 3.4414245934082015e-15 -26.157540743379215 1.0574874309554616e-14
  endloop
endfacet
facet normal 2.0669192699632312e-16 -2.2682013400178856e-17 1.0
  outer loop
    vertex 3.4414245934082015e-15 -26.157540743379215 1.0574874309554616e-14
    vertex 3.0000000000000004 -29.557540743379214 -2.6437185773886524e-15
    vertex 0.4141104721640357 -26.10302206544172 1.0574874309554616e-14
  endloop
endfacet
facet normal 2.0669192699632312e-16 -2.2682013400178856e-17 1.0
  outer loop
    vertex 0.4141104721640357 -26.10302206544172 1.0574874309554616e-14
    vertex 3.0000000000000004 -29.557540743379214 -2.6437185773886524e-15
    vertex 0.8000000000000002 -25.94318138943431 1.0574874309554616e-14
  endloop
endfacet
facet normal 2.0669192699632312e-16 -2.2682013400178856e-17 1.0
  outer loop
    vertex 0.8000000000000002 -25.94318138943431 1.0574874309554616e-14
    vertex 3.0000000000000004 -29.557540743379214 -2.6437185773886524e-15
    vertex 1.1313708498984771 -25.688911593277687 1.0574874309554616e-14
  endloop
endfacet
facet normal 2.0669192699632312e-16 -2.2682013400178856e-17 1.0
  outer loop
    vertex 1.1313708498984771 -25.688911593277687 1.0574874309554616e-14
    vertex 3.0000000000000004 -29.557540743379214 -2.6437185773886524e-15
    vertex 1.3856406460551027 -25.357540743379214 1.0574874309554616e-14
  endloop
endfacet
facet normal 2.0669192699632312e-16 -2.2682013400178856e-17 1.0
  outer loop
    vertex 1.3856406460551027 -25.357540743379214 1.0574874309554616e-14
    vertex 3.0000000000000004 -29.557540743379214 -2.6437185773886524e-15
    vertex 1.5454813220625103 -24.97165121554325 1.0574874309554616e-14
  endloop
endfacet
facet normal 2.0669192699632312e-16 -2.2682013400178856e-17 1.0
  outer loop
    vertex 1.5454813220625103 -24.97165121554325 1.0574874309554616e-14
    vertex 3.0000000000000004 -29.557540743379214 -2.6437185773886524e-15
    vertex 1.6000000000000003 -24.557540743379214 1.0574874309554616e-14
  endloop
endfacet
facet normal 2.0669192699632312e-16 -2.2682013400178856e-17 1.0
  outer loop
    vertex -3.000000000000001 -22.15754074337919 -8.152979985820343e-16
    vertex -9.0 -19.557540743379214 -1.2337353361147244e-15
    vertex -9.000000000000014 -22.157540743379187 3.244558579516668e-16
  endloop
endfacet
facet normal 2.0669192699632312e-16 -2.2682013400178856e-17 1.0
  outer loop
    vertex -9.0 -19.557540743379214 -1.2337353361147244e-15
    vertex -3.000000000000001 -22.15754074337919 -8.152979985820343e-16
    vertex 3.0000000000000004 -19.557540743379214 -2.6437185773886524e-15
  endloop
endfacet
facet normal 2.0669192699632312e-16 -2.2682013400178856e-17 1.0
  outer loop
    vertex 3.0000000000000004 -19.557540743379214 -2.6437185773886524e-15
    vertex -3.000000000000001 -22.15754074337919 -8.152979985820343e-16
    vertex -1.131370849898475 -23.42616989348074 1.0574874309554616e-14
  endloop
endfacet
facet normal 2.0669192699632312e-16 -2.2682013400178856e-17 1.0
  outer loop
    vertex -1.131370849898475 -23.42616989348074 1.0574874309554616e-14
    vertex -3.000000000000001 -22.15754074337919 -8.152979985820343e-16
    vertex -1.3856406460551005 -23.757540743379213 1.0574874309554616e-14
  endloop
endfacet
facet normal 2.0669192699632312e-16 -2.2682013400178856e-17 1.0
  outer loop
    vertex -1.3856406460551005 -23.757540743379213 1.0574874309554616e-14
    vertex -3.000000000000001 -22.15754074337919 -8.152979985820343e-16
    vertex -2.9999999999999862 -26.95754074337921 -2.4180035215108414e-15
  endloop
endfacet
facet normal 2.0669192699632312e-16 -2.2682013400178856e-17 1.0
  outer loop
    vertex -1.3856406460551005 -23.757540743379213 1.0574874309554616e-14
    vertex -2.9999999999999862 -26.95754074337921 -2.4180035215108414e-15
    vertex -1.545481322062508 -24.14343027121518 1.0574874309554616e-14
  endloop
endfacet
facet normal 2.0669192699632312e-16 -2.2682013400178856e-17 1.0
  outer loop
    vertex -1.545481322062508 -24.14343027121518 1.0574874309554616e-14
    vertex -2.9999999999999862 -26.95754074337921 -2.4180035215108414e-15
    vertex -1.6000000000000003 -24.557540743379214 1.0574874309554616e-14
  endloop
endfacet
facet normal 2.0669192699632312e-16 -2.2682013400178856e-17 1.0
  outer loop
    vertex 3.0000000000000004 -19.557540743379214 -2.6437185773886524e-15
    vertex -1.131370849898475 -23.42616989348074 1.0574874309554616e-14
    vertex -0.7999999999999985 -23.171900097324112 1.0574874309554616e-14
  endloop
endfacet
facet normal 2.0669192699632312e-16 -2.2682013400178856e-17 1.0
  outer loop
    vertex 3.0000000000000004 -19.557540743379214 -2.6437185773886524e-15
    vertex -0.7999999999999985 -23.171900097324112 1.0574874309554616e-14
    vertex -0.4141104721640299 -23.012059421316703 1.0574874309554616e-14
  endloop
endfacet
facet normal 2.0669192699632312e-16 -2.2682013400178856e-17 1.0
  outer loop
    vertex 3.0000000000000004 -19.557540743379214 -2.6437185773886524e-15
    vertex -0.4141104721640299 -23.012059421316703 1.0574874309554616e-14
    vertex 3.833311569135355e-15 -22.957540743379216 1.0574874309554616e-14
  endloop
endfacet
facet normal 2.0669192699632312e-16 -2.2682013400178856e-17 1.0
  outer loop
    vertex 3.0000000000000004 -19.557540743379214 -2.6437185773886524e-15
    vertex 3.833311569135355e-15 -22.957540743379216 1.0574874309554616e-14
    vertex 0.41411047216403674 -23.012059421316703 1.0574874309554616e-14
  endloop
endfacet
facet normal 2.0669192699632312e-16 -2.2682013400178856e-17 1.0
  outer loop
    vertex 3.0000000000000004 -19.557540743379214 -2.6437185773886524e-15
    vertex 0.41411047216403674 -23.012059421316703 1.0574874309554616e-14
    vertex 0.8000000000000015 -23.171900097324112 1.0574874309554616e-14
  endloop
endfacet
facet normal 2.0669192699632312e-16 -2.2682013400178856e-17 1.0
  outer loop
    vertex 3.0000000000000004 -19.557540743379214 -2.6437185773886524e-15
    vertex 0.8000000000000015 -23.171900097324112 1.0574874309554616e-14
    vertex 0.8214903241928904 -23.188390203057736 1.0574874309554616e-14
  endloop
endfacet
facet normal 2.0669192699632312e-16 -2.2682013400178856e-17 1.0
  outer loop
    vertex 3.0000000000000004 -19.557540743379214 -2.6437185773886524e-15
    vertex 0.8214903241928904 -23.188390203057736 1.0574874309554616e-14
    vertex 1.1313708498984776 -23.42616989348074 1.0574874309554616e-14
  endloop
endfacet
facet normal 2.0669192699632312e-16 -2.2682013400178856e-17 1.0
  outer loop
    vertex 3.0000000000000004 -19.557540743379214 -2.6437185773886524e-15
    vertex 1.1313708498984776 -23.42616989348074 1.0574874309554616e-14
    vertex 1.3856406460551034 -23.757540743379217 1.0574874309554616e-14
  endloop
endfacet
facet normal 2.0669192699632312e-16 -2.2682013400178856e-17 1.0
  outer loop
    vertex 3.0000000000000004 -19.557540743379214 -2.6437185773886524e-15
    vertex 1.3856406460551034 -23.757540743379217 1.0574874309554616e-14
    vertex 1.5454813220625108 -24.143430271215184 1.0574874309554616e-14
  endloop
endfacet
facet normal 2.0669192699632312e-16 -2.2682013400178856e-17 1.0
  outer loop
    vertex 3.0000000000000004 -19.557540743379214 -2.6437185773886524e-15
    vertex 1.5454813220625108 -24.143430271215184 1.0574874309554616e-14
    vertex 1.6000000000000003 -24.557540743379214 1.0574874309554616e-14
  endloop
endfacet
facet normal 2.0669192699632312e-16 -2.2682013400178856e-17 1.0
  outer loop
    vertex 3.0000000000000004 -19.557540743379214 -2.6437185773886524e-15
    vertex 1.6000000000000003 -24.557540743379214 1.0574874309554616e-14
    vertex 3.0000000000000004 -29.557540743379214 -2.6437185773886524e-15
  endloop
endfacet
facet normal -2.1862236279482519e-16 1.0 -8.733250178222013e-17
  outer loop
    vertex -9.0 -19.557540743379214 -1.2337353361147244e-15
    vertex -3.000000000000017 -19.557540743379214 -8.500000000000004
    vertex -9.000000000000002 -19.557540743379214 -8.500000000000004
  endloop
endfacet
facet normal -2.1862236279482519e-16 1.0 -8.733250178222013e-17
  outer loop
    vertex -3.000000000000017 -19.557540743379214 -8.500000000000004
    vertex -9.0 -19.557540743379214 -1.2337353361147244e-15
    vertex -2.9999999999999982 -19.557540743379214 -3.9999999999999996
  endloop
endfacet
facet normal -2.1862236279482519e-16 1.0 -8.733250178222013e-17
  outer loop
    vertex -2.9999999999999982 -19.557540743379214 -3.9999999999999996
    vertex -9.0 -19.557540743379214 -1.2337353361147244e-15
    vertex 3.0000000000000004 -19.557540743379214 -2.6437185773886524e-15
  endloop
endfacet
facet normal -2.1862236279482519e-16 1.0 -8.733250178222013e-17
  outer loop
    vertex 3.0000000000000004 -19.557540743379214 -2.6437185773886524e-15
    vertex 3.0000000000000018 -19.557540743379214 -4.000000000000003
    vertex -2.9999999999999982 -19.557540743379214 -3.9999999999999996
  endloop
endfacet
facet normal 1.0 3.186117080353616e-16 -4.4061976289810876e-16
  outer loop
    vertex 3.0000000000000018 -19.557540743379214 -4.000000000000003
    vertex 3.0000000000000004 -29.557540743379214 -2.6437185773886524e-15
    vertex 3.0000000000000018 -29.557540743379214 -4.000000000000003
  endloop
endfacet
facet normal 1.0 3.186117080353616e-16 -4.4061976289810876e-16
  outer loop
    vertex 3.0000000000000004 -29.557540743379214 -2.6437185773886524e-15
    vertex 3.0000000000000018 -19.557540743379214 -4.000000000000003
    vertex 3.0000000000000004 -19.557540743379214 -2.6437185773886524e-15
  endloop
endfacet
facet normal -4.699944137579828e-16 -5.632816098574615e-33 -1.0
  outer loop
    vertex 3.0000000000000018 -19.557540743379214 -4.000000000000003
    vertex -2.9999999999999982 -24.557540743379214 -3.9999999999999996
    vertex -2.9999999999999982 -19.557540743379214 -3.9999999999999996
  endloop
endfacet
facet normal -4.699944137579828e-16 -5.632816098574615e-33 -1.0
  outer loop
    vertex -2.9999999999999982 -24.557540743379214 -3.9999999999999996
    vertex 3.0000000000000018 -19.557540743379214 -4.000000000000003
    vertex -1.1313708498984745 -23.426169893480736 -4.0
  endloop
endfacet
facet normal -4.699944137579828e-16 -5.632816098574615e-33 -1.0
  outer loop
    vertex -2.9999999999999982 -24.557540743379214 -3.9999999999999996
    vertex -1.1313708498984745 -23.426169893480736 -4.0
    vertex -1.3856406460551 -23.75754074337921 -4.0
  endloop
endfacet
facet normal -4.699944137579828e-16 -5.632816098574615e-33 -1.0
  outer loop
    vertex -2.9999999999999982 -24.557540743379214 -3.9999999999999996
    vertex -1.3856406460551 -23.75754074337921 -4.0
    vertex -1.5454813220625077 -24.143430271215177 -4.0
  endloop
endfacet
facet normal -4.699944137579828e-16 -5.632816098574615e-33 -1.0
  outer loop
    vertex -2.9999999999999982 -24.557540743379214 -3.9999999999999996
    vertex -1.5454813220625077 -24.143430271215177 -4.0
    vertex -2.9999999999999982 -29.557540743379214 -3.9999999999999996
  endloop
endfacet
facet normal -4.699944137579828e-16 -5.632816098574615e-33 -1.0
  outer loop
    vertex -2.9999999999999982 -29.557540743379214 -3.9999999999999996
    vertex -1.5454813220625077 -24.143430271215177 -4.0
    vertex -1.5999999999999985 -24.55754074337921 -4.0
  endloop
endfacet
facet normal -4.699944137579828e-16 -5.632816098574615e-33 -1.0
  outer loop
    vertex -1.1313708498984745 -23.426169893480736 -4.0
    vertex 3.0000000000000018 -19.557540743379214 -4.000000000000003
    vertex -0.799999999999998 -23.17190009732411 -4.000000000000001
  endloop
endfacet
facet normal -4.699944137579828e-16 -5.632816098574615e-33 -1.0
  outer loop
    vertex -0.799999999999998 -23.17190009732411 -4.000000000000001
    vertex 3.0000000000000018 -19.557540743379214 -4.000000000000003
    vertex -0.4141104721640313 -23.012059421316703 -4.000000000000001
  endloop
endfacet
facet normal -4.699944137579828e-16 -5.632816098574615e-33 -1.0
  outer loop
    vertex -0.4141104721640313 -23.012059421316703 -4.000000000000001
    vertex 3.0000000000000018 -19.557540743379214 -4.000000000000003
    vertex 1.860450795524224e-15 -22.957540743379212 -4.000000000000001
  endloop
endfacet
facet normal -4.699944137579828e-16 -5.632816098574615e-33 -1.0
  outer loop
    vertex 1.860450795524224e-15 -22.957540743379212 -4.000000000000001
    vertex 3.0000000000000018 -19.557540743379214 -4.000000000000003
    vertex 0.41411047216403535 -23.012059421316703 -4.000000000000001
  endloop
endfacet
facet normal -4.699944137579828e-16 -5.632816098574615e-33 -1.0
  outer loop
    vertex 0.41411047216403535 -23.012059421316703 -4.000000000000001
    vertex 3.0000000000000018 -19.557540743379214 -4.000000000000003
    vertex 0.800000000000002 -23.17190009732411 -4.000000000000002
  endloop
endfacet
facet normal -4.699944137579828e-16 -5.632816098574615e-33 -1.0
  outer loop
    vertex 0.800000000000002 -23.17190009732411 -4.000000000000002
    vertex 3.0000000000000018 -19.557540743379214 -4.000000000000003
    vertex 0.8214903241928908 -23.188390203057732 -4.000000000000002
  endloop
endfacet
facet normal -4.699944137579828e-16 -5.632816098574615e-33 -1.0
  outer loop
    vertex 0.8214903241928908 -23.188390203057732 -4.000000000000002
    vertex 3.0000000000000018 -19.557540743379214 -4.000000000000003
    vertex 1.131370849898478 -23.426169893480736 -4.000000000000002
  endloop
endfacet
facet normal -4.699944137579828e-16 -5.632816098574615e-33 -1.0
  outer loop
    vertex 1.131370849898478 -23.426169893480736 -4.000000000000002
    vertex 3.0000000000000018 -19.557540743379214 -4.000000000000003
    vertex 1.3856406460551038 -23.757540743379213 -4.000000000000002
  endloop
endfacet
facet normal -4.699944137579828e-16 -5.632816098574615e-33 -1.0
  outer loop
    vertex 1.3856406460551038 -23.757540743379213 -4.000000000000002
    vertex 3.0000000000000018 -19.557540743379214 -4.000000000000003
    vertex 1.5454813220625112 -24.14343027121518 -4.000000000000002
  endloop
endfacet
facet normal -4.699944137579828e-16 -5.632816098574615e-33 -1.0
  outer loop
    vertex 1.5454813220625112 -24.14343027121518 -4.000000000000002
    vertex 3.0000000000000018 -19.557540743379214 -4.000000000000003
    vertex 1.600000000000002 -24.55754074337921 -4.000000000000002
  endloop
endfacet
facet normal -4.699944137579828e-16 -5.632816098574615e-33 -1.0
  outer loop
    vertex -2.9999999999999982 -29.557540743379214 -3.9999999999999996
    vertex -1.1313708498984751 -25.688911593277687 -4.0
    vertex 3.0000000000000018 -29.557540743379214 -4.000000000000003
  endloop
endfacet
facet normal -4.699944137579828e-16 -5.632816098574615e-33 -1.0
  outer loop
    vertex -1.1313708498984751 -25.688911593277687 -4.0
    vertex -2.9999999999999982 -29.557540743379214 -3.9999999999999996
    vertex -1.3856406460551005 -25.35754074337921 -4.0
  endloop
endfacet
facet normal -4.699944137579828e-16 -5.632816098574615e-33 -1.0
  outer loop
    vertex -1.3856406460551005 -25.35754074337921 -4.0
    vertex -2.9999999999999982 -29.557540743379214 -3.9999999999999996
    vertex -1.5454813220625079 -24.971651215543243 -4.0
  endloop
endfacet
facet normal -4.699944137579828e-16 -5.632816098574615e-33 -1.0
  outer loop
    vertex -1.5454813220625079 -24.971651215543243 -4.0
    vertex -2.9999999999999982 -29.557540743379214 -3.9999999999999996
    vertex -1.5999999999999985 -24.55754074337921 -4.0
  endloop
endfacet
facet normal -4.699944137579828e-16 -5.632816098574615e-33 -1.0
  outer loop
    vertex 3.0000000000000018 -29.557540743379214 -4.000000000000003
    vertex -1.1313708498984751 -25.688911593277687 -4.0
    vertex -0.8214903241928863 -25.926691283700695 -4.0
  endloop
endfacet
facet normal -4.699944137579828e-16 -5.632816098574615e-33 -1.0
  outer loop
    vertex 3.0000000000000018 -29.557540743379214 -4.000000000000003
    vertex -0.8214903241928863 -25.926691283700695 -4.0
    vertex -0.799999999999999 -25.94318138943431 -4.0
  endloop
endfacet
facet normal -4.699944137579828e-16 -5.632816098574615e-33 -1.0
  outer loop
    vertex 3.0000000000000018 -29.557540743379214 -4.000000000000003
    vertex -0.799999999999999 -25.94318138943431 -4.0
    vertex -0.4141104721640327 -26.10302206544172 -4.000000000000001
  endloop
endfacet
facet normal -4.699944137579828e-16 -5.632816098574615e-33 -1.0
  outer loop
    vertex 3.0000000000000018 -29.557540743379214 -4.000000000000003
    vertex -0.4141104721640327 -26.10302206544172 -4.000000000000001
    vertex 1.4685638197970711e-15 -26.157540743379215 -4.000000000000001
  endloop
endfacet
facet normal -4.699944137579828e-16 -5.632816098574615e-33 -1.0
  outer loop
    vertex 3.0000000000000018 -29.557540743379214 -4.000000000000003
    vertex 1.4685638197970711e-15 -26.157540743379215 -4.000000000000001
    vertex 0.4141104721640343 -26.10302206544172 -4.000000000000001
  endloop
endfacet
facet normal -4.699944137579828e-16 -5.632816098574615e-33 -1.0
  outer loop
    vertex 3.0000000000000018 -29.557540743379214 -4.000000000000003
    vertex 0.4141104721640343 -26.10302206544172 -4.000000000000001
    vertex 0.8000000000000006 -25.94318138943431 -4.000000000000001
  endloop
endfacet
facet normal -4.699944137579828e-16 -5.632816098574615e-33 -1.0
  outer loop
    vertex 3.0000000000000018 -29.557540743379214 -4.000000000000003
    vertex 0.8000000000000006 -25.94318138943431 -4.000000000000001
    vertex 1.1313708498984778 -25.688911593277687 -4.000000000000002
  endloop
endfacet
facet normal -4.699944137579828e-16 -5.632816098574615e-33 -1.0
  outer loop
    vertex 3.0000000000000018 -29.557540743379214 -4.000000000000003
    vertex 1.1313708498984778 -25.688911593277687 -4.000000000000002
    vertex 1.3856406460551034 -25.357540743379214 -4.000000000000002
  endloop
endfacet
facet normal -4.699944137579828e-16 -5.632816098574615e-33 -1.0
  outer loop
    vertex 3.0000000000000018 -29.557540743379214 -4.000000000000003
    vertex 1.3856406460551034 -25.357540743379214 -4.000000000000002
    vertex 1.545481322062511 -24.971651215543247 -4.000000000000002
  endloop
endfacet
facet normal -4.699944137579828e-16 -5.632816098574615e-33 -1.0
  outer loop
    vertex 3.0000000000000018 -29.557540743379214 -4.000000000000003
    vertex 1.545481322062511 -24.971651215543247 -4.000000000000002
    vertex 1.600000000000002 -24.55754074337921 -4.000000000000002
  endloop
endfacet
facet normal -4.699944137579828e-16 -5.632816098574615e-33 -1.0
  outer loop
    vertex 3.0000000000000018 -29.557540743379214 -4.000000000000003
    vertex 1.600000000000002 -24.55754074337921 -4.000000000000002
    vertex 3.0000000000000018 -19.557540743379214 -4.000000000000003
  endloop
endfacet
facet normal 0.0 0.0 -1.0
  outer loop
    vertex -2.999999999999999 -11.857540743379202 -20.000000000000007
    vertex -8.999999999999998 -31.657540743379222 -20.000000000000007
    vertex -8.999999999999998 -11.857540743379202 -20.000000000000007
  endloop
endfacet
facet normal 0.0 0.0 -1.0
  outer loop
    vertex -8.999999999999998 -31.657540743379222 -20.000000000000007
    vertex -2.999999999999999 -11.857540743379202 -20.000000000000007
    vertex -2.999999999999999 -31.657540743379222 -20.000000000000007
  endloop
endfacet
facet normal 1.0 5.375545650042184e-16 1.0030953009426894e-16
  outer loop
    vertex -2.999999999999999 -34.557540743379214 -87.0
    vertex -2.9999999999999996 -34.500315286285996 -18.585099075609104
    vertex -2.999999999999999 -34.557540743379214 -20.000000000000007
  endloop
endfacet
facet normal 1.0 5.375545650042184e-16 1.0030953009426894e-16
  outer loop
    vertex -2.9999999999999996 -34.500315286285996 -18.585099075609104
    vertex -2.999999999999999 -34.557540743379214 -87.0
    vertex -2.999999999999999 -31.657540743379222 -84.0
  endloop
endfacet
facet normal 1.0 5.375545650042184e-16 1.0030953009426894e-16
  outer loop
    vertex -2.999999999999999 -31.657540743379222 -84.0
    vertex -2.999999999999999 -34.557540743379214 -87.0
    vertex -2.999999999999999 -11.857540743379213 -87.0
  endloop
endfacet
facet normal 1.0 5.375545650042184e-16 1.0030953009426894e-16
  outer loop
    vertex -2.9999999999999996 -34.500315286285996 -18.585099075609104
    vertex -2.999999999999999 -31.657540743379222 -84.0
    vertex -3.0 -34.375660998939054 -17.17453865952343
  endloop
endfacet
facet normal 1.0 5.375545650042184e-16 1.0030953009426894e-16
  outer loop
    vertex -3.0 -34.375660998939054 -17.17453865952343
    vertex -2.999999999999999 -31.657540743379222 -84.0
    vertex -3.0 -34.183861694448595 -15.771530318287091
  endloop
endfacet
facet normal 1.0 5.375545650042184e-16 1.0030953009426894e-16
  outer loop
    vertex -3.0 -34.183861694448595 -15.771530318287091
    vertex -2.999999999999999 -31.657540743379222 -84.0
    vertex -3.0 -33.9253540618231 -14.379268423866316
  endloop
endfacet
facet normal 1.0 5.375545650042184e-16 1.0030953009426894e-16
  outer loop
    vertex -3.0 -33.9253540618231 -14.379268423866316
    vertex -2.999999999999999 -31.657540743379222 -84.0
    vertex -3.0 -33.60072667171494 -13.000922880697507
  endloop
endfacet
facet normal 1.0 5.375545650042184e-16 1.0030953009426894e-16
  outer loop
    vertex -3.0 -33.60072667171494 -13.000922880697507
    vertex -2.999999999999999 -31.657540743379222 -84.0
    vertex -3.0 -33.21071863636171 -11.639631908442976
  endloop
endfacet
facet normal 1.0 5.375545650042184e-16 1.0030953009426894e-16
  outer loop
    vertex -3.0 -33.21071863636171 -11.639631908442976
    vertex -2.999999999999999 -31.657540743379222 -84.0
    vertex -3.0 -32.75621792677407 -10.298494896886703
  endloop
endfacet
facet normal 1.0 5.375545650042184e-16 1.0030953009426894e-16
  outer loop
    vertex -3.0 -32.75621792677407 -10.298494896886703
    vertex -2.999999999999999 -31.657540743379222 -84.0
    vertex -3.0 -32.23825935100173 -8.980565349237944
  endloop
endfacet
facet normal 1.0 5.375545650042184e-16 1.0030953009426894e-16
  outer loop
    vertex -3.0 -32.23825935100173 -8.980565349237944
    vertex -2.999999999999999 -31.657540743379222 -84.0
    vertex -3.0 -31.658022198080616 -7.688843929909548
  endloop
endfacet
facet normal 1.0 5.375545650042184e-16 1.0030953009426894e-16
  outer loop
    vertex -2.999999999999999 -31.657540743379222 -84.0
    vertex -2.999999999999999 -11.857540743379213 -87.0
    vertex -2.999999999999999 -11.857540743379213 -84.0
  endloop
endfacet
facet normal 1.0 5.375545650042184e-16 1.0030953009426894e-16
  outer loop
    vertex -3.0 -31.658022198080616 -7.688843929909548
    vertex -2.999999999999999 -31.657540743379222 -20.000000000000007
    vertex -2.9999999999999996 -31.016827553025387 -6.4262716325997
  endloop
endfacet
facet normal 1.0 5.375545650042184e-16 1.0030953009426894e-16
  outer loop
    vertex -2.999999999999999 -31.657540743379222 -20.000000000000007
    vertex -3.0 -31.658022198080616 -7.688843929909548
    vertex -2.999999999999999 -31.657540743379222 -84.0
  endloop
endfacet
facet normal 1.0 5.375545650042184e-16 1.0030953009426894e-16
  outer loop
    vertex -2.9999999999999996 -31.016827553025387 -6.4262716325997
    vertex -2.999999999999999 -31.657540743379222 -20.000000000000007
    vertex -2.999999999999999 -11.857540743379202 -20.000000000000007
  endloop
endfacet
facet normal 1.0 5.375545650042184e-16 1.0030953009426894e-16
  outer loop
    vertex -2.9999999999999996 -31.016827553025387 -6.4262716325997
    vertex -2.999999999999999 -11.857540743379202 -20.000000000000007
    vertex -2.9999999999999987 -30.316135288980675 -5.195723084232081
  endloop
endfacet
facet normal 1.0 5.375545650042184e-16 1.0030953009426894e-16
  outer loop
    vertex -2.9999999999999987 -30.316135288980675 -5.195723084232081
    vertex -2.999999999999999 -11.857540743379202 -20.000000000000007
    vertex -2.9999999999999982 -29.557540743379214 -3.9999999999999996
  endloop
endfacet
facet normal 1.0 5.375545650042184e-16 1.0030953009426894e-16
  outer loop
    vertex -2.9999999999999982 -29.557540743379214 -3.9999999999999996
    vertex -2.999999999999999 -11.857540743379202 -20.000000000000007
    vertex -3.000000000000014 -17.346323573076077 -14.234544445725405
  endloop
endfacet
facet normal 1.0 5.375545650042184e-16 1.0030953009426894e-16
  outer loop
    vertex -2.9999999999999982 -29.557540743379214 -3.9999999999999996
    vertex -3.000000000000014 -17.346323573076077 -14.234544445725405
    vertex -3.000000000000014 -18.000476757420515 -13.416813786412371
  endloop
endfacet
facet normal 1.0 5.375545650042184e-16 1.0030953009426894e-16
  outer loop
    vertex -2.9999999999999982 -29.557540743379214 -3.9999999999999996
    vertex -3.000000000000014 -18.000476757420515 -13.416813786412371
    vertex -2.9999999999999982 -24.557540743379214 -3.9999999999999996
  endloop
endfacet
facet normal 1.0 5.375545650042184e-16 1.0030953009426894e-16
  outer loop
    vertex -2.9999999999999982 -24.557540743379214 -3.9999999999999996
    vertex -3.000000000000014 -18.000476757420515 -13.416813786412371
    vertex -3.000000000000017 -18.54964937484477 -12.525180870891694
  endloop
endfacet
facet normal 1.0 5.375545650042184e-16 1.0030953009426894e-16
  outer loop
    vertex -2.9999999999999982 -24.557540743379214 -3.9999999999999996
    vertex -3.000000000000017 -18.54964937484477 -12.525180870891694
    vertex -3.000000000000017 -18.98558707665104 -11.573047403402834
  endloop
endfacet
facet normal 1.0 5.375545650042184e-16 1.0030953009426894e-16
  outer loop
    vertex -2.9999999999999982 -24.557540743379214 -3.9999999999999996
    vertex -3.000000000000017 -18.98558707665104 -11.573047403402834
    vertex -3.000000000000017 -19.301737493534965 -10.574724442797084
  endloop
endfacet
facet normal 1.0 5.375545650042184e-16 1.0030953009426894e-16
  outer loop
    vertex -2.9999999999999982 -24.557540743379214 -3.9999999999999996
    vertex -3.000000000000017 -19.301737493534965 -10.574724442797084
    vertex -3.000000000000017 -19.493348721087767 -9.545217299915498
  endloop
endfacet
facet normal 1.0 5.375545650042184e-16 1.0030953009426894e-16
  outer loop
    vertex -2.9999999999999982 -24.557540743379214 -3.9999999999999996
    vertex -3.000000000000017 -19.493348721087767 -9.545217299915498
    vertex -3.000000000000017 -19.557540743379214 -8.500000000000004
  endloop
endfacet
facet normal 1.0 5.375545650042184e-16 1.0030953009426894e-16
  outer loop
    vertex -3.000000000000014 -17.346323573076077 -14.234544445725405
    vertex -2.999999999999999 -11.857540743379202 -20.000000000000007
    vertex -3.000000000000014 -16.597022082769154 -14.966081933754781
  endloop
endfacet
facet normal 1.0 5.375545650042184e-16 1.0030953009426894e-16
  outer loop
    vertex -3.000000000000014 -16.597022082769154 -14.966081933754781
    vertex -2.999999999999999 -11.857540743379202 -20.000000000000007
    vertex -3.000000000000014 -15.763834675745906 -15.60043086340342
  endloop
endfacet
facet normal 1.0 5.375545650042184e-16 1.0030953009426894e-16
  outer loop
    vertex -3.000000000000014 -15.763834675745906 -15.60043086340342
    vertex -2.999999999999999 -11.857540743379202 -20.000000000000007
    vertex -3.000000000000014 -14.859284590001016 -16.128056641912597
  endloop
endfacet
facet normal 1.0 5.375545650042184e-16 1.0030953009426894e-16
  outer loop
    vertex -3.000000000000014 -14.859284590001016 -16.128056641912597
    vertex -2.999999999999999 -11.857540743379202 -20.000000000000007
    vertex -3.000000000000014 -13.896967681528483 -16.541028780726304
  endloop
endfacet
facet normal 1.0 5.375545650042184e-16 1.0030953009426894e-16
  outer loop
    vertex -3.000000000000014 -13.896967681528483 -16.541028780726304
    vertex -2.999999999999999 -11.857540743379202 -20.000000000000007
    vertex -3.000000000000014 -12.891348071568656 -16.833140094839177
  endloop
endfacet
facet normal 1.0 5.375545650042184e-16 1.0030953009426894e-16
  outer loop
    vertex -3.000000000000014 -12.891348071568656 -16.833140094839177
    vertex -2.999999999999999 -11.857540743379202 -20.000000000000007
    vertex -2.999999999999999 -11.857540743379202 -17.000000000000007
  endloop
endfacet
facet normal 1.0 5.375545650042184e-16 1.0030953009426894e-16
  outer loop
    vertex -2.9999999999999982 -19.557540743379214 -3.9999999999999996
    vertex -2.9999999999999982 -24.557540743379214 -3.9999999999999996
    vertex -3.000000000000017 -19.557540743379214 -8.500000000000004
  endloop
endfacet
facet normal 1.0 -9.70509399859516e-16 -1.033992061060213e-15
  outer loop
    vertex -3.000000000000001 -22.15754074337919 -8.152979985820343e-16
    vertex -2.9999999999999862 -26.95754074337921 2.0999999999999868
    vertex -2.9999999999999862 -26.95754074337921 -2.4180035215108414e-15
  endloop
endfacet
facet normal 1.0 -9.70509399859516e-16 -1.033992061060213e-15
  outer loop
    vertex -2.9999999999999862 -26.95754074337921 2.0999999999999868
    vertex -3.000000000000001 -22.15754074337919 -8.152979985820343e-16
    vertex -2.9999999999999747 -26.826404006070234 5.901795227607566
  endloop
endfacet
facet normal 1.0 -9.70509399859516e-16 -1.033992061060213e-15
  outer loop
    vertex -2.9999999999999747 -26.826404006070234 5.901795227607566
    vertex -3.000000000000001 -22.15754074337919 -8.152979985820343e-16
    vertex -2.9999999999999973 -22.32640400607024 5.90179522760757
  endloop
endfacet
facet normal 1.0 -9.70509399859516e-16 -1.033992061060213e-15
  outer loop
    vertex -2.9999999999999973 -22.32640400607024 5.90179522760757
    vertex -3.000000000000001 -22.15754074337919 -8.152979985820343e-16
    vertex -2.9999999999999636 -22.157540743379187 2.099999999999997
  endloop
endfacet
facet normal 1.0 -9.70509399859516e-16 -1.033992061060213e-15
  outer loop
    vertex -2.9999999999999973 -22.32640400607024 5.90179522760757
    vertex -2.9999999999999636 -22.157540743379187 2.099999999999997
    vertex -2.9999999999999862 -19.55754074337919 2.10000000000001
  endloop
endfacet
facet normal 1.0 -9.70509399859516e-16 -1.033992061060213e-15
  outer loop
    vertex -2.9999999999999747 -26.826404006070234 5.901795227607566
    vertex -3.0000000000000084 -29.557540743379185 2.1000000000000005
    vertex -2.9999999999999862 -26.95754074337921 2.0999999999999868
  endloop
endfacet
facet normal -3.0460830176857073e-16 1.0 -1.1836098386582562e-17
  outer loop
    vertex -8.999999999999998 -31.657540743379222 -20.000000000000007
    vertex -2.999999999999999 -31.657540743379222 -84.0
    vertex -8.999999999999998 -31.657540743379222 -84.0
  endloop
endfacet
facet normal -3.0460830176857073e-16 1.0 -1.1836098386582562e-17
  outer loop
    vertex -2.999999999999999 -31.657540743379222 -84.0
    vertex -8.999999999999998 -31.657540743379222 -20.000000000000007
    vertex -2.999999999999999 -31.657540743379222 -20.000000000000007
  endloop
endfacet
facet normal 0.0 0.0 -1.0
  outer loop
    vertex -2.999999999999999 -11.857540743379213 -87.0
    vertex -8.999999999999998 -34.557540743379214 -87.0
    vertex -8.999999999999998 -11.857540743379213 -87.0
  endloop
endfacet
facet normal 0.0 0.0 -1.0
  outer loop
    vertex -8.999999999999998 -34.557540743379214 -87.0
    vertex -2.999999999999999 -11.857540743379213 -87.0
    vertex -2.999999999999999 -34.557540743379214 -87.0
  endloop
endfacet
facet normal 0.0 1.0 0.0
  outer loop
    vertex -8.999999999999998 -11.857540743379213 -84.0
    vertex -2.999999999999999 -11.857540743379213 -87.0
    vertex -8.999999999999998 -11.857540743379213 -87.0
  endloop
endfacet
facet normal 0.0 1.0 0.0
  outer loop
    vertex -2.999999999999999 -11.857540743379213 -87.0
    vertex -8.999999999999998 -11.857540743379213 -84.0
    vertex -2.999999999999999 -11.857540743379213 -84.0
  endloop
endfacet
facet normal 0.0 -0.0 1.0
  outer loop
    vertex -2.999999999999999 -31.657540743379222 -84.0
    vertex -8.999999999999998 -11.857540743379213 -84.0
    vertex -8.999999999999998 -31.657540743379222 -84.0
  endloop
endfacet
facet normal 0.0 -0.0 1.0
  outer loop
    vertex -8.999999999999998 -11.857540743379213 -84.0
    vertex -2.999999999999999 -31.657540743379222 -84.0
    vertex -2.999999999999999 -11.857540743379213 -84.0
  endloop
endfacet
facet normal -0.0 1.0 -0.0
  outer loop
    vertex -8.999999999999998 -11.857540743379202 -17.000000000000007
    vertex -2.999999999999999 -11.857540743379202 -20.000000000000007
    vertex -8.999999999999998 -11.857540743379202 -20.000000000000007
  endloop
endfacet
facet normal -0.0 1.0 -0.0
  outer loop
    vertex -2.999999999999999 -11.857540743379202 -20.000000000000007
    vertex -8.999999999999998 -11.857540743379202 -17.000000000000007
    vertex -2.999999999999999 -11.857540743379202 -17.000000000000007
  endloop
endfacet
facet normal -1.480237434653967e-19 0.15934113535402633 0.987223582874766
  outer loop
    vertex -3.000000000000014 -12.891348071568656 -16.833140094839177
    vertex -8.999999999999998 -11.857540743379202 -17.000000000000007
    vertex -8.999999999999998 -12.891348071568656 -16.833140094839177
  endloop
endfacet
facet normal -1.480237434653967e-19 0.15934113535402633 0.987223582874766
  outer loop
    vertex -8.999999999999998 -11.857540743379202 -17.000000000000007
    vertex -3.000000000000014 -12.891348071568656 -16.833140094839177
    vertex -2.999999999999999 -11.857540743379202 -17.000000000000007
  endloop
endfacet
facet normal -0.0 0.9981194170023951 0.06129950573046092
  outer loop
    vertex -9.000000000000002 -19.557540743379214 -8.500000000000004
    vertex -3.000000000000017 -19.493348721087767 -9.545217299915498
    vertex -9.000000000000002 -19.493348721087767 -9.545217299915498
  endloop
endfacet
facet normal -0.0 0.9981194170023951 0.06129950573046092
  outer loop
    vertex -3.000000000000017 -19.493348721087767 -9.545217299915498
    vertex -9.000000000000002 -19.557540743379214 -8.500000000000004
    vertex -3.000000000000017 -19.557540743379214 -8.500000000000004
  endloop
endfacet
facet normal -1.1437890886897597e-17 0.9831171655270645 0.18297715389094457
  outer loop
    vertex -9.000000000000002 -19.493348721087767 -9.545217299915498
    vertex -3.000000000000017 -19.301737493534965 -10.574724442797084
    vertex -9.000000000000002 -19.301737493534965 -10.574724442797084
  endloop
endfacet
facet normal -1.1437890886897597e-17 0.9831171655270645 0.18297715389094457
  outer loop
    vertex -3.000000000000017 -19.301737493534965 -10.574724442797084
    vertex -9.000000000000002 -19.493348721087767 -9.545217299915498
    vertex -3.000000000000017 -19.493348721087767 -9.545217299915498
  endloop
endfacet
facet normal -5.217414561348529e-17 0.953338154181409 0.3019045607174296
  outer loop
    vertex -9.000000000000002 -19.301737493534965 -10.574724442797084
    vertex -3.000000000000017 -18.98558707665104 -11.573047403402834
    vertex -9.000000000000002 -18.98558707665104 -11.573047403402834
  endloop
endfacet
facet normal -5.217414561348529e-17 0.953338154181409 0.3019045607174296
  outer loop
    vertex -3.000000000000017 -18.98558707665104 -11.573047403402834
    vertex -9.000000000000002 -19.301737493534965 -10.574724442797084
    vertex -3.000000000000017 -19.301737493534965 -10.574724442797084
  endloop
endfacet
facet normal -9.212619592557733e-17 0.9092299769199077 0.41629418572714216
  outer loop
    vertex -9.000000000000002 -18.98558707665104 -11.573047403402834
    vertex -3.000000000000017 -18.54964937484477 -12.525180870891694
    vertex -9.000000000000002 -18.54964937484477 -12.525180870891694
  endloop
endfacet
facet normal -9.212619592557733e-17 0.9092299769199077 0.41629418572714216
  outer loop
    vertex -3.000000000000017 -18.54964937484477 -12.525180870891694
    vertex -9.000000000000002 -18.98558707665104 -11.573047403402834
    vertex -3.000000000000017 -18.98558707665104 -11.573047403402834
  endloop
endfacet
facet normal -1.3069354182736014e-16 0.8514556024776813 0.5244266936468519
  outer loop
    vertex -9.000000000000002 -18.54964937484477 -12.525180870891694
    vertex -3.000000000000014 -18.000476757420515 -13.416813786412371
    vertex -9.0 -18.000476757420515 -13.416813786412371
  endloop
endfacet
facet normal -1.3069354182736014e-16 0.8514556024776813 0.5244266936468519
  outer loop
    vertex -3.000000000000014 -18.000476757420515 -13.416813786412371
    vertex -9.000000000000002 -18.54964937484477 -12.525180870891694
    vertex -3.000000000000017 -18.54964937484477 -12.525180870891694
  endloop
endfacet
facet normal -1.6729649614703515e-16 0.780883409607266 0.6246767969119157
  outer loop
    vertex -9.0 -18.000476757420515 -13.416813786412371
    vertex -3.000000000000014 -17.346323573076077 -14.234544445725405
    vertex -9.0 -17.346323573076077 -14.234544445725405
  endloop
endfacet
facet normal -1.6729649614703515e-16 0.780883409607266 0.6246767969119157
  outer loop
    vertex -3.000000000000014 -17.346323573076077 -14.234544445725405
    vertex -9.0 -18.000476757420515 -13.416813786412371
    vertex -3.000000000000014 -18.000476757420515 -13.416813786412371
  endloop
endfacet
facet normal -2.01384897535082e-16 0.6985741348964563 0.7155376845796928
  outer loop
    vertex -3.000000000000014 -17.346323573076077 -14.234544445725405
    vertex -9.0 -16.597022082769154 -14.966081933754781
    vertex -9.0 -17.346323573076077 -14.234544445725405
  endloop
endfacet
facet normal -2.01384897535082e-16 0.6985741348964563 0.7155376845796928
  outer loop
    vertex -9.0 -16.597022082769154 -14.966081933754781
    vertex -3.000000000000014 -17.346323573076077 -14.234544445725405
    vertex -3.000000000000014 -16.597022082769154 -14.966081933754781
  endloop
endfacet
facet normal -2.324463796740986e-16 0.6057649293483601 0.7956436704779196
  outer loop
    vertex -3.000000000000014 -16.597022082769154 -14.966081933754781
    vertex -9.0 -15.763834675745906 -15.60043086340342
    vertex -9.0 -16.597022082769154 -14.966081933754781
  endloop
endfacet
facet normal -2.324463796740986e-16 0.6057649293483601 0.7956436704779196
  outer loop
    vertex -9.0 -15.763834675745906 -15.60043086340342
    vertex -3.000000000000014 -16.597022082769154 -14.966081933754781
    vertex -3.000000000000014 -15.763834675745906 -15.60043086340342
  endloop
endfacet
facet normal -2.6001407240976493e-16 0.503850763361449 0.8637907201747916
  outer loop
    vertex -3.000000000000014 -15.763834675745906 -15.60043086340342
    vertex -9.0 -14.859284590001016 -16.128056641912597
    vertex -9.0 -15.763834675745906 -15.60043086340342
  endloop
endfacet
facet normal -2.6001407240976493e-16 0.503850763361449 0.8637907201747916
  outer loop
    vertex -9.0 -14.859284590001016 -16.128056641912597
    vertex -3.000000000000014 -15.763834675745906 -15.60043086340342
    vertex -3.000000000000014 -14.859284590001016 -16.128056641912597
  endloop
endfacet
facet normal -2.836736190509184e-16 0.3943634596024152 0.9189545482396909
  outer loop
    vertex -3.000000000000014 -14.859284590001016 -16.128056641912597
    vertex -8.999999999999998 -13.896967681528483 -16.541028780726304
    vertex -9.0 -14.859284590001016 -16.128056641912597
  endloop
endfacet
facet normal -2.836736190509184e-16 0.3943634596024152 0.9189545482396909
  outer loop
    vertex -8.999999999999998 -13.896967681528483 -16.541028780726304
    vertex -3.000000000000014 -14.859284590001016 -16.128056641912597
    vertex -3.000000000000014 -13.896967681528483 -16.541028780726304
  endloop
endfacet
facet normal -3.0306940436509385e-16 0.2789486689186235 0.9603060137833815
  outer loop
    vertex -3.000000000000014 -13.896967681528483 -16.541028780726304
    vertex -8.999999999999998 -12.891348071568656 -16.833140094839177
    vertex -8.999999999999998 -13.896967681528483 -16.541028780726304
  endloop
endfacet
facet normal -3.0306940436509385e-16 0.2789486689186235 0.9603060137833815
  outer loop
    vertex -8.999999999999998 -12.891348071568656 -16.833140094839177
    vertex -3.000000000000014 -13.896967681528483 -16.541028780726304
    vertex -3.000000000000014 -12.891348071568656 -16.833140094839177
  endloop
endfacet
facet normal -0.6087614290087668 -0.7933533402911996 3.641144446112309e-16
  outer loop
    vertex 0.8214903241928904 -23.188390203057736 1.0574874309554616e-14
    vertex 0.800000000000002 -23.17190009732411 -4.000000000000002
    vertex 0.8214903241928908 -23.188390203057732 -4.000000000000002
  endloop
endfacet
facet normal -0.6087614290087668 -0.7933533402911996 3.641144446112309e-16
  outer loop
    vertex 0.800000000000002 -23.17190009732411 -4.000000000000002
    vertex 0.8214903241928904 -23.188390203057736 1.0574874309554616e-14
    vertex 0.8000000000000015 -23.171900097324112 1.0574874309554616e-14
  endloop
endfacet
facet normal -0.6087614290087179 -0.7933533402912375 3.641144446112098e-16
  outer loop
    vertex 1.1313708498984776 -23.42616989348074 1.0574874309554616e-14
    vertex 0.8214903241928908 -23.188390203057732 -4.000000000000002
    vertex 1.131370849898478 -23.426169893480736 -4.000000000000002
  endloop
endfacet
facet normal -0.6087614290087179 -0.7933533402912375 3.641144446112098e-16
  outer loop
    vertex 0.8214903241928908 -23.188390203057732 -4.000000000000002
    vertex 1.1313708498984776 -23.42616989348074 1.0574874309554616e-14
    vertex 0.8214903241928904 -23.188390203057736 1.0574874309554616e-14
  endloop
endfacet
facet normal -0.793353340291236 -0.6087614290087195 4.402985369451784e-16
  outer loop
    vertex 1.1313708498984776 -23.42616989348074 1.0574874309554616e-14
    vertex 1.3856406460551038 -23.757540743379213 -4.000000000000002
    vertex 1.3856406460551034 -23.757540743379217 1.0574874309554616e-14
  endloop
endfacet
facet normal -0.793353340291236 -0.6087614290087195 4.402985369451784e-16
  outer loop
    vertex 1.3856406460551038 -23.757540743379213 -4.000000000000002
    vertex 1.1313708498984776 -23.42616989348074 1.0574874309554616e-14
    vertex 1.131370849898478 -23.426169893480736 -4.000000000000002
  endloop
endfacet
facet normal -0.9238795325112867 -0.38268343236508995 4.864770116140668e-16
  outer loop
    vertex 1.3856406460551034 -23.757540743379217 1.0574874309554616e-14
    vertex 1.5454813220625112 -24.14343027121518 -4.000000000000002
    vertex 1.5454813220625108 -24.143430271215184 1.0574874309554616e-14
  endloop
endfacet
facet normal -0.9238795325112867 -0.38268343236508995 4.864770116140668e-16
  outer loop
    vertex 1.5454813220625112 -24.14343027121518 -4.000000000000002
    vertex 1.3856406460551034 -23.757540743379217 1.0574874309554616e-14
    vertex 1.3856406460551038 -23.757540743379213 -4.000000000000002
  endloop
endfacet
facet normal -0.9914448613738104 -0.130526192220052 4.995028818827304e-16
  outer loop
    vertex 1.5454813220625108 -24.143430271215184 1.0574874309554616e-14
    vertex 1.600000000000002 -24.55754074337921 -4.000000000000002
    vertex 1.6000000000000003 -24.557540743379214 1.0574874309554616e-14
  endloop
endfacet
facet normal -0.9914448613738104 -0.130526192220052 4.995028818827304e-16
  outer loop
    vertex 1.600000000000002 -24.55754074337921 -4.000000000000002
    vertex 1.5454813220625108 -24.143430271215184 1.0574874309554616e-14
    vertex 1.5454813220625112 -24.14343027121518 -4.000000000000002
  endloop
endfacet
facet normal -0.9914448613738104 0.13052619222005193 4.784884562186277e-16
  outer loop
    vertex 1.6000000000000003 -24.557540743379214 1.0574874309554616e-14
    vertex 1.545481322062511 -24.971651215543247 -4.000000000000002
    vertex 1.5454813220625103 -24.97165121554325 1.0574874309554616e-14
  endloop
endfacet
facet normal -0.9914448613738104 0.13052619222005193 4.784884562186277e-16
  outer loop
    vertex 1.545481322062511 -24.971651215543247 -4.000000000000002
    vertex 1.6000000000000003 -24.557540743379214 1.0574874309554616e-14
    vertex 1.600000000000002 -24.55754074337921 -4.000000000000002
  endloop
endfacet
facet normal -0.9238795325112865 0.3826834323650903 4.248658330027867e-16
  outer loop
    vertex 1.5454813220625103 -24.97165121554325 1.0574874309554616e-14
    vertex 1.3856406460551034 -25.357540743379214 -4.000000000000002
    vertex 1.3856406460551027 -25.357540743379214 1.0574874309554616e-14
  endloop
endfacet
facet normal -0.9238795325112865 0.3826834323650903 4.248658330027867e-16
  outer loop
    vertex 1.3856406460551034 -25.357540743379214 -4.000000000000002
    vertex 1.5454813220625103 -24.97165121554325 1.0574874309554616e-14
    vertex 1.545481322062511 -24.971651215543247 -4.000000000000002
  endloop
endfacet
facet normal -0.7933533402912337 0.6087614290087224 3.422893053917918e-16
  outer loop
    vertex 1.3856406460551027 -25.357540743379214 1.0574874309554616e-14
    vertex 1.1313708498984778 -25.688911593277687 -4.000000000000002
    vertex 1.1313708498984771 -25.688911593277687 1.0574874309554616e-14
  endloop
endfacet
facet normal -0.7933533402912337 0.6087614290087224 3.422893053917918e-16
  outer loop
    vertex 1.1313708498984778 -25.688911593277687 -4.000000000000002
    vertex 1.3856406460551027 -25.357540743379214 1.0574874309554616e-14
    vertex 1.3856406460551034 -25.357540743379214 -4.000000000000002
  endloop
endfacet
facet normal -0.6087614290087199 0.7933533402912358 2.363863272781698e-16
  outer loop
    vertex 0.8000000000000006 -25.94318138943431 -4.000000000000001
    vertex 1.1313708498984771 -25.688911593277687 1.0574874309554616e-14
    vertex 1.1313708498984778 -25.688911593277687 -4.000000000000002
  endloop
endfacet
facet normal -0.6087614290087199 0.7933533402912358 2.363863272781698e-16
  outer loop
    vertex 1.1313708498984771 -25.688911593277687 1.0574874309554616e-14
    vertex 0.8000000000000006 -25.94318138943431 -4.000000000000001
    vertex 0.8000000000000002 -25.94318138943431 1.0574874309554616e-14
  endloop
endfacet
facet normal -0.382683432365087 0.9238795325112881 1.143740116074153e-16
  outer loop
    vertex 0.4141104721640357 -26.10302206544172 1.0574874309554616e-14
    vertex 0.8000000000000006 -25.94318138943431 -4.000000000000001
    vertex 0.4141104721640343 -26.10302206544172 -4.000000000000001
  endloop
endfacet
facet normal -0.382683432365087 0.9238795325112881 1.143740116074153e-16
  outer loop
    vertex 0.8000000000000006 -25.94318138943431 -4.000000000000001
    vertex 0.4141104721640357 -26.10302206544172 1.0574874309554616e-14
    vertex 0.8000000000000002 -25.94318138943431 1.0574874309554616e-14
  endloop
endfacet
facet normal -0.13052619222006248 0.9914448613738089 -1.543270394238565e-17
  outer loop
    vertex 3.4414245934082015e-15 -26.157540743379215 1.0574874309554616e-14
    vertex 0.4141104721640343 -26.10302206544172 -4.000000000000001
    vertex 1.4685638197970711e-15 -26.157540743379215 -4.000000000000001
  endloop
endfacet
facet normal -0.13052619222006248 0.9914448613738089 -1.543270394238565e-17
  outer loop
    vertex 0.4141104721640343 -26.10302206544172 -4.000000000000001
    vertex 3.4414245934082015e-15 -26.157540743379215 1.0574874309554616e-14
    vertex 0.4141104721640357 -26.10302206544172 1.0574874309554616e-14
  endloop
endfacet
facet normal 0.13052619222006207 0.9914448613738092 -1.4418770622227928e-16
  outer loop
    vertex -0.4141104721640313 -26.10302206544172 1.0574874309554616e-14
    vertex 1.4685638197970711e-15 -26.157540743379215 -4.000000000000001
    vertex -0.4141104721640327 -26.10302206544172 -4.000000000000001
  endloop
endfacet
facet normal 0.13052619222006207 0.9914448613738092 -1.4418770622227928e-16
  outer loop
    vertex 1.4685638197970711e-15 -26.157540743379215 -4.000000000000001
    vertex -0.4141104721640313 -26.10302206544172 1.0574874309554616e-14
    vertex 3.4414245934082015e-15 -26.157540743379215 1.0574874309554616e-14
  endloop
endfacet
facet normal 0.382683432365087 0.9238795325112881 -2.631165546045589e-16
  outer loop
    vertex -0.799999999999999 -25.94318138943431 -4.0
    vertex -0.4141104721640313 -26.10302206544172 1.0574874309554616e-14
    vertex -0.4141104721640327 -26.10302206544172 -4.000000000000001
  endloop
endfacet
facet normal 0.382683432365087 0.9238795325112881 -2.631165546045589e-16
  outer loop
    vertex -0.4141104721640313 -26.10302206544172 1.0574874309554616e-14
    vertex -0.799999999999999 -25.94318138943431 -4.0
    vertex -0.7999999999999996 -25.94318138943431 1.0574874309554616e-14
  endloop
endfacet
facet normal 0.6087614290086641 0.7933533402912786 -3.6411444461118654e-16
  outer loop
    vertex -0.8214903241928868 -25.926691283700695 1.0574874309554616e-14
    vertex -0.799999999999999 -25.94318138943431 -4.0
    vertex -0.8214903241928863 -25.926691283700695 -4.0
  endloop
endfacet
facet normal 0.6087614290086641 0.7933533402912786 -3.6411444461118654e-16
  outer loop
    vertex -0.799999999999999 -25.94318138943431 -4.0
    vertex -0.8214903241928868 -25.926691283700695 1.0574874309554616e-14
    vertex -0.7999999999999996 -25.94318138943431 1.0574874309554616e-14
  endloop
endfacet
facet normal 0.608761429008725 0.793353340291232 -3.6411444461121286e-16
  outer loop
    vertex -1.1313708498984756 -25.688911593277687 1.0574874309554616e-14
    vertex -0.8214903241928863 -25.926691283700695 -4.0
    vertex -1.1313708498984751 -25.688911593277687 -4.0
  endloop
endfacet
facet normal 0.608761429008725 0.793353340291232 -3.6411444461121286e-16
  outer loop
    vertex -0.8214903241928863 -25.926691283700695 -4.0
    vertex -1.1313708498984756 -25.688911593277687 1.0574874309554616e-14
    vertex -0.8214903241928868 -25.926691283700695 1.0574874309554616e-14
  endloop
endfacet
facet normal 0.7933533402912365 0.608761429008719 -4.402985369451785e-16
  outer loop
    vertex -1.3856406460551005 -25.35754074337921 -4.0
    vertex -1.1313708498984756 -25.688911593277687 1.0574874309554616e-14
    vertex -1.1313708498984751 -25.688911593277687 -4.0
  endloop
endfacet
facet normal 0.7933533402912365 0.608761429008719 -4.402985369451785e-16
  outer loop
    vertex -1.1313708498984756 -25.688911593277687 1.0574874309554616e-14
    vertex -1.3856406460551005 -25.35754074337921 -4.0
    vertex -1.385640646055101 -25.357540743379214 1.0574874309554616e-14
  endloop
endfacet
facet normal 0.9238795325112867 0.38268343236508995 -4.864770116140668e-16
  outer loop
    vertex -1.3856406460551005 -25.35754074337921 -4.0
    vertex -1.5454813220625085 -24.971651215543247 1.0574874309554616e-14
    vertex -1.385640646055101 -25.357540743379214 1.0574874309554616e-14
  endloop
endfacet
facet normal 0.9238795325112867 0.38268343236508995 -4.864770116140668e-16
  outer loop
    vertex -1.5454813220625085 -24.971651215543247 1.0574874309554616e-14
    vertex -1.3856406460551005 -25.35754074337921 -4.0
    vertex -1.5454813220625079 -24.971651215543243 -4.0
  endloop
endfacet
facet normal 0.9914448613738104 0.13052619222005155 -4.995028818827304e-16
  outer loop
    vertex -1.5454813220625079 -24.971651215543243 -4.0
    vertex -1.6000000000000003 -24.557540743379214 1.0574874309554616e-14
    vertex -1.5454813220625085 -24.971651215543247 1.0574874309554616e-14
  endloop
endfacet
facet normal 0.9914448613738104 0.13052619222005155 -4.995028818827304e-16
  outer loop
    vertex -1.6000000000000003 -24.557540743379214 1.0574874309554616e-14
    vertex -1.5454813220625079 -24.971651215543243 -4.0
    vertex -1.5999999999999985 -24.55754074337921 -4.0
  endloop
endfacet
facet normal 0.9914448613738104 -0.13052619222005152 -4.784884562186277e-16
  outer loop
    vertex -1.5999999999999985 -24.55754074337921 -4.0
    vertex -1.545481322062508 -24.14343027121518 1.0574874309554616e-14
    vertex -1.6000000000000003 -24.557540743379214 1.0574874309554616e-14
  endloop
endfacet
facet normal 0.9914448613738104 -0.13052619222005152 -4.784884562186277e-16
  outer loop
    vertex -1.545481322062508 -24.14343027121518 1.0574874309554616e-14
    vertex -1.5999999999999985 -24.55754074337921 -4.0
    vertex -1.5454813220625077 -24.143430271215177 -4.0
  endloop
endfacet
facet normal 0.9238795325112865 -0.3826834323650903 -4.248658330027867e-16
  outer loop
    vertex -1.5454813220625077 -24.143430271215177 -4.0
    vertex -1.3856406460551005 -23.757540743379213 1.0574874309554616e-14
    vertex -1.545481322062508 -24.14343027121518 1.0574874309554616e-14
  endloop
endfacet
facet normal 0.9238795325112865 -0.3826834323650903 -4.248658330027867e-16
  outer loop
    vertex -1.3856406460551005 -23.757540743379213 1.0574874309554616e-14
    vertex -1.5454813220625077 -24.143430271215177 -4.0
    vertex -1.3856406460551 -23.75754074337921 -4.0
  endloop
endfacet
facet normal 0.7933533402912337 -0.6087614290087224 -3.422893053917918e-16
  outer loop
    vertex -1.3856406460551 -23.75754074337921 -4.0
    vertex -1.131370849898475 -23.42616989348074 1.0574874309554616e-14
    vertex -1.3856406460551005 -23.757540743379213 1.0574874309554616e-14
  endloop
endfacet
facet normal 0.7933533402912337 -0.6087614290087224 -3.422893053917918e-16
  outer loop
    vertex -1.131370849898475 -23.42616989348074 1.0574874309554616e-14
    vertex -1.3856406460551 -23.75754074337921 -4.0
    vertex -1.1313708498984745 -23.426169893480736 -4.0
  endloop
endfacet
facet normal 0.6087614290087207 -0.7933533402912352 -2.3638632727817024e-16
  outer loop
    vertex -0.7999999999999985 -23.171900097324112 1.0574874309554616e-14
    vertex -1.1313708498984745 -23.426169893480736 -4.0
    vertex -0.799999999999998 -23.17190009732411 -4.000000000000001
  endloop
endfacet
facet normal 0.6087614290087207 -0.7933533402912352 -2.3638632727817024e-16
  outer loop
    vertex -1.1313708498984745 -23.426169893480736 -4.0
    vertex -0.7999999999999985 -23.171900097324112 1.0574874309554616e-14
    vertex -1.131370849898475 -23.42616989348074 1.0574874309554616e-14
  endloop
endfacet
facet normal 0.38268343236509245 -0.9238795325112857 -1.1437401160741817e-16
  outer loop
    vertex -0.4141104721640299 -23.012059421316703 1.0574874309554616e-14
    vertex -0.799999999999998 -23.17190009732411 -4.000000000000001
    vertex -0.4141104721640313 -23.012059421316703 -4.000000000000001
  endloop
endfacet
facet normal 0.38268343236509245 -0.9238795325112857 -1.1437401160741817e-16
  outer loop
    vertex -0.799999999999998 -23.17190009732411 -4.000000000000001
    vertex -0.4141104721640299 -23.012059421316703 1.0574874309554616e-14
    vertex -0.7999999999999985 -23.171900097324112 1.0574874309554616e-14
  endloop
endfacet
facet normal 0.1305261922200491 -0.9914448613738107 1.5432703942392398e-17
  outer loop
    vertex 3.833311569135355e-15 -22.957540743379216 1.0574874309554616e-14
    vertex -0.4141104721640313 -23.012059421316703 -4.000000000000001
    vertex 1.860450795524224e-15 -22.957540743379212 -4.000000000000001
  endloop
endfacet
facet normal 0.1305261922200491 -0.9914448613738107 1.5432703942392398e-17
  outer loop
    vertex -0.4141104721640313 -23.012059421316703 -4.000000000000001
    vertex 3.833311569135355e-15 -22.957540743379216 1.0574874309554616e-14
    vertex -0.4141104721640299 -23.012059421316703 1.0574874309554616e-14
  endloop
endfacet
facet normal -0.130526192220049 -0.9914448613738108 1.44187706222273e-16
  outer loop
    vertex 0.41411047216403674 -23.012059421316703 1.0574874309554616e-14
    vertex 1.860450795524224e-15 -22.957540743379212 -4.000000000000001
    vertex 0.41411047216403535 -23.012059421316703 -4.000000000000001
  endloop
endfacet
facet normal -0.130526192220049 -0.9914448613738108 1.44187706222273e-16
  outer loop
    vertex 1.860450795524224e-15 -22.957540743379212 -4.000000000000001
    vertex 0.41411047216403674 -23.012059421316703 1.0574874309554616e-14
    vertex 3.833311569135355e-15 -22.957540743379216 1.0574874309554616e-14
  endloop
endfacet
facet normal -0.38268343236509245 -0.9238795325112857 2.6311655460456144e-16
  outer loop
    vertex 0.8000000000000015 -23.171900097324112 1.0574874309554616e-14
    vertex 0.41411047216403535 -23.012059421316703 -4.000000000000001
    vertex 0.800000000000002 -23.17190009732411 -4.000000000000002
  endloop
endfacet
facet normal -0.38268343236509245 -0.9238795325112857 2.6311655460456144e-16
  outer loop
    vertex 0.41411047216403535 -23.012059421316703 -4.000000000000001
    vertex 0.8000000000000015 -23.171900097324112 1.0574874309554616e-14
    vertex 0.41411047216403674 -23.012059421316703 1.0574874309554616e-14
  endloop
endfacet
facet normal 0.0 -1.0 0.0
  outer loop
    vertex 3.0000000000000004 -29.557540743379214 -2.6437185773886524e-15
    vertex -2.9999999999999982 -29.557540743379214 -3.9999999999999996
    vertex 3.0000000000000018 -29.557540743379214 -4.000000000000003
  endloop
endfacet
facet normal 0.0 -1.0 0.0
  outer loop
    vertex -2.9999999999999982 -29.557540743379214 -3.9999999999999996
    vertex 3.0000000000000004 -29.557540743379214 -2.6437185773886524e-15
    vertex -9.0 -29.557540743379214 -3.9999999999999996
  endloop
endfacet
facet normal 0.0 -1.0 0.0
  outer loop
    vertex -9.0 -29.557540743379214 -3.9999999999999996
    vertex 3.0000000000000004 -29.557540743379214 -2.6437185773886524e-15
    vertex -9.0 -29.557540743379214 -1.2337353361147244e-15
  endloop
endfacet
facet normal 0.0 -1.0 -8.417810395665367e-17
  outer loop
    vertex -2.999999999999999 -34.557540743379214 -20.000000000000007
    vertex -8.999999999999998 -34.557540743379214 -87.0
    vertex -2.999999999999999 -34.557540743379214 -87.0
  endloop
endfacet
facet normal 0.0 -1.0 -8.417810395665367e-17
  outer loop
    vertex -8.999999999999998 -34.557540743379214 -87.0
    vertex -2.999999999999999 -34.557540743379214 -20.000000000000007
    vertex -8.999999999999998 -34.557540743379214 -20.000000000000007
  endloop
endfacet
facet normal 6.281646841717665e-19 -0.9991831090705777 0.040411811986767965
  outer loop
    vertex -2.9999999999999996 -34.500315286285996 -18.585099075609104
    vertex -8.999999999999998 -34.557540743379214 -20.000000000000007
    vertex -2.999999999999999 -34.557540743379214 -20.000000000000007
  endloop
endfacet
facet normal 6.281646841717665e-19 -0.9991831090705777 0.040411811986767965
  outer loop
    vertex -8.999999999999998 -34.557540743379214 -20.000000000000007
    vertex -2.9999999999999996 -34.500315286285996 -18.585099075609104
    vertex -8.999999999999998 -34.500315286285996 -18.585099075609104
  endloop
endfacet
facet normal 1.4187210863104912e-17 -0.9961179032256997 0.08802910242207279
  outer loop
    vertex -3.0 -34.375660998939054 -17.17453865952343
    vertex -8.999999999999998 -34.500315286285996 -18.585099075609104
    vertex -2.9999999999999996 -34.500315286285996 -18.585099075609104
  endloop
endfacet
facet normal 1.4187210863104912e-17 -0.9961179032256997 0.08802910242207279
  outer loop
    vertex -8.999999999999998 -34.500315286285996 -18.585099075609104
    vertex -3.0 -34.375660998939054 -17.17453865952343
    vertex -8.999999999999998 -34.375660998939054 -17.17453865952343
  endloop
endfacet
facet normal 1.7063861596118477e-17 -0.9907847343106098 0.13544596803542877
  outer loop
    vertex -3.0 -34.183861694448595 -15.771530318287091
    vertex -8.999999999999998 -34.375660998939054 -17.17453865952343
    vertex -3.0 -34.375660998939054 -17.17453865952343
  endloop
endfacet
facet normal 1.7063861596118477e-17 -0.9907847343106098 0.13544596803542877
  outer loop
    vertex -8.999999999999998 -34.375660998939054 -17.17453865952343
    vertex -3.0 -34.183861694448595 -15.771530318287091
    vertex -8.999999999999998 -34.183861694448595 -15.771530318287091
  endloop
endfacet
facet normal 1.990166129773283e-17 -0.9831957448940832 0.18255445002017587
  outer loop
    vertex -3.0 -33.9253540618231 -14.379268423866316
    vertex -8.999999999999998 -34.183861694448595 -15.771530318287091
    vertex -3.0 -34.183861694448595 -15.771530318287091
  endloop
endfacet
facet normal 1.990166129773283e-17 -0.9831957448940832 0.18255445002017587
  outer loop
    vertex -8.999999999999998 -34.183861694448595 -15.771530318287091
    vertex -3.0 -33.9253540618231 -14.379268423866316
    vertex -8.999999999999998 -33.9253540618231 -14.379268423866316
  endloop
endfacet
facet normal 2.2694148860380238e-17 -0.9733682136011481 0.22924729169809135
  outer loop
    vertex -3.0 -33.60072667171494 -13.000922880697507
    vertex -8.999999999999998 -33.9253540618231 -14.379268423866316
    vertex -3.0 -33.9253540618231 -14.379268423866316
  endloop
endfacet
facet normal 2.2694148860380238e-17 -0.9733682136011481 0.22924729169809135
  outer loop
    vertex -8.999999999999998 -33.9253540618231 -14.379268423866316
    vertex -3.0 -33.60072667171494 -13.000922880697507
    vertex -8.999999999999998 -33.60072667171494 -13.000922880697507
  endloop
endfacet
facet normal 2.5434966343251547e-17 -0.9613245157730941 0.27541818272152324
  outer loop
    vertex -3.0 -33.21071863636171 -11.639631908442976
    vertex -8.999999999999998 -33.60072667171494 -13.000922880697507
    vertex -3.0 -33.60072667171494 -13.000922880697507
  endloop
endfacet
facet normal 2.5434966343251547e-17 -0.9613245157730941 0.27541818272152324
  outer loop
    vertex -8.999999999999998 -33.60072667171494 -13.000922880697507
    vertex -3.0 -33.21071863636171 -11.639631908442976
    vertex -8.999999999999998 -33.21071863636171 -11.639631908442976
  endloop
endfacet
facet normal 2.811787344807297e-17 -0.9470920725232339 0.3209620011210761
  outer loop
    vertex -3.0 -32.75621792677407 -10.298494896886703
    vertex -8.999999999999998 -33.21071863636171 -11.639631908442976
    vertex -3.0 -33.21071863636171 -11.639631908442976
  endloop
endfacet
facet normal 2.811787344807297e-17 -0.9470920725232339 0.3209620011210761
  outer loop
    vertex -8.999999999999998 -33.21071863636171 -11.639631908442976
    vertex -3.0 -32.75621792677407 -10.298494896886703
    vertex -8.999999999999998 -32.75621792677407 -10.298494896886703
  endloop
endfacet
facet normal 3.0736761727023905e-17 -0.9307032883044811 0.3657750526474244
  outer loop
    vertex -3.0 -32.23825935100173 -8.980565349237944
    vertex -8.999999999999998 -32.75621792677407 -10.298494896886703
    vertex -3.0 -32.75621792677407 -10.298494896886703
  endloop
endfacet
facet normal 3.0736761727023905e-17 -0.9307032883044811 0.3657750526474244
  outer loop
    vertex -8.999999999999998 -32.75621792677407 -10.298494896886703
    vertex -3.0 -32.23825935100173 -8.980565349237944
    vertex -8.999999999999998 -32.23825935100173 -8.980565349237944
  endloop
endfacet
facet normal 3.3285668490464156e-17 -0.9121954771308252 0.4097553068626037
  outer loop
    vertex -3.0 -31.658022198080616 -7.688843929909548
    vertex -8.999999999999998 -32.23825935100173 -8.980565349237944
    vertex -3.0 -32.23825935100173 -8.980565349237944
  endloop
endfacet
facet normal 3.3285668490464156e-17 -0.9121954771308252 0.4097553068626037
  outer loop
    vertex -8.999999999999998 -32.23825935100173 -8.980565349237944
    vertex -3.0 -31.658022198080616 -7.688843929909548
    vertex -8.999999999999998 -31.658022198080616 -7.688843929909548
  endloop
endfacet
facet normal 3.575879038279738e-17 -0.8916107776207088 0.45280262944311106
  outer loop
    vertex -2.9999999999999996 -31.016827553025387 -6.4262716325997
    vertex -8.999999999999998 -31.658022198080616 -7.688843929909548
    vertex -3.0 -31.658022198080616 -7.688843929909548
  endloop
endfacet
facet normal 3.575879038279738e-17 -0.8916107776207088 0.45280262944311106
  outer loop
    vertex -8.999999999999998 -31.658022198080616 -7.688843929909548
    vertex -2.9999999999999996 -31.016827553025387 -6.4262716325997
    vertex -8.999999999999998 -31.016827553025387 -6.4262716325997
  endloop
endfacet
facet normal 3.815049659555969e-17 -0.8689960570557598 0.4948190101658818
  outer loop
    vertex -2.9999999999999987 -30.316135288980675 -5.195723084232081
    vertex -8.999999999999998 -31.016827553025387 -6.4262716325997
    vertex -2.9999999999999996 -31.016827553025387 -6.4262716325997
  endloop
endfacet
facet normal 3.815049659555969e-17 -0.8689960570557598 0.4948190101658818
  outer loop
    vertex -8.999999999999998 -31.016827553025387 -6.4262716325997
    vertex -2.9999999999999987 -30.316135288980675 -5.195723084232081
    vertex -8.999999999999998 -30.316135288980675 -5.195723084232081
  endloop
endfacet
facet normal 1.764368543285247e-18 -0.8444028046732617 0.5357087860581806
  outer loop
    vertex -2.9999999999999982 -29.557540743379214 -3.9999999999999996
    vertex -8.999999999999998 -30.316135288980675 -5.195723084232081
    vertex -2.9999999999999987 -30.316135288980675 -5.195723084232081
  endloop
endfacet
facet normal 1.764368543285247e-18 -0.8444028046732617 0.5357087860581806
  outer loop
    vertex -8.999999999999998 -30.316135288980675 -5.195723084232081
    vertex -2.9999999999999982 -29.557540743379214 -3.9999999999999996
    vertex -9.0 -29.557540743379214 -3.9999999999999996
  endloop
endfacet
endsolid psu_slide_inner
