solid slide
facet normal 0.0 0.0 -1.0
  outer loop
    vertex 28.423611000000037 12.249999999999998 14.100000000000003
    vertex 20.000000000000007 7.749999999999997 14.100000000000003
    vertex 20.000000000000007 12.249999999999998 14.100000000000003
  endloop
endfacet
facet normal 0.0 0.0 -1.0
  outer loop
    vertex 20.000000000000007 7.749999999999997 14.100000000000003
    vertex 28.423611000000037 12.249999999999998 14.100000000000003
    vertex 28.423611000000037 7.749999999999997 14.100000000000003
  endloop
endfacet
facet normal -0.0 1.0 -0.0
  outer loop
    vertex 20.000000000000007 5.901795227607569 12.26886326269103
    vertex 28.423611000000026 5.901795227607569 7.768863262691031
    vertex 20.000000000000007 5.901795227607569 7.768863262691031
  endloop
endfacet
facet normal -0.0 1.0 -0.0
  outer loop
    vertex 28.423611000000026 5.901795227607569 7.768863262691031
    vertex 20.000000000000007 5.901795227607569 12.26886326269103
    vertex 28.423611000000047 5.901795227607569 12.26886326269103
  endloop
endfacet
facet normal -0.0 -0.0 1.0
  outer loop
    vertex 28.423611000000037 12.399999999999997 17.900000000000002
    vertex 20.000000000000007 14.749999999999995 17.900000000000002
    vertex 20.000000000000007 12.399999999999997 17.900000000000002
  endloop
endfacet
facet normal -0.0 -0.0 1.0
  outer loop
    vertex 20.000000000000007 14.749999999999995 17.900000000000002
    vertex 28.423611000000037 12.399999999999997 17.900000000000002
    vertex 28.423611000000037 14.749999999999995 17.900000000000002
  endloop
endfacet
facet normal -0.0 -0.0 1.0
  outer loop
    vertex 28.423611000000037 5.249999999999999 17.900000000000002
    vertex 20.000000000000007 7.599999999999997 17.900000000000002
    vertex 20.000000000000007 5.249999999999999 17.900000000000002
  endloop
endfacet
facet normal -0.0 -0.0 1.0
  outer loop
    vertex 20.000000000000007 7.599999999999997 17.900000000000002
    vertex 28.423611000000037 5.249999999999999 17.900000000000002
    vertex 28.423611000000037 7.599999999999997 17.900000000000002
  endloop
endfacet
facet normal 0.0 -1.0 0.0
  outer loop
    vertex 28.423611000000026 2.0999999999999996 7.6000000000000005
    vertex 20.000000000000007 2.0999999999999996 5.0
    vertex 28.423611000000026 2.0999999999999996 5.0
  endloop
endfacet
facet normal 0.0 -1.0 0.0
  outer loop
    vertex 20.000000000000007 2.0999999999999996 5.0
    vertex 28.423611000000026 2.0999999999999996 7.6000000000000005
    vertex 20.000000000000007 2.0999999999999996 7.6000000000000005
  endloop
endfacet
facet normal 0.0 -1.0 0.0
  outer loop
    vertex 28.423611000000026 -1.9999999999999998 -4.475626448526034e-16
    vertex 20.000000000000007 -1.9999999999999998 22.000000000000018
    vertex 20.000000000000007 -1.9999999999999998 -2.8199664825478975e-15
  endloop
endfacet
facet normal 0.0 -1.0 0.0
  outer loop
    vertex 20.000000000000007 -1.9999999999999998 22.000000000000018
    vertex 28.423611000000026 -1.9999999999999998 -4.475626448526034e-16
    vertex 28.423611000000037 -1.9999999999999998 22.000000000000018
  endloop
endfacet
facet normal 1.8079538687705355e-31 4.572918620347943e-16 1.0
  outer loop
    vertex 28.423611000000037 -1.9999999999999998 22.000000000000018
    vertex 20.000000000000007 19.999999999999993 22.0
    vertex 20.000000000000007 -1.9999999999999998 22.000000000000018
  endloop
endfacet
facet normal 1.8079538687705355e-31 4.572918620347943e-16 1.0
  outer loop
    vertex 20.000000000000007 19.999999999999993 22.0
    vertex 28.423611000000037 -1.9999999999999998 22.000000000000018
    vertex 28.423611000000037 19.999999999999993 22.0
  endloop
endfacet
facet normal 5.874930171974768e-17 1.0 2.002550948985425e-16
  outer loop
    vertex 20.000000000000007 -4.466638053268199e-31 20.0
    vertex 28.423611000000037 3.451834856966018e-16 12.4
    vertex 20.000000000000007 0.0 12.4
  endloop
endfacet
facet normal 5.874930171974768e-17 1.0 2.002550948985425e-16
  outer loop
    vertex 28.423611000000037 3.451834856966018e-16 12.4
    vertex 20.000000000000007 -4.466638053268199e-31 20.0
    vertex 28.423611000000037 -1.7697913762143209e-15 20.0
  endloop
endfacet
facet normal 0.0 0.0 -1.0
  outer loop
    vertex 28.423611000000037 7.599999999999997 20.0
    vertex 20.000000000000007 -4.466638053268199e-31 20.0
    vertex 20.000000000000007 7.599999999999997 20.0
  endloop
endfacet
facet normal 0.0 0.0 -1.0
  outer loop
    vertex 20.000000000000007 -4.466638053268199e-31 20.0
    vertex 28.423611000000037 7.599999999999997 20.0
    vertex 28.423611000000037 -1.7697913762143209e-15 20.0
  endloop
endfacet
facet normal -8.224902240764677e-16 1.0 -4.934941344458823e-15
  outer loop
    vertex 20.000000000000007 19.999999999999993 22.0
    vertex 28.423611000000037 19.999999999999993 20.0
    vertex 20.000000000000007 19.999999999999975 20.0
  endloop
endfacet
facet normal -8.224902240764677e-16 1.0 -4.934941344458823e-15
  outer loop
    vertex 28.423611000000037 19.999999999999993 20.0
    vertex 20.000000000000007 19.999999999999993 22.0
    vertex 28.423611000000037 19.999999999999993 22.0
  endloop
endfacet
facet normal 0.0 0.0 -1.0
  outer loop
    vertex 28.423611000000037 19.999999999999993 20.0
    vertex 20.000000000000007 12.399999999999997 20.0
    vertex 20.000000000000007 19.999999999999975 20.0
  endloop
endfacet
facet normal 0.0 0.0 -1.0
  outer loop
    vertex 20.000000000000007 12.399999999999997 20.0
    vertex 28.423611000000037 19.999999999999993 20.0
    vertex 28.423611000000037 12.399999999999997 20.0
  endloop
endfacet
facet normal -1.1749860343949546e-16 7.049916206369742e-16 -1.0
  outer loop
    vertex 28.423611000000026 3.451834856966018e-16 -4.475626448526034e-16
    vertex 20.000000000000007 -1.9999999999999998 -2.8199664825478975e-15
    vertex 20.000000000000007 -4.466638053268199e-31 -6.9791219582315595e-31
  endloop
endfacet
facet normal -1.1749860343949546e-16 7.049916206369742e-16 -1.0
  outer loop
    vertex 20.000000000000007 -1.9999999999999998 -2.8199664825478975e-15
    vertex 28.423611000000026 3.451834856966018e-16 -4.475626448526034e-16
    vertex 28.423611000000026 -1.9999999999999998 -4.475626448526034e-16
  endloop
endfacet
facet normal -1.861099188861746e-32 1.0 -2.977758702178798e-32
  outer loop
    vertex 20.000000000000007 -4.466638053268199e-31 -6.9791219582315595e-31
    vertex 28.423611000000026 3.451834856966018e-16 7.6000000000000005
    vertex 28.423611000000026 3.451834856966018e-16 -4.475626448526034e-16
  endloop
endfacet
facet normal -1.861099188861746e-32 1.0 -2.977758702178798e-32
  outer loop
    vertex 28.423611000000026 3.451834856966018e-16 7.6000000000000005
    vertex 20.000000000000007 -4.466638053268199e-31 -6.9791219582315595e-31
    vertex 20.000000000000007 0.0 7.6000000000000005
  endloop
endfacet
facet normal 0.0 -1.0 0.0
  outer loop
    vertex 28.423611000000047 2.0999999999999996 15.0
    vertex 20.000000000000007 2.0999999999999996 12.4
    vertex 28.423611000000037 2.0999999999999996 12.4
  endloop
endfacet
facet normal 0.0 -1.0 0.0
  outer loop
    vertex 20.000000000000007 2.0999999999999996 12.4
    vertex 28.423611000000047 2.0999999999999996 15.0
    vertex 20.000000000000007 2.0999999999999996 15.0
  endloop
endfacet
facet normal -8.417600119696169e-18 0.5834383257109247 0.8121574478459412
  outer loop
    vertex 28.423611000000047 2.0999999999999996 15.0
    vertex 20.000000000000007 5.901795227607569 12.26886326269103
    vertex 20.000000000000007 2.0999999999999996 15.0
  endloop
endfacet
facet normal -8.417600119696169e-18 0.5834383257109247 0.8121574478459412
  outer loop
    vertex 20.000000000000007 5.901795227607569 12.26886326269103
    vertex 28.423611000000047 2.0999999999999996 15.0
    vertex 28.423611000000047 5.901795227607569 12.26886326269103
  endloop
endfacet
facet normal 0.0 0.0 -1.0
  outer loop
    vertex 28.423611000000026 2.0999999999999996 7.6000000000000005
    vertex 20.000000000000007 0.0 7.6000000000000005
    vertex 20.000000000000007 2.0999999999999996 7.6000000000000005
  endloop
endfacet
facet normal 0.0 0.0 -1.0
  outer loop
    vertex 20.000000000000007 0.0 7.6000000000000005
    vertex 28.423611000000026 2.0999999999999996 7.6000000000000005
    vertex 28.423611000000026 3.451834856966018e-16 7.6000000000000005
  endloop
endfacet
facet normal -0.0 -0.0 1.0
  outer loop
    vertex 28.423611000000037 3.451834856966018e-16 12.4
    vertex 20.000000000000007 2.0999999999999996 12.4
    vertex 20.000000000000007 0.0 12.4
  endloop
endfacet
facet normal -0.0 -0.0 1.0
  outer loop
    vertex 20.000000000000007 2.0999999999999996 12.4
    vertex 28.423611000000037 3.451834856966018e-16 12.4
    vertex 28.423611000000037 2.0999999999999996 12.4
  endloop
endfacet
facet normal -6.10175191098758e-18 0.5887168776075822 -0.8083393087187949
  outer loop
    vertex 28.423611000000026 5.901795227607569 7.768863262691031
    vertex 20.000000000000007 2.0999999999999996 5.0
    vertex 20.000000000000007 5.901795227607569 7.768863262691031
  endloop
endfacet
facet normal -6.10175191098758e-18 0.5887168776075822 -0.8083393087187949
  outer loop
    vertex 20.000000000000007 2.0999999999999996 5.0
    vertex 28.423611000000026 5.901795227607569 7.768863262691031
    vertex 28.423611000000026 2.0999999999999996 5.0
  endloop
endfacet
facet normal -3.0761791108279574e-32 0.8354170822439405 -0.5496165014762762
  outer loop
    vertex 20.000000000000007 14.749999999999995 17.900000000000002
    vertex 28.423611000000037 12.249999999999998 14.100000000000003
    vertex 20.000000000000007 12.249999999999998 14.100000000000003
  endloop
endfacet
facet normal -3.0761791108279574e-32 0.8354170822439405 -0.5496165014762762
  outer loop
    vertex 28.423611000000037 12.249999999999998 14.100000000000003
    vertex 20.000000000000007 14.749999999999995 17.900000000000002
    vertex 28.423611000000037 14.749999999999995 17.900000000000002
  endloop
endfacet
facet normal 1.5380895554139784e-32 -0.8354170822439403 -0.5496165014762762
  outer loop
    vertex 28.423611000000037 5.249999999999999 17.900000000000002
    vertex 20.000000000000007 7.749999999999997 14.100000000000003
    vertex 28.423611000000037 7.749999999999997 14.100000000000003
  endloop
endfacet
facet normal 1.5380895554139784e-32 -0.8354170822439403 -0.5496165014762762
  outer loop
    vertex 20.000000000000007 7.749999999999997 14.100000000000003
    vertex 28.423611000000037 5.249999999999999 17.900000000000002
    vertex 20.000000000000007 5.249999999999999 17.900000000000002
  endloop
endfacet
facet normal -1.0 0.0 0.0
  outer loop
    vertex 20.000000000000007 5.901795227607569 12.26886326269103
    vertex 20.000000000000007 2.0999999999999996 12.4
    vertex 20.000000000000007 2.0999999999999996 15.0
  endloop
endfacet
facet normal -1.0 0.0 0.0
  outer loop
    vertex 20.000000000000007 2.0999999999999996 12.4
    vertex 20.000000000000007 5.901795227607569 12.26886326269103
    vertex 20.000000000000007 2.0999999999999996 7.6000000000000005
  endloop
endfacet
facet normal -1.0 0.0 0.0
  outer loop
    vertex 20.000000000000007 2.0999999999999996 7.6000000000000005
    vertex 20.000000000000007 5.901795227607569 12.26886326269103
    vertex 20.000000000000007 2.0999999999999996 5.0
  endloop
endfacet
facet normal -1.0 0.0 0.0
  outer loop
    vertex 20.000000000000007 2.0999999999999996 5.0
    vertex 20.000000000000007 5.901795227607569 12.26886326269103
    vertex 20.000000000000007 5.901795227607569 7.768863262691031
  endloop
endfacet
facet normal -1.0 0.0 0.0
  outer loop
    vertex 20.000000000000007 -4.466638053268199e-31 20.0
    vertex 20.000000000000007 -4.466638053268199e-31 -6.9791219582315595e-31
    vertex 20.000000000000007 -1.9999999999999998 -2.8199664825478975e-15
  endloop
endfacet
facet normal -1.0 0.0 0.0
  outer loop
    vertex 20.000000000000007 -4.466638053268199e-31 -6.9791219582315595e-31
    vertex 20.000000000000007 -4.466638053268199e-31 20.0
    vertex 20.000000000000007 0.0 12.4
  endloop
endfacet
facet normal -1.0 0.0 0.0
  outer loop
    vertex 20.000000000000007 -4.466638053268199e-31 -6.9791219582315595e-31
    vertex 20.000000000000007 0.0 12.4
    vertex 20.000000000000007 0.0 7.6000000000000005
  endloop
endfacet
facet normal -1.0 0.0 0.0
  outer loop
    vertex 20.000000000000007 0.0 7.6000000000000005
    vertex 20.000000000000007 0.0 12.4
    vertex 20.000000000000007 2.0999999999999996 12.4
  endloop
endfacet
facet normal -1.0 0.0 0.0
  outer loop
    vertex 20.000000000000007 0.0 7.6000000000000005
    vertex 20.000000000000007 2.0999999999999996 12.4
    vertex 20.000000000000007 2.0999999999999996 7.6000000000000005
  endloop
endfacet
facet normal -1.0 0.0 0.0
  outer loop
    vertex 20.000000000000007 7.749999999999997 14.100000000000003
    vertex 20.000000000000007 5.249999999999999 17.900000000000002
    vertex 20.000000000000007 7.599999999999997 17.900000000000002
  endloop
endfacet
facet normal -1.0 0.0 0.0
  outer loop
    vertex 20.000000000000007 -1.9999999999999998 22.000000000000018
    vertex 20.000000000000007 -4.466638053268199e-31 20.0
    vertex 20.000000000000007 -1.9999999999999998 -2.8199664825478975e-15
  endloop
endfacet
facet normal -1.0 0.0 0.0
  outer loop
    vertex 20.000000000000007 -4.466638053268199e-31 20.0
    vertex 20.000000000000007 -1.9999999999999998 22.000000000000018
    vertex 20.000000000000007 19.999999999999993 22.0
  endloop
endfacet
facet normal -1.0 0.0 0.0
  outer loop
    vertex 20.000000000000007 -4.466638053268199e-31 20.0
    vertex 20.000000000000007 19.999999999999993 22.0
    vertex 20.000000000000007 7.599999999999997 20.0
  endloop
endfacet
facet normal -1.0 0.0 0.0
  outer loop
    vertex 20.000000000000007 7.599999999999997 20.0
    vertex 20.000000000000007 19.999999999999993 22.0
    vertex 20.000000000000007 12.399999999999997 20.0
  endloop
endfacet
facet normal -1.0 0.0 0.0
  outer loop
    vertex 20.000000000000007 7.599999999999997 20.0
    vertex 20.000000000000007 12.399999999999997 20.0
    vertex 20.000000000000007 7.599999999999997 17.900000000000002
  endloop
endfacet
facet normal -1.0 0.0 0.0
  outer loop
    vertex 20.000000000000007 7.599999999999997 17.900000000000002
    vertex 20.000000000000007 12.399999999999997 20.0
    vertex 20.000000000000007 7.749999999999997 14.100000000000003
  endloop
endfacet
facet normal -1.0 0.0 0.0
  outer loop
    vertex 20.000000000000007 7.749999999999997 14.100000000000003
    vertex 20.000000000000007 12.399999999999997 20.0
    vertex 20.000000000000007 12.249999999999998 14.100000000000003
  endloop
endfacet
facet normal -1.0 0.0 0.0
  outer loop
    vertex 20.000000000000007 12.399999999999997 20.0
    vertex 20.000000000000007 19.999999999999993 22.0
    vertex 20.000000000000007 19.999999999999975 20.0
  endloop
endfacet
facet normal -1.0 0.0 0.0
  outer loop
    vertex 20.000000000000007 12.249999999999998 14.100000000000003
    vertex 20.000000000000007 12.399999999999997 17.900000000000002
    vertex 20.000000000000007 14.749999999999995 17.900000000000002
  endloop
endfacet
facet normal -1.0 0.0 0.0
  outer loop
    vertex 20.000000000000007 12.399999999999997 17.900000000000002
    vertex 20.000000000000007 12.249999999999998 14.100000000000003
    vertex 20.000000000000007 12.399999999999997 20.0
  endloop
endfacet
facet normal 1.0 -9.624301797919535e-17 -6.64369460314411e-16
  outer loop
    vertex 28.423611000000026 5.901795227607569 7.768863262691031
    vertex 28.423611000000026 2.0999999999999996 7.6000000000000005
    vertex 28.423611000000026 2.0999999999999996 5.0
  endloop
endfacet
facet normal 1.0 -9.624301797919535e-17 -6.64369460314411e-16
  outer loop
    vertex 28.423611000000026 2.0999999999999996 7.6000000000000005
    vertex 28.423611000000026 5.901795227607569 7.768863262691031
    vertex 28.423611000000037 2.0999999999999996 12.4
  endloop
endfacet
facet normal 1.0 -9.624301797919535e-17 -6.64369460314411e-16
  outer loop
    vertex 28.423611000000037 2.0999999999999996 12.4
    vertex 28.423611000000026 5.901795227607569 7.768863262691031
    vertex 28.423611000000047 2.0999999999999996 15.0
  endloop
endfacet
facet normal 1.0 -9.624301797919535e-17 -6.64369460314411e-16
  outer loop
    vertex 28.423611000000047 2.0999999999999996 15.0
    vertex 28.423611000000026 5.901795227607569 7.768863262691031
    vertex 28.423611000000047 5.901795227607569 12.26886326269103
  endloop
endfacet
facet normal 1.0 -9.624301797919535e-17 -6.64369460314411e-16
  outer loop
    vertex 28.423611000000026 3.451834856966018e-16 -4.475626448526034e-16
    vertex 28.423611000000037 -1.9999999999999998 22.000000000000018
    vertex 28.423611000000026 -1.9999999999999998 -4.475626448526034e-16
  endloop
endfacet
facet normal 1.0 -9.624301797919535e-17 -6.64369460314411e-16
  outer loop
    vertex 28.423611000000037 -1.9999999999999998 22.000000000000018
    vertex 28.423611000000026 3.451834856966018e-16 -4.475626448526034e-16
    vertex 28.423611000000037 -1.7697913762143209e-15 20.0
  endloop
endfacet
facet normal 1.0 -9.624301797919535e-17 -6.64369460314411e-16
  outer loop
    vertex 28.423611000000037 -1.7697913762143209e-15 20.0
    vertex 28.423611000000026 3.451834856966018e-16 -4.475626448526034e-16
    vertex 28.423611000000037 3.451834856966018e-16 12.4
  endloop
endfacet
facet normal 1.0 -9.624301797919535e-17 -6.64369460314411e-16
  outer loop
    vertex 28.423611000000037 3.451834856966018e-16 12.4
    vertex 28.423611000000026 3.451834856966018e-16 -4.475626448526034e-16
    vertex 28.423611000000026 3.451834856966018e-16 7.6000000000000005
  endloop
endfacet
facet normal 1.0 -9.624301797919535e-17 -6.64369460314411e-16
  outer loop
    vertex 28.423611000000037 3.451834856966018e-16 12.4
    vertex 28.423611000000026 3.451834856966018e-16 7.6000000000000005
    vertex 28.423611000000026 2.0999999999999996 7.6000000000000005
  endloop
endfacet
facet normal 1.0 -9.624301797919535e-17 -6.64369460314411e-16
  outer loop
    vertex 28.423611000000037 3.451834856966018e-16 12.4
    vertex 28.423611000000026 2.0999999999999996 7.6000000000000005
    vertex 28.423611000000037 2.0999999999999996 12.4
  endloop
endfacet
facet normal 1.0 -9.624301797919535e-17 -6.64369460314411e-16
  outer loop
    vertex 28.423611000000037 7.749999999999997 14.100000000000003
    vertex 28.423611000000037 7.599999999999997 17.900000000000002
    vertex 28.423611000000037 5.249999999999999 17.900000000000002
  endloop
endfacet
facet normal 1.0 -9.624301797919535e-17 -6.64369460314411e-16
  outer loop
    vertex 28.423611000000037 7.599999999999997 17.900000000000002
    vertex 28.423611000000037 7.749999999999997 14.100000000000003
    vertex 28.423611000000037 7.599999999999997 20.0
  endloop
endfacet
facet normal 1.0 -9.624301797919535e-17 -6.64369460314411e-16
  outer loop
    vertex 28.423611000000037 14.749999999999995 17.900000000000002
    vertex 28.423611000000037 12.399999999999997 17.900000000000002
    vertex 28.423611000000037 12.249999999999998 14.100000000000003
  endloop
endfacet
facet normal 1.0 -9.624301797919535e-17 -6.64369460314411e-16
  outer loop
    vertex 28.423611000000037 -1.7697913762143209e-15 20.0
    vertex 28.423611000000037 19.999999999999993 22.0
    vertex 28.423611000000037 -1.9999999999999998 22.000000000000018
  endloop
endfacet
facet normal 1.0 -9.624301797919535e-17 -6.64369460314411e-16
  outer loop
    vertex 28.423611000000037 19.999999999999993 22.0
    vertex 28.423611000000037 -1.7697913762143209e-15 20.0
    vertex 28.423611000000037 7.599999999999997 20.0
  endloop
endfacet
facet normal 1.0 -9.624301797919535e-17 -6.64369460314411e-16
  outer loop
    vertex 28.423611000000037 19.999999999999993 22.0
    vertex 28.423611000000037 7.599999999999997 20.0
    vertex 28.423611000000037 12.399999999999997 20.0
  endloop
endfacet
facet normal 1.0 -9.624301797919535e-17 -6.64369460314411e-16
  outer loop
    vertex 28.423611000000037 12.399999999999997 20.0
    vertex 28.423611000000037 7.599999999999997 20.0
    vertex 28.423611000000037 7.749999999999997 14.100000000000003
  endloop
endfacet
facet normal 1.0 -9.624301797919535e-17 -6.64369460314411e-16
  outer loop
    vertex 28.423611000000037 12.399999999999997 20.0
    vertex 28.423611000000037 7.749999999999997 14.100000000000003
    vertex 28.423611000000037 12.249999999999998 14.100000000000003
  endloop
endfacet
facet normal 1.0 -9.624301797919535e-17 -6.64369460314411e-16
  outer loop
    vertex 28.423611000000037 12.399999999999997 20.0
    vertex 28.423611000000037 12.249999999999998 14.100000000000003
    vertex 28.423611000000037 12.399999999999997 17.900000000000002
  endloop
endfacet
facet normal 1.0 -9.624301797919535e-17 -6.64369460314411e-16
  outer loop
    vertex 28.423611000000037 19.999999999999993 22.0
    vertex 28.423611000000037 12.399999999999997 20.0
    vertex 28.423611000000037 19.999999999999993 20.0
  endloop
endfacet
facet normal -0.0 1.0 -0.0
  outer loop
    vertex 20.000000000000007 12.399999999999997 20.0
    vertex 28.423611000000037 12.399999999999997 17.900000000000002
    vertex 20.000000000000007 12.399999999999997 17.900000000000002
  endloop
endfacet
facet normal -0.0 1.0 -0.0
  outer loop
    vertex 28.423611000000037 12.399999999999997 17.900000000000002
    vertex 20.000000000000007 12.399999999999997 20.0
    vertex 28.423611000000037 12.399999999999997 20.0
  endloop
endfacet
facet normal 0.0 -1.0 0.0
  outer loop
    vertex 28.423611000000037 7.599999999999997 20.0
    vertex 20.000000000000007 7.599999999999997 17.900000000000002
    vertex 28.423611000000037 7.599999999999997 17.900000000000002
  endloop
endfacet
facet normal 0.0 -1.0 0.0
  outer loop
    vertex 20.000000000000007 7.599999999999997 17.900000000000002
    vertex 28.423611000000037 7.599999999999997 20.0
    vertex 20.000000000000007 7.599999999999997 20.0
  endloop
endfacet
endsolid slide
