solid 20x20_profile_socket
facet normal 0.0 -1.0 0.0
  outer loop
    vertex 32.00000000000003 1.8999999999999997 9.999999999999998
    vertex 20.000000000000007 1.8999999999999997 5.0
    vertex 32.00000000000003 1.8999999999999997 5.0
  endloop
endfacet
facet normal 0.0 -1.0 0.0
  outer loop
    vertex 20.000000000000007 1.8999999999999997 5.0
    vertex 32.00000000000003 1.8999999999999997 9.999999999999998
    vertex 20.000000000000007 1.8999999999999997 15.0
  endloop
endfacet
facet normal 0.0 -1.0 0.0
  outer loop
    vertex 20.000000000000007 1.8999999999999997 15.0
    vertex 32.00000000000003 1.8999999999999997 9.999999999999998
    vertex 32.00000000000005 1.8999999999999997 15.0
  endloop
endfacet
facet normal -4.511946372076633e-17 -1.0 -5.63993296509579e-18
  outer loop
    vertex 20.000000000000007 -4.466638053268199e-31 20.0
    vertex 17.499999999999996 2.255973186038316e-16 0.0
    vertex 20.000000000000007 -4.466638053268199e-31 -6.9791219582315595e-31
  endloop
endfacet
facet normal -4.511946372076633e-17 -1.0 -5.63993296509579e-18
  outer loop
    vertex 17.499999999999996 2.255973186038316e-16 0.0
    vertex 20.000000000000007 -4.466638053268199e-31 20.0
    vertex 17.499999999999996 0.0 20.0
  endloop
endfacet
facet normal 0.0 0.0 -1.0
  outer loop
    vertex 32.00000000000004 12.249999999999998 14.000000000000002
    vertex 20.000000000000007 7.749999999999997 14.000000000000002
    vertex 20.000000000000007 12.249999999999998 14.000000000000002
  endloop
endfacet
facet normal 0.0 0.0 -1.0
  outer loop
    vertex 20.000000000000007 7.749999999999997 14.000000000000002
    vertex 32.00000000000004 12.249999999999998 14.000000000000002
    vertex 32.00000000000004 7.749999999999997 14.000000000000002
  endloop
endfacet
facet normal 0.0 0.0 -1.0
  outer loop
    vertex 32.00000000000004 7.749999999999997 14.000000000000002
    vertex 32.00000000000004 12.249999999999998 14.000000000000002
    vertex 32.00000000000004 9.999999999999998 14.000000000000002
  endloop
endfacet
facet normal -0.0 -0.0 1.0
  outer loop
    vertex 32.00000000000004 5.249999999999999 18.1
    vertex 20.000000000000007 14.749999999999995 18.1
    vertex 20.000000000000007 5.249999999999999 18.1
  endloop
endfacet
facet normal -0.0 -0.0 1.0
  outer loop
    vertex 20.000000000000007 14.749999999999995 18.1
    vertex 32.00000000000004 5.249999999999999 18.1
    vertex 32.00000000000004 14.749999999999995 18.1
  endloop
endfacet
facet normal -0.0 -0.0 1.0
  outer loop
    vertex 32.00000000000004 14.749999999999995 18.1
    vertex 32.00000000000004 5.249999999999999 18.1
    vertex 32.00000000000004 9.999999999999998 18.1
  endloop
endfacet
facet normal -0.0 1.0 -0.0
  outer loop
    vertex 20.000000000000007 6.0 12.249999999999998
    vertex 32.00000000000003 6.0 7.75
    vertex 20.000000000000007 6.0 7.75
  endloop
endfacet
facet normal -0.0 1.0 -0.0
  outer loop
    vertex 32.00000000000003 6.0 7.75
    vertex 20.000000000000007 6.0 12.249999999999998
    vertex 32.00000000000003 6.0 9.999999999999998
  endloop
endfacet
facet normal -0.0 1.0 -0.0
  outer loop
    vertex 32.00000000000003 6.0 9.999999999999998
    vertex 20.000000000000007 6.0 12.249999999999998
    vertex 32.00000000000005 6.0 12.249999999999998
  endloop
endfacet
facet normal 0.0 0.0 -1.0
  outer loop
    vertex 32.00000000000001 14.999999999999998 1.8999999999999997
    vertex 20.000000000000007 4.999999999999999 1.8999999999999997
    vertex 20.000000000000007 14.999999999999998 1.8999999999999997
  endloop
endfacet
facet normal 0.0 0.0 -1.0
  outer loop
    vertex 20.000000000000007 4.999999999999999 1.8999999999999997
    vertex 32.00000000000001 14.999999999999998 1.8999999999999997
    vertex 32.00000000000001 4.999999999999999 1.8999999999999997
  endloop
endfacet
facet normal 0.0 0.0 -1.0
  outer loop
    vertex 32.00000000000001 4.999999999999999 1.8999999999999997
    vertex 32.00000000000001 14.999999999999998 1.8999999999999997
    vertex 32.00000000000001 9.999999999999998 1.8999999999999997
  endloop
endfacet
facet normal -0.0 -0.0 1.0
  outer loop
    vertex 32.00000000000001 7.75 6.0
    vertex 20.000000000000007 12.249999999999998 6.0
    vertex 20.000000000000007 7.75 6.0
  endloop
endfacet
facet normal -0.0 -0.0 1.0
  outer loop
    vertex 20.000000000000007 12.249999999999998 6.0
    vertex 32.00000000000001 7.75 6.0
    vertex 32.00000000000001 12.249999999999998 6.0
  endloop
endfacet
facet normal -0.0 -0.0 1.0
  outer loop
    vertex 32.00000000000001 12.249999999999998 6.0
    vertex 32.00000000000001 7.75 6.0
    vertex 32.00000000000001 9.999999999999998 6.0
  endloop
endfacet
facet normal -1.3916369184713627e-31 -4.671020905774316e-18 -1.0
  outer loop
    vertex 20.000000000000007 19.999999999999975 -9.342041811548657e-17
    vertex 17.499999999999996 2.255973186038316e-16 0.0
    vertex 17.499999999999996 19.999999999999975 -9.342041811548657e-17
  endloop
endfacet
facet normal -1.3916369184713627e-31 -4.671020905774316e-18 -1.0
  outer loop
    vertex 17.499999999999996 2.255973186038316e-16 0.0
    vertex 20.000000000000007 19.999999999999975 -9.342041811548657e-17
    vertex 20.000000000000007 -4.466638053268199e-31 -6.9791219582315595e-31
  endloop
endfacet
facet normal -0.0 1.0 -0.0
  outer loop
    vertex 17.499999999999996 19.999999999999975 20.0
    vertex 20.000000000000007 19.999999999999975 -9.342041811548657e-17
    vertex 17.499999999999996 19.999999999999975 -9.342041811548657e-17
  endloop
endfacet
facet normal -0.0 1.0 -0.0
  outer loop
    vertex 20.000000000000007 19.999999999999975 -9.342041811548657e-17
    vertex 17.499999999999996 19.999999999999975 20.0
    vertex 20.000000000000007 19.999999999999975 20.0
  endloop
endfacet
facet normal -0.0 -0.0 1.0
  outer loop
    vertex 20.000000000000007 -4.466638053268199e-31 20.0
    vertex 17.499999999999996 19.999999999999975 20.0
    vertex 17.499999999999996 0.0 20.0
  endloop
endfacet
facet normal -0.0 -0.0 1.0
  outer loop
    vertex 17.499999999999996 19.999999999999975 20.0
    vertex 20.000000000000007 -4.466638053268199e-31 20.0
    vertex 20.000000000000007 19.999999999999975 20.0
  endloop
endfacet
facet normal -1.0 0.0 0.0
  outer loop
    vertex 17.499999999999996 19.999999999999975 20.0
    vertex 17.499999999999996 2.255973186038316e-16 0.0
    vertex 17.499999999999996 0.0 20.0
  endloop
endfacet
facet normal -1.0 0.0 0.0
  outer loop
    vertex 17.499999999999996 2.255973186038316e-16 0.0
    vertex 17.499999999999996 19.999999999999975 20.0
    vertex 17.499999999999996 19.999999999999975 -9.342041811548657e-17
  endloop
endfacet
facet normal -6.635740625665781e-18 0.8537961757940362 -0.5206074242646558
  outer loop
    vertex 20.000000000000007 14.749999999999995 18.1
    vertex 32.00000000000004 12.249999999999998 14.000000000000002
    vertex 20.000000000000007 12.249999999999998 14.000000000000002
  endloop
endfacet
facet normal -6.635740625665781e-18 0.8537961757940362 -0.5206074242646558
  outer loop
    vertex 32.00000000000004 12.249999999999998 14.000000000000002
    vertex 20.000000000000007 14.749999999999995 18.1
    vertex 32.00000000000004 14.749999999999995 18.1
  endloop
endfacet
facet normal 1.0 -0.0 -0.0
  outer loop
    vertex 20.000000000000007 5.249999999999999 18.1
    vertex 20.000000000000007 19.999999999999975 20.0
    vertex 20.000000000000007 -4.466638053268199e-31 20.0
  endloop
endfacet
facet normal 1.0 -0.0 -0.0
  outer loop
    vertex 20.000000000000007 19.999999999999975 20.0
    vertex 20.000000000000007 5.249999999999999 18.1
    vertex 20.000000000000007 14.749999999999995 18.1
  endloop
endfacet
facet normal 1.0 -0.0 -0.0
  outer loop
    vertex 32.00000000000004 7.749999999999997 14.000000000000002
    vertex 32.00000000000004 9.999999999999998 18.1
    vertex 32.00000000000004 5.249999999999999 18.1
  endloop
endfacet
facet normal 1.0 -0.0 -0.0
  outer loop
    vertex 32.00000000000004 9.999999999999998 18.1
    vertex 32.00000000000004 7.749999999999997 14.000000000000002
    vertex 32.00000000000004 9.999999999999998 14.000000000000002
  endloop
endfacet
facet normal 1.1787443244887382e-32 -0.8537961757940362 -0.5206074242646559
  outer loop
    vertex 32.00000000000004 5.249999999999999 18.1
    vertex 20.000000000000007 7.749999999999997 14.000000000000002
    vertex 32.00000000000004 7.749999999999997 14.000000000000002
  endloop
endfacet
facet normal 1.1787443244887382e-32 -0.8537961757940362 -0.5206074242646559
  outer loop
    vertex 20.000000000000007 7.749999999999997 14.000000000000002
    vertex 32.00000000000004 5.249999999999999 18.1
    vertex 20.000000000000007 5.249999999999999 18.1
  endloop
endfacet
facet normal 1.0 -0.0 -0.0
  outer loop
    vertex 32.00000000000004 12.249999999999998 14.000000000000002
    vertex 32.00000000000004 9.999999999999998 18.1
    vertex 32.00000000000004 9.999999999999998 14.000000000000002
  endloop
endfacet
facet normal 1.0 -0.0 -0.0
  outer loop
    vertex 32.00000000000004 9.999999999999998 18.1
    vertex 32.00000000000004 12.249999999999998 14.000000000000002
    vertex 32.00000000000004 14.749999999999995 18.1
  endloop
endfacet
facet normal 3.845192336334702e-33 -0.8304888712735785 0.5570352185371564
  outer loop
    vertex 32.00000000000001 7.75 6.0
    vertex 20.000000000000007 4.999999999999999 1.8999999999999997
    vertex 32.00000000000001 4.999999999999999 1.8999999999999997
  endloop
endfacet
facet normal 3.845192336334702e-33 -0.8304888712735785 0.5570352185371564
  outer loop
    vertex 20.000000000000007 4.999999999999999 1.8999999999999997
    vertex 32.00000000000001 7.75 6.0
    vertex 20.000000000000007 7.75 6.0
  endloop
endfacet
facet normal 1.0 -0.0 -0.0
  outer loop
    vertex 32.00000000000001 9.999999999999998 1.8999999999999997
    vertex 32.00000000000001 7.75 6.0
    vertex 32.00000000000001 4.999999999999999 1.8999999999999997
  endloop
endfacet
facet normal 1.0 -0.0 -0.0
  outer loop
    vertex 32.00000000000001 7.75 6.0
    vertex 32.00000000000001 9.999999999999998 1.8999999999999997
    vertex 32.00000000000001 9.999999999999998 6.0
  endloop
endfacet
facet normal 1.0 -0.0 -0.0
  outer loop
    vertex 32.00000000000001 14.999999999999998 1.8999999999999997
    vertex 32.00000000000001 9.999999999999998 6.0
    vertex 32.00000000000001 9.999999999999998 1.8999999999999997
  endloop
endfacet
facet normal 1.0 -0.0 -0.0
  outer loop
    vertex 32.00000000000001 9.999999999999998 6.0
    vertex 32.00000000000001 14.999999999999998 1.8999999999999997
    vertex 32.00000000000001 12.249999999999998 6.0
  endloop
endfacet
facet normal 1.0 -0.0 -0.0
  outer loop
    vertex 20.000000000000007 19.999999999999975 -9.342041811548657e-17
    vertex 20.000000000000007 4.999999999999999 1.8999999999999997
    vertex 20.000000000000007 -4.466638053268199e-31 -6.9791219582315595e-31
  endloop
endfacet
facet normal 1.0 -0.0 -0.0
  outer loop
    vertex 20.000000000000007 4.999999999999999 1.8999999999999997
    vertex 20.000000000000007 19.999999999999975 -9.342041811548657e-17
    vertex 20.000000000000007 14.999999999999998 1.8999999999999997
  endloop
endfacet
facet normal -6.4545952517861906e-18 0.8304888712735786 0.5570352185371562
  outer loop
    vertex 20.000000000000007 12.249999999999998 6.0
    vertex 32.00000000000001 14.999999999999998 1.8999999999999997
    vertex 20.000000000000007 14.999999999999998 1.8999999999999997
  endloop
endfacet
facet normal -6.4545952517861906e-18 0.8304888712735786 0.5570352185371562
  outer loop
    vertex 32.00000000000001 14.999999999999998 1.8999999999999997
    vertex 20.000000000000007 12.249999999999998 6.0
    vertex 32.00000000000001 12.249999999999998 6.0
  endloop
endfacet
facet normal 1.0 -0.0 -0.0
  outer loop
    vertex 20.000000000000007 4.999999999999999 1.8999999999999997
    vertex 20.000000000000007 1.8999999999999997 5.0
    vertex 20.000000000000007 -4.466638053268199e-31 -6.9791219582315595e-31
  endloop
endfacet
facet normal 1.0 -0.0 -0.0
  outer loop
    vertex 20.000000000000007 1.8999999999999997 5.0
    vertex 20.000000000000007 4.999999999999999 1.8999999999999997
    vertex 20.000000000000007 6.0 7.75
  endloop
endfacet
facet normal 1.0 -0.0 -0.0
  outer loop
    vertex 20.000000000000007 6.0 7.75
    vertex 20.000000000000007 4.999999999999999 1.8999999999999997
    vertex 20.000000000000007 7.75 6.0
  endloop
endfacet
facet normal 1.0 -0.0 -0.0
  outer loop
    vertex 20.000000000000007 6.0 7.75
    vertex 20.000000000000007 7.75 6.0
    vertex 20.000000000000007 6.0 12.249999999999998
  endloop
endfacet
facet normal 1.0 -0.0 -0.0
  outer loop
    vertex 20.000000000000007 6.0 12.249999999999998
    vertex 20.000000000000007 7.75 6.0
    vertex 20.000000000000007 7.749999999999997 14.000000000000002
  endloop
endfacet
facet normal 1.0 -0.0 -0.0
  outer loop
    vertex 20.000000000000007 7.749999999999997 14.000000000000002
    vertex 20.000000000000007 7.75 6.0
    vertex 20.000000000000007 12.249999999999998 14.000000000000002
  endloop
endfacet
facet normal 1.0 -0.0 -0.0
  outer loop
    vertex 20.000000000000007 12.249999999999998 14.000000000000002
    vertex 20.000000000000007 7.75 6.0
    vertex 20.000000000000007 12.249999999999998 6.0
  endloop
endfacet
facet normal 1.0 -0.0 -0.0
  outer loop
    vertex 20.000000000000007 12.249999999999998 14.000000000000002
    vertex 20.000000000000007 12.249999999999998 6.0
    vertex 20.000000000000007 14.999999999999998 1.8999999999999997
  endloop
endfacet
facet normal 1.0 -0.0 -0.0
  outer loop
    vertex 20.000000000000007 12.249999999999998 14.000000000000002
    vertex 20.000000000000007 14.999999999999998 1.8999999999999997
    vertex 20.000000000000007 14.749999999999995 18.1
  endloop
endfacet
facet normal 1.0 -0.0 -0.0
  outer loop
    vertex 20.000000000000007 14.749999999999995 18.1
    vertex 20.000000000000007 14.999999999999998 1.8999999999999997
    vertex 20.000000000000007 19.999999999999975 20.0
  endloop
endfacet
facet normal 1.0 -0.0 -0.0
  outer loop
    vertex 20.000000000000007 19.999999999999975 20.0
    vertex 20.000000000000007 14.999999999999998 1.8999999999999997
    vertex 20.000000000000007 19.999999999999975 -9.342041811548657e-17
  endloop
endfacet
facet normal 1.0 -0.0 -0.0
  outer loop
    vertex 20.000000000000007 1.8999999999999997 15.0
    vertex 20.000000000000007 5.249999999999999 18.1
    vertex 20.000000000000007 -4.466638053268199e-31 20.0
  endloop
endfacet
facet normal 1.0 -0.0 -0.0
  outer loop
    vertex 20.000000000000007 5.249999999999999 18.1
    vertex 20.000000000000007 1.8999999999999997 15.0
    vertex 20.000000000000007 6.0 12.249999999999998
  endloop
endfacet
facet normal 1.0 -0.0 -0.0
  outer loop
    vertex 20.000000000000007 5.249999999999999 18.1
    vertex 20.000000000000007 6.0 12.249999999999998
    vertex 20.000000000000007 7.749999999999997 14.000000000000002
  endloop
endfacet
facet normal -1.5310856757405403e-32 0.5570352185371563 -0.8304888712735786
  outer loop
    vertex 32.00000000000003 6.0 7.75
    vertex 20.000000000000007 1.8999999999999997 5.0
    vertex 20.000000000000007 6.0 7.75
  endloop
endfacet
facet normal -1.5310856757405403e-32 0.5570352185371563 -0.8304888712735786
  outer loop
    vertex 20.000000000000007 1.8999999999999997 5.0
    vertex 32.00000000000003 6.0 7.75
    vertex 32.00000000000003 1.8999999999999997 5.0
  endloop
endfacet
facet normal 1.0 -1.8245916696572782e-15 -5.440600614978062e-15
  outer loop
    vertex 32.00000000000003 6.0 9.999999999999998
    vertex 32.00000000000005 1.8999999999999997 15.0
    vertex 32.00000000000003 1.8999999999999997 9.999999999999998
  endloop
endfacet
facet normal 1.0 -1.8245916696572782e-15 -5.440600614978062e-15
  outer loop
    vertex 32.00000000000005 1.8999999999999997 15.0
    vertex 32.00000000000003 6.0 9.999999999999998
    vertex 32.00000000000005 6.0 12.249999999999998
  endloop
endfacet
facet normal -6.454595251786155e-18 0.5570352185371568 0.8304888712735785
  outer loop
    vertex 32.00000000000005 1.8999999999999997 15.0
    vertex 20.000000000000007 6.0 12.249999999999998
    vertex 20.000000000000007 1.8999999999999997 15.0
  endloop
endfacet
facet normal -6.454595251786155e-18 0.5570352185371568 0.8304888712735785
  outer loop
    vertex 20.000000000000007 6.0 12.249999999999998
    vertex 32.00000000000005 1.8999999999999997 15.0
    vertex 32.00000000000005 6.0 12.249999999999998
  endloop
endfacet
facet normal 1.0 -0.0 -0.0
  outer loop
    vertex 20.000000000000007 1.8999999999999997 5.0
    vertex 20.000000000000007 -4.466638053268199e-31 20.0
    vertex 20.000000000000007 -4.466638053268199e-31 -6.9791219582315595e-31
  endloop
endfacet
facet normal 1.0 -0.0 -0.0
  outer loop
    vertex 20.000000000000007 -4.466638053268199e-31 20.0
    vertex 20.000000000000007 1.8999999999999997 5.0
    vertex 20.000000000000007 1.8999999999999997 15.0
  endloop
endfacet
facet normal 1.0 -0.0 -0.0
  outer loop
    vertex 32.00000000000003 6.0 7.75
    vertex 32.00000000000003 1.8999999999999997 9.999999999999998
    vertex 32.00000000000003 1.8999999999999997 5.0
  endloop
endfacet
facet normal 1.0 -0.0 -0.0
  outer loop
    vertex 32.00000000000003 1.8999999999999997 9.999999999999998
    vertex 32.00000000000003 6.0 7.75
    vertex 32.00000000000003 6.0 9.999999999999998
  endloop
endfacet
endsolid 20x20_profile_socket
