solid 20x20_profile_angle2
facet normal 0.0 -1.0 0.0
  outer loop
    vertex 32.00000000000005 1.8999999999999997 15.0
    vertex 20.000000000000007 1.8999999999999997 5.0
    vertex 32.00000000000003 1.8999999999999997 5.0
  endloop
endfacet
facet normal 0.0 -1.0 0.0
  outer loop
    vertex 20.000000000000007 1.8999999999999997 5.0
    vertex 32.00000000000005 1.8999999999999997 15.0
    vertex 20.000000000000007 1.8999999999999997 15.0
  endloop
endfacet
facet normal -4.511946372076633e-17 -1.0 -5.63993296509579e-18
  outer loop
    vertex 20.000000000000007 -4.466638053268199e-31 20.0
    vertex 17.499999999999996 2.255973186038316e-16 0.0
    vertex 20.000000000000007 -4.466638053268199e-31 -6.9791219582315595e-31
  endloop
endfacet
facet normal -4.511946372076633e-17 -1.0 -5.63993296509579e-18
  outer loop
    vertex 17.499999999999996 2.255973186038316e-16 0.0
    vertex 20.000000000000007 -4.466638053268199e-31 20.0
    vertex 17.499999999999996 0.0 20.0
  endloop
endfacet
facet normal 0.0 0.0 -1.0
  outer loop
    vertex 32.00000000000004 12.249999999999998 14.000000000000002
    vertex 20.000000000000007 7.749999999999997 14.000000000000002
    vertex 20.000000000000007 12.249999999999998 14.000000000000002
  endloop
endfacet
facet normal 0.0 0.0 -1.0
  outer loop
    vertex 20.000000000000007 7.749999999999997 14.000000000000002
    vertex 32.00000000000004 12.249999999999998 14.000000000000002
    vertex 32.00000000000004 7.749999999999997 14.000000000000002
  endloop
endfacet
facet normal -0.0 -0.0 1.0
  outer loop
    vertex 32.00000000000004 5.249999999999999 18.1
    vertex 20.000000000000007 14.749999999999995 18.1
    vertex 20.000000000000007 5.249999999999999 18.1
  endloop
endfacet
facet normal -0.0 -0.0 1.0
  outer loop
    vertex 20.000000000000007 14.749999999999995 18.1
    vertex 32.00000000000004 5.249999999999999 18.1
    vertex 32.00000000000004 14.749999999999995 18.1
  endloop
endfacet
facet normal -0.0 1.0 -0.0
  outer loop
    vertex 20.000000000000007 6.0 12.249999999999998
    vertex 32.00000000000003 6.0 7.75
    vertex 20.000000000000007 6.0 7.75
  endloop
endfacet
facet normal -0.0 1.0 -0.0
  outer loop
    vertex 32.00000000000003 6.0 7.75
    vertex 20.000000000000007 6.0 12.249999999999998
    vertex 32.00000000000005 6.0 12.249999999999998
  endloop
endfacet
facet normal 0.0 0.0 -1.0
  outer loop
    vertex 32.00000000000001 14.999999999999998 1.8999999999999997
    vertex 20.000000000000007 4.999999999999999 1.8999999999999997
    vertex 20.000000000000007 14.999999999999998 1.8999999999999997
  endloop
endfacet
facet normal 0.0 0.0 -1.0
  outer loop
    vertex 20.000000000000007 4.999999999999999 1.8999999999999997
    vertex 32.00000000000001 14.999999999999998 1.8999999999999997
    vertex 32.00000000000001 4.999999999999999 1.8999999999999997
  endloop
endfacet
facet normal -0.0 -0.0 1.0
  outer loop
    vertex 32.00000000000001 7.75 6.0
    vertex 20.000000000000007 12.249999999999998 6.0
    vertex 20.000000000000007 7.75 6.0
  endloop
endfacet
facet normal -0.0 -0.0 1.0
  outer loop
    vertex 20.000000000000007 12.249999999999998 6.0
    vertex 32.00000000000001 7.75 6.0
    vertex 32.00000000000001 12.249999999999998 6.0
  endloop
endfacet
facet normal -6.635740625665781e-18 0.8537961757940362 -0.5206074242646558
  outer loop
    vertex 20.000000000000007 14.749999999999995 18.1
    vertex 32.00000000000004 12.249999999999998 14.000000000000002
    vertex 20.000000000000007 12.249999999999998 14.000000000000002
  endloop
endfacet
facet normal -6.635740625665781e-18 0.8537961757940362 -0.5206074242646558
  outer loop
    vertex 32.00000000000004 12.249999999999998 14.000000000000002
    vertex 20.000000000000007 14.749999999999995 18.1
    vertex 32.00000000000004 14.749999999999995 18.1
  endloop
endfacet
facet normal 1.0 -0.0 -0.0
  outer loop
    vertex 32.00000000000004 7.749999999999997 14.000000000000002
    vertex 32.00000000000004 14.749999999999995 18.1
    vertex 32.00000000000004 5.249999999999999 18.1
  endloop
endfacet
facet normal 1.0 -0.0 -0.0
  outer loop
    vertex 32.00000000000004 14.749999999999995 18.1
    vertex 32.00000000000004 7.749999999999997 14.000000000000002
    vertex 32.00000000000004 12.249999999999998 14.000000000000002
  endloop
endfacet
facet normal 1.1787443244887382e-32 -0.8537961757940362 -0.5206074242646559
  outer loop
    vertex 32.00000000000004 5.249999999999999 18.1
    vertex 20.000000000000007 7.749999999999997 14.000000000000002
    vertex 32.00000000000004 7.749999999999997 14.000000000000002
  endloop
endfacet
facet normal 1.1787443244887382e-32 -0.8537961757940362 -0.5206074242646559
  outer loop
    vertex 20.000000000000007 7.749999999999997 14.000000000000002
    vertex 32.00000000000004 5.249999999999999 18.1
    vertex 20.000000000000007 5.249999999999999 18.1
  endloop
endfacet
facet normal 3.845192336334702e-33 -0.8304888712735785 0.5570352185371564
  outer loop
    vertex 32.00000000000001 7.75 6.0
    vertex 20.000000000000007 4.999999999999999 1.8999999999999997
    vertex 32.00000000000001 4.999999999999999 1.8999999999999997
  endloop
endfacet
facet normal 3.845192336334702e-33 -0.8304888712735785 0.5570352185371564
  outer loop
    vertex 20.000000000000007 4.999999999999999 1.8999999999999997
    vertex 32.00000000000001 7.75 6.0
    vertex 20.000000000000007 7.75 6.0
  endloop
endfacet
facet normal 1.0 -0.0 -0.0
  outer loop
    vertex 32.00000000000001 14.999999999999998 1.8999999999999997
    vertex 32.00000000000001 7.75 6.0
    vertex 32.00000000000001 4.999999999999999 1.8999999999999997
  endloop
endfacet
facet normal 1.0 -0.0 -0.0
  outer loop
    vertex 32.00000000000001 7.75 6.0
    vertex 32.00000000000001 14.999999999999998 1.8999999999999997
    vertex 32.00000000000001 12.249999999999998 6.0
  endloop
endfacet
facet normal 1.0 -0.0 -0.0
  outer loop
    vertex 20.000000000000007 4.999999999999999 1.8999999999999997
    vertex 20.000000000000007 6.0 7.75
    vertex 20.000000000000007 1.8999999999999997 5.0
  endloop
endfacet
facet normal 1.0 -0.0 -0.0
  outer loop
    vertex 20.000000000000007 6.0 7.75
    vertex 20.000000000000007 4.999999999999999 1.8999999999999997
    vertex 20.000000000000007 7.75 6.0
  endloop
endfacet
facet normal 1.0 -0.0 -0.0
  outer loop
    vertex 20.000000000000007 6.0 7.75
    vertex 20.000000000000007 7.75 6.0
    vertex 20.000000000000007 6.0 12.249999999999998
  endloop
endfacet
facet normal 1.0 -0.0 -0.0
  outer loop
    vertex 20.000000000000007 6.0 12.249999999999998
    vertex 20.000000000000007 7.75 6.0
    vertex 20.000000000000007 7.749999999999997 14.000000000000002
  endloop
endfacet
facet normal 1.0 -0.0 -0.0
  outer loop
    vertex 20.000000000000007 7.749999999999997 14.000000000000002
    vertex 20.000000000000007 7.75 6.0
    vertex 20.000000000000007 12.249999999999998 14.000000000000002
  endloop
endfacet
facet normal 1.0 -0.0 -0.0
  outer loop
    vertex 20.000000000000007 12.249999999999998 14.000000000000002
    vertex 20.000000000000007 7.75 6.0
    vertex 20.000000000000007 12.249999999999998 6.0
  endloop
endfacet
facet normal 1.0 -0.0 -0.0
  outer loop
    vertex 20.000000000000007 12.249999999999998 14.000000000000002
    vertex 20.000000000000007 12.249999999999998 6.0
    vertex 20.000000000000007 14.999999999999998 1.8999999999999997
  endloop
endfacet
facet normal 1.0 -0.0 -0.0
  outer loop
    vertex 20.000000000000007 12.249999999999998 14.000000000000002
    vertex 20.000000000000007 14.999999999999998 1.8999999999999997
    vertex 20.000000000000007 14.749999999999995 18.1
  endloop
endfacet
facet normal 1.0 -0.0 -0.0
  outer loop
    vertex 20.000000000000007 -4.466638053268199e-31 -6.9791219582315595e-31
    vertex 20.000000000000007 1.8999999999999997 5.0
    vertex 20.000000000000007 -4.466638053268199e-31 20.0
  endloop
endfacet
facet normal 1.0 -0.0 -0.0
  outer loop
    vertex 20.000000000000007 1.8999999999999997 5.0
    vertex 20.000000000000007 -4.466638053268199e-31 -6.9791219582315595e-31
    vertex 20.000000000000007 4.999999999999999 1.8999999999999997
  endloop
endfacet
facet normal 1.0 -0.0 -0.0
  outer loop
    vertex 20.000000000000007 4.999999999999999 1.8999999999999997
    vertex 20.000000000000007 -4.466638053268199e-31 -6.9791219582315595e-31
    vertex 20.000000000000007 19.999999999999975 -9.342041811548657e-17
  endloop
endfacet
facet normal 1.0 -0.0 -0.0
  outer loop
    vertex 20.000000000000007 4.999999999999999 1.8999999999999997
    vertex 20.000000000000007 19.999999999999975 -9.342041811548657e-17
    vertex 20.000000000000007 14.999999999999998 1.8999999999999997
  endloop
endfacet
facet normal 1.0 -0.0 -0.0
  outer loop
    vertex 20.000000000000007 -4.466638053268199e-31 20.0
    vertex 20.000000000000007 5.249999999999999 18.1
    vertex 20.000000000000007 19.999999999999975 20.0
  endloop
endfacet
facet normal 1.0 -0.0 -0.0
  outer loop
    vertex 20.000000000000007 5.249999999999999 18.1
    vertex 20.000000000000007 -4.466638053268199e-31 20.0
    vertex 20.000000000000007 1.8999999999999997 15.0
  endloop
endfacet
facet normal 1.0 -0.0 -0.0
  outer loop
    vertex 20.000000000000007 1.8999999999999997 15.0
    vertex 20.000000000000007 -4.466638053268199e-31 20.0
    vertex 20.000000000000007 1.8999999999999997 5.0
  endloop
endfacet
facet normal 1.0 -0.0 -0.0
  outer loop
    vertex 20.000000000000007 19.999999999999975 20.0
    vertex 20.000000000000007 5.249999999999999 18.1
    vertex 20.000000000000007 14.749999999999995 18.1
  endloop
endfacet
facet normal 1.0 -0.0 -0.0
  outer loop
    vertex 20.000000000000007 19.999999999999975 20.0
    vertex 20.000000000000007 14.749999999999995 18.1
    vertex 20.000000000000007 14.999999999999998 1.8999999999999997
  endloop
endfacet
facet normal 1.0 -0.0 -0.0
  outer loop
    vertex 20.000000000000007 19.999999999999975 20.0
    vertex 20.000000000000007 14.999999999999998 1.8999999999999997
    vertex 20.000000000000007 19.999999999999975 -9.342041811548657e-17
  endloop
endfacet
facet normal 1.0 -0.0 -0.0
  outer loop
    vertex 20.000000000000007 6.0 12.249999999999998
    vertex 20.000000000000007 5.249999999999999 18.1
    vertex 20.000000000000007 1.8999999999999997 15.0
  endloop
endfacet
facet normal 1.0 -0.0 -0.0
  outer loop
    vertex 20.000000000000007 5.249999999999999 18.1
    vertex 20.000000000000007 6.0 12.249999999999998
    vertex 20.000000000000007 7.749999999999997 14.000000000000002
  endloop
endfacet
facet normal -6.4545952517861906e-18 0.8304888712735786 0.5570352185371562
  outer loop
    vertex 20.000000000000007 12.249999999999998 6.0
    vertex 32.00000000000001 14.999999999999998 1.8999999999999997
    vertex 20.000000000000007 14.999999999999998 1.8999999999999997
  endloop
endfacet
facet normal -6.4545952517861906e-18 0.8304888712735786 0.5570352185371562
  outer loop
    vertex 32.00000000000001 14.999999999999998 1.8999999999999997
    vertex 20.000000000000007 12.249999999999998 6.0
    vertex 32.00000000000001 12.249999999999998 6.0
  endloop
endfacet
facet normal -1.5310856757405403e-32 0.5570352185371563 -0.8304888712735786
  outer loop
    vertex 32.00000000000003 6.0 7.75
    vertex 20.000000000000007 1.8999999999999997 5.0
    vertex 20.000000000000007 6.0 7.75
  endloop
endfacet
facet normal -1.5310856757405403e-32 0.5570352185371563 -0.8304888712735786
  outer loop
    vertex 20.000000000000007 1.8999999999999997 5.0
    vertex 32.00000000000003 6.0 7.75
    vertex 32.00000000000003 1.8999999999999997 5.0
  endloop
endfacet
facet normal 1.0 -4.7515697774518225e-31 -2.7203003074890325e-15
  outer loop
    vertex 32.00000000000003 6.0 7.75
    vertex 32.00000000000005 1.8999999999999997 15.0
    vertex 32.00000000000003 1.8999999999999997 5.0
  endloop
endfacet
facet normal 1.0 -4.7515697774518225e-31 -2.7203003074890325e-15
  outer loop
    vertex 32.00000000000005 1.8999999999999997 15.0
    vertex 32.00000000000003 6.0 7.75
    vertex 32.00000000000005 6.0 12.249999999999998
  endloop
endfacet
facet normal -6.454595251786155e-18 0.5570352185371568 0.8304888712735785
  outer loop
    vertex 32.00000000000005 1.8999999999999997 15.0
    vertex 20.000000000000007 6.0 12.249999999999998
    vertex 20.000000000000007 1.8999999999999997 15.0
  endloop
endfacet
facet normal -6.454595251786155e-18 0.5570352185371568 0.8304888712735785
  outer loop
    vertex 20.000000000000007 6.0 12.249999999999998
    vertex 32.00000000000005 1.8999999999999997 15.0
    vertex 32.00000000000005 6.0 12.249999999999998
  endloop
endfacet
facet normal -0.0 -0.0 1.0
  outer loop
    vertex 7.750000000000025 19.999999999999968 6.0
    vertex 12.25000000000002 31.999999999999986 6.0
    vertex 7.750000000000022 31.999999999999996 6.0
  endloop
endfacet
facet normal -0.0 -0.0 1.0
  outer loop
    vertex 12.25000000000002 31.999999999999986 6.0
    vertex 7.750000000000025 19.999999999999968 6.0
    vertex 12.250000000000034 19.999999999999968 6.0
  endloop
endfacet
facet normal 1.4291232852731423e-15 1.0 -2.1566880354595327e-30
  outer loop
    vertex 5.250000000000031 32.00000000000003 18.1
    vertex 12.25000000000002 32.00000000000002 14.000000000000002
    vertex 7.750000000000022 32.00000000000003 14.000000000000002
  endloop
endfacet
facet normal 1.4291232852731423e-15 1.0 -2.1566880354595327e-30
  outer loop
    vertex 12.25000000000002 32.00000000000002 14.000000000000002
    vertex 5.250000000000031 32.00000000000003 18.1
    vertex 14.75000000000003 32.00000000000002 18.1
  endloop
endfacet
facet normal 0.8304888712735794 6.764730682176858e-16 0.557035218537155
  outer loop
    vertex 15.000000000000021 19.99999999999998 1.8999999999999997
    vertex 12.25000000000002 31.999999999999986 6.0
    vertex 12.250000000000034 19.999999999999968 6.0
  endloop
endfacet
facet normal 0.8304888712735794 6.764730682176858e-16 0.557035218537155
  outer loop
    vertex 12.25000000000002 31.999999999999986 6.0
    vertex 15.000000000000021 19.99999999999998 1.8999999999999997
    vertex 15.000000000000014 31.999999999999996 1.8999999999999997
  endloop
endfacet
facet normal 0.0 0.0 -1.0
  outer loop
    vertex 15.000000000000014 31.999999999999996 1.8999999999999997
    vertex 5.000000000000032 19.999999999999968 1.8999999999999997
    vertex 5.000000000000015 31.999999999999996 1.8999999999999997
  endloop
endfacet
facet normal 0.0 0.0 -1.0
  outer loop
    vertex 5.000000000000032 19.999999999999968 1.8999999999999997
    vertex 15.000000000000014 31.999999999999996 1.8999999999999997
    vertex 15.000000000000021 19.99999999999998 1.8999999999999997
  endloop
endfacet
facet normal 1.0 5.48326816050977e-16 -6.266592183439788e-16
  outer loop
    vertex 6.000000000000016 32.00000000000002 7.75
    vertex 6.000000000000024 19.999999999999964 12.249999999999998
    vertex 6.000000000000024 19.999999999999964 7.75
  endloop
endfacet
facet normal 1.0 5.48326816050977e-16 -6.266592183439788e-16
  outer loop
    vertex 6.000000000000024 19.999999999999964 12.249999999999998
    vertex 6.000000000000016 32.00000000000002 7.75
    vertex 6.000000000000021 32.00000000000004 12.249999999999998
  endloop
endfacet
facet normal 0.5570352185371559 8.483857027286653e-16 0.8304888712735788
  outer loop
    vertex 1.9000000000000317 19.999999999999975 15.0
    vertex 6.000000000000021 32.00000000000004 12.249999999999998
    vertex 1.899999999999998 32.00000000000003 15.0
  endloop
endfacet
facet normal 0.5570352185371559 8.483857027286653e-16 0.8304888712735788
  outer loop
    vertex 6.000000000000021 32.00000000000004 12.249999999999998
    vertex 1.9000000000000317 19.999999999999975 15.0
    vertex 6.000000000000024 19.999999999999964 12.249999999999998
  endloop
endfacet
facet normal -9.170622707472824e-16 1.0 -1.7822657186997104e-15
  outer loop
    vertex 1.899999999999998 32.00000000000003 15.0
    vertex 6.000000000000016 32.00000000000002 7.75
    vertex 1.899999999999998 32.00000000000002 5.0
  endloop
endfacet
facet normal -9.170622707472824e-16 1.0 -1.7822657186997104e-15
  outer loop
    vertex 6.000000000000016 32.00000000000002 7.75
    vertex 1.899999999999998 32.00000000000003 15.0
    vertex 6.000000000000021 32.00000000000004 12.249999999999998
  endloop
endfacet
facet normal -0.8304888712735785 -6.841870966893311e-16 0.5570352185371565
  outer loop
    vertex 7.750000000000022 31.999999999999996 6.0
    vertex 5.000000000000032 19.999999999999968 1.8999999999999997
    vertex 7.750000000000025 19.999999999999968 6.0
  endloop
endfacet
facet normal -0.8304888712735785 -6.841870966893311e-16 0.5570352185371565
  outer loop
    vertex 5.000000000000032 19.999999999999968 1.8999999999999997
    vertex 7.750000000000022 31.999999999999996 6.0
    vertex 5.000000000000015 31.999999999999996 1.8999999999999997
  endloop
endfacet
facet normal -0.0 -0.0 1.0
  outer loop
    vertex 14.750000000000023 19.99999999999998 18.1
    vertex 5.250000000000031 32.00000000000003 18.1
    vertex 5.25000000000002 19.999999999999968 18.1
  endloop
endfacet
facet normal -0.0 -0.0 1.0
  outer loop
    vertex 5.250000000000031 32.00000000000003 18.1
    vertex 14.750000000000023 19.99999999999998 18.1
    vertex 14.75000000000003 32.00000000000002 18.1
  endloop
endfacet
facet normal 4.2211556495519576e-16 1.0 9.170622707472831e-16
  outer loop
    vertex 7.750000000000022 31.999999999999996 6.0
    vertex 15.000000000000014 31.999999999999996 1.8999999999999997
    vertex 5.000000000000015 31.999999999999996 1.8999999999999997
  endloop
endfacet
facet normal 4.2211556495519576e-16 1.0 9.170622707472831e-16
  outer loop
    vertex 15.000000000000014 31.999999999999996 1.8999999999999997
    vertex 7.750000000000022 31.999999999999996 6.0
    vertex 12.25000000000002 31.999999999999986 6.0
  endloop
endfacet
facet normal 0.8537961757940359 3.013597328046227e-16 -0.5206074242646563
  outer loop
    vertex 12.25000000000002 32.00000000000002 14.000000000000002
    vertex 14.750000000000023 19.99999999999998 18.1
    vertex 12.250000000000034 19.999999999999968 14.000000000000002
  endloop
endfacet
facet normal 0.8537961757940359 3.013597328046227e-16 -0.5206074242646563
  outer loop
    vertex 14.750000000000023 19.99999999999998 18.1
    vertex 12.25000000000002 32.00000000000002 14.000000000000002
    vertex 14.75000000000003 32.00000000000002 18.1
  endloop
endfacet
facet normal -1.815613957321636e-16 1.0 -4.696815003975076e-18
  outer loop
    vertex 1.9000000000000317 19.999999999999975 5.0
    vertex 7.750000000000025 19.999999999999968 6.0
    vertex 5.000000000000032 19.999999999999968 1.8999999999999997
  endloop
endfacet
facet normal -1.815613957321636e-16 1.0 -4.696815003975076e-18
  outer loop
    vertex 7.750000000000025 19.999999999999968 6.0
    vertex 1.9000000000000317 19.999999999999975 5.0
    vertex 6.000000000000024 19.999999999999964 7.75
  endloop
endfacet
facet normal -1.815613957321636e-16 1.0 -4.696815003975076e-18
  outer loop
    vertex 7.750000000000025 19.999999999999968 6.0
    vertex 6.000000000000024 19.999999999999964 7.75
    vertex 12.250000000000034 19.999999999999968 6.0
  endloop
endfacet
facet normal -1.815613957321636e-16 1.0 -4.696815003975076e-18
  outer loop
    vertex 4.934941344458821e-14 19.999999999999975 -9.342041811548657e-17
    vertex 5.000000000000032 19.999999999999968 1.8999999999999997
    vertex 20.000000000000007 19.999999999999975 -9.342041811548657e-17
  endloop
endfacet
facet normal -1.815613957321636e-16 1.0 -4.696815003975076e-18
  outer loop
    vertex 5.000000000000032 19.999999999999968 1.8999999999999997
    vertex 4.934941344458821e-14 19.999999999999975 -9.342041811548657e-17
    vertex 1.9000000000000317 19.999999999999975 5.0
  endloop
endfacet
facet normal -1.815613957321636e-16 1.0 -4.696815003975076e-18
  outer loop
    vertex 1.9000000000000317 19.999999999999975 5.0
    vertex 4.934941344458821e-14 19.999999999999975 -9.342041811548657e-17
    vertex 4.934941344458821e-14 19.999999999999975 20.0
  endloop
endfacet
facet normal -1.815613957321636e-16 1.0 -4.696815003975076e-18
  outer loop
    vertex 1.9000000000000317 19.999999999999975 5.0
    vertex 4.934941344458821e-14 19.999999999999975 20.0
    vertex 1.9000000000000317 19.999999999999975 15.0
  endloop
endfacet
facet normal -1.815613957321636e-16 1.0 -4.696815003975076e-18
  outer loop
    vertex 1.9000000000000317 19.999999999999975 15.0
    vertex 4.934941344458821e-14 19.999999999999975 20.0
    vertex 5.25000000000002 19.999999999999968 18.1
  endloop
endfacet
facet normal -1.815613957321636e-16 1.0 -4.696815003975076e-18
  outer loop
    vertex 5.25000000000002 19.999999999999968 18.1
    vertex 4.934941344458821e-14 19.999999999999975 20.0
    vertex 14.750000000000023 19.99999999999998 18.1
  endloop
endfacet
facet normal -1.815613957321636e-16 1.0 -4.696815003975076e-18
  outer loop
    vertex 20.000000000000007 19.999999999999975 -9.342041811548657e-17
    vertex 15.000000000000021 19.99999999999998 1.8999999999999997
    vertex 20.000000000000007 19.999999999999975 20.0
  endloop
endfacet
facet normal -1.815613957321636e-16 1.0 -4.696815003975076e-18
  outer loop
    vertex 15.000000000000021 19.99999999999998 1.8999999999999997
    vertex 20.000000000000007 19.999999999999975 -9.342041811548657e-17
    vertex 5.000000000000032 19.999999999999968 1.8999999999999997
  endloop
endfacet
facet normal -1.815613957321636e-16 1.0 -4.696815003975076e-18
  outer loop
    vertex 20.000000000000007 19.999999999999975 20.0
    vertex 15.000000000000021 19.99999999999998 1.8999999999999997
    vertex 12.250000000000034 19.999999999999968 6.0
  endloop
endfacet
facet normal -1.815613957321636e-16 1.0 -4.696815003975076e-18
  outer loop
    vertex 20.000000000000007 19.999999999999975 20.0
    vertex 12.250000000000034 19.999999999999968 6.0
    vertex 6.000000000000024 19.999999999999964 7.75
  endloop
endfacet
facet normal -1.815613957321636e-16 1.0 -4.696815003975076e-18
  outer loop
    vertex 20.000000000000007 19.999999999999975 20.0
    vertex 6.000000000000024 19.999999999999964 7.75
    vertex 12.250000000000034 19.999999999999968 14.000000000000002
  endloop
endfacet
facet normal -1.815613957321636e-16 1.0 -4.696815003975076e-18
  outer loop
    vertex 12.250000000000034 19.999999999999968 14.000000000000002
    vertex 6.000000000000024 19.999999999999964 7.75
    vertex 6.000000000000024 19.999999999999964 12.249999999999998
  endloop
endfacet
facet normal -1.815613957321636e-16 1.0 -4.696815003975076e-18
  outer loop
    vertex 12.250000000000034 19.999999999999968 14.000000000000002
    vertex 6.000000000000024 19.999999999999964 12.249999999999998
    vertex 7.750000000000025 19.999999999999968 14.000000000000002
  endloop
endfacet
facet normal -1.815613957321636e-16 1.0 -4.696815003975076e-18
  outer loop
    vertex 20.000000000000007 19.999999999999975 20.0
    vertex 12.250000000000034 19.999999999999968 14.000000000000002
    vertex 14.750000000000023 19.99999999999998 18.1
  endloop
endfacet
facet normal -1.815613957321636e-16 1.0 -4.696815003975076e-18
  outer loop
    vertex 20.000000000000007 19.999999999999975 20.0
    vertex 14.750000000000023 19.99999999999998 18.1
    vertex 4.934941344458821e-14 19.999999999999975 20.0
  endloop
endfacet
facet normal -1.815613957321636e-16 1.0 -4.696815003975076e-18
  outer loop
    vertex 1.9000000000000317 19.999999999999975 15.0
    vertex 7.750000000000025 19.999999999999968 14.000000000000002
    vertex 6.000000000000024 19.999999999999964 12.249999999999998
  endloop
endfacet
facet normal -1.815613957321636e-16 1.0 -4.696815003975076e-18
  outer loop
    vertex 7.750000000000025 19.999999999999968 14.000000000000002
    vertex 1.9000000000000317 19.999999999999975 15.0
    vertex 5.25000000000002 19.999999999999968 18.1
  endloop
endfacet
facet normal -0.853796175794036 3.052440687806213e-16 -0.520607424264656
  outer loop
    vertex 5.250000000000031 32.00000000000003 18.1
    vertex 7.750000000000025 19.999999999999968 14.000000000000002
    vertex 5.25000000000002 19.999999999999968 18.1
  endloop
endfacet
facet normal -0.853796175794036 3.052440687806213e-16 -0.520607424264656
  outer loop
    vertex 7.750000000000025 19.999999999999968 14.000000000000002
    vertex 5.250000000000031 32.00000000000003 18.1
    vertex 7.750000000000022 32.00000000000003 14.000000000000002
  endloop
endfacet
facet normal 0.5570352185371559 9.744864538672208e-16 -0.8304888712735791
  outer loop
    vertex 6.000000000000016 32.00000000000002 7.75
    vertex 1.9000000000000317 19.999999999999975 5.0
    vertex 1.899999999999998 32.00000000000002 5.0
  endloop
endfacet
facet normal 0.5570352185371559 9.744864538672208e-16 -0.8304888712735791
  outer loop
    vertex 1.9000000000000317 19.999999999999975 5.0
    vertex 6.000000000000016 32.00000000000002 7.75
    vertex 6.000000000000024 19.999999999999964 7.75
  endloop
endfacet
facet normal 0.0 0.0 -1.0
  outer loop
    vertex 12.25000000000002 32.00000000000002 14.000000000000002
    vertex 7.750000000000025 19.999999999999968 14.000000000000002
    vertex 7.750000000000022 32.00000000000003 14.000000000000002
  endloop
endfacet
facet normal 0.0 0.0 -1.0
  outer loop
    vertex 7.750000000000025 19.999999999999968 14.000000000000002
    vertex 12.25000000000002 32.00000000000002 14.000000000000002
    vertex 12.250000000000034 19.999999999999968 14.000000000000002
  endloop
endfacet
facet normal -1.0 4.5119463720765976e-15 0.0
  outer loop
    vertex 4.934941344458821e-14 19.999999999999975 20.0
    vertex 3.8069547514396615e-14 17.499999999999954 -9.342041811548657e-17
    vertex 3.8069547514396615e-14 17.499999999999954 20.0
  endloop
endfacet
facet normal -1.0 4.5119463720765976e-15 0.0
  outer loop
    vertex 3.8069547514396615e-14 17.499999999999954 -9.342041811548657e-17
    vertex 4.934941344458821e-14 19.999999999999975 20.0
    vertex 4.934941344458821e-14 19.999999999999975 -9.342041811548657e-17
  endloop
endfacet
facet normal -1.0 -2.819966482547885e-15 1.5655915332802887e-30
  outer loop
    vertex 1.899999999999998 32.00000000000003 15.0
    vertex 1.9000000000000317 19.999999999999975 5.0
    vertex 1.9000000000000317 19.999999999999975 15.0
  endloop
endfacet
facet normal -1.0 -2.819966482547885e-15 1.5655915332802887e-30
  outer loop
    vertex 1.9000000000000317 19.999999999999975 5.0
    vertex 1.899999999999998 32.00000000000003 15.0
    vertex 1.899999999999998 32.00000000000002 5.0
  endloop
endfacet
facet normal 3.1944372698571006e-19 -4.640932456137461e-18 -1.0
  outer loop
    vertex 4.934941344458821e-14 19.999999999999975 -9.342041811548657e-17
    vertex 17.499999999999996 2.255973186038316e-16 0.0
    vertex 3.8069547514396615e-14 17.499999999999954 -9.342041811548657e-17
  endloop
endfacet
facet normal 3.1944372698571006e-19 -4.640932456137461e-18 -1.0
  outer loop
    vertex 17.499999999999996 2.255973186038316e-16 0.0
    vertex 4.934941344458821e-14 19.999999999999975 -9.342041811548657e-17
    vertex 20.000000000000007 19.999999999999975 -9.342041811548657e-17
  endloop
endfacet
facet normal 3.1944372698571006e-19 -4.640932456137461e-18 -1.0
  outer loop
    vertex 17.499999999999996 2.255973186038316e-16 0.0
    vertex 20.000000000000007 19.999999999999975 -9.342041811548657e-17
    vertex 20.000000000000007 -4.466638053268199e-31 -6.9791219582315595e-31
  endloop
endfacet
facet normal -0.0 -0.0 1.0
  outer loop
    vertex 17.499999999999996 0.0 20.0
    vertex 4.934941344458821e-14 19.999999999999975 20.0
    vertex 3.8069547514396615e-14 17.499999999999954 20.0
  endloop
endfacet
facet normal -0.0 -0.0 1.0
  outer loop
    vertex 4.934941344458821e-14 19.999999999999975 20.0
    vertex 17.499999999999996 0.0 20.0
    vertex 20.000000000000007 19.999999999999975 20.0
  endloop
endfacet
facet normal -0.0 -0.0 1.0
  outer loop
    vertex 20.000000000000007 19.999999999999975 20.0
    vertex 17.499999999999996 0.0 20.0
    vertex 20.000000000000007 -4.466638053268199e-31 20.0
  endloop
endfacet
facet normal -0.7071067811865475 -0.7071067811865476 0.0
  outer loop
    vertex 17.499999999999996 2.255973186038316e-16 0.0
    vertex 3.8069547514396615e-14 17.499999999999954 20.0
    vertex 3.8069547514396615e-14 17.499999999999954 -9.342041811548657e-17
  endloop
endfacet
facet normal -0.7071067811865475 -0.7071067811865476 0.0
  outer loop
    vertex 3.8069547514396615e-14 17.499999999999954 20.0
    vertex 17.499999999999996 2.255973186038316e-16 0.0
    vertex 17.499999999999996 0.0 20.0
  endloop
endfacet
endsolid 20x20_profile_angle2
