solid mb_corner
facet normal 0.0 0.0 -1.0
  outer loop
    vertex 0.0 10.0 0.0
    vertex 4.710769515458674 6.35 0.0
    vertex 0.0 0.0 0.0
  endloop
endfacet
facet normal 0.0 0.0 -1.0
  outer loop
    vertex 4.710769515458674 6.35 0.0
    vertex 0.0 10.0 0.0
    vertex 4.901471862576143 6.598528137423857 0.0
  endloop
endfacet
facet normal 0.0 0.0 -1.0
  outer loop
    vertex 4.901471862576143 6.598528137423857 0.0
    vertex 0.0 10.0 0.0
    vertex 5.1499999999999995 6.789230484541325 0.0
  endloop
endfacet
facet normal 0.0 0.0 -1.0
  outer loop
    vertex 5.1499999999999995 6.789230484541325 0.0
    vertex 0.0 10.0 0.0
    vertex 10.0 10.0 0.0
  endloop
endfacet
facet normal 0.0 0.0 -1.0
  outer loop
    vertex 0.0 0.0 0.0
    vertex 4.710769515458674 6.35 0.0
    vertex 4.590889008453118 6.060582854123025 0.0
  endloop
endfacet
facet normal 0.0 0.0 -1.0
  outer loop
    vertex 0.0 0.0 0.0
    vertex 4.590889008453118 6.060582854123025 0.0
    vertex 4.55 5.75 0.0
  endloop
endfacet
facet normal 0.0 0.0 -1.0
  outer loop
    vertex 5.1499999999999995 6.789230484541325 0.0
    vertex 10.0 10.0 0.0
    vertex 5.439417145876975 6.909110991546881 0.0
  endloop
endfacet
facet normal 0.0 0.0 -1.0
  outer loop
    vertex 5.439417145876975 6.909110991546881 0.0
    vertex 10.0 10.0 0.0
    vertex 5.75 6.95 0.0
  endloop
endfacet
facet normal 0.0 0.0 -1.0
  outer loop
    vertex 5.75 6.95 0.0
    vertex 10.0 10.0 0.0
    vertex 6.060582854123025 6.909110991546883 0.0
  endloop
endfacet
facet normal 0.0 0.0 -1.0
  outer loop
    vertex 6.060582854123025 6.909110991546883 0.0
    vertex 10.0 10.0 0.0
    vertex 6.35 6.789230484541327 0.0
  endloop
endfacet
facet normal 0.0 0.0 -1.0
  outer loop
    vertex 6.35 6.789230484541327 0.0
    vertex 10.0 10.0 0.0
    vertex 6.598528137423857 6.598528137423857 0.0
  endloop
endfacet
facet normal 0.0 0.0 -1.0
  outer loop
    vertex 6.598528137423857 6.598528137423857 0.0
    vertex 10.0 10.0 0.0
    vertex 6.789230484541325 6.350000000000001 0.0
  endloop
endfacet
facet normal 0.0 0.0 -1.0
  outer loop
    vertex 6.789230484541325 6.350000000000001 0.0
    vertex 10.0 10.0 0.0
    vertex 6.909110991546881 6.060582854123026 0.0
  endloop
endfacet
facet normal 0.0 0.0 -1.0
  outer loop
    vertex 6.909110991546881 6.060582854123026 0.0
    vertex 10.0 10.0 0.0
    vertex 6.95 5.75 0.0
  endloop
endfacet
facet normal 0.0 0.0 -1.0
  outer loop
    vertex 0.0 0.0 0.0
    vertex 4.901471862576144 4.901471862576143 0.0
    vertex 10.0 0.0 0.0
  endloop
endfacet
facet normal 0.0 0.0 -1.0
  outer loop
    vertex 4.901471862576144 4.901471862576143 0.0
    vertex 0.0 0.0 0.0
    vertex 4.710769515458674 5.1499999999999995 0.0
  endloop
endfacet
facet normal 0.0 0.0 -1.0
  outer loop
    vertex 4.710769515458674 5.1499999999999995 0.0
    vertex 0.0 0.0 0.0
    vertex 4.590889008453119 5.439417145876974 0.0
  endloop
endfacet
facet normal 0.0 0.0 -1.0
  outer loop
    vertex 4.590889008453119 5.439417145876974 0.0
    vertex 0.0 0.0 0.0
    vertex 4.55 5.75 0.0
  endloop
endfacet
facet normal 0.0 0.0 -1.0
  outer loop
    vertex 10.0 0.0 0.0
    vertex 4.901471862576144 4.901471862576143 0.0
    vertex 5.150000000000001 4.710769515458673 0.0
  endloop
endfacet
facet normal 0.0 0.0 -1.0
  outer loop
    vertex 10.0 0.0 0.0
    vertex 5.150000000000001 4.710769515458673 0.0
    vertex 5.439417145876975 4.590889008453118 0.0
  endloop
endfacet
facet normal 0.0 0.0 -1.0
  outer loop
    vertex 10.0 0.0 0.0
    vertex 5.439417145876975 4.590889008453118 0.0
    vertex 5.75 4.55 0.0
  endloop
endfacet
facet normal 0.0 0.0 -1.0
  outer loop
    vertex 10.0 0.0 0.0
    vertex 5.75 4.55 0.0
    vertex 6.060582854123026 4.590889008453119 0.0
  endloop
endfacet
facet normal 0.0 0.0 -1.0
  outer loop
    vertex 10.0 0.0 0.0
    vertex 6.060582854123026 4.590889008453119 0.0
    vertex 6.350000000000001 4.710769515458674 0.0
  endloop
endfacet
facet normal 0.0 0.0 -1.0
  outer loop
    vertex 10.0 0.0 0.0
    vertex 6.350000000000001 4.710769515458674 0.0
    vertex 6.598528137423857 4.901471862576144 0.0
  endloop
endfacet
facet normal 0.0 0.0 -1.0
  outer loop
    vertex 10.0 0.0 0.0
    vertex 6.598528137423857 4.901471862576144 0.0
    vertex 6.789230484541327 5.15 0.0
  endloop
endfacet
facet normal 0.0 0.0 -1.0
  outer loop
    vertex 10.0 0.0 0.0
    vertex 6.789230484541327 5.15 0.0
    vertex 6.909110991546883 5.439417145876975 0.0
  endloop
endfacet
facet normal 0.0 0.0 -1.0
  outer loop
    vertex 10.0 0.0 0.0
    vertex 6.909110991546883 5.439417145876975 0.0
    vertex 6.95 5.75 0.0
  endloop
endfacet
facet normal 0.0 0.0 -1.0
  outer loop
    vertex 10.0 0.0 0.0
    vertex 6.95 5.75 0.0
    vertex 10.0 10.0 0.0
  endloop
endfacet
facet normal -0.0 -1.0 -0.0
  outer loop
    vertex 10.0 0.0 14.0
    vertex 0.0 0.0 0.0
    vertex 10.0 0.0 0.0
  endloop
endfacet
facet normal -0.0 -1.0 -0.0
  outer loop
    vertex 0.0 0.0 0.0
    vertex 10.0 0.0 14.0
    vertex 0.0 0.0 14.0
  endloop
endfacet
facet normal -1.0 0.0 0.0
  outer loop
    vertex 0.0 10.0 14.0
    vertex 0.0 0.0 0.0
    vertex 0.0 0.0 14.0
  endloop
endfacet
facet normal -1.0 0.0 0.0
  outer loop
    vertex 0.0 0.0 0.0
    vertex 0.0 10.0 14.0
    vertex 0.0 10.0 0.0
  endloop
endfacet
facet normal -0.0 1.0 -0.0
  outer loop
    vertex 0.0 10.0 0.0
    vertex 1.5 10.0 9.999999999999998
    vertex 10.0 10.0 0.0
  endloop
endfacet
facet normal -0.0 1.0 -0.0
  outer loop
    vertex 1.5 10.0 9.999999999999998
    vertex 0.0 10.0 0.0
    vertex 0.0 10.0 14.0
  endloop
endfacet
facet normal -0.0 1.0 -0.0
  outer loop
    vertex 1.5 10.0 9.999999999999998
    vertex 0.0 10.0 14.0
    vertex 1.5 10.0 14.0
  endloop
endfacet
facet normal -0.0 1.0 -0.0
  outer loop
    vertex 10.0 10.0 9.999999999999998
    vertex 10.0 10.0 0.0
    vertex 1.5 10.0 9.999999999999998
  endloop
endfacet
facet normal 1.0 -0.0 -0.0
  outer loop
    vertex 10.0 0.0 0.0
    vertex 10.0 1.5 10.0
    vertex 10.0 0.0 14.0
  endloop
endfacet
facet normal 1.0 -0.0 -0.0
  outer loop
    vertex 10.0 1.5 10.0
    vertex 10.0 0.0 0.0
    vertex 10.0 10.0 0.0
  endloop
endfacet
facet normal 1.0 -0.0 -0.0
  outer loop
    vertex 10.0 1.5 10.0
    vertex 10.0 10.0 0.0
    vertex 10.0 10.0 9.999999999999998
  endloop
endfacet
facet normal 1.0 -0.0 -0.0
  outer loop
    vertex 10.0 1.5 14.0
    vertex 10.0 0.0 14.0
    vertex 10.0 1.5 10.0
  endloop
endfacet
facet normal 0.0 0.0 1.0
  outer loop
    vertex 0.0 0.0 14.0
    vertex 1.5 1.5 14.0
    vertex 0.0 10.0 14.0
  endloop
endfacet
facet normal 0.0 0.0 1.0
  outer loop
    vertex 1.5 1.5 14.0
    vertex 0.0 0.0 14.0
    vertex 10.0 0.0 14.0
  endloop
endfacet
facet normal 0.0 0.0 1.0
  outer loop
    vertex 1.5 1.5 14.0
    vertex 10.0 0.0 14.0
    vertex 10.0 1.5 14.0
  endloop
endfacet
facet normal 0.0 0.0 1.0
  outer loop
    vertex 1.5 10.0 14.0
    vertex 0.0 10.0 14.0
    vertex 1.5 1.5 14.0
  endloop
endfacet
facet normal -0.0 1.0 -0.0
  outer loop
    vertex 1.5 1.5 14.0
    vertex 10.0 1.5 10.0
    vertex 1.5 1.5 9.999999999999998
  endloop
endfacet
facet normal -0.0 1.0 -0.0
  outer loop
    vertex 10.0 1.5 10.0
    vertex 1.5 1.5 14.0
    vertex 10.0 1.5 14.0
  endloop
endfacet
facet normal 1.0 -0.0 -0.0
  outer loop
    vertex 1.5 10.0 9.999999999999998
    vertex 1.5 1.5 14.0
    vertex 1.5 1.5 9.999999999999998
  endloop
endfacet
facet normal 1.0 -0.0 -0.0
  outer loop
    vertex 1.5 1.5 14.0
    vertex 1.5 10.0 9.999999999999998
    vertex 1.5 10.0 14.0
  endloop
endfacet
facet normal -0.0 -0.0 1.0
  outer loop
    vertex 1.5 1.5 9.999999999999998
    vertex 2.6590373558749816 4.921779055671931 9.999999999999998
    vertex 1.5 10.0 9.999999999999998
  endloop
endfacet
facet normal -0.0 -0.0 1.0
  outer loop
    vertex 2.6590373558749816 4.921779055671931 9.999999999999998
    vertex 1.5 1.5 9.999999999999998
    vertex 2.9787187078897968 4.149999999999998 9.999999999999998
  endloop
endfacet
facet normal -0.0 -0.0 1.0
  outer loop
    vertex 2.9787187078897968 4.149999999999998 9.999999999999998
    vertex 1.5 1.5 9.999999999999998
    vertex 3.4872583002030484 3.487258300203047 9.999999999999998
  endloop
endfacet
facet normal -0.0 -0.0 1.0
  outer loop
    vertex 1.5 10.0 9.999999999999998
    vertex 2.6590373558749816 4.921779055671931 9.999999999999998
    vertex 2.5499999999999994 5.75 9.999999999999998
  endloop
endfacet
facet normal -0.0 -0.0 1.0
  outer loop
    vertex 1.5 10.0 9.999999999999998
    vertex 4.921779055671933 8.840962644125018 9.999999999999998
    vertex 10.0 10.0 9.999999999999998
  endloop
endfacet
facet normal -0.0 -0.0 1.0
  outer loop
    vertex 4.921779055671933 8.840962644125018 9.999999999999998
    vertex 1.5 10.0 9.999999999999998
    vertex 4.1499999999999995 8.521281292110205 9.999999999999998
  endloop
endfacet
facet normal -0.0 -0.0 1.0
  outer loop
    vertex 4.1499999999999995 8.521281292110205 9.999999999999998
    vertex 1.5 10.0 9.999999999999998
    vertex 3.487258300203047 8.012741699796953 9.999999999999998
  endloop
endfacet
facet normal -0.0 -0.0 1.0
  outer loop
    vertex 3.487258300203047 8.012741699796953 9.999999999999998
    vertex 1.5 10.0 9.999999999999998
    vertex 2.978718707889796 7.3500000000000005 9.999999999999998
  endloop
endfacet
facet normal -0.0 -0.0 1.0
  outer loop
    vertex 2.978718707889796 7.3500000000000005 9.999999999999998
    vertex 1.5 10.0 9.999999999999998
    vertex 2.659037355874981 6.578220944328066 9.999999999999998
  endloop
endfacet
facet normal -0.0 -0.0 1.0
  outer loop
    vertex 2.659037355874981 6.578220944328066 9.999999999999998
    vertex 1.5 10.0 9.999999999999998
    vertex 2.5499999999999994 5.75 9.999999999999998
  endloop
endfacet
facet normal -0.0 -0.0 1.0
  outer loop
    vertex 10.0 10.0 9.999999999999998
    vertex 4.921779055671933 8.840962644125018 9.999999999999998
    vertex 5.75 8.950000000000001 9.999999999999998
  endloop
endfacet
facet normal -0.0 -0.0 1.0
  outer loop
    vertex 10.0 10.0 9.999999999999998
    vertex 5.75 8.950000000000001 9.999999999999998
    vertex 6.578220944328066 8.840962644125018 9.999999999999998
  endloop
endfacet
facet normal -0.0 -0.0 1.0
  outer loop
    vertex 10.0 10.0 9.999999999999998
    vertex 6.578220944328066 8.840962644125018 9.999999999999998
    vertex 7.35 8.521281292110205 9.999999999999998
  endloop
endfacet
facet normal -0.0 -0.0 1.0
  outer loop
    vertex 10.0 10.0 9.999999999999998
    vertex 7.35 8.521281292110205 9.999999999999998
    vertex 8.012741699796951 8.012741699796953 9.999999999999998
  endloop
endfacet
facet normal -0.7933533402912362 -0.6087614290087193 -0.0
  outer loop
    vertex 6.598528137423857 6.598528137423857 7.0
    vertex 6.789230484541325 6.350000000000001 0.0
    vertex 6.789230484541325 6.350000000000001 7.0
  endloop
endfacet
facet normal -0.7933533402912362 -0.6087614290087193 -0.0
  outer loop
    vertex 6.789230484541325 6.350000000000001 0.0
    vertex 6.598528137423857 6.598528137423857 7.0
    vertex 6.598528137423857 6.598528137423857 0.0
  endloop
endfacet
facet normal -0.6087614290087201 -0.7933533402912358 -0.0
  outer loop
    vertex 6.598528137423857 6.598528137423857 7.0
    vertex 6.35 6.789230484541327 0.0
    vertex 6.598528137423857 6.598528137423857 0.0
  endloop
endfacet
facet normal -0.6087614290087201 -0.7933533402912358 -0.0
  outer loop
    vertex 6.35 6.789230484541327 0.0
    vertex 6.598528137423857 6.598528137423857 7.0
    vertex 6.35 6.789230484541327 7.0
  endloop
endfacet
facet normal -0.38268343236509056 -0.9238795325112865 -0.0
  outer loop
    vertex 6.35 6.789230484541327 7.0
    vertex 6.060582854123025 6.909110991546883 0.0
    vertex 6.35 6.789230484541327 0.0
  endloop
endfacet
facet normal -0.38268343236509056 -0.9238795325112865 -0.0
  outer loop
    vertex 6.060582854123025 6.909110991546883 0.0
    vertex 6.35 6.789230484541327 7.0
    vertex 6.060582854123025 6.909110991546883 7.0
  endloop
endfacet
facet normal -0.1305261922200492 -0.9914448613738107 -0.0
  outer loop
    vertex 6.060582854123025 6.909110991546883 7.0
    vertex 5.75 6.95 0.0
    vertex 6.060582854123025 6.909110991546883 0.0
  endloop
endfacet
facet normal -0.1305261922200492 -0.9914448613738107 -0.0
  outer loop
    vertex 5.75 6.95 0.0
    vertex 6.060582854123025 6.909110991546883 7.0
    vertex 5.75 6.95 7.0
  endloop
endfacet
facet normal 0.13052619222005332 -0.9914448613738102 -0.0
  outer loop
    vertex 5.75 6.95 7.0
    vertex 5.439417145876975 6.909110991546881 0.0
    vertex 5.75 6.95 0.0
  endloop
endfacet
facet normal 0.13052619222005332 -0.9914448613738102 -0.0
  outer loop
    vertex 5.439417145876975 6.909110991546881 0.0
    vertex 5.75 6.95 7.0
    vertex 5.439417145876975 6.909110991546881 7.0
  endloop
endfacet
facet normal 0.38268343236509056 -0.9238795325112865 -0.0
  outer loop
    vertex 5.439417145876975 6.909110991546881 7.0
    vertex 5.1499999999999995 6.789230484541325 0.0
    vertex 5.439417145876975 6.909110991546881 0.0
  endloop
endfacet
facet normal 0.38268343236509056 -0.9238795325112865 -0.0
  outer loop
    vertex 5.1499999999999995 6.789230484541325 0.0
    vertex 5.439417145876975 6.909110991546881 7.0
    vertex 5.1499999999999995 6.789230484541325 7.0
  endloop
endfacet
facet normal 0.6087614290087183 -0.7933533402912372 -0.0
  outer loop
    vertex 5.1499999999999995 6.789230484541325 7.0
    vertex 4.901471862576143 6.598528137423857 0.0
    vertex 5.1499999999999995 6.789230484541325 0.0
  endloop
endfacet
facet normal 0.6087614290087183 -0.7933533402912372 -0.0
  outer loop
    vertex 4.901471862576143 6.598528137423857 0.0
    vertex 5.1499999999999995 6.789230484541325 7.0
    vertex 4.901471862576143 6.598528137423857 7.0
  endloop
endfacet
facet normal 0.7933533402912369 -0.6087614290087187 -0.0
  outer loop
    vertex 4.901471862576143 6.598528137423857 0.0
    vertex 4.710769515458674 6.35 7.0
    vertex 4.710769515458674 6.35 0.0
  endloop
endfacet
facet normal 0.7933533402912369 -0.6087614290087187 -0.0
  outer loop
    vertex 4.710769515458674 6.35 7.0
    vertex 4.901471862576143 6.598528137423857 0.0
    vertex 4.901471862576143 6.598528137423857 7.0
  endloop
endfacet
facet normal 0.9238795325112865 -0.38268343236509056 -0.0
  outer loop
    vertex 4.710769515458674 6.35 0.0
    vertex 4.590889008453118 6.060582854123025 7.0
    vertex 4.590889008453118 6.060582854123025 0.0
  endloop
endfacet
facet normal 0.9238795325112865 -0.38268343236509056 -0.0
  outer loop
    vertex 4.590889008453118 6.060582854123025 7.0
    vertex 4.710769515458674 6.35 0.0
    vertex 4.710769515458674 6.35 7.0
  endloop
endfacet
facet normal 0.9914448613738105 -0.13052619222005143 -0.0
  outer loop
    vertex 4.590889008453118 6.060582854123025 0.0
    vertex 4.55 5.75 7.0
    vertex 4.55 5.75 0.0
  endloop
endfacet
facet normal 0.9914448613738105 -0.13052619222005143 -0.0
  outer loop
    vertex 4.55 5.75 7.0
    vertex 4.590889008453118 6.060582854123025 0.0
    vertex 4.590889008453118 6.060582854123025 7.0
  endloop
endfacet
facet normal 0.9914448613738104 0.13052619222005307 0.0
  outer loop
    vertex 4.55 5.75 0.0
    vertex 4.590889008453119 5.439417145876974 7.0
    vertex 4.590889008453119 5.439417145876974 0.0
  endloop
endfacet
facet normal 0.9914448613738104 0.13052619222005307 0.0
  outer loop
    vertex 4.590889008453119 5.439417145876974 7.0
    vertex 4.55 5.75 0.0
    vertex 4.55 5.75 7.0
  endloop
endfacet
facet normal 0.923879532511287 0.38268343236508945 0.0
  outer loop
    vertex 4.590889008453119 5.439417145876974 0.0
    vertex 4.710769515458674 5.1499999999999995 7.0
    vertex 4.710769515458674 5.1499999999999995 0.0
  endloop
endfacet
facet normal 0.923879532511287 0.38268343236508945 0.0
  outer loop
    vertex 4.710769515458674 5.1499999999999995 7.0
    vertex 4.590889008453119 5.439417145876974 0.0
    vertex 4.590889008453119 5.439417145876974 7.0
  endloop
endfacet
facet normal 0.7933533402912349 0.6087614290087212 0.0
  outer loop
    vertex 4.710769515458674 5.1499999999999995 0.0
    vertex 4.901471862576144 4.901471862576143 7.0
    vertex 4.901471862576144 4.901471862576143 0.0
  endloop
endfacet
facet normal 0.7933533402912349 0.6087614290087212 0.0
  outer loop
    vertex 4.901471862576144 4.901471862576143 7.0
    vertex 4.710769515458674 5.1499999999999995 0.0
    vertex 4.710769515458674 5.1499999999999995 7.0
  endloop
endfacet
facet normal 0.6087614290087201 0.7933533402912358 0.0
  outer loop
    vertex 4.901471862576144 4.901471862576143 7.0
    vertex 5.150000000000001 4.710769515458673 0.0
    vertex 4.901471862576144 4.901471862576143 0.0
  endloop
endfacet
facet normal 0.6087614290087201 0.7933533402912358 0.0
  outer loop
    vertex 5.150000000000001 4.710769515458673 0.0
    vertex 4.901471862576144 4.901471862576143 7.0
    vertex 5.150000000000001 4.710769515458673 7.0
  endloop
endfacet
facet normal 0.38268343236508945 0.923879532511287 0.0
  outer loop
    vertex 5.150000000000001 4.710769515458673 7.0
    vertex 5.439417145876975 4.590889008453118 0.0
    vertex 5.150000000000001 4.710769515458673 0.0
  endloop
endfacet
facet normal 0.38268343236508945 0.923879532511287 0.0
  outer loop
    vertex 5.439417145876975 4.590889008453118 0.0
    vertex 5.150000000000001 4.710769515458673 7.0
    vertex 5.439417145876975 4.590889008453118 7.0
  endloop
endfacet
facet normal 0.13052619222005143 0.9914448613738105 0.0
  outer loop
    vertex 5.439417145876975 4.590889008453118 7.0
    vertex 5.75 4.55 0.0
    vertex 5.439417145876975 4.590889008453118 0.0
  endloop
endfacet
facet normal 0.13052619222005143 0.9914448613738105 0.0
  outer loop
    vertex 5.75 4.55 0.0
    vertex 5.439417145876975 4.590889008453118 7.0
    vertex 5.75 4.55 7.0
  endloop
endfacet
facet normal -0.13052619222005307 0.9914448613738104 -0.0
  outer loop
    vertex 5.75 4.55 7.0
    vertex 6.060582854123026 4.590889008453119 0.0
    vertex 5.75 4.55 0.0
  endloop
endfacet
facet normal -0.13052619222005307 0.9914448613738104 -0.0
  outer loop
    vertex 6.060582854123026 4.590889008453119 0.0
    vertex 5.75 4.55 7.0
    vertex 6.060582854123026 4.590889008453119 7.0
  endloop
endfacet
facet normal -0.3826834323650886 0.9238795325112873 -0.0
  outer loop
    vertex 6.060582854123026 4.590889008453119 7.0
    vertex 6.350000000000001 4.710769515458674 0.0
    vertex 6.060582854123026 4.590889008453119 0.0
  endloop
endfacet
facet normal -0.3826834323650886 0.9238795325112873 -0.0
  outer loop
    vertex 6.350000000000001 4.710769515458674 0.0
    vertex 6.060582854123026 4.590889008453119 7.0
    vertex 6.350000000000001 4.710769515458674 7.0
  endloop
endfacet
facet normal -0.6087614290087222 0.7933533402912342 -0.0
  outer loop
    vertex 6.350000000000001 4.710769515458674 7.0
    vertex 6.598528137423857 4.901471862576144 0.0
    vertex 6.350000000000001 4.710769515458674 0.0
  endloop
endfacet
facet normal -0.6087614290087222 0.7933533402912342 -0.0
  outer loop
    vertex 6.598528137423857 4.901471862576144 0.0
    vertex 6.350000000000001 4.710769515458674 7.0
    vertex 6.598528137423857 4.901471862576144 7.0
  endloop
endfacet
facet normal -0.7933533402912349 0.6087614290087212 -0.0
  outer loop
    vertex 6.789230484541327 5.15 7.0
    vertex 6.598528137423857 4.901471862576144 0.0
    vertex 6.598528137423857 4.901471862576144 7.0
  endloop
endfacet
facet normal -0.7933533402912349 0.6087614290087212 -0.0
  outer loop
    vertex 6.598528137423857 4.901471862576144 0.0
    vertex 6.789230484541327 5.15 7.0
    vertex 6.789230484541327 5.15 0.0
  endloop
endfacet
facet normal -0.9238795325112865 0.38268343236509056 -0.0
  outer loop
    vertex 6.909110991546883 5.439417145876975 7.0
    vertex 6.789230484541327 5.15 0.0
    vertex 6.789230484541327 5.15 7.0
  endloop
endfacet
facet normal -0.9238795325112865 0.38268343236509056 -0.0
  outer loop
    vertex 6.789230484541327 5.15 0.0
    vertex 6.909110991546883 5.439417145876975 7.0
    vertex 6.909110991546883 5.439417145876975 0.0
  endloop
endfacet
facet normal -0.9914448613738107 0.1305261922200492 -0.0
  outer loop
    vertex 6.95 5.75 7.0
    vertex 6.909110991546883 5.439417145876975 0.0
    vertex 6.909110991546883 5.439417145876975 7.0
  endloop
endfacet
facet normal -0.9914448613738107 0.1305261922200492 -0.0
  outer loop
    vertex 6.909110991546883 5.439417145876975 0.0
    vertex 6.95 5.75 7.0
    vertex 6.95 5.75 0.0
  endloop
endfacet
facet normal -0.9914448613738102 -0.13052619222005332 -0.0
  outer loop
    vertex 6.909110991546881 6.060582854123026 7.0
    vertex 6.95 5.75 0.0
    vertex 6.95 5.75 7.0
  endloop
endfacet
facet normal -0.9914448613738102 -0.13052619222005332 -0.0
  outer loop
    vertex 6.95 5.75 0.0
    vertex 6.909110991546881 6.060582854123026 7.0
    vertex 6.909110991546881 6.060582854123026 0.0
  endloop
endfacet
facet normal -0.9238795325112868 -0.3826834323650897 -0.0
  outer loop
    vertex 6.789230484541325 6.350000000000001 7.0
    vertex 6.909110991546881 6.060582854123026 0.0
    vertex 6.909110991546881 6.060582854123026 7.0
  endloop
endfacet
facet normal -0.9238795325112868 -0.3826834323650897 -0.0
  outer loop
    vertex 6.909110991546881 6.060582854123026 0.0
    vertex 6.789230484541325 6.350000000000001 7.0
    vertex 6.789230484541325 6.350000000000001 0.0
  endloop
endfacet
facet normal 3.6455785705963614e-31 -2.5954545764947584e-31 1.0
  outer loop
    vertex 4.9217790556719345 2.6590373558749807 7.0
    vertex 4.55 5.75 7.0
    vertex 4.150000000000002 2.978718707889795 7.0
  endloop
endfacet
facet normal 3.6455785705963614e-31 -2.5954545764947584e-31 1.0
  outer loop
    vertex 4.55 5.75 7.0
    vertex 4.9217790556719345 2.6590373558749807 7.0
    vertex 4.590889008453119 5.439417145876974 7.0
  endloop
endfacet
facet normal 3.6455785705963614e-31 -2.5954545764947584e-31 1.0
  outer loop
    vertex 4.590889008453119 5.439417145876974 7.0
    vertex 4.9217790556719345 2.6590373558749807 7.0
    vertex 4.710769515458674 5.1499999999999995 7.0
  endloop
endfacet
facet normal 3.6455785705963614e-31 -2.5954545764947584e-31 1.0
  outer loop
    vertex 4.710769515458674 5.1499999999999995 7.0
    vertex 4.9217790556719345 2.6590373558749807 7.0
    vertex 4.901471862576144 4.901471862576143 7.0
  endloop
endfacet
facet normal 3.6455785705963614e-31 -2.5954545764947584e-31 1.0
  outer loop
    vertex 4.901471862576144 4.901471862576143 7.0
    vertex 4.9217790556719345 2.6590373558749807 7.0
    vertex 5.150000000000001 4.710769515458673 7.0
  endloop
endfacet
facet normal 3.6455785705963614e-31 -2.5954545764947584e-31 1.0
  outer loop
    vertex 5.150000000000001 4.710769515458673 7.0
    vertex 4.9217790556719345 2.6590373558749807 7.0
    vertex 5.750000000000001 2.5499999999999994 7.0
  endloop
endfacet
facet normal 3.6455785705963614e-31 -2.5954545764947584e-31 1.0
  outer loop
    vertex 5.150000000000001 4.710769515458673 7.0
    vertex 5.750000000000001 2.5499999999999994 7.0
    vertex 5.439417145876975 4.590889008453118 7.0
  endloop
endfacet
facet normal 3.6455785705963614e-31 -2.5954545764947584e-31 1.0
  outer loop
    vertex 5.439417145876975 4.590889008453118 7.0
    vertex 5.750000000000001 2.5499999999999994 7.0
    vertex 5.75 4.55 7.0
  endloop
endfacet
facet normal 3.6455785705963614e-31 -2.5954545764947584e-31 1.0
  outer loop
    vertex 5.75 4.55 7.0
    vertex 5.750000000000001 2.5499999999999994 7.0
    vertex 6.060582854123026 4.590889008453119 7.0
  endloop
endfacet
facet normal 3.6455785705963614e-31 -2.5954545764947584e-31 1.0
  outer loop
    vertex 6.060582854123026 4.590889008453119 7.0
    vertex 5.750000000000001 2.5499999999999994 7.0
    vertex 6.578220944328069 2.6590373558749816 7.0
  endloop
endfacet
facet normal 3.6455785705963614e-31 -2.5954545764947584e-31 1.0
  outer loop
    vertex 6.060582854123026 4.590889008453119 7.0
    vertex 6.578220944328069 2.6590373558749816 7.0
    vertex 6.350000000000001 4.710769515458674 7.0
  endloop
endfacet
facet normal 3.6455785705963614e-31 -2.5954545764947584e-31 1.0
  outer loop
    vertex 6.350000000000001 4.710769515458674 7.0
    vertex 6.578220944328069 2.6590373558749816 7.0
    vertex 6.598528137423857 4.901471862576144 7.0
  endloop
endfacet
facet normal 3.6455785705963614e-31 -2.5954545764947584e-31 1.0
  outer loop
    vertex 6.598528137423857 4.901471862576144 7.0
    vertex 6.578220944328069 2.6590373558749816 7.0
    vertex 7.350000000000002 2.9787187078897968 7.0
  endloop
endfacet
facet normal 3.6455785705963614e-31 -2.5954545764947584e-31 1.0
  outer loop
    vertex 6.598528137423857 4.901471862576144 7.0
    vertex 7.350000000000002 2.9787187078897968 7.0
    vertex 6.789230484541327 5.15 7.0
  endloop
endfacet
facet normal 3.6455785705963614e-31 -2.5954545764947584e-31 1.0
  outer loop
    vertex 6.789230484541327 5.15 7.0
    vertex 7.350000000000002 2.9787187078897968 7.0
    vertex 6.909110991546883 5.439417145876975 7.0
  endloop
endfacet
facet normal 3.6455785705963614e-31 -2.5954545764947584e-31 1.0
  outer loop
    vertex 6.909110991546883 5.439417145876975 7.0
    vertex 7.350000000000002 2.9787187078897968 7.0
    vertex 6.95 5.75 7.0
  endloop
endfacet
facet normal 3.6455785705963614e-31 -2.5954545764947584e-31 1.0
  outer loop
    vertex 6.95 5.75 7.0
    vertex 7.350000000000002 2.9787187078897968 7.0
    vertex 7.35 8.521281292110205 7.0
  endloop
endfacet
facet normal 3.6455785705963614e-31 -2.5954545764947584e-31 1.0
  outer loop
    vertex 7.35 8.521281292110205 7.0
    vertex 7.350000000000002 2.9787187078897968 7.0
    vertex 8.012741699796951 8.012741699796953 7.0
  endloop
endfacet
facet normal 3.6455785705963614e-31 -2.5954545764947584e-31 1.0
  outer loop
    vertex 8.012741699796951 8.012741699796953 7.0
    vertex 7.350000000000002 2.9787187078897968 7.0
    vertex 8.012741699796955 3.4872583002030484 7.0
  endloop
endfacet
facet normal 3.6455785705963614e-31 -2.5954545764947584e-31 1.0
  outer loop
    vertex 8.012741699796951 8.012741699796953 7.0
    vertex 8.012741699796955 3.4872583002030484 7.0
    vertex 8.521281292110205 7.3500000000000005 7.0
  endloop
endfacet
facet normal 3.6455785705963614e-31 -2.5954545764947584e-31 1.0
  outer loop
    vertex 8.521281292110205 7.3500000000000005 7.0
    vertex 8.012741699796955 3.4872583002030484 7.0
    vertex 8.521281292110205 4.150000000000001 7.0
  endloop
endfacet
facet normal 3.6455785705963614e-31 -2.5954545764947584e-31 1.0
  outer loop
    vertex 8.521281292110205 7.3500000000000005 7.0
    vertex 8.521281292110205 4.150000000000001 7.0
    vertex 8.84096264412502 4.9217790556719345 7.0
  endloop
endfacet
facet normal 3.6455785705963614e-31 -2.5954545764947584e-31 1.0
  outer loop
    vertex 8.521281292110205 7.3500000000000005 7.0
    vertex 8.84096264412502 4.9217790556719345 7.0
    vertex 8.840962644125018 6.578220944328067 7.0
  endloop
endfacet
facet normal 3.6455785705963614e-31 -2.5954545764947584e-31 1.0
  outer loop
    vertex 8.840962644125018 6.578220944328067 7.0
    vertex 8.84096264412502 4.9217790556719345 7.0
    vertex 8.950000000000001 5.750000000000001 7.0
  endloop
endfacet
facet normal 3.6455785705963614e-31 -2.5954545764947584e-31 1.0
  outer loop
    vertex 2.6590373558749816 4.921779055671931 7.0
    vertex 2.659037355874981 6.578220944328066 7.0
    vertex 2.5499999999999994 5.75 7.0
  endloop
endfacet
facet normal 3.6455785705963614e-31 -2.5954545764947584e-31 1.0
  outer loop
    vertex 2.659037355874981 6.578220944328066 7.0
    vertex 2.6590373558749816 4.921779055671931 7.0
    vertex 2.978718707889796 7.3500000000000005 7.0
  endloop
endfacet
facet normal 3.6455785705963614e-31 -2.5954545764947584e-31 1.0
  outer loop
    vertex 2.978718707889796 7.3500000000000005 7.0
    vertex 2.6590373558749816 4.921779055671931 7.0
    vertex 2.9787187078897968 4.149999999999998 7.0
  endloop
endfacet
facet normal 3.6455785705963614e-31 -2.5954545764947584e-31 1.0
  outer loop
    vertex 2.978718707889796 7.3500000000000005 7.0
    vertex 2.9787187078897968 4.149999999999998 7.0
    vertex 3.487258300203047 8.012741699796953 7.0
  endloop
endfacet
facet normal 3.6455785705963614e-31 -2.5954545764947584e-31 1.0
  outer loop
    vertex 3.487258300203047 8.012741699796953 7.0
    vertex 2.9787187078897968 4.149999999999998 7.0
    vertex 3.4872583002030484 3.487258300203047 7.0
  endloop
endfacet
facet normal 3.6455785705963614e-31 -2.5954545764947584e-31 1.0
  outer loop
    vertex 3.487258300203047 8.012741699796953 7.0
    vertex 3.4872583002030484 3.487258300203047 7.0
    vertex 4.1499999999999995 8.521281292110205 7.0
  endloop
endfacet
facet normal 3.6455785705963614e-31 -2.5954545764947584e-31 1.0
  outer loop
    vertex 4.1499999999999995 8.521281292110205 7.0
    vertex 3.4872583002030484 3.487258300203047 7.0
    vertex 4.150000000000002 2.978718707889795 7.0
  endloop
endfacet
facet normal 3.6455785705963614e-31 -2.5954545764947584e-31 1.0
  outer loop
    vertex 4.1499999999999995 8.521281292110205 7.0
    vertex 4.150000000000002 2.978718707889795 7.0
    vertex 4.921779055671933 8.840962644125018 7.0
  endloop
endfacet
facet normal 3.6455785705963614e-31 -2.5954545764947584e-31 1.0
  outer loop
    vertex 4.921779055671933 8.840962644125018 7.0
    vertex 4.150000000000002 2.978718707889795 7.0
    vertex 4.55 5.75 7.0
  endloop
endfacet
facet normal 3.6455785705963614e-31 -2.5954545764947584e-31 1.0
  outer loop
    vertex 4.921779055671933 8.840962644125018 7.0
    vertex 4.55 5.75 7.0
    vertex 4.590889008453118 6.060582854123025 7.0
  endloop
endfacet
facet normal 3.6455785705963614e-31 -2.5954545764947584e-31 1.0
  outer loop
    vertex 4.921779055671933 8.840962644125018 7.0
    vertex 4.590889008453118 6.060582854123025 7.0
    vertex 4.710769515458674 6.35 7.0
  endloop
endfacet
facet normal 3.6455785705963614e-31 -2.5954545764947584e-31 1.0
  outer loop
    vertex 4.921779055671933 8.840962644125018 7.0
    vertex 4.710769515458674 6.35 7.0
    vertex 4.901471862576143 6.598528137423857 7.0
  endloop
endfacet
facet normal 3.6455785705963614e-31 -2.5954545764947584e-31 1.0
  outer loop
    vertex 4.921779055671933 8.840962644125018 7.0
    vertex 4.901471862576143 6.598528137423857 7.0
    vertex 5.1499999999999995 6.789230484541325 7.0
  endloop
endfacet
facet normal 3.6455785705963614e-31 -2.5954545764947584e-31 1.0
  outer loop
    vertex 4.921779055671933 8.840962644125018 7.0
    vertex 5.1499999999999995 6.789230484541325 7.0
    vertex 5.75 8.950000000000001 7.0
  endloop
endfacet
facet normal 3.6455785705963614e-31 -2.5954545764947584e-31 1.0
  outer loop
    vertex 5.75 8.950000000000001 7.0
    vertex 5.1499999999999995 6.789230484541325 7.0
    vertex 5.439417145876975 6.909110991546881 7.0
  endloop
endfacet
facet normal 3.6455785705963614e-31 -2.5954545764947584e-31 1.0
  outer loop
    vertex 5.75 8.950000000000001 7.0
    vertex 5.439417145876975 6.909110991546881 7.0
    vertex 5.75 6.95 7.0
  endloop
endfacet
facet normal 3.6455785705963614e-31 -2.5954545764947584e-31 1.0
  outer loop
    vertex 5.75 8.950000000000001 7.0
    vertex 5.75 6.95 7.0
    vertex 6.060582854123025 6.909110991546883 7.0
  endloop
endfacet
facet normal 3.6455785705963614e-31 -2.5954545764947584e-31 1.0
  outer loop
    vertex 5.75 8.950000000000001 7.0
    vertex 6.060582854123025 6.909110991546883 7.0
    vertex 6.578220944328066 8.840962644125018 7.0
  endloop
endfacet
facet normal 3.6455785705963614e-31 -2.5954545764947584e-31 1.0
  outer loop
    vertex 6.578220944328066 8.840962644125018 7.0
    vertex 6.060582854123025 6.909110991546883 7.0
    vertex 6.35 6.789230484541327 7.0
  endloop
endfacet
facet normal 3.6455785705963614e-31 -2.5954545764947584e-31 1.0
  outer loop
    vertex 6.578220944328066 8.840962644125018 7.0
    vertex 6.35 6.789230484541327 7.0
    vertex 6.598528137423857 6.598528137423857 7.0
  endloop
endfacet
facet normal 3.6455785705963614e-31 -2.5954545764947584e-31 1.0
  outer loop
    vertex 6.578220944328066 8.840962644125018 7.0
    vertex 6.598528137423857 6.598528137423857 7.0
    vertex 7.35 8.521281292110205 7.0
  endloop
endfacet
facet normal 3.6455785705963614e-31 -2.5954545764947584e-31 1.0
  outer loop
    vertex 7.35 8.521281292110205 7.0
    vertex 6.598528137423857 6.598528137423857 7.0
    vertex 6.789230484541325 6.350000000000001 7.0
  endloop
endfacet
facet normal 3.6455785705963614e-31 -2.5954545764947584e-31 1.0
  outer loop
    vertex 7.35 8.521281292110205 7.0
    vertex 6.789230484541325 6.350000000000001 7.0
    vertex 6.909110991546881 6.060582854123026 7.0
  endloop
endfacet
facet normal 3.6455785705963614e-31 -2.5954545764947584e-31 1.0
  outer loop
    vertex 7.35 8.521281292110205 7.0
    vertex 6.909110991546881 6.060582854123026 7.0
    vertex 6.95 5.75 7.0
  endloop
endfacet
facet normal -0.7933533402912349 -0.6087614290087209 1.3736032702158749e-18
  outer loop
    vertex 8.012741699796951 8.012741699796953 9.999999999999998
    vertex 8.521281292110205 7.3500000000000005 7.0
    vertex 8.521281292110205 7.3500000000000005 10.0
  endloop
endfacet
facet normal -0.7933533402912349 -0.6087614290087209 1.3736032702158749e-18
  outer loop
    vertex 8.521281292110205 7.3500000000000005 7.0
    vertex 8.012741699796951 8.012741699796953 9.999999999999998
    vertex 8.012741699796951 8.012741699796953 7.0
  endloop
endfacet
facet normal -0.6087614290087198 -0.7933533402912358 0.0
  outer loop
    vertex 8.012741699796951 8.012741699796953 9.999999999999998
    vertex 7.35 8.521281292110205 7.0
    vertex 8.012741699796951 8.012741699796953 7.0
  endloop
endfacet
facet normal -0.6087614290087198 -0.7933533402912358 0.0
  outer loop
    vertex 7.35 8.521281292110205 7.0
    vertex 8.012741699796951 8.012741699796953 9.999999999999998
    vertex 7.35 8.521281292110205 9.999999999999998
  endloop
endfacet
facet normal -0.38268343236508967 -0.923879532511287 -1.0027848404338246e-31
  outer loop
    vertex 7.35 8.521281292110205 9.999999999999998
    vertex 6.578220944328066 8.840962644125018 7.0
    vertex 7.35 8.521281292110205 7.0
  endloop
endfacet
facet normal -0.38268343236508967 -0.923879532511287 -1.0027848404338246e-31
  outer loop
    vertex 6.578220944328066 8.840962644125018 7.0
    vertex 7.35 8.521281292110205 9.999999999999998
    vertex 6.578220944328066 8.840962644125018 9.999999999999998
  endloop
endfacet
facet normal -0.13052619222005246 -0.9914448613738103 -2.0974066135359023e-31
  outer loop
    vertex 6.578220944328066 8.840962644125018 9.999999999999998
    vertex 5.75 8.950000000000001 7.0
    vertex 6.578220944328066 8.840962644125018 7.0
  endloop
endfacet
facet normal -0.13052619222005246 -0.9914448613738103 -2.0974066135359023e-31
  outer loop
    vertex 5.75 8.950000000000001 7.0
    vertex 6.578220944328066 8.840962644125018 9.999999999999998
    vertex 5.75 8.950000000000001 9.999999999999998
  endloop
endfacet
facet normal 0.13052619222005227 -0.9914448613738104 -3.049093592053832e-31
  outer loop
    vertex 5.75 8.950000000000001 9.999999999999998
    vertex 4.921779055671933 8.840962644125018 7.0
    vertex 5.75 8.950000000000001 7.0
  endloop
endfacet
facet normal 0.13052619222005227 -0.9914448613738104 -3.049093592053832e-31
  outer loop
    vertex 4.921779055671933 8.840962644125018 7.0
    vertex 5.75 8.950000000000001 9.999999999999998
    vertex 4.921779055671933 8.840962644125018 9.999999999999998
  endloop
endfacet
facet normal 0.38268343236508967 -0.923879532511287 -3.7929898811386903e-31
  outer loop
    vertex 4.921779055671933 8.840962644125018 9.999999999999998
    vertex 4.1499999999999995 8.521281292110205 7.0
    vertex 4.921779055671933 8.840962644125018 7.0
  endloop
endfacet
facet normal 0.38268343236508967 -0.923879532511287 -3.7929898811386903e-31
  outer loop
    vertex 4.1499999999999995 8.521281292110205 7.0
    vertex 4.921779055671933 8.840962644125018 9.999999999999998
    vertex 4.1499999999999995 8.521281292110205 9.999999999999998
  endloop
endfacet
facet normal 0.6087614290087198 -0.7933533402912358 -4.278400178036099e-31
  outer loop
    vertex 4.1499999999999995 8.521281292110205 9.999999999999998
    vertex 3.487258300203047 8.012741699796953 7.0
    vertex 4.1499999999999995 8.521281292110205 7.0
  endloop
endfacet
facet normal 0.6087614290087198 -0.7933533402912358 -4.278400178036099e-31
  outer loop
    vertex 3.487258300203047 8.012741699796953 7.0
    vertex 4.1499999999999995 8.521281292110205 9.999999999999998
    vertex 3.487258300203047 8.012741699796953 9.999999999999998
  endloop
endfacet
facet normal 0.7933533402912358 -0.6087614290087201 -4.472244573190943e-31
  outer loop
    vertex 3.487258300203047 8.012741699796953 7.0
    vertex 2.978718707889796 7.3500000000000005 9.999999999999998
    vertex 2.978718707889796 7.3500000000000005 7.0
  endloop
endfacet
facet normal 0.7933533402912358 -0.6087614290087201 -4.472244573190943e-31
  outer loop
    vertex 2.978718707889796 7.3500000000000005 9.999999999999998
    vertex 3.487258300203047 8.012741699796953 7.0
    vertex 3.487258300203047 8.012741699796953 9.999999999999998
  endloop
endfacet
facet normal 0.9238795325112871 -0.3826834323650894 -4.361312891416426e-31
  outer loop
    vertex 2.978718707889796 7.3500000000000005 7.0
    vertex 2.659037355874981 6.578220944328066 9.999999999999998
    vertex 2.659037355874981 6.578220944328066 7.0
  endloop
endfacet
facet normal 0.9238795325112871 -0.3826834323650894 -4.361312891416426e-31
  outer loop
    vertex 2.659037355874981 6.578220944328066 9.999999999999998
    vertex 2.978718707889796 7.3500000000000005 7.0
    vertex 2.978718707889796 7.3500000000000005 9.999999999999998
  endloop
endfacet
facet normal 0.9914448613738104 -0.13052619222005166 -3.9531649435022105e-31
  outer loop
    vertex 2.659037355874981 6.578220944328066 7.0
    vertex 2.5499999999999994 5.75 9.999999999999998
    vertex 2.5499999999999994 5.75 7.0
  endloop
endfacet
facet normal 0.9914448613738104 -0.13052619222005166 -3.9531649435022105e-31
  outer loop
    vertex 2.5499999999999994 5.75 9.999999999999998
    vertex 2.659037355874981 6.578220944328066 7.0
    vertex 2.659037355874981 6.578220944328066 9.999999999999998
  endloop
endfacet
facet normal 0.9914448613738105 0.13052619222005205 -3.2756153376022753e-31
  outer loop
    vertex 2.5499999999999994 5.75 7.0
    vertex 2.6590373558749816 4.921779055671931 9.999999999999998
    vertex 2.6590373558749816 4.921779055671931 7.0
  endloop
endfacet
facet normal 0.9914448613738105 0.13052619222005205 -3.2756153376022753e-31
  outer loop
    vertex 2.6590373558749816 4.921779055671931 9.999999999999998
    vertex 2.5499999999999994 5.75 7.0
    vertex 2.5499999999999994 5.75 9.999999999999998
  endloop
endfacet
facet normal 0.9238795325112867 0.3826834323650904 -2.374837959655035e-31
  outer loop
    vertex 2.6590373558749816 4.921779055671931 7.0
    vertex 2.9787187078897968 4.149999999999998 9.999999999999998
    vertex 2.9787187078897968 4.149999999999998 7.0
  endloop
endfacet
facet normal 0.9238795325112867 0.3826834323650904 -2.374837959655035e-31
  outer loop
    vertex 2.9787187078897968 4.149999999999998 9.999999999999998
    vertex 2.6590373558749816 4.921779055671931 7.0
    vertex 2.6590373558749816 4.921779055671931 9.999999999999998
  endloop
endfacet
facet normal 0.7933533402912348 0.6087614290087211 -0.0
  outer loop
    vertex 2.9787187078897968 4.149999999999998 7.0
    vertex 3.4872583002030484 3.487258300203047 9.999999999999998
    vertex 3.4872583002030484 3.487258300203047 7.0
  endloop
endfacet
facet normal 0.7933533402912348 0.6087614290087211 -0.0
  outer loop
    vertex 3.4872583002030484 3.487258300203047 9.999999999999998
    vertex 2.9787187078897968 4.149999999999998 7.0
    vertex 2.9787187078897968 4.149999999999998 9.999999999999998
  endloop
endfacet
facet normal 0.6087614290087201 0.7933533402912357 -3.9491317605558806e-18
  outer loop
    vertex 3.4872583002030484 3.487258300203047 9.999999999999998
    vertex 4.150000000000002 2.978718707889795 7.0
    vertex 3.4872583002030484 3.487258300203047 7.0
  endloop
endfacet
facet normal 0.6087614290087201 0.7933533402912357 -3.9491317605558806e-18
  outer loop
    vertex 4.150000000000002 2.978718707889795 7.0
    vertex 3.4872583002030484 3.487258300203047 9.999999999999998
    vertex 4.150000000000002 2.978718707889795 10.0
  endloop
endfacet
facet normal 0.3826834323650895 0.9238795325112868 1.0027848404338248e-31
  outer loop
    vertex 4.150000000000002 2.978718707889795 10.0
    vertex 4.9217790556719345 2.6590373558749807 7.0
    vertex 4.150000000000002 2.978718707889795 7.0
  endloop
endfacet
facet normal 0.3826834323650895 0.9238795325112868 1.0027848404338248e-31
  outer loop
    vertex 4.9217790556719345 2.6590373558749807 7.0
    vertex 4.150000000000002 2.978718707889795 10.0
    vertex 4.9217790556719345 2.6590373558749807 10.0
  endloop
endfacet
facet normal 0.13052619222005124 0.9914448613738106 2.0974066135359076e-31
  outer loop
    vertex 4.9217790556719345 2.6590373558749807 10.0
    vertex 5.750000000000001 2.5499999999999994 7.0
    vertex 4.9217790556719345 2.6590373558749807 7.0
  endloop
endfacet
facet normal 0.13052619222005124 0.9914448613738106 2.0974066135359076e-31
  outer loop
    vertex 5.750000000000001 2.5499999999999994 7.0
    vertex 4.9217790556719345 2.6590373558749807 10.0
    vertex 5.750000000000001 2.5499999999999994 10.0
  endloop
endfacet
facet normal -0.13052619222005216 0.9914448613738105 3.0490935920538314e-31
  outer loop
    vertex 5.750000000000001 2.5499999999999994 10.0
    vertex 6.578220944328069 2.6590373558749816 7.0
    vertex 5.750000000000001 2.5499999999999994 7.0
  endloop
endfacet
facet normal -0.13052619222005216 0.9914448613738105 3.0490935920538314e-31
  outer loop
    vertex 6.578220944328069 2.6590373558749816 7.0
    vertex 5.750000000000001 2.5499999999999994 10.0
    vertex 6.578220944328069 2.6590373558749816 10.0
  endloop
endfacet
facet normal -0.3826834323650904 0.9238795325112867 3.792989881138693e-31
  outer loop
    vertex 6.578220944328069 2.6590373558749816 10.0
    vertex 7.350000000000002 2.9787187078897968 7.0
    vertex 6.578220944328069 2.6590373558749816 7.0
  endloop
endfacet
facet normal -0.3826834323650904 0.9238795325112867 3.792989881138693e-31
  outer loop
    vertex 7.350000000000002 2.9787187078897968 7.0
    vertex 6.578220944328069 2.6590373558749816 10.0
    vertex 7.350000000000002 2.9787187078897968 10.0
  endloop
endfacet
facet normal -0.6087614290087203 0.7933533402912354 4.278400178036099e-31
  outer loop
    vertex 7.350000000000002 2.9787187078897968 10.0
    vertex 8.012741699796955 3.4872583002030484 7.0
    vertex 7.350000000000002 2.9787187078897968 7.0
  endloop
endfacet
facet normal -0.6087614290087203 0.7933533402912354 4.278400178036099e-31
  outer loop
    vertex 8.012741699796955 3.4872583002030484 7.0
    vertex 7.350000000000002 2.9787187078897968 10.0
    vertex 8.012741699796955 3.4872583002030484 10.0
  endloop
endfacet
facet normal -0.7933533402912368 0.6087614290087188 4.472244573190944e-31
  outer loop
    vertex 8.521281292110205 4.150000000000001 10.0
    vertex 8.012741699796955 3.4872583002030484 7.0
    vertex 8.012741699796955 3.4872583002030484 10.0
  endloop
endfacet
facet normal -0.7933533402912368 0.6087614290087188 4.472244573190944e-31
  outer loop
    vertex 8.012741699796955 3.4872583002030484 7.0
    vertex 8.521281292110205 4.150000000000001 10.0
    vertex 8.521281292110205 4.150000000000001 7.0
  endloop
endfacet
facet normal -0.9238795325112864 0.3826834323650907 4.361312891416427e-31
  outer loop
    vertex 8.84096264412502 4.9217790556719345 10.0
    vertex 8.521281292110205 4.150000000000001 7.0
    vertex 8.521281292110205 4.150000000000001 10.0
  endloop
endfacet
facet normal -0.9238795325112864 0.3826834323650907 4.361312891416427e-31
  outer loop
    vertex 8.521281292110205 4.150000000000001 7.0
    vertex 8.84096264412502 4.9217790556719345 10.0
    vertex 8.84096264412502 4.9217790556719345 7.0
  endloop
endfacet
facet normal -0.9914448613738106 0.13052619222005082 3.953164943502209e-31
  outer loop
    vertex 8.950000000000001 5.750000000000001 10.0
    vertex 8.84096264412502 4.9217790556719345 7.0
    vertex 8.84096264412502 4.9217790556719345 10.0
  endloop
endfacet
facet normal -0.9914448613738106 0.13052619222005082 3.953164943502209e-31
  outer loop
    vertex 8.84096264412502 4.9217790556719345 7.0
    vertex 8.950000000000001 5.750000000000001 10.0
    vertex 8.950000000000001 5.750000000000001 7.0
  endloop
endfacet
facet normal -0.9914448613738104 -0.13052619222005238 3.275615337602274e-31
  outer loop
    vertex 8.840962644125018 6.578220944328067 10.0
    vertex 8.950000000000001 5.750000000000001 7.0
    vertex 8.950000000000001 5.750000000000001 10.0
  endloop
endfacet
facet normal -0.9914448613738104 -0.13052619222005238 3.275615337602274e-31
  outer loop
    vertex 8.950000000000001 5.750000000000001 7.0
    vertex 8.840962644125018 6.578220944328067 10.0
    vertex 8.840962644125018 6.578220944328067 7.0
  endloop
endfacet
facet normal -0.923879532511287 -0.38268343236508967 2.374837959655038e-31
  outer loop
    vertex 8.521281292110205 7.3500000000000005 10.0
    vertex 8.840962644125018 6.578220944328067 7.0
    vertex 8.840962644125018 6.578220944328067 10.0
  endloop
endfacet
facet normal -0.923879532511287 -0.38268343236508967 2.374837959655038e-31
  outer loop
    vertex 8.840962644125018 6.578220944328067 7.0
    vertex 8.521281292110205 7.3500000000000005 10.0
    vertex 8.521281292110205 7.3500000000000005 7.0
  endloop
endfacet
facet normal -1.8834525077030136e-16 1.8834525077030124e-16 1.0
  outer loop
    vertex 1.5 1.5 9.999999999999998
    vertex 4.150000000000002 2.978718707889795 10.0
    vertex 3.4872583002030484 3.487258300203047 9.999999999999998
  endloop
endfacet
facet normal -1.8834525077030136e-16 1.8834525077030124e-16 1.0
  outer loop
    vertex 4.150000000000002 2.978718707889795 10.0
    vertex 1.5 1.5 9.999999999999998
    vertex 4.9217790556719345 2.6590373558749807 10.0
  endloop
endfacet
facet normal -1.8834525077030136e-16 1.8834525077030124e-16 1.0
  outer loop
    vertex 4.9217790556719345 2.6590373558749807 10.0
    vertex 1.5 1.5 9.999999999999998
    vertex 10.0 1.5 10.0
  endloop
endfacet
facet normal -1.8834525077030136e-16 1.8834525077030124e-16 1.0
  outer loop
    vertex 4.9217790556719345 2.6590373558749807 10.0
    vertex 10.0 1.5 10.0
    vertex 5.750000000000001 2.5499999999999994 10.0
  endloop
endfacet
facet normal -1.8834525077030136e-16 1.8834525077030124e-16 1.0
  outer loop
    vertex 5.750000000000001 2.5499999999999994 10.0
    vertex 10.0 1.5 10.0
    vertex 6.578220944328069 2.6590373558749816 10.0
  endloop
endfacet
facet normal -1.8834525077030136e-16 1.8834525077030124e-16 1.0
  outer loop
    vertex 6.578220944328069 2.6590373558749816 10.0
    vertex 10.0 1.5 10.0
    vertex 7.350000000000002 2.9787187078897968 10.0
  endloop
endfacet
facet normal -1.8834525077030136e-16 1.8834525077030124e-16 1.0
  outer loop
    vertex 7.350000000000002 2.9787187078897968 10.0
    vertex 10.0 1.5 10.0
    vertex 8.012741699796955 3.4872583002030484 10.0
  endloop
endfacet
facet normal -1.8834525077030136e-16 1.8834525077030124e-16 1.0
  outer loop
    vertex 8.012741699796955 3.4872583002030484 10.0
    vertex 10.0 1.5 10.0
    vertex 8.521281292110205 4.150000000000001 10.0
  endloop
endfacet
facet normal -1.8834525077030136e-16 1.8834525077030124e-16 1.0
  outer loop
    vertex 8.521281292110205 4.150000000000001 10.0
    vertex 10.0 1.5 10.0
    vertex 8.84096264412502 4.9217790556719345 10.0
  endloop
endfacet
facet normal -1.8834525077030136e-16 1.8834525077030124e-16 1.0
  outer loop
    vertex 8.84096264412502 4.9217790556719345 10.0
    vertex 10.0 1.5 10.0
    vertex 8.950000000000001 5.750000000000001 10.0
  endloop
endfacet
facet normal -1.8834525077030136e-16 1.8834525077030124e-16 1.0
  outer loop
    vertex 8.521281292110205 7.3500000000000005 10.0
    vertex 10.0 10.0 9.999999999999998
    vertex 8.012741699796951 8.012741699796953 9.999999999999998
  endloop
endfacet
facet normal -1.8834525077030136e-16 1.8834525077030124e-16 1.0
  outer loop
    vertex 10.0 10.0 9.999999999999998
    vertex 8.521281292110205 7.3500000000000005 10.0
    vertex 8.840962644125018 6.578220944328067 10.0
  endloop
endfacet
facet normal -1.8834525077030136e-16 1.8834525077030124e-16 1.0
  outer loop
    vertex 10.0 10.0 9.999999999999998
    vertex 8.840962644125018 6.578220944328067 10.0
    vertex 8.950000000000001 5.750000000000001 10.0
  endloop
endfacet
facet normal -1.8834525077030136e-16 1.8834525077030124e-16 1.0
  outer loop
    vertex 10.0 10.0 9.999999999999998
    vertex 8.950000000000001 5.750000000000001 10.0
    vertex 10.0 1.5 10.0
  endloop
endfacet
endsolid mb_corner
