solid mb_spacer
facet normal 0.0 0.0 -1.0
  outer loop
    vertex -1.5529142706151222 5.79555495773441 0.0
    vertex -2.3 4.225031457058368e-16 0.0
    vertex -2.9999999999999982 5.196152422706632 0.0
  endloop
endfacet
facet normal 0.0 0.0 -1.0
  outer loop
    vertex -2.3 4.225031457058368e-16 0.0
    vertex -1.5529142706151222 5.79555495773441 0.0
    vertex -2.221629400464856 0.5952838037357994 0.0
  endloop
endfacet
facet normal 0.0 0.0 -1.0
  outer loop
    vertex -2.221629400464856 0.5952838037357994 0.0
    vertex -1.5529142706151222 5.79555495773441 0.0
    vertex -1.991858428704208 1.1500000000000008 0.0
  endloop
endfacet
facet normal 0.0 0.0 -1.0
  outer loop
    vertex -1.991858428704208 1.1500000000000008 0.0
    vertex -1.5529142706151222 5.79555495773441 0.0
    vertex -1.626345596729058 1.6263455967290599 0.0
  endloop
endfacet
facet normal 0.0 0.0 -1.0
  outer loop
    vertex -1.626345596729058 1.6263455967290599 0.0
    vertex -1.5529142706151222 5.79555495773441 0.0
    vertex -1.149999999999999 1.991858428704209 0.0
  endloop
endfacet
facet normal 0.0 0.0 -1.0
  outer loop
    vertex -1.149999999999999 1.991858428704209 0.0
    vertex -1.5529142706151222 5.79555495773441 0.0
    vertex 7.34788079488412e-16 6.0 0.0
  endloop
endfacet
facet normal 0.0 0.0 -1.0
  outer loop
    vertex -1.149999999999999 1.991858428704209 0.0
    vertex 7.34788079488412e-16 6.0 0.0
    vertex -0.5952838037357968 2.2216294004648574 0.0
  endloop
endfacet
facet normal 0.0 0.0 -1.0
  outer loop
    vertex -0.5952838037357968 2.2216294004648574 0.0
    vertex 7.34788079488412e-16 6.0 0.0
    vertex 2.8166876380389116e-16 2.3 0.0
  endloop
endfacet
facet normal 0.0 0.0 -1.0
  outer loop
    vertex 2.8166876380389116e-16 2.3 0.0
    vertex 7.34788079488412e-16 6.0 0.0
    vertex 0.5952838037357983 2.2216294004648565 0.0
  endloop
endfacet
facet normal 0.0 0.0 -1.0
  outer loop
    vertex 0.5952838037357983 2.2216294004648565 0.0
    vertex 7.34788079488412e-16 6.0 0.0
    vertex 1.5529142706151262 5.795554957734409 0.0
  endloop
endfacet
facet normal 0.0 0.0 -1.0
  outer loop
    vertex 0.5952838037357983 2.2216294004648565 0.0
    vertex 1.5529142706151262 5.795554957734409 0.0
    vertex 1.1500000000000006 1.991858428704208 0.0
  endloop
endfacet
facet normal 0.0 0.0 -1.0
  outer loop
    vertex 1.1500000000000006 1.991858428704208 0.0
    vertex 1.5529142706151262 5.795554957734409 0.0
    vertex 1.6263455967290592 1.6263455967290588 0.0
  endloop
endfacet
facet normal 0.0 0.0 -1.0
  outer loop
    vertex 1.6263455967290592 1.6263455967290588 0.0
    vertex 1.5529142706151262 5.795554957734409 0.0
    vertex 3.000000000000002 5.196152422706631 0.0
  endloop
endfacet
facet normal 0.0 0.0 -1.0
  outer loop
    vertex 1.6263455967290592 1.6263455967290588 0.0
    vertex 3.000000000000002 5.196152422706631 0.0
    vertex 1.991858428704209 1.1499999999999992 0.0
  endloop
endfacet
facet normal 0.0 0.0 -1.0
  outer loop
    vertex 1.991858428704209 1.1499999999999992 0.0
    vertex 3.000000000000002 5.196152422706631 0.0
    vertex 2.221629400464857 0.5952838037357974 0.0
  endloop
endfacet
facet normal 0.0 0.0 -1.0
  outer loop
    vertex 2.221629400464857 0.5952838037357974 0.0
    vertex 3.000000000000002 5.196152422706631 0.0
    vertex 2.3 -1.4083438190194558e-16 0.0
  endloop
endfacet
facet normal 0.0 0.0 -1.0
  outer loop
    vertex 2.3 -1.4083438190194558e-16 0.0
    vertex 3.000000000000002 5.196152422706631 0.0
    vertex 3.0 -5.196152422706631 0.0
  endloop
endfacet
facet normal 0.0 0.0 -1.0
  outer loop
    vertex 3.0 -5.196152422706631 0.0
    vertex 3.000000000000002 5.196152422706631 0.0
    vertex 4.242640687119286 -4.242640687119285 0.0
  endloop
endfacet
facet normal 0.0 0.0 -1.0
  outer loop
    vertex 4.242640687119286 -4.242640687119285 0.0
    vertex 3.000000000000002 5.196152422706631 0.0
    vertex 4.242640687119286 4.242640687119285 0.0
  endloop
endfacet
facet normal 0.0 0.0 -1.0
  outer loop
    vertex 4.242640687119286 -4.242640687119285 0.0
    vertex 4.242640687119286 4.242640687119285 0.0
    vertex 5.196152422706632 2.9999999999999982 0.0
  endloop
endfacet
facet normal 0.0 0.0 -1.0
  outer loop
    vertex 4.242640687119286 -4.242640687119285 0.0
    vertex 5.196152422706632 2.9999999999999982 0.0
    vertex 5.196152422706631 -3.0000000000000004 0.0
  endloop
endfacet
facet normal 0.0 0.0 -1.0
  outer loop
    vertex 5.196152422706631 -3.0000000000000004 0.0
    vertex 5.196152422706632 2.9999999999999982 0.0
    vertex 5.79555495773441 -1.5529142706151258 0.0
  endloop
endfacet
facet normal 0.0 0.0 -1.0
  outer loop
    vertex 5.79555495773441 -1.5529142706151258 0.0
    vertex 5.196152422706632 2.9999999999999982 0.0
    vertex 5.79555495773441 1.5529142706151238 0.0
  endloop
endfacet
facet normal 0.0 0.0 -1.0
  outer loop
    vertex 5.79555495773441 -1.5529142706151258 0.0
    vertex 5.79555495773441 1.5529142706151238 0.0
    vertex 6.0 -3.6739403974420594e-16 0.0
  endloop
endfacet
facet normal 0.0 0.0 -1.0
  outer loop
    vertex -5.795554957734409 1.552914270615129 0.0
    vertex -5.79555495773441 -1.5529142706151216 0.0
    vertex -6.0 1.1021821192326177e-15 0.0
  endloop
endfacet
facet normal 0.0 0.0 -1.0
  outer loop
    vertex -5.79555495773441 -1.5529142706151216 0.0
    vertex -5.795554957734409 1.552914270615129 0.0
    vertex -5.196152422706635 -2.9999999999999956 0.0
  endloop
endfacet
facet normal 0.0 0.0 -1.0
  outer loop
    vertex -5.196152422706635 -2.9999999999999956 0.0
    vertex -5.795554957734409 1.552914270615129 0.0
    vertex -5.196152422706631 3.0000000000000027 0.0
  endloop
endfacet
facet normal 0.0 0.0 -1.0
  outer loop
    vertex -5.196152422706635 -2.9999999999999956 0.0
    vertex -5.196152422706631 3.0000000000000027 0.0
    vertex -4.2426406871192865 -4.242640687119284 0.0
  endloop
endfacet
facet normal 0.0 0.0 -1.0
  outer loop
    vertex -4.2426406871192865 -4.242640687119284 0.0
    vertex -5.196152422706631 3.0000000000000027 0.0
    vertex -4.242640687119283 4.242640687119287 0.0
  endloop
endfacet
facet normal 0.0 0.0 -1.0
  outer loop
    vertex -4.2426406871192865 -4.242640687119284 0.0
    vertex -4.242640687119283 4.242640687119287 0.0
    vertex -3.000000000000003 -5.19615242270663 0.0
  endloop
endfacet
facet normal 0.0 0.0 -1.0
  outer loop
    vertex -3.000000000000003 -5.19615242270663 0.0
    vertex -4.242640687119283 4.242640687119287 0.0
    vertex -2.9999999999999982 5.196152422706632 0.0
  endloop
endfacet
facet normal 0.0 0.0 -1.0
  outer loop
    vertex -3.000000000000003 -5.19615242270663 0.0
    vertex -2.9999999999999982 5.196152422706632 0.0
    vertex -1.5529142706151295 -5.795554957734408 0.0
  endloop
endfacet
facet normal 0.0 0.0 -1.0
  outer loop
    vertex -1.5529142706151295 -5.795554957734408 0.0
    vertex -2.9999999999999982 5.196152422706632 0.0
    vertex -2.3 4.225031457058368e-16 0.0
  endloop
endfacet
facet normal 0.0 0.0 -1.0
  outer loop
    vertex -1.5529142706151295 -5.795554957734408 0.0
    vertex -2.3 4.225031457058368e-16 0.0
    vertex -2.2216294004648574 -0.5952838037357966 0.0
  endloop
endfacet
facet normal 0.0 0.0 -1.0
  outer loop
    vertex -1.5529142706151295 -5.795554957734408 0.0
    vertex -2.2216294004648574 -0.5952838037357966 0.0
    vertex -1.9918584287042096 -1.1499999999999981 0.0
  endloop
endfacet
facet normal 0.0 0.0 -1.0
  outer loop
    vertex -1.5529142706151295 -5.795554957734408 0.0
    vertex -1.9918584287042096 -1.1499999999999981 0.0
    vertex -1.6263455967290597 -1.6263455967290585 0.0
  endloop
endfacet
facet normal 0.0 0.0 -1.0
  outer loop
    vertex -1.5529142706151295 -5.795554957734408 0.0
    vertex -1.6263455967290597 -1.6263455967290585 0.0
    vertex -1.1500000000000008 -1.991858428704208 0.0
  endloop
endfacet
facet normal 0.0 0.0 -1.0
  outer loop
    vertex -1.5529142706151295 -5.795554957734408 0.0
    vertex -1.1500000000000008 -1.991858428704208 0.0
    vertex 0.0 -6.0 0.0
  endloop
endfacet
facet normal 0.0 0.0 -1.0
  outer loop
    vertex 0.0 -6.0 0.0
    vertex -1.1500000000000008 -1.991858428704208 0.0
    vertex -0.5952838037357995 -2.221629400464856 0.0
  endloop
endfacet
facet normal 0.0 0.0 -1.0
  outer loop
    vertex 0.0 -6.0 0.0
    vertex -0.5952838037357995 -2.221629400464856 0.0
    vertex 0.0 -2.3 0.0
  endloop
endfacet
facet normal 0.0 0.0 -1.0
  outer loop
    vertex 0.0 -6.0 0.0
    vertex 0.0 -2.3 0.0
    vertex 0.5952838037357976 -2.221629400464857 0.0
  endloop
endfacet
facet normal 0.0 0.0 -1.0
  outer loop
    vertex 0.0 -6.0 0.0
    vertex 0.5952838037357976 -2.221629400464857 0.0
    vertex 1.5529142706151244 -5.79555495773441 0.0
  endloop
endfacet
facet normal 0.0 0.0 -1.0
  outer loop
    vertex 1.5529142706151244 -5.79555495773441 0.0
    vertex 0.5952838037357976 -2.221629400464857 0.0
    vertex 1.1499999999999997 -1.991858428704209 0.0
  endloop
endfacet
facet normal 0.0 0.0 -1.0
  outer loop
    vertex 1.5529142706151244 -5.79555495773441 0.0
    vertex 1.1499999999999997 -1.991858428704209 0.0
    vertex 1.6263455967290592 -1.6263455967290592 0.0
  endloop
endfacet
facet normal 0.0 0.0 -1.0
  outer loop
    vertex 1.5529142706151244 -5.79555495773441 0.0
    vertex 1.6263455967290592 -1.6263455967290592 0.0
    vertex 3.0 -5.196152422706631 0.0
  endloop
endfacet
facet normal 0.0 0.0 -1.0
  outer loop
    vertex 3.0 -5.196152422706631 0.0
    vertex 1.6263455967290592 -1.6263455967290592 0.0
    vertex 1.9918584287042085 -1.15 0.0
  endloop
endfacet
facet normal 0.0 0.0 -1.0
  outer loop
    vertex 3.0 -5.196152422706631 0.0
    vertex 1.9918584287042085 -1.15 0.0
    vertex 2.2216294004648565 -0.595283803735798 0.0
  endloop
endfacet
facet normal 0.0 0.0 -1.0
  outer loop
    vertex 3.0 -5.196152422706631 0.0
    vertex 2.2216294004648565 -0.595283803735798 0.0
    vertex 2.3 -1.4083438190194558e-16 0.0
  endloop
endfacet
facet normal -0.0 -0.0 1.0
  outer loop
    vertex -5.79555495773441 -1.5529142706151216 10.0
    vertex -5.795554957734409 1.552914270615129 10.0
    vertex -6.0 1.1021821192326177e-15 10.0
  endloop
endfacet
facet normal -0.0 -0.0 1.0
  outer loop
    vertex -5.795554957734409 1.552914270615129 10.0
    vertex -5.79555495773441 -1.5529142706151216 10.0
    vertex -5.196152422706635 -2.9999999999999956 10.0
  endloop
endfacet
facet normal -0.0 -0.0 1.0
  outer loop
    vertex -5.795554957734409 1.552914270615129 10.0
    vertex -5.196152422706635 -2.9999999999999956 10.0
    vertex -5.196152422706631 3.0000000000000027 10.0
  endloop
endfacet
facet normal -0.0 -0.0 1.0
  outer loop
    vertex -5.196152422706631 3.0000000000000027 10.0
    vertex -5.196152422706635 -2.9999999999999956 10.0
    vertex -4.2426406871192865 -4.242640687119284 10.0
  endloop
endfacet
facet normal -0.0 -0.0 1.0
  outer loop
    vertex -5.196152422706631 3.0000000000000027 10.0
    vertex -4.2426406871192865 -4.242640687119284 10.0
    vertex -4.242640687119283 4.242640687119287 10.0
  endloop
endfacet
facet normal -0.0 -0.0 1.0
  outer loop
    vertex -4.242640687119283 4.242640687119287 10.0
    vertex -4.2426406871192865 -4.242640687119284 10.0
    vertex -3.000000000000003 -5.19615242270663 10.0
  endloop
endfacet
facet normal -0.0 -0.0 1.0
  outer loop
    vertex -4.242640687119283 4.242640687119287 10.0
    vertex -3.000000000000003 -5.19615242270663 10.0
    vertex -2.9999999999999982 5.196152422706632 10.0
  endloop
endfacet
facet normal -0.0 -0.0 1.0
  outer loop
    vertex -2.9999999999999982 5.196152422706632 10.0
    vertex -3.000000000000003 -5.19615242270663 10.0
    vertex -1.5529142706151295 -5.795554957734408 10.0
  endloop
endfacet
facet normal -0.0 -0.0 1.0
  outer loop
    vertex -2.9999999999999982 5.196152422706632 10.0
    vertex -1.5529142706151295 -5.795554957734408 10.0
    vertex -2.3 4.225031457058368e-16 10.0
  endloop
endfacet
facet normal -0.0 -0.0 1.0
  outer loop
    vertex -2.3 4.225031457058368e-16 10.0
    vertex -1.5529142706151295 -5.795554957734408 10.0
    vertex -2.2216294004648574 -0.5952838037357966 10.0
  endloop
endfacet
facet normal -0.0 -0.0 1.0
  outer loop
    vertex -2.2216294004648574 -0.5952838037357966 10.0
    vertex -1.5529142706151295 -5.795554957734408 10.0
    vertex -1.9918584287042096 -1.1499999999999981 10.0
  endloop
endfacet
facet normal -0.0 -0.0 1.0
  outer loop
    vertex -1.9918584287042096 -1.1499999999999981 10.0
    vertex -1.5529142706151295 -5.795554957734408 10.0
    vertex -1.6263455967290597 -1.6263455967290585 10.0
  endloop
endfacet
facet normal -0.0 -0.0 1.0
  outer loop
    vertex -1.6263455967290597 -1.6263455967290585 10.0
    vertex -1.5529142706151295 -5.795554957734408 10.0
    vertex -1.1500000000000008 -1.991858428704208 10.0
  endloop
endfacet
facet normal -0.0 -0.0 1.0
  outer loop
    vertex -1.1500000000000008 -1.991858428704208 10.0
    vertex -1.5529142706151295 -5.795554957734408 10.0
    vertex 0.0 -6.0 10.0
  endloop
endfacet
facet normal -0.0 -0.0 1.0
  outer loop
    vertex -1.1500000000000008 -1.991858428704208 10.0
    vertex 0.0 -6.0 10.0
    vertex -0.5952838037357995 -2.221629400464856 10.0
  endloop
endfacet
facet normal -0.0 -0.0 1.0
  outer loop
    vertex -0.5952838037357995 -2.221629400464856 10.0
    vertex 0.0 -6.0 10.0
    vertex 0.0 -2.3 10.0
  endloop
endfacet
facet normal -0.0 -0.0 1.0
  outer loop
    vertex 0.0 -2.3 10.0
    vertex 0.0 -6.0 10.0
    vertex 1.5529142706151244 -5.79555495773441 10.0
  endloop
endfacet
facet normal -0.0 -0.0 1.0
  outer loop
    vertex 0.0 -2.3 10.0
    vertex 1.5529142706151244 -5.79555495773441 10.0
    vertex 0.5952838037357976 -2.221629400464857 10.0
  endloop
endfacet
facet normal -0.0 -0.0 1.0
  outer loop
    vertex 0.5952838037357976 -2.221629400464857 10.0
    vertex 1.5529142706151244 -5.79555495773441 10.0
    vertex 1.1499999999999997 -1.991858428704209 10.0
  endloop
endfacet
facet normal -0.0 -0.0 1.0
  outer loop
    vertex 1.1499999999999997 -1.991858428704209 10.0
    vertex 1.5529142706151244 -5.79555495773441 10.0
    vertex 1.6263455967290592 -1.6263455967290592 10.0
  endloop
endfacet
facet normal -0.0 -0.0 1.0
  outer loop
    vertex 1.6263455967290592 -1.6263455967290592 10.0
    vertex 1.5529142706151244 -5.79555495773441 10.0
    vertex 3.0 -5.196152422706631 10.0
  endloop
endfacet
facet normal -0.0 -0.0 1.0
  outer loop
    vertex 1.6263455967290592 -1.6263455967290592 10.0
    vertex 3.0 -5.196152422706631 10.0
    vertex 1.9918584287042085 -1.15 10.0
  endloop
endfacet
facet normal -0.0 -0.0 1.0
  outer loop
    vertex 1.9918584287042085 -1.15 10.0
    vertex 3.0 -5.196152422706631 10.0
    vertex 2.2216294004648565 -0.595283803735798 10.0
  endloop
endfacet
facet normal -0.0 -0.0 1.0
  outer loop
    vertex 2.2216294004648565 -0.595283803735798 10.0
    vertex 3.0 -5.196152422706631 10.0
    vertex 2.3 -1.4083438190194558e-16 10.0
  endloop
endfacet
facet normal -0.0 -0.0 1.0
  outer loop
    vertex -2.3 4.225031457058368e-16 10.0
    vertex -1.5529142706151222 5.79555495773441 10.0
    vertex -2.9999999999999982 5.196152422706632 10.0
  endloop
endfacet
facet normal -0.0 -0.0 1.0
  outer loop
    vertex -1.5529142706151222 5.79555495773441 10.0
    vertex -2.3 4.225031457058368e-16 10.0
    vertex -2.221629400464856 0.5952838037357994 10.0
  endloop
endfacet
facet normal -0.0 -0.0 1.0
  outer loop
    vertex -1.5529142706151222 5.79555495773441 10.0
    vertex -2.221629400464856 0.5952838037357994 10.0
    vertex -1.991858428704208 1.1500000000000008 10.0
  endloop
endfacet
facet normal -0.0 -0.0 1.0
  outer loop
    vertex -1.5529142706151222 5.79555495773441 10.0
    vertex -1.991858428704208 1.1500000000000008 10.0
    vertex -1.626345596729058 1.6263455967290599 10.0
  endloop
endfacet
facet normal -0.0 -0.0 1.0
  outer loop
    vertex -1.5529142706151222 5.79555495773441 10.0
    vertex -1.626345596729058 1.6263455967290599 10.0
    vertex -1.149999999999999 1.991858428704209 10.0
  endloop
endfacet
facet normal -0.0 -0.0 1.0
  outer loop
    vertex -1.5529142706151222 5.79555495773441 10.0
    vertex -1.149999999999999 1.991858428704209 10.0
    vertex 7.34788079488412e-16 6.0 10.0
  endloop
endfacet
facet normal -0.0 -0.0 1.0
  outer loop
    vertex 7.34788079488412e-16 6.0 10.0
    vertex -1.149999999999999 1.991858428704209 10.0
    vertex -0.5952838037357968 2.2216294004648574 10.0
  endloop
endfacet
facet normal -0.0 -0.0 1.0
  outer loop
    vertex 7.34788079488412e-16 6.0 10.0
    vertex -0.5952838037357968 2.2216294004648574 10.0
    vertex 2.8166876380389116e-16 2.3 10.0
  endloop
endfacet
facet normal -0.0 -0.0 1.0
  outer loop
    vertex 7.34788079488412e-16 6.0 10.0
    vertex 2.8166876380389116e-16 2.3 10.0
    vertex 0.5952838037357983 2.2216294004648565 10.0
  endloop
endfacet
facet normal -0.0 -0.0 1.0
  outer loop
    vertex 7.34788079488412e-16 6.0 10.0
    vertex 0.5952838037357983 2.2216294004648565 10.0
    vertex 1.5529142706151262 5.795554957734409 10.0
  endloop
endfacet
facet normal -0.0 -0.0 1.0
  outer loop
    vertex 1.5529142706151262 5.795554957734409 10.0
    vertex 0.5952838037357983 2.2216294004648565 10.0
    vertex 1.1500000000000006 1.991858428704208 10.0
  endloop
endfacet
facet normal -0.0 -0.0 1.0
  outer loop
    vertex 1.5529142706151262 5.795554957734409 10.0
    vertex 1.1500000000000006 1.991858428704208 10.0
    vertex 1.6263455967290592 1.6263455967290588 10.0
  endloop
endfacet
facet normal -0.0 -0.0 1.0
  outer loop
    vertex 1.5529142706151262 5.795554957734409 10.0
    vertex 1.6263455967290592 1.6263455967290588 10.0
    vertex 3.000000000000002 5.196152422706631 10.0
  endloop
endfacet
facet normal -0.0 -0.0 1.0
  outer loop
    vertex 3.000000000000002 5.196152422706631 10.0
    vertex 1.6263455967290592 1.6263455967290588 10.0
    vertex 1.991858428704209 1.1499999999999992 10.0
  endloop
endfacet
facet normal -0.0 -0.0 1.0
  outer loop
    vertex 3.000000000000002 5.196152422706631 10.0
    vertex 1.991858428704209 1.1499999999999992 10.0
    vertex 2.221629400464857 0.5952838037357974 10.0
  endloop
endfacet
facet normal -0.0 -0.0 1.0
  outer loop
    vertex 3.000000000000002 5.196152422706631 10.0
    vertex 2.221629400464857 0.5952838037357974 10.0
    vertex 2.3 -1.4083438190194558e-16 10.0
  endloop
endfacet
facet normal -0.0 -0.0 1.0
  outer loop
    vertex 3.000000000000002 5.196152422706631 10.0
    vertex 2.3 -1.4083438190194558e-16 10.0
    vertex 3.0 -5.196152422706631 10.0
  endloop
endfacet
facet normal -0.0 -0.0 1.0
  outer loop
    vertex 3.000000000000002 5.196152422706631 10.0
    vertex 3.0 -5.196152422706631 10.0
    vertex 4.242640687119286 -4.242640687119285 10.0
  endloop
endfacet
facet normal -0.0 -0.0 1.0
  outer loop
    vertex 3.000000000000002 5.196152422706631 10.0
    vertex 4.242640687119286 -4.242640687119285 10.0
    vertex 4.242640687119286 4.242640687119285 10.0
  endloop
endfacet
facet normal -0.0 -0.0 1.0
  outer loop
    vertex 4.242640687119286 4.242640687119285 10.0
    vertex 4.242640687119286 -4.242640687119285 10.0
    vertex 5.196152422706631 -3.0000000000000004 10.0
  endloop
endfacet
facet normal -0.0 -0.0 1.0
  outer loop
    vertex 4.242640687119286 4.242640687119285 10.0
    vertex 5.196152422706631 -3.0000000000000004 10.0
    vertex 5.196152422706632 2.9999999999999982 10.0
  endloop
endfacet
facet normal -0.0 -0.0 1.0
  outer loop
    vertex 5.196152422706632 2.9999999999999982 10.0
    vertex 5.196152422706631 -3.0000000000000004 10.0
    vertex 5.79555495773441 -1.5529142706151258 10.0
  endloop
endfacet
facet normal -0.0 -0.0 1.0
  outer loop
    vertex 5.196152422706632 2.9999999999999982 10.0
    vertex 5.79555495773441 -1.5529142706151258 10.0
    vertex 5.79555495773441 1.5529142706151238 10.0
  endloop
endfacet
facet normal -0.0 -0.0 1.0
  outer loop
    vertex 5.79555495773441 1.5529142706151238 10.0
    vertex 5.79555495773441 -1.5529142706151258 10.0
    vertex 6.0 -3.6739403974420594e-16 10.0
  endloop
endfacet
facet normal -0.6087614290087201 0.7933533402912357 0.0
  outer loop
    vertex -4.242640687119283 4.242640687119287 10.0
    vertex -2.9999999999999982 5.196152422706632 0.0
    vertex -4.242640687119283 4.242640687119287 0.0
  endloop
endfacet
facet normal -0.6087614290087201 0.7933533402912357 0.0
  outer loop
    vertex -2.9999999999999982 5.196152422706632 0.0
    vertex -4.242640687119283 4.242640687119287 10.0
    vertex -2.9999999999999982 5.196152422706632 10.0
  endloop
endfacet
facet normal -0.38268343236508945 0.9238795325112868 0.0
  outer loop
    vertex -2.9999999999999982 5.196152422706632 10.0
    vertex -1.5529142706151222 5.79555495773441 0.0
    vertex -2.9999999999999982 5.196152422706632 0.0
  endloop
endfacet
facet normal -0.38268343236508945 0.9238795325112868 0.0
  outer loop
    vertex -1.5529142706151222 5.79555495773441 0.0
    vertex -2.9999999999999982 5.196152422706632 10.0
    vertex -1.5529142706151222 5.79555495773441 10.0
  endloop
endfacet
facet normal -0.13052619222005146 0.9914448613738106 0.0
  outer loop
    vertex -1.5529142706151222 5.79555495773441 10.0
    vertex 7.34788079488412e-16 6.0 0.0
    vertex -1.5529142706151222 5.79555495773441 0.0
  endloop
endfacet
facet normal -0.13052619222005146 0.9914448613738106 0.0
  outer loop
    vertex 7.34788079488412e-16 6.0 0.0
    vertex -1.5529142706151222 5.79555495773441 10.0
    vertex 7.34788079488412e-16 6.0 10.0
  endloop
endfacet
facet normal 0.13052619222005166 0.9914448613738104 0.0
  outer loop
    vertex 7.34788079488412e-16 6.0 10.0
    vertex 1.5529142706151262 5.795554957734409 0.0
    vertex 7.34788079488412e-16 6.0 0.0
  endloop
endfacet
facet normal 0.13052619222005166 0.9914448613738104 0.0
  outer loop
    vertex 1.5529142706151262 5.795554957734409 0.0
    vertex 7.34788079488412e-16 6.0 10.0
    vertex 1.5529142706151262 5.795554957734409 10.0
  endloop
endfacet
facet normal 0.3826834323650899 0.9238795325112867 0.0
  outer loop
    vertex 1.5529142706151262 5.795554957734409 10.0
    vertex 3.000000000000002 5.196152422706631 0.0
    vertex 1.5529142706151262 5.795554957734409 0.0
  endloop
endfacet
facet normal 0.3826834323650899 0.9238795325112867 0.0
  outer loop
    vertex 3.000000000000002 5.196152422706631 0.0
    vertex 1.5529142706151262 5.795554957734409 10.0
    vertex 3.000000000000002 5.196152422706631 10.0
  endloop
endfacet
facet normal 0.608761429008721 0.793353340291235 0.0
  outer loop
    vertex 3.000000000000002 5.196152422706631 10.0
    vertex 4.242640687119286 4.242640687119285 0.0
    vertex 3.000000000000002 5.196152422706631 0.0
  endloop
endfacet
facet normal 0.608761429008721 0.793353340291235 0.0
  outer loop
    vertex 4.242640687119286 4.242640687119285 0.0
    vertex 3.000000000000002 5.196152422706631 10.0
    vertex 4.242640687119286 4.242640687119285 10.0
  endloop
endfacet
facet normal 0.7933533402912356 0.6087614290087202 0.0
  outer loop
    vertex 4.242640687119286 4.242640687119285 0.0
    vertex 5.196152422706632 2.9999999999999982 10.0
    vertex 5.196152422706632 2.9999999999999982 0.0
  endloop
endfacet
facet normal 0.7933533402912356 0.6087614290087202 0.0
  outer loop
    vertex 5.196152422706632 2.9999999999999982 10.0
    vertex 4.242640687119286 4.242640687119285 0.0
    vertex 4.242640687119286 4.242640687119285 10.0
  endloop
endfacet
facet normal 0.9238795325112866 0.3826834323650902 0.0
  outer loop
    vertex 5.196152422706632 2.9999999999999982 0.0
    vertex 5.79555495773441 1.5529142706151238 10.0
    vertex 5.79555495773441 1.5529142706151238 0.0
  endloop
endfacet
facet normal 0.9238795325112866 0.3826834323650902 0.0
  outer loop
    vertex 5.79555495773441 1.5529142706151238 10.0
    vertex 5.196152422706632 2.9999999999999982 0.0
    vertex 5.196152422706632 2.9999999999999982 10.0
  endloop
endfacet
facet normal 0.9914448613738105 0.13052619222005135 0.0
  outer loop
    vertex 5.79555495773441 1.5529142706151238 0.0
    vertex 6.0 -3.6739403974420594e-16 10.0
    vertex 6.0 -3.6739403974420594e-16 0.0
  endloop
endfacet
facet normal 0.9914448613738105 0.13052619222005135 0.0
  outer loop
    vertex 6.0 -3.6739403974420594e-16 10.0
    vertex 5.79555495773441 1.5529142706151238 0.0
    vertex 5.79555495773441 1.5529142706151238 10.0
  endloop
endfacet
facet normal 0.9914448613738105 -0.13052619222005168 0.0
  outer loop
    vertex 6.0 -3.6739403974420594e-16 0.0
    vertex 5.79555495773441 -1.5529142706151258 10.0
    vertex 5.79555495773441 -1.5529142706151258 0.0
  endloop
endfacet
facet normal 0.9914448613738105 -0.13052619222005168 0.0
  outer loop
    vertex 5.79555495773441 -1.5529142706151258 10.0
    vertex 6.0 -3.6739403974420594e-16 0.0
    vertex 6.0 -3.6739403974420594e-16 10.0
  endloop
endfacet
facet normal 0.9238795325112867 -0.3826834323650902 0.0
  outer loop
    vertex 5.79555495773441 -1.5529142706151258 0.0
    vertex 5.196152422706631 -3.0000000000000004 10.0
    vertex 5.196152422706631 -3.0000000000000004 0.0
  endloop
endfacet
facet normal 0.9238795325112867 -0.3826834323650902 0.0
  outer loop
    vertex 5.196152422706631 -3.0000000000000004 10.0
    vertex 5.79555495773441 -1.5529142706151258 0.0
    vertex 5.79555495773441 -1.5529142706151258 10.0
  endloop
endfacet
facet normal 0.7933533402912354 -0.6087614290087203 0.0
  outer loop
    vertex 5.196152422706631 -3.0000000000000004 0.0
    vertex 4.242640687119286 -4.242640687119285 10.0
    vertex 4.242640687119286 -4.242640687119285 0.0
  endloop
endfacet
facet normal 0.7933533402912354 -0.6087614290087203 0.0
  outer loop
    vertex 4.242640687119286 -4.242640687119285 10.0
    vertex 5.196152422706631 -3.0000000000000004 0.0
    vertex 5.196152422706631 -3.0000000000000004 10.0
  endloop
endfacet
facet normal 0.6087614290087202 -0.7933533402912356 0.0
  outer loop
    vertex 4.242640687119286 -4.242640687119285 10.0
    vertex 3.0 -5.196152422706631 0.0
    vertex 4.242640687119286 -4.242640687119285 0.0
  endloop
endfacet
facet normal 0.6087614290087202 -0.7933533402912356 0.0
  outer loop
    vertex 3.0 -5.196152422706631 0.0
    vertex 4.242640687119286 -4.242640687119285 10.0
    vertex 3.0 -5.196152422706631 10.0
  endloop
endfacet
facet normal 0.38268343236509006 -0.9238795325112867 0.0
  outer loop
    vertex 3.0 -5.196152422706631 10.0
    vertex 1.5529142706151244 -5.79555495773441 0.0
    vertex 3.0 -5.196152422706631 0.0
  endloop
endfacet
facet normal 0.38268343236509006 -0.9238795325112867 0.0
  outer loop
    vertex 1.5529142706151244 -5.79555495773441 0.0
    vertex 3.0 -5.196152422706631 10.0
    vertex 1.5529142706151244 -5.79555495773441 10.0
  endloop
endfacet
facet normal 0.1305261922200513 -0.9914448613738104 0.0
  outer loop
    vertex 1.5529142706151244 -5.79555495773441 10.0
    vertex 0.0 -6.0 0.0
    vertex 1.5529142706151244 -5.79555495773441 0.0
  endloop
endfacet
facet normal 0.1305261922200513 -0.9914448613738104 0.0
  outer loop
    vertex 0.0 -6.0 0.0
    vertex 1.5529142706151244 -5.79555495773441 10.0
    vertex 0.0 -6.0 10.0
  endloop
endfacet
facet normal -0.13052619222005177 -0.9914448613738104 -0.0
  outer loop
    vertex 0.0 -6.0 10.0
    vertex -1.5529142706151295 -5.795554957734408 0.0
    vertex 0.0 -6.0 0.0
  endloop
endfacet
facet normal -0.13052619222005177 -0.9914448613738104 -0.0
  outer loop
    vertex -1.5529142706151295 -5.795554957734408 0.0
    vertex 0.0 -6.0 10.0
    vertex -1.5529142706151295 -5.795554957734408 10.0
  endloop
endfacet
facet normal -0.38268343236509045 -0.9238795325112865 -0.0
  outer loop
    vertex -1.5529142706151295 -5.795554957734408 10.0
    vertex -3.000000000000003 -5.19615242270663 0.0
    vertex -1.5529142706151295 -5.795554957734408 0.0
  endloop
endfacet
facet normal -0.38268343236509045 -0.9238795325112865 -0.0
  outer loop
    vertex -3.000000000000003 -5.19615242270663 0.0
    vertex -1.5529142706151295 -5.795554957734408 10.0
    vertex -3.000000000000003 -5.19615242270663 10.0
  endloop
endfacet
facet normal -0.608761429008721 -0.793353340291235 -0.0
  outer loop
    vertex -3.000000000000003 -5.19615242270663 10.0
    vertex -4.2426406871192865 -4.242640687119284 0.0
    vertex -3.000000000000003 -5.19615242270663 0.0
  endloop
endfacet
facet normal -0.608761429008721 -0.793353340291235 -0.0
  outer loop
    vertex -4.2426406871192865 -4.242640687119284 0.0
    vertex -3.000000000000003 -5.19615242270663 10.0
    vertex -4.2426406871192865 -4.242640687119284 10.0
  endloop
endfacet
facet normal -0.7933533402912357 -0.6087614290087202 -0.0
  outer loop
    vertex -5.196152422706635 -2.9999999999999956 10.0
    vertex -4.2426406871192865 -4.242640687119284 0.0
    vertex -4.2426406871192865 -4.242640687119284 10.0
  endloop
endfacet
facet normal -0.7933533402912357 -0.6087614290087202 -0.0
  outer loop
    vertex -4.2426406871192865 -4.242640687119284 0.0
    vertex -5.196152422706635 -2.9999999999999956 10.0
    vertex -5.196152422706635 -2.9999999999999956 0.0
  endloop
endfacet
facet normal -0.9238795325112871 -0.3826834323650892 -0.0
  outer loop
    vertex -5.79555495773441 -1.5529142706151216 10.0
    vertex -5.196152422706635 -2.9999999999999956 0.0
    vertex -5.196152422706635 -2.9999999999999956 10.0
  endloop
endfacet
facet normal -0.9238795325112871 -0.3826834323650892 -0.0
  outer loop
    vertex -5.196152422706635 -2.9999999999999956 0.0
    vertex -5.79555495773441 -1.5529142706151216 10.0
    vertex -5.79555495773441 -1.5529142706151216 0.0
  endloop
endfacet
facet normal -0.9914448613738105 -0.13052619222005146 -0.0
  outer loop
    vertex -6.0 1.1021821192326177e-15 10.0
    vertex -5.79555495773441 -1.5529142706151216 0.0
    vertex -5.79555495773441 -1.5529142706151216 10.0
  endloop
endfacet
facet normal -0.9914448613738105 -0.13052619222005146 -0.0
  outer loop
    vertex -5.79555495773441 -1.5529142706151216 0.0
    vertex -6.0 1.1021821192326177e-15 10.0
    vertex -6.0 1.1021821192326177e-15 0.0
  endloop
endfacet
facet normal -0.9914448613738104 0.1305261922200519 0.0
  outer loop
    vertex -5.795554957734409 1.552914270615129 10.0
    vertex -6.0 1.1021821192326177e-15 0.0
    vertex -6.0 1.1021821192326177e-15 10.0
  endloop
endfacet
facet normal -0.9914448613738104 0.1305261922200519 0.0
  outer loop
    vertex -6.0 1.1021821192326177e-15 0.0
    vertex -5.795554957734409 1.552914270615129 10.0
    vertex -5.795554957734409 1.552914270615129 0.0
  endloop
endfacet
facet normal -0.9238795325112866 0.38268343236509045 0.0
  outer loop
    vertex -5.196152422706631 3.0000000000000027 10.0
    vertex -5.795554957734409 1.552914270615129 0.0
    vertex -5.795554957734409 1.552914270615129 10.0
  endloop
endfacet
facet normal -0.9238795325112866 0.38268343236509045 0.0
  outer loop
    vertex -5.795554957734409 1.552914270615129 0.0
    vertex -5.196152422706631 3.0000000000000027 10.0
    vertex -5.196152422706631 3.0000000000000027 0.0
  endloop
endfacet
facet normal -0.7933533402912347 0.6087614290087212 0.0
  outer loop
    vertex -4.242640687119283 4.242640687119287 10.0
    vertex -5.196152422706631 3.0000000000000027 0.0
    vertex -5.196152422706631 3.0000000000000027 10.0
  endloop
endfacet
facet normal -0.7933533402912347 0.6087614290087212 0.0
  outer loop
    vertex -5.196152422706631 3.0000000000000027 0.0
    vertex -4.242640687119283 4.242640687119287 10.0
    vertex -4.242640687119283 4.242640687119287 0.0
  endloop
endfacet
facet normal -0.9914448613738106 -0.13052619222005146 -0.0
  outer loop
    vertex 2.221629400464857 0.5952838037357974 10.0
    vertex 2.3 -1.4083438190194558e-16 0.0
    vertex 2.3 -1.4083438190194558e-16 10.0
  endloop
endfacet
facet normal -0.9914448613738106 -0.13052619222005146 -0.0
  outer loop
    vertex 2.3 -1.4083438190194558e-16 0.0
    vertex 2.221629400464857 0.5952838037357974 10.0
    vertex 2.221629400464857 0.5952838037357974 0.0
  endloop
endfacet
facet normal -0.9238795325112868 -0.38268343236508984 -0.0
  outer loop
    vertex 1.991858428704209 1.1499999999999992 10.0
    vertex 2.221629400464857 0.5952838037357974 0.0
    vertex 2.221629400464857 0.5952838037357974 10.0
  endloop
endfacet
facet normal -0.9238795325112868 -0.38268343236508984 -0.0
  outer loop
    vertex 2.221629400464857 0.5952838037357974 0.0
    vertex 1.991858428704209 1.1499999999999992 10.0
    vertex 1.991858428704209 1.1499999999999992 0.0
  endloop
endfacet
facet normal -0.7933533402912353 -0.6087614290087204 -0.0
  outer loop
    vertex 1.6263455967290592 1.6263455967290588 10.0
    vertex 1.991858428704209 1.1499999999999992 0.0
    vertex 1.991858428704209 1.1499999999999992 10.0
  endloop
endfacet
facet normal -0.7933533402912353 -0.6087614290087204 -0.0
  outer loop
    vertex 1.991858428704209 1.1499999999999992 0.0
    vertex 1.6263455967290592 1.6263455967290588 10.0
    vertex 1.6263455967290592 1.6263455967290588 0.0
  endloop
endfacet
facet normal -0.6087614290087208 -0.793353340291235 -0.0
  outer loop
    vertex 1.6263455967290592 1.6263455967290588 10.0
    vertex 1.1500000000000006 1.991858428704208 0.0
    vertex 1.6263455967290592 1.6263455967290588 0.0
  endloop
endfacet
facet normal -0.6087614290087208 -0.793353340291235 -0.0
  outer loop
    vertex 1.1500000000000006 1.991858428704208 0.0
    vertex 1.6263455967290592 1.6263455967290588 10.0
    vertex 1.1500000000000006 1.991858428704208 10.0
  endloop
endfacet
facet normal -0.38268343236509006 -0.9238795325112866 -0.0
  outer loop
    vertex 1.1500000000000006 1.991858428704208 10.0
    vertex 0.5952838037357983 2.2216294004648565 0.0
    vertex 1.1500000000000006 1.991858428704208 0.0
  endloop
endfacet
facet normal -0.38268343236509006 -0.9238795325112866 -0.0
  outer loop
    vertex 0.5952838037357983 2.2216294004648565 0.0
    vertex 1.1500000000000006 1.991858428704208 10.0
    vertex 0.5952838037357983 2.2216294004648565 10.0
  endloop
endfacet
facet normal -0.13052619222005193 -0.9914448613738105 -0.0
  outer loop
    vertex 0.5952838037357983 2.2216294004648565 10.0
    vertex 2.8166876380389116e-16 2.3 0.0
    vertex 0.5952838037357983 2.2216294004648565 0.0
  endloop
endfacet
facet normal -0.13052619222005193 -0.9914448613738105 -0.0
  outer loop
    vertex 2.8166876380389116e-16 2.3 0.0
    vertex 0.5952838037357983 2.2216294004648565 10.0
    vertex 2.8166876380389116e-16 2.3 10.0
  endloop
endfacet
facet normal 0.13052619222005096 -0.9914448613738105 0.0
  outer loop
    vertex 2.8166876380389116e-16 2.3 10.0
    vertex -0.5952838037357968 2.2216294004648574 0.0
    vertex 2.8166876380389116e-16 2.3 0.0
  endloop
endfacet
facet normal 0.13052619222005096 -0.9914448613738105 0.0
  outer loop
    vertex -0.5952838037357968 2.2216294004648574 0.0
    vertex 2.8166876380389116e-16 2.3 10.0
    vertex -0.5952838037357968 2.2216294004648574 10.0
  endloop
endfacet
facet normal 0.38268343236509006 -0.9238795325112868 0.0
  outer loop
    vertex -0.5952838037357968 2.2216294004648574 10.0
    vertex -1.149999999999999 1.991858428704209 0.0
    vertex -0.5952838037357968 2.2216294004648574 0.0
  endloop
endfacet
facet normal 0.38268343236509006 -0.9238795325112868 0.0
  outer loop
    vertex -1.149999999999999 1.991858428704209 0.0
    vertex -0.5952838037357968 2.2216294004648574 10.0
    vertex -1.149999999999999 1.991858428704209 10.0
  endloop
endfacet
facet normal 0.6087614290087202 -0.7933533402912357 0.0
  outer loop
    vertex -1.149999999999999 1.991858428704209 10.0
    vertex -1.626345596729058 1.6263455967290599 0.0
    vertex -1.149999999999999 1.991858428704209 0.0
  endloop
endfacet
facet normal 0.6087614290087202 -0.7933533402912357 0.0
  outer loop
    vertex -1.626345596729058 1.6263455967290599 0.0
    vertex -1.149999999999999 1.991858428704209 10.0
    vertex -1.626345596729058 1.6263455967290599 10.0
  endloop
endfacet
facet normal 0.7933533402912347 -0.6087614290087213 0.0
  outer loop
    vertex -1.626345596729058 1.6263455967290599 0.0
    vertex -1.991858428704208 1.1500000000000008 10.0
    vertex -1.991858428704208 1.1500000000000008 0.0
  endloop
endfacet
facet normal 0.7933533402912347 -0.6087614290087213 0.0
  outer loop
    vertex -1.991858428704208 1.1500000000000008 10.0
    vertex -1.626345596729058 1.6263455967290599 0.0
    vertex -1.626345596729058 1.6263455967290599 10.0
  endloop
endfacet
facet normal 0.9238795325112867 -0.38268343236509 0.0
  outer loop
    vertex -1.991858428704208 1.1500000000000008 0.0
    vertex -2.221629400464856 0.5952838037357994 10.0
    vertex -2.221629400464856 0.5952838037357994 0.0
  endloop
endfacet
facet normal 0.9238795325112867 -0.38268343236509 0.0
  outer loop
    vertex -2.221629400464856 0.5952838037357994 10.0
    vertex -1.991858428704208 1.1500000000000008 0.0
    vertex -1.991858428704208 1.1500000000000008 10.0
  endloop
endfacet
facet normal 0.9914448613738105 -0.1305261922200523 0.0
  outer loop
    vertex -2.221629400464856 0.5952838037357994 0.0
    vertex -2.3 4.225031457058368e-16 10.0
    vertex -2.3 4.225031457058368e-16 0.0
  endloop
endfacet
facet normal 0.9914448613738105 -0.1305261922200523 0.0
  outer loop
    vertex -2.3 4.225031457058368e-16 10.0
    vertex -2.221629400464856 0.5952838037357994 0.0
    vertex -2.221629400464856 0.5952838037357994 10.0
  endloop
endfacet
facet normal 0.9914448613738105 0.13052619222005096 0.0
  outer loop
    vertex -2.3 4.225031457058368e-16 0.0
    vertex -2.2216294004648574 -0.5952838037357966 10.0
    vertex -2.2216294004648574 -0.5952838037357966 0.0
  endloop
endfacet
facet normal 0.9914448613738105 0.13052619222005096 0.0
  outer loop
    vertex -2.2216294004648574 -0.5952838037357966 10.0
    vertex -2.3 4.225031457058368e-16 0.0
    vertex -2.3 4.225031457058368e-16 10.0
  endloop
endfacet
facet normal 0.923879532511287 0.38268343236508945 0.0
  outer loop
    vertex -2.2216294004648574 -0.5952838037357966 0.0
    vertex -1.9918584287042096 -1.1499999999999981 10.0
    vertex -1.9918584287042096 -1.1499999999999981 0.0
  endloop
endfacet
facet normal 0.923879532511287 0.38268343236508945 0.0
  outer loop
    vertex -1.9918584287042096 -1.1499999999999981 10.0
    vertex -2.2216294004648574 -0.5952838037357966 0.0
    vertex -2.2216294004648574 -0.5952838037357966 10.0
  endloop
endfacet
facet normal 0.7933533402912356 0.6087614290087203 0.0
  outer loop
    vertex -1.9918584287042096 -1.1499999999999981 0.0
    vertex -1.6263455967290597 -1.6263455967290585 10.0
    vertex -1.6263455967290597 -1.6263455967290585 0.0
  endloop
endfacet
facet normal 0.7933533402912356 0.6087614290087203 0.0
  outer loop
    vertex -1.6263455967290597 -1.6263455967290585 10.0
    vertex -1.9918584287042096 -1.1499999999999981 0.0
    vertex -1.9918584287042096 -1.1499999999999981 10.0
  endloop
endfacet
facet normal 0.6087614290087212 0.7933533402912347 0.0
  outer loop
    vertex -1.6263455967290597 -1.6263455967290585 10.0
    vertex -1.1500000000000008 -1.991858428704208 0.0
    vertex -1.6263455967290597 -1.6263455967290585 0.0
  endloop
endfacet
facet normal 0.6087614290087212 0.7933533402912347 0.0
  outer loop
    vertex -1.1500000000000008 -1.991858428704208 0.0
    vertex -1.6263455967290597 -1.6263455967290585 10.0
    vertex -1.1500000000000008 -1.991858428704208 10.0
  endloop
endfacet
facet normal 0.3826834323650901 0.9238795325112867 0.0
  outer loop
    vertex -1.1500000000000008 -1.991858428704208 10.0
    vertex -0.5952838037357995 -2.221629400464856 0.0
    vertex -1.1500000000000008 -1.991858428704208 0.0
  endloop
endfacet
facet normal 0.3826834323650901 0.9238795325112867 0.0
  outer loop
    vertex -0.5952838037357995 -2.221629400464856 0.0
    vertex -1.1500000000000008 -1.991858428704208 10.0
    vertex -0.5952838037357995 -2.221629400464856 10.0
  endloop
endfacet
facet normal 0.13052619222005218 0.9914448613738104 0.0
  outer loop
    vertex -0.5952838037357995 -2.221629400464856 10.0
    vertex 0.0 -2.3 0.0
    vertex -0.5952838037357995 -2.221629400464856 0.0
  endloop
endfacet
facet normal 0.13052619222005218 0.9914448613738104 0.0
  outer loop
    vertex 0.0 -2.3 0.0
    vertex -0.5952838037357995 -2.221629400464856 10.0
    vertex 0.0 -2.3 10.0
  endloop
endfacet
facet normal -0.13052619222005143 0.9914448613738105 0.0
  outer loop
    vertex 0.0 -2.3 10.0
    vertex 0.5952838037357976 -2.221629400464857 0.0
    vertex 0.0 -2.3 0.0
  endloop
endfacet
facet normal -0.13052619222005143 0.9914448613738105 0.0
  outer loop
    vertex 0.5952838037357976 -2.221629400464857 0.0
    vertex 0.0 -2.3 10.0
    vertex 0.5952838037357976 -2.221629400464857 10.0
  endloop
endfacet
facet normal -0.3826834323650897 0.9238795325112868 0.0
  outer loop
    vertex 0.5952838037357976 -2.221629400464857 10.0
    vertex 1.1499999999999997 -1.991858428704209 0.0
    vertex 0.5952838037357976 -2.221629400464857 0.0
  endloop
endfacet
facet normal -0.3826834323650897 0.9238795325112868 0.0
  outer loop
    vertex 1.1499999999999997 -1.991858428704209 0.0
    vertex 0.5952838037357976 -2.221629400464857 10.0
    vertex 1.1499999999999997 -1.991858428704209 10.0
  endloop
endfacet
facet normal -0.6087614290087204 0.7933533402912353 0.0
  outer loop
    vertex 1.1499999999999997 -1.991858428704209 10.0
    vertex 1.6263455967290592 -1.6263455967290592 0.0
    vertex 1.1499999999999997 -1.991858428704209 0.0
  endloop
endfacet
facet normal -0.6087614290087204 0.7933533402912353 0.0
  outer loop
    vertex 1.6263455967290592 -1.6263455967290592 0.0
    vertex 1.1499999999999997 -1.991858428704209 10.0
    vertex 1.6263455967290592 -1.6263455967290592 10.0
  endloop
endfacet
facet normal -0.7933533402912354 0.6087614290087204 0.0
  outer loop
    vertex 1.9918584287042085 -1.15 10.0
    vertex 1.6263455967290592 -1.6263455967290592 0.0
    vertex 1.6263455967290592 -1.6263455967290592 10.0
  endloop
endfacet
facet normal -0.7933533402912354 0.6087614290087204 0.0
  outer loop
    vertex 1.6263455967290592 -1.6263455967290592 0.0
    vertex 1.9918584287042085 -1.15 10.0
    vertex 1.9918584287042085 -1.15 0.0
  endloop
endfacet
facet normal -0.9238795325112868 0.38268343236508984 0.0
  outer loop
    vertex 2.2216294004648565 -0.595283803735798 10.0
    vertex 1.9918584287042085 -1.15 0.0
    vertex 1.9918584287042085 -1.15 10.0
  endloop
endfacet
facet normal -0.9238795325112868 0.38268343236508984 0.0
  outer loop
    vertex 1.9918584287042085 -1.15 0.0
    vertex 2.2216294004648565 -0.595283803735798 10.0
    vertex 2.2216294004648565 -0.595283803735798 0.0
  endloop
endfacet
facet normal -0.9914448613738105 0.13052619222005196 0.0
  outer loop
    vertex 2.3 -1.4083438190194558e-16 10.0
    vertex 2.2216294004648565 -0.595283803735798 0.0
    vertex 2.2216294004648565 -0.595283803735798 10.0
  endloop
endfacet
facet normal -0.9914448613738105 0.13052619222005196 0.0
  outer loop
    vertex 2.2216294004648565 -0.595283803735798 0.0
    vertex 2.3 -1.4083438190194558e-16 10.0
    vertex 2.3 -1.4083438190194558e-16 0.0
  endloop
endfacet
endsolid mb_spacer
