solid power supply_test
facet normal -0.0 -0.5740900965432675 -0.8187921354354485
  outer loop
    vertex 0.0 5.5 8.2
    vertex -3.0 5.439992376674286 8.242073904691415
    vertex -3.0 5.5 8.2
  endloop
endfacet
facet normal -0.0 -0.5740900965432675 -0.8187921354354485
  outer loop
    vertex -3.0 5.439992376674286 8.242073904691415
    vertex 0.0 5.5 8.2
    vertex 0.0 5.439992376674286 8.242073904691415
  endloop
endfacet
facet normal -0.0 -0.34289032432868716 -0.9393754443681013
  outer loop
    vertex 0.0 5.85 8.072243186433544
    vertex -3.0 5.5 8.2
    vertex -3.0 5.85 8.072243186433544
  endloop
endfacet
facet normal -0.0 -0.34289032432868716 -0.9393754443681013
  outer loop
    vertex -3.0 5.5 8.2
    vertex 0.0 5.85 8.072243186433544
    vertex 0.0 5.5 8.2
  endloop
endfacet
facet normal -0.0 -0.6087614290087202 -0.7933533402912356
  outer loop
    vertex 0.0 6.20208152801713 7.802081528017131
    vertex -3.0 5.85 8.072243186433544
    vertex -3.0 6.20208152801713 7.802081528017131
  endloop
endfacet
facet normal -0.0 -0.6087614290087202 -0.7933533402912356
  outer loop
    vertex -3.0 5.85 8.072243186433544
    vertex 0.0 6.20208152801713 7.802081528017131
    vertex 0.0 5.85 8.072243186433544
  endloop
endfacet
facet normal -0.0 -0.7933533402912362 -0.6087614290087194
  outer loop
    vertex 0.0 6.20208152801713 7.802081528017131
    vertex -3.0 6.472243186433545 7.449999999999999
    vertex 0.0 6.472243186433545 7.449999999999999
  endloop
endfacet
facet normal -0.0 -0.7933533402912362 -0.6087614290087194
  outer loop
    vertex -3.0 6.472243186433545 7.449999999999999
    vertex 0.0 6.20208152801713 7.802081528017131
    vertex -3.0 6.20208152801713 7.802081528017131
  endloop
endfacet
facet normal -0.0 -0.9238795325112865 -0.38268343236509084
  outer loop
    vertex 0.0 6.472243186433545 7.449999999999999
    vertex -3.0 6.642073904691416 7.0399923766742845
    vertex 0.0 6.642073904691416 7.0399923766742845
  endloop
endfacet
facet normal -0.0 -0.9238795325112865 -0.38268343236509084
  outer loop
    vertex -3.0 6.642073904691416 7.0399923766742845
    vertex 0.0 6.472243186433545 7.449999999999999
    vertex -3.0 6.472243186433545 7.449999999999999
  endloop
endfacet
facet normal -0.0 -0.9914448613738107 -0.13052619222004985
  outer loop
    vertex 0.0 6.642073904691416 7.0399923766742845
    vertex -3.0 6.699999999999999 6.599999999999999
    vertex 0.0 6.699999999999999 6.599999999999999
  endloop
endfacet
facet normal -0.0 -0.9914448613738107 -0.13052619222004985
  outer loop
    vertex -3.0 6.699999999999999 6.599999999999999
    vertex 0.0 6.642073904691416 7.0399923766742845
    vertex -3.0 6.642073904691416 7.0399923766742845
  endloop
endfacet
facet normal 0.0 -0.9914448613738107 0.13052619222004985
  outer loop
    vertex 0.0 6.699999999999999 6.599999999999999
    vertex -3.0 6.642073904691416 6.160007623325714
    vertex 0.0 6.642073904691416 6.160007623325714
  endloop
endfacet
facet normal 0.0 -0.9914448613738107 0.13052619222004985
  outer loop
    vertex -3.0 6.642073904691416 6.160007623325714
    vertex 0.0 6.699999999999999 6.599999999999999
    vertex -3.0 6.699999999999999 6.599999999999999
  endloop
endfacet
facet normal 0.0 -0.9238795325112865 0.38268343236509084
  outer loop
    vertex 0.0 6.642073904691416 6.160007623325714
    vertex -3.0 6.472243186433545 5.749999999999999
    vertex 0.0 6.472243186433545 5.749999999999999
  endloop
endfacet
facet normal 0.0 -0.9238795325112865 0.38268343236509084
  outer loop
    vertex -3.0 6.472243186433545 5.749999999999999
    vertex 0.0 6.642073904691416 6.160007623325714
    vertex -3.0 6.642073904691416 6.160007623325714
  endloop
endfacet
facet normal 0.0 -0.7933533402912356 0.6087614290087202
  outer loop
    vertex 0.0 6.472243186433545 5.749999999999999
    vertex -3.0 6.20208152801713 5.397918471982869
    vertex 0.0 6.20208152801713 5.397918471982869
  endloop
endfacet
facet normal 0.0 -0.7933533402912356 0.6087614290087202
  outer loop
    vertex -3.0 6.20208152801713 5.397918471982869
    vertex 0.0 6.472243186433545 5.749999999999999
    vertex -3.0 6.472243186433545 5.749999999999999
  endloop
endfacet
facet normal 0.0 -0.6087614290087209 0.7933533402912349
  outer loop
    vertex 0.0 5.8500000000000005 5.127756813566454
    vertex -3.0 6.20208152801713 5.397918471982869
    vertex -3.0 5.8500000000000005 5.127756813566454
  endloop
endfacet
facet normal 0.0 -0.6087614290087209 0.7933533402912349
  outer loop
    vertex -3.0 6.20208152801713 5.397918471982869
    vertex 0.0 5.8500000000000005 5.127756813566454
    vertex 0.0 6.20208152801713 5.397918471982869
  endloop
endfacet
facet normal 0.0 -0.3428903243286866 0.9393754443681016
  outer loop
    vertex 0.0 5.5 5.0
    vertex -3.0 5.8500000000000005 5.127756813566454
    vertex -3.0 5.5 5.0
  endloop
endfacet
facet normal 0.0 -0.3428903243286866 0.9393754443681016
  outer loop
    vertex -3.0 5.8500000000000005 5.127756813566454
    vertex 0.0 5.5 5.0
    vertex 0.0 5.8500000000000005 5.127756813566454
  endloop
endfacet
facet normal 0.0 -0.5740900965432785 0.8187921354354408
  outer loop
    vertex 0.0 5.439992376674286 4.957926095308584
    vertex -3.0 5.5 5.0
    vertex -3.0 5.439992376674286 4.957926095308584
  endloop
endfacet
facet normal 0.0 -0.5740900965432785 0.8187921354354408
  outer loop
    vertex -3.0 5.5 5.0
    vertex 0.0 5.439992376674286 4.957926095308584
    vertex 0.0 5.5 5.0
  endloop
endfacet
facet normal 0.0 -0.1305261922200528 0.9914448613738103
  outer loop
    vertex 0.0 5.0 4.8999999999999995
    vertex -3.0 5.439992376674286 4.957926095308584
    vertex -3.0 5.0 4.8999999999999995
  endloop
endfacet
facet normal 0.0 -0.1305261922200528 0.9914448613738103
  outer loop
    vertex -3.0 5.439992376674286 4.957926095308584
    vertex 0.0 5.0 4.8999999999999995
    vertex 0.0 5.439992376674286 4.957926095308584
  endloop
endfacet
facet normal 0.0 0.13052619222005163 0.9914448613738105
  outer loop
    vertex 0.0 4.560007623325715 4.957926095308584
    vertex -3.0 5.0 4.8999999999999995
    vertex -3.0 4.560007623325715 4.957926095308584
  endloop
endfacet
facet normal 0.0 0.13052619222005163 0.9914448613738105
  outer loop
    vertex -3.0 5.0 4.8999999999999995
    vertex 0.0 4.560007623325715 4.957926095308584
    vertex 0.0 5.0 4.8999999999999995
  endloop
endfacet
facet normal 0.0 0.3826834323650894 0.923879532511287
  outer loop
    vertex 0.0 4.150000000000001 5.127756813566453
    vertex -3.0 4.560007623325715 4.957926095308584
    vertex -3.0 4.150000000000001 5.127756813566453
  endloop
endfacet
facet normal 0.0 0.3826834323650894 0.923879532511287
  outer loop
    vertex -3.0 4.560007623325715 4.957926095308584
    vertex 0.0 4.150000000000001 5.127756813566453
    vertex 0.0 4.560007623325715 4.957926095308584
  endloop
endfacet
facet normal 0.0 0.6087614290087202 0.7933533402912356
  outer loop
    vertex 0.0 3.7979184719828702 5.397918471982868
    vertex -3.0 4.150000000000001 5.127756813566453
    vertex -3.0 3.7979184719828702 5.397918471982868
  endloop
endfacet
facet normal 0.0 0.6087614290087202 0.7933533402912356
  outer loop
    vertex -3.0 4.150000000000001 5.127756813566453
    vertex 0.0 3.7979184719828702 5.397918471982868
    vertex 0.0 4.150000000000001 5.127756813566453
  endloop
endfacet
facet normal 0.0 0.7933533402912348 0.6087614290087212
  outer loop
    vertex -3.0 3.5277568135664548 5.749999999999998
    vertex 0.0 3.7979184719828702 5.397918471982868
    vertex -3.0 3.7979184719828702 5.397918471982868
  endloop
endfacet
facet normal 0.0 0.7933533402912348 0.6087614290087212
  outer loop
    vertex 0.0 3.7979184719828702 5.397918471982868
    vertex -3.0 3.5277568135664548 5.749999999999998
    vertex 0.0 3.5277568135664548 5.749999999999998
  endloop
endfacet
facet normal 0.0 0.9238795325112862 0.3826834323650914
  outer loop
    vertex -3.0 3.357926095308584 6.160007623325712
    vertex 0.0 3.5277568135664548 5.749999999999998
    vertex -3.0 3.5277568135664548 5.749999999999998
  endloop
endfacet
facet normal 0.0 0.9238795325112862 0.3826834323650914
  outer loop
    vertex 0.0 3.5277568135664548 5.749999999999998
    vertex -3.0 3.357926095308584 6.160007623325712
    vertex 0.0 3.357926095308584 6.160007623325712
  endloop
endfacet
facet normal 0.0 0.9914448613738105 0.13052619222005102
  outer loop
    vertex -3.0 3.3000000000000003 6.599999999999999
    vertex 0.0 3.357926095308584 6.160007623325712
    vertex -3.0 3.357926095308584 6.160007623325712
  endloop
endfacet
facet normal 0.0 0.9914448613738105 0.13052619222005102
  outer loop
    vertex 0.0 3.357926095308584 6.160007623325712
    vertex -3.0 3.3000000000000003 6.599999999999999
    vertex 0.0 3.3000000000000003 6.599999999999999
  endloop
endfacet
facet normal 0.0 0.9914448613738105 -0.13052619222005185
  outer loop
    vertex -3.0 3.357926095308584 7.039992376674283
    vertex 0.0 3.3000000000000003 6.599999999999999
    vertex -3.0 3.3000000000000003 6.599999999999999
  endloop
endfacet
facet normal 0.0 0.9914448613738105 -0.13052619222005185
  outer loop
    vertex 0.0 3.3000000000000003 6.599999999999999
    vertex -3.0 3.357926095308584 7.039992376674283
    vertex 0.0 3.357926095308584 7.039992376674283
  endloop
endfacet
facet normal 0.0 0.9238795325112875 -0.38268343236508806
  outer loop
    vertex -3.0 3.5277568135664534 7.4499999999999975
    vertex 0.0 3.357926095308584 7.039992376674283
    vertex -3.0 3.357926095308584 7.039992376674283
  endloop
endfacet
facet normal 0.0 0.9238795325112875 -0.38268343236508806
  outer loop
    vertex 0.0 3.357926095308584 7.039992376674283
    vertex -3.0 3.5277568135664534 7.4499999999999975
    vertex 0.0 3.5277568135664534 7.4499999999999975
  endloop
endfacet
facet normal 0.0 0.7933533402912346 -0.6087614290087214
  outer loop
    vertex -3.0 3.7979184719828694 7.802081528017129
    vertex 0.0 3.5277568135664534 7.4499999999999975
    vertex -3.0 3.5277568135664534 7.4499999999999975
  endloop
endfacet
facet normal 0.0 0.7933533402912346 -0.6087614290087214
  outer loop
    vertex 0.0 3.5277568135664534 7.4499999999999975
    vertex -3.0 3.7979184719828694 7.802081528017129
    vertex 0.0 3.7979184719828694 7.802081528017129
  endloop
endfacet
facet normal 0.0 0.6087614290087209 -0.7933533402912349
  outer loop
    vertex 0.0 4.1499999999999995 8.072243186433543
    vertex -3.0 3.7979184719828694 7.802081528017129
    vertex -3.0 4.1499999999999995 8.072243186433543
  endloop
endfacet
facet normal 0.0 0.6087614290087209 -0.7933533402912349
  outer loop
    vertex -3.0 3.7979184719828694 7.802081528017129
    vertex 0.0 4.1499999999999995 8.072243186433543
    vertex 0.0 3.7979184719828694 7.802081528017129
  endloop
endfacet
facet normal 0.0 0.3826834323650914 -0.9238795325112862
  outer loop
    vertex 0.0 4.560007623325713 8.242073904691415
    vertex -3.0 4.1499999999999995 8.072243186433543
    vertex -3.0 4.560007623325713 8.242073904691415
  endloop
endfacet
facet normal 0.0 0.3826834323650914 -0.9238795325112862
  outer loop
    vertex -3.0 4.1499999999999995 8.072243186433543
    vertex 0.0 4.560007623325713 8.242073904691415
    vertex 0.0 4.1499999999999995 8.072243186433543
  endloop
endfacet
facet normal 0.0 0.13052619222005257 -0.9914448613738103
  outer loop
    vertex 0.0 5.0 8.299999999999999
    vertex -3.0 4.560007623325713 8.242073904691415
    vertex -3.0 5.0 8.299999999999999
  endloop
endfacet
facet normal 0.0 0.13052619222005257 -0.9914448613738103
  outer loop
    vertex -3.0 4.560007623325713 8.242073904691415
    vertex 0.0 5.0 8.299999999999999
    vertex 0.0 4.560007623325713 8.242073904691415
  endloop
endfacet
facet normal -0.0 -0.130526192220053 -0.9914448613738103
  outer loop
    vertex 0.0 5.439992376674286 8.242073904691415
    vertex -3.0 5.0 8.299999999999999
    vertex -3.0 5.439992376674286 8.242073904691415
  endloop
endfacet
facet normal -0.0 -0.130526192220053 -0.9914448613738103
  outer loop
    vertex -3.0 5.0 8.299999999999999
    vertex 0.0 5.439992376674286 8.242073904691415
    vertex 0.0 5.0 8.299999999999999
  endloop
endfacet
facet normal 0.0 0.0 -1.0
  outer loop
    vertex 20.0 10.0 -6.699999999999999
    vertex -3.0 -3.0 -6.7
    vertex -3.0 10.0 -6.7
  endloop
endfacet
facet normal 0.0 0.0 -1.0
  outer loop
    vertex -3.0 -3.0 -6.7
    vertex 20.0 10.0 -6.699999999999999
    vertex 20.0 -3.0000000000000004 -6.699999999999999
  endloop
endfacet
facet normal -0.0 -0.0 1.0
  outer loop
    vertex 20.0 -3.476556983646429e-16 1.0667718013213896e-15
    vertex 0.0 5.0 0.0
    vertex 0.0 0.0 0.0
  endloop
endfacet
facet normal -0.0 -0.0 1.0
  outer loop
    vertex 0.0 5.0 0.0
    vertex 20.0 -3.476556983646429e-16 1.0667718013213896e-15
    vertex 0.0 10.0 0.0
  endloop
endfacet
facet normal -0.0 -0.0 1.0
  outer loop
    vertex 0.0 10.0 0.0
    vertex 20.0 -3.476556983646429e-16 1.0667718013213896e-15
    vertex 20.0 10.0 1.0667718013213896e-15
  endloop
endfacet
facet normal -1.0 0.0 0.0
  outer loop
    vertex -3.0 -2.9999999999999996 -1.4099832412739487e-15
    vertex -3.0 10.0 -6.7
    vertex -3.0 -3.0 -6.7
  endloop
endfacet
facet normal -1.0 0.0 0.0
  outer loop
    vertex -3.0 10.0 -6.7
    vertex -3.0 -2.9999999999999996 -1.4099832412739487e-15
    vertex -3.0 10.0 0.0
  endloop
endfacet
facet normal -1.0 0.0 0.0
  outer loop
    vertex -23.0 10.0 3.3000000000000473
    vertex -23.0 -2.9999999999999996 -1.4099832412739487e-15
    vertex -23.0 -3.0 3.300000000000005
  endloop
endfacet
facet normal -1.0 0.0 0.0
  outer loop
    vertex -23.0 -2.9999999999999996 -1.4099832412739487e-15
    vertex -23.0 10.0 3.3000000000000473
    vertex -23.0 10.0 0.0
  endloop
endfacet
facet normal 0.0 1.0846024932876529e-16 -1.0
  outer loop
    vertex -23.0 10.0 0.0
    vertex -14.5556349186104 5.05563491861041 2.1149748619109232e-14
    vertex -23.0 -2.9999999999999996 -1.4099832412739487e-15
  endloop
endfacet
facet normal 0.0 1.0846024932876529e-16 -1.0
  outer loop
    vertex -14.5556349186104 5.05563491861041 2.1149748619109232e-14
    vertex -23.0 10.0 0.0
    vertex -14.099999999999996 5.405255888325771 2.255973186038318e-14
  endloop
endfacet
facet normal 0.0 1.0846024932876529e-16 -1.0
  outer loop
    vertex -14.099999999999996 5.405255888325771 2.255973186038318e-14
    vertex -23.0 10.0 0.0
    vertex -13.569401899225543 5.625036817835957 2.3264723481020153e-14
  endloop
endfacet
facet normal 0.0 1.0846024932876529e-16 -1.0
  outer loop
    vertex -13.569401899225543 5.625036817835957 2.3264723481020153e-14
    vertex -23.0 10.0 0.0
    vertex -3.0 10.0 0.0
  endloop
endfacet
facet normal 0.0 1.0846024932876529e-16 -1.0
  outer loop
    vertex -23.0 -2.9999999999999996 -1.4099832412739487e-15
    vertex -14.5556349186104 5.05563491861041 2.1149748619109232e-14
    vertex -14.905255888325764 4.600000000000006 1.973976537783528e-14
  endloop
endfacet
facet normal 0.0 1.0846024932876529e-16 -1.0
  outer loop
    vertex -23.0 -2.9999999999999996 -1.4099832412739487e-15
    vertex -14.905255888325764 4.600000000000006 1.973976537783528e-14
    vertex -15.125036817835946 4.069401899225551 1.8329782136561334e-14
  endloop
endfacet
facet normal 0.0 1.0846024932876529e-16 -1.0
  outer loop
    vertex -23.0 -2.9999999999999996 -1.4099832412739487e-15
    vertex -15.125036817835946 4.069401899225551 1.8329782136561334e-14
    vertex -15.199999999999994 3.500000000000006 1.621480727465041e-14
  endloop
endfacet
facet normal 0.0 1.0846024932876529e-16 -1.0
  outer loop
    vertex -13.569401899225543 5.625036817835957 2.3264723481020153e-14
    vertex -3.0 10.0 0.0
    vertex -12.999999999999996 5.700000000000006 2.3264723481020153e-14
  endloop
endfacet
facet normal 0.0 1.0846024932876529e-16 -1.0
  outer loop
    vertex -12.999999999999996 5.700000000000006 2.3264723481020153e-14
    vertex -3.0 10.0 0.0
    vertex -12.43059810077445 5.625036817835957 2.3264723481020153e-14
  endloop
endfacet
facet normal 0.0 1.0846024932876529e-16 -1.0
  outer loop
    vertex -12.43059810077445 5.625036817835957 2.3264723481020153e-14
    vertex -3.0 10.0 0.0
    vertex -11.899999999999999 5.405255888325772 2.255973186038318e-14
  endloop
endfacet
facet normal 0.0 1.0846024932876529e-16 -1.0
  outer loop
    vertex -11.899999999999999 5.405255888325772 2.255973186038318e-14
    vertex -3.0 10.0 0.0
    vertex -11.444365081389591 5.055634918610411 2.1149748619109232e-14
  endloop
endfacet
facet normal 0.0 1.0846024932876529e-16 -1.0
  outer loop
    vertex -11.444365081389591 5.055634918610411 2.1149748619109232e-14
    vertex -3.0 10.0 0.0
    vertex -11.094744111674231 4.600000000000008 1.973976537783528e-14
  endloop
endfacet
facet normal 0.0 1.0846024932876529e-16 -1.0
  outer loop
    vertex -11.094744111674231 4.600000000000008 1.973976537783528e-14
    vertex -3.0 10.0 0.0
    vertex -10.874963182164047 4.069401899225554 1.8329782136561334e-14
  endloop
endfacet
facet normal 0.0 1.0846024932876529e-16 -1.0
  outer loop
    vertex -10.874963182164047 4.069401899225554 1.8329782136561334e-14
    vertex -3.0 10.0 0.0
    vertex -10.799999999999995 3.500000000000006 1.621480727465041e-14
  endloop
endfacet
facet normal 0.0 1.0846024932876529e-16 -1.0
  outer loop
    vertex -23.0 -2.9999999999999996 -1.4099832412739487e-15
    vertex -13.569401899225543 1.3749631821640609 9.164891068280667e-15
    vertex -3.0 -2.9999999999999996 -1.4099832412739487e-15
  endloop
endfacet
facet normal 0.0 1.0846024932876529e-16 -1.0
  outer loop
    vertex -13.569401899225543 1.3749631821640609 9.164891068280667e-15
    vertex -23.0 -2.9999999999999996 -1.4099832412739487e-15
    vertex -14.099999999999996 1.5947441116742485 9.86988268891764e-15
  endloop
endfacet
facet normal 0.0 1.0846024932876529e-16 -1.0
  outer loop
    vertex -14.099999999999996 1.5947441116742485 9.86988268891764e-15
    vertex -23.0 -2.9999999999999996 -1.4099832412739487e-15
    vertex -14.5556349186104 1.944365081389609 1.127986593019159e-14
  endloop
endfacet
facet normal 0.0 1.0846024932876529e-16 -1.0
  outer loop
    vertex -14.5556349186104 1.944365081389609 1.127986593019159e-14
    vertex -23.0 -2.9999999999999996 -1.4099832412739487e-15
    vertex -14.90525588832576 2.400000000000013 1.2689849171465539e-14
  endloop
endfacet
facet normal 0.0 1.0846024932876529e-16 -1.0
  outer loop
    vertex -14.90525588832576 2.400000000000013 1.2689849171465539e-14
    vertex -23.0 -2.9999999999999996 -1.4099832412739487e-15
    vertex -15.125036817835946 2.9305981007744673 1.4099832412739488e-14
  endloop
endfacet
facet normal 0.0 1.0846024932876529e-16 -1.0
  outer loop
    vertex -15.125036817835946 2.9305981007744673 1.4099832412739488e-14
    vertex -23.0 -2.9999999999999996 -1.4099832412739487e-15
    vertex -15.199999999999994 3.500000000000006 1.621480727465041e-14
  endloop
endfacet
facet normal 0.0 1.0846024932876529e-16 -1.0
  outer loop
    vertex -3.0 -2.9999999999999996 -1.4099832412739487e-15
    vertex -13.569401899225543 1.3749631821640609 9.164891068280667e-15
    vertex -12.999999999999996 1.3000000000000111 9.164891068280667e-15
  endloop
endfacet
facet normal 0.0 1.0846024932876529e-16 -1.0
  outer loop
    vertex -3.0 -2.9999999999999996 -1.4099832412739487e-15
    vertex -12.999999999999996 1.3000000000000111 9.164891068280667e-15
    vertex -12.43059810077445 1.3749631821640613 9.164891068280667e-15
  endloop
endfacet
facet normal 0.0 1.0846024932876529e-16 -1.0
  outer loop
    vertex -3.0 -2.9999999999999996 -1.4099832412739487e-15
    vertex -12.43059810077445 1.3749631821640613 9.164891068280667e-15
    vertex -11.899999999999995 1.5947441116742487 9.86988268891764e-15
  endloop
endfacet
facet normal 0.0 1.0846024932876529e-16 -1.0
  outer loop
    vertex -3.0 -2.9999999999999996 -1.4099832412739487e-15
    vertex -11.899999999999995 1.5947441116742487 9.86988268891764e-15
    vertex -11.444365081389591 1.944365081389609 1.127986593019159e-14
  endloop
endfacet
facet normal 0.0 1.0846024932876529e-16 -1.0
  outer loop
    vertex -3.0 -2.9999999999999996 -1.4099832412739487e-15
    vertex -11.444365081389591 1.944365081389609 1.127986593019159e-14
    vertex -11.094744111674231 2.4000000000000137 1.2689849171465539e-14
  endloop
endfacet
facet normal 0.0 1.0846024932876529e-16 -1.0
  outer loop
    vertex -3.0 -2.9999999999999996 -1.4099832412739487e-15
    vertex -11.094744111674231 2.4000000000000137 1.2689849171465539e-14
    vertex -10.874963182164045 2.930598100774468 1.4099832412739488e-14
  endloop
endfacet
facet normal 0.0 1.0846024932876529e-16 -1.0
  outer loop
    vertex -3.0 -2.9999999999999996 -1.4099832412739487e-15
    vertex -10.874963182164045 2.930598100774468 1.4099832412739488e-14
    vertex -10.799999999999995 3.500000000000006 1.621480727465041e-14
  endloop
endfacet
facet normal 0.0 1.0846024932876529e-16 -1.0
  outer loop
    vertex -3.0 -2.9999999999999996 -1.4099832412739487e-15
    vertex -10.799999999999995 3.500000000000006 1.621480727465041e-14
    vertex -3.0 10.0 0.0
  endloop
endfacet
facet normal 2.205636864166994e-31 -3.2570190021632996e-15 1.0
  outer loop
    vertex -23.0 -3.0 3.300000000000005
    vertex -14.5556349186104 1.9443650813895952 3.3000000000000216
    vertex -23.0 10.0 3.3000000000000473
  endloop
endfacet
facet normal 2.205636864166994e-31 -3.2570190021632996e-15 1.0
  outer loop
    vertex -14.5556349186104 1.9443650813895952 3.3000000000000216
    vertex -23.0 -3.0 3.300000000000005
    vertex -14.099999999999996 1.5947441116742347 3.3000000000000203
  endloop
endfacet
facet normal 2.205636864166994e-31 -3.2570190021632996e-15 1.0
  outer loop
    vertex -14.099999999999996 1.5947441116742347 3.3000000000000203
    vertex -23.0 -3.0 3.300000000000005
    vertex -13.569401899225543 1.3749631821640496 3.3000000000000194
  endloop
endfacet
facet normal 2.205636864166994e-31 -3.2570190021632996e-15 1.0
  outer loop
    vertex -13.569401899225543 1.3749631821640496 3.3000000000000194
    vertex -23.0 -3.0 3.300000000000005
    vertex -3.0 -3.0 3.300000000000005
  endloop
endfacet
facet normal 2.205636864166994e-31 -3.2570190021632996e-15 1.0
  outer loop
    vertex -23.0 10.0 3.3000000000000473
    vertex -14.5556349186104 1.9443650813895952 3.3000000000000216
    vertex -14.90525588832576 2.399999999999999 3.300000000000023
  endloop
endfacet
facet normal 2.205636864166994e-31 -3.2570190021632996e-15 1.0
  outer loop
    vertex -23.0 10.0 3.3000000000000473
    vertex -14.90525588832576 2.399999999999999 3.300000000000023
    vertex -15.125036817835946 2.9305981007744535 3.3000000000000242
  endloop
endfacet
facet normal 2.205636864166994e-31 -3.2570190021632996e-15 1.0
  outer loop
    vertex -23.0 10.0 3.3000000000000473
    vertex -15.125036817835946 2.9305981007744535 3.3000000000000242
    vertex -15.199999999999994 3.5 3.3000000000000265
  endloop
endfacet
facet normal 2.205636864166994e-31 -3.2570190021632996e-15 1.0
  outer loop
    vertex -13.569401899225543 1.3749631821640496 3.3000000000000194
    vertex -3.0 -3.0 3.300000000000005
    vertex -12.999999999999996 1.2999999999999998 3.3000000000000194
  endloop
endfacet
facet normal 2.205636864166994e-31 -3.2570190021632996e-15 1.0
  outer loop
    vertex -12.999999999999996 1.2999999999999998 3.3000000000000194
    vertex -3.0 -3.0 3.300000000000005
    vertex -12.43059810077445 1.3749631821640498 3.3000000000000194
  endloop
endfacet
facet normal 2.205636864166994e-31 -3.2570190021632996e-15 1.0
  outer loop
    vertex -12.43059810077445 1.3749631821640498 3.3000000000000194
    vertex -3.0 -3.0 3.300000000000005
    vertex -11.899999999999995 1.594744111674235 3.3000000000000203
  endloop
endfacet
facet normal 2.205636864166994e-31 -3.2570190021632996e-15 1.0
  outer loop
    vertex -11.899999999999995 1.594744111674235 3.3000000000000203
    vertex -3.0 -3.0 3.300000000000005
    vertex -11.444365081389591 1.9443650813895952 3.3000000000000216
  endloop
endfacet
facet normal 2.205636864166994e-31 -3.2570190021632996e-15 1.0
  outer loop
    vertex -11.444365081389591 1.9443650813895952 3.3000000000000216
    vertex -3.0 -3.0 3.300000000000005
    vertex -11.094744111674231 2.4 3.300000000000023
  endloop
endfacet
facet normal 2.205636864166994e-31 -3.2570190021632996e-15 1.0
  outer loop
    vertex -11.094744111674231 2.4 3.300000000000023
    vertex -3.0 -3.0 3.300000000000005
    vertex -10.874963182164045 2.9305981007744544 3.3000000000000242
  endloop
endfacet
facet normal 2.205636864166994e-31 -3.2570190021632996e-15 1.0
  outer loop
    vertex -10.874963182164045 2.9305981007744544 3.3000000000000242
    vertex -3.0 -3.0 3.300000000000005
    vertex -10.799999999999995 3.5 3.3000000000000265
  endloop
endfacet
facet normal 2.205636864166994e-31 -3.2570190021632996e-15 1.0
  outer loop
    vertex -23.0 10.0 3.3000000000000473
    vertex -13.569401899225543 5.625036817835951 3.3000000000000336
    vertex -2.9999999999999845 10.0 3.3000000000000473
  endloop
endfacet
facet normal 2.205636864166994e-31 -3.2570190021632996e-15 1.0
  outer loop
    vertex -13.569401899225543 5.625036817835951 3.3000000000000336
    vertex -23.0 10.0 3.3000000000000473
    vertex -14.099999999999996 5.405255888325764 3.3000000000000327
  endloop
endfacet
facet normal 2.205636864166994e-31 -3.2570190021632996e-15 1.0
  outer loop
    vertex -14.099999999999996 5.405255888325764 3.3000000000000327
    vertex -23.0 10.0 3.3000000000000473
    vertex -14.5556349186104 5.055634918610404 3.3000000000000314
  endloop
endfacet
facet normal 2.205636864166994e-31 -3.2570190021632996e-15 1.0
  outer loop
    vertex -14.5556349186104 5.055634918610404 3.3000000000000314
    vertex -23.0 10.0 3.3000000000000473
    vertex -14.905255888325764 4.6 3.30000000000003
  endloop
endfacet
facet normal 2.205636864166994e-31 -3.2570190021632996e-15 1.0
  outer loop
    vertex -14.905255888325764 4.6 3.30000000000003
    vertex -23.0 10.0 3.3000000000000473
    vertex -15.125036817835946 4.069401899225545 3.3000000000000287
  endloop
endfacet
facet normal 2.205636864166994e-31 -3.2570190021632996e-15 1.0
  outer loop
    vertex -15.125036817835946 4.069401899225545 3.3000000000000287
    vertex -23.0 10.0 3.3000000000000473
    vertex -15.199999999999994 3.5 3.3000000000000265
  endloop
endfacet
facet normal 2.205636864166994e-31 -3.2570190021632996e-15 1.0
  outer loop
    vertex -2.9999999999999845 10.0 3.3000000000000473
    vertex -13.569401899225543 5.625036817835951 3.3000000000000336
    vertex -12.999999999999996 5.7 3.3000000000000336
  endloop
endfacet
facet normal 2.205636864166994e-31 -3.2570190021632996e-15 1.0
  outer loop
    vertex -2.9999999999999845 10.0 3.3000000000000473
    vertex -12.999999999999996 5.7 3.3000000000000336
    vertex -12.43059810077445 5.625036817835951 3.3000000000000336
  endloop
endfacet
facet normal 2.205636864166994e-31 -3.2570190021632996e-15 1.0
  outer loop
    vertex -2.9999999999999845 10.0 3.3000000000000473
    vertex -12.43059810077445 5.625036817835951 3.3000000000000336
    vertex -11.899999999999999 5.405255888325766 3.3000000000000327
  endloop
endfacet
facet normal 2.205636864166994e-31 -3.2570190021632996e-15 1.0
  outer loop
    vertex -2.9999999999999845 10.0 3.3000000000000473
    vertex -11.899999999999999 5.405255888325766 3.3000000000000327
    vertex -11.444365081389591 5.055634918610405 3.3000000000000314
  endloop
endfacet
facet normal 2.205636864166994e-31 -3.2570190021632996e-15 1.0
  outer loop
    vertex -2.9999999999999845 10.0 3.3000000000000473
    vertex -11.444365081389591 5.055634918610405 3.3000000000000314
    vertex -11.094744111674231 4.600000000000001 3.30000000000003
  endloop
endfacet
facet normal 2.205636864166994e-31 -3.2570190021632996e-15 1.0
  outer loop
    vertex -2.9999999999999845 10.0 3.3000000000000473
    vertex -11.094744111674231 4.600000000000001 3.30000000000003
    vertex -10.874963182164047 4.069401899225547 3.3000000000000287
  endloop
endfacet
facet normal 2.205636864166994e-31 -3.2570190021632996e-15 1.0
  outer loop
    vertex -2.9999999999999845 10.0 3.3000000000000473
    vertex -10.874963182164047 4.069401899225547 3.3000000000000287
    vertex -10.799999999999995 3.5 3.3000000000000265
  endloop
endfacet
facet normal 2.205636864166994e-31 -3.2570190021632996e-15 1.0
  outer loop
    vertex -2.9999999999999845 10.0 3.3000000000000473
    vertex -10.799999999999995 3.5 3.3000000000000265
    vertex -3.0 -3.0 3.300000000000005
  endloop
endfacet
facet normal 0.13052619222005127 0.9914448613738105 3.2490737842760555e-15
  outer loop
    vertex -13.569401899225543 1.3749631821640496 3.3000000000000194
    vertex -12.999999999999996 1.3000000000000111 9.164891068280667e-15
    vertex -13.569401899225543 1.3749631821640609 9.164891068280667e-15
  endloop
endfacet
facet normal 0.13052619222005127 0.9914448613738105 3.2490737842760555e-15
  outer loop
    vertex -12.999999999999996 1.3000000000000111 9.164891068280667e-15
    vertex -13.569401899225543 1.3749631821640496 3.3000000000000194
    vertex -12.999999999999996 1.2999999999999998 3.3000000000000194
  endloop
endfacet
facet normal -0.13052619222005185 0.9914448613738104 3.249073784276055e-15
  outer loop
    vertex -12.999999999999996 1.2999999999999998 3.3000000000000194
    vertex -12.43059810077445 1.3749631821640613 9.164891068280667e-15
    vertex -12.999999999999996 1.3000000000000111 9.164891068280667e-15
  endloop
endfacet
facet normal -0.13052619222005185 0.9914448613738104 3.249073784276055e-15
  outer loop
    vertex -12.43059810077445 1.3749631821640613 9.164891068280667e-15
    vertex -12.999999999999996 1.2999999999999998 3.3000000000000194
    vertex -12.43059810077445 1.3749631821640498 3.3000000000000194
  endloop
endfacet
facet normal -0.38268343236508984 0.9238795325112867 3.0276547752259425e-15
  outer loop
    vertex -12.43059810077445 1.3749631821640498 3.3000000000000194
    vertex -11.899999999999995 1.5947441116742487 9.86988268891764e-15
    vertex -12.43059810077445 1.3749631821640613 9.164891068280667e-15
  endloop
endfacet
facet normal -0.38268343236508984 0.9238795325112867 3.0276547752259425e-15
  outer loop
    vertex -11.899999999999995 1.5947441116742487 9.86988268891764e-15
    vertex -12.43059810077445 1.3749631821640498 3.3000000000000194
    vertex -11.899999999999995 1.594744111674235 3.3000000000000203
  endloop
endfacet
facet normal -0.6087614290087211 0.7933533402912349 2.5999060966802678e-15
  outer loop
    vertex -11.899999999999995 1.594744111674235 3.3000000000000203
    vertex -11.444365081389591 1.944365081389609 1.127986593019159e-14
    vertex -11.899999999999995 1.5947441116742487 9.86988268891764e-15
  endloop
endfacet
facet normal -0.6087614290087211 0.7933533402912349 2.5999060966802678e-15
  outer loop
    vertex -11.444365081389591 1.944365081389609 1.127986593019159e-14
    vertex -11.899999999999995 1.594744111674235 3.3000000000000203
    vertex -11.444365081389591 1.9443650813895952 3.3000000000000216
  endloop
endfacet
facet normal -0.793353340291235 0.608761429008721 1.994978114193807e-15
  outer loop
    vertex -11.094744111674231 2.4 3.300000000000023
    vertex -11.444365081389591 1.944365081389609 1.127986593019159e-14
    vertex -11.444365081389591 1.9443650813895952 3.3000000000000216
  endloop
endfacet
facet normal -0.793353340291235 0.608761429008721 1.994978114193807e-15
  outer loop
    vertex -11.444365081389591 1.944365081389609 1.127986593019159e-14
    vertex -11.094744111674231 2.4 3.300000000000023
    vertex -11.094744111674231 2.4000000000000137 1.2689849171465539e-14
  endloop
endfacet
facet normal -0.9238795325112865 0.3826834323650907 1.2540956700822537e-15
  outer loop
    vertex -10.874963182164045 2.9305981007744544 3.3000000000000242
    vertex -11.094744111674231 2.4000000000000137 1.2689849171465539e-14
    vertex -11.094744111674231 2.4 3.300000000000023
  endloop
endfacet
facet normal -0.9238795325112865 0.3826834323650907 1.2540956700822537e-15
  outer loop
    vertex -11.094744111674231 2.4000000000000137 1.2689849171465539e-14
    vertex -10.874963182164045 2.9305981007744544 3.3000000000000242
    vertex -10.874963182164045 2.930598100774468 1.4099832412739488e-14
  endloop
endfacet
facet normal -0.9914448613738106 0.1305261922200503 4.2774867854567106e-16
  outer loop
    vertex -10.799999999999995 3.5 3.3000000000000265
    vertex -10.874963182164045 2.930598100774468 1.4099832412739488e-14
    vertex -10.874963182164045 2.9305981007744544 3.3000000000000242
  endloop
endfacet
facet normal -0.9914448613738106 0.1305261922200503 4.2774867854567106e-16
  outer loop
    vertex -10.874963182164045 2.930598100774468 1.4099832412739488e-14
    vertex -10.799999999999995 3.5 3.3000000000000265
    vertex -10.799999999999995 3.500000000000006 1.621480727465041e-14
  endloop
endfacet
facet normal -0.9914448613738105 -0.13052619222005235 -4.2774867854567614e-16
  outer loop
    vertex -10.874963182164047 4.069401899225547 3.3000000000000287
    vertex -10.799999999999995 3.500000000000006 1.621480727465041e-14
    vertex -10.799999999999995 3.5 3.3000000000000265
  endloop
endfacet
facet normal -0.9914448613738105 -0.13052619222005235 -4.2774867854567614e-16
  outer loop
    vertex -10.799999999999995 3.500000000000006 1.621480727465041e-14
    vertex -10.874963182164047 4.069401899225547 3.3000000000000287
    vertex -10.874963182164047 4.069401899225554 1.8329782136561334e-14
  endloop
endfacet
facet normal -0.9238795325112863 -0.3826834323650909 -1.2540956700822527e-15
  outer loop
    vertex -11.094744111674231 4.600000000000001 3.30000000000003
    vertex -10.874963182164047 4.069401899225554 1.8329782136561334e-14
    vertex -10.874963182164047 4.069401899225547 3.3000000000000287
  endloop
endfacet
facet normal -0.9238795325112863 -0.3826834323650909 -1.2540956700822527e-15
  outer loop
    vertex -10.874963182164047 4.069401899225554 1.8329782136561334e-14
    vertex -11.094744111674231 4.600000000000001 3.30000000000003
    vertex -11.094744111674231 4.600000000000008 1.973976537783528e-14
  endloop
endfacet
facet normal -0.7933533402912355 -0.6087614290087202 -1.9949781141938037e-15
  outer loop
    vertex -11.444365081389591 5.055634918610405 3.3000000000000314
    vertex -11.094744111674231 4.600000000000008 1.973976537783528e-14
    vertex -11.094744111674231 4.600000000000001 3.30000000000003
  endloop
endfacet
facet normal -0.7933533402912355 -0.6087614290087202 -1.9949781141938037e-15
  outer loop
    vertex -11.094744111674231 4.600000000000008 1.973976537783528e-14
    vertex -11.444365081389591 5.055634918610405 3.3000000000000314
    vertex -11.444365081389591 5.055634918610411 2.1149748619109232e-14
  endloop
endfacet
facet normal -0.6087614290087194 -0.7933533402912363 -2.59990609668027e-15
  outer loop
    vertex -11.444365081389591 5.055634918610405 3.3000000000000314
    vertex -11.899999999999999 5.405255888325772 2.255973186038318e-14
    vertex -11.444365081389591 5.055634918610411 2.1149748619109232e-14
  endloop
endfacet
facet normal -0.6087614290087194 -0.7933533402912363 -2.59990609668027e-15
  outer loop
    vertex -11.899999999999999 5.405255888325772 2.255973186038318e-14
    vertex -11.444365081389591 5.055634918610405 3.3000000000000314
    vertex -11.899999999999999 5.405255888325766 3.3000000000000327
  endloop
endfacet
facet normal -0.38268343236508967 -0.9238795325112868 -3.0276547752259417e-15
  outer loop
    vertex -11.899999999999999 5.405255888325766 3.3000000000000327
    vertex -12.43059810077445 5.625036817835957 2.3264723481020153e-14
    vertex -11.899999999999999 5.405255888325772 2.255973186038318e-14
  endloop
endfacet
facet normal -0.38268343236508967 -0.9238795325112868 -3.0276547752259417e-15
  outer loop
    vertex -12.43059810077445 5.625036817835957 2.3264723481020153e-14
    vertex -11.899999999999999 5.405255888325766 3.3000000000000327
    vertex -12.43059810077445 5.625036817835951 3.3000000000000336
  endloop
endfacet
facet normal -0.13052619222005157 -0.9914448613738104 -3.249073784276055e-15
  outer loop
    vertex -12.43059810077445 5.625036817835951 3.3000000000000336
    vertex -12.999999999999996 5.700000000000006 2.3264723481020153e-14
    vertex -12.43059810077445 5.625036817835957 2.3264723481020153e-14
  endloop
endfacet
facet normal -0.13052619222005157 -0.9914448613738104 -3.249073784276055e-15
  outer loop
    vertex -12.999999999999996 5.700000000000006 2.3264723481020153e-14
    vertex -12.43059810077445 5.625036817835951 3.3000000000000336
    vertex -12.999999999999996 5.7 3.3000000000000336
  endloop
endfacet
facet normal 0.13052619222005127 -0.9914448613738105 -3.2490737842760555e-15
  outer loop
    vertex -12.999999999999996 5.7 3.3000000000000336
    vertex -13.569401899225543 5.625036817835957 2.3264723481020153e-14
    vertex -12.999999999999996 5.700000000000006 2.3264723481020153e-14
  endloop
endfacet
facet normal 0.13052619222005127 -0.9914448613738105 -3.2490737842760555e-15
  outer loop
    vertex -13.569401899225543 5.625036817835957 2.3264723481020153e-14
    vertex -12.999999999999996 5.7 3.3000000000000336
    vertex -13.569401899225543 5.625036817835951 3.3000000000000336
  endloop
endfacet
facet normal 0.3826834323650909 -0.9238795325112863 -3.027654775225941e-15
  outer loop
    vertex -13.569401899225543 5.625036817835957 2.3264723481020153e-14
    vertex -14.099999999999996 5.405255888325764 3.3000000000000327
    vertex -14.099999999999996 5.405255888325771 2.255973186038318e-14
  endloop
endfacet
facet normal 0.3826834323650909 -0.9238795325112863 -3.027654775225941e-15
  outer loop
    vertex -14.099999999999996 5.405255888325764 3.3000000000000327
    vertex -13.569401899225543 5.625036817835957 2.3264723481020153e-14
    vertex -13.569401899225543 5.625036817835951 3.3000000000000336
  endloop
endfacet
facet normal 0.6087614290087218 -0.7933533402912343 -2.5999060966802654e-15
  outer loop
    vertex -14.099999999999996 5.405255888325771 2.255973186038318e-14
    vertex -14.5556349186104 5.055634918610404 3.3000000000000314
    vertex -14.5556349186104 5.05563491861041 2.1149748619109232e-14
  endloop
endfacet
facet normal 0.6087614290087218 -0.7933533402912343 -2.5999060966802654e-15
  outer loop
    vertex -14.5556349186104 5.055634918610404 3.3000000000000314
    vertex -14.099999999999996 5.405255888325771 2.255973186038318e-14
    vertex -14.099999999999996 5.405255888325764 3.3000000000000327
  endloop
endfacet
facet normal 0.7933533402912336 -0.6087614290087228 -1.9949781141938132e-15
  outer loop
    vertex -14.905255888325764 4.600000000000006 1.973976537783528e-14
    vertex -14.5556349186104 5.055634918610404 3.3000000000000314
    vertex -14.905255888325764 4.6 3.30000000000003
  endloop
endfacet
facet normal 0.7933533402912336 -0.6087614290087228 -1.9949781141938132e-15
  outer loop
    vertex -14.5556349186104 5.055634918610404 3.3000000000000314
    vertex -14.905255888325764 4.600000000000006 1.973976537783528e-14
    vertex -14.5556349186104 5.05563491861041 2.1149748619109232e-14
  endloop
endfacet
facet normal 0.9238795325112874 -0.3826834323650884 -1.254095670082246e-15
  outer loop
    vertex -15.125036817835946 4.069401899225551 1.8329782136561334e-14
    vertex -14.905255888325764 4.6 3.30000000000003
    vertex -15.125036817835946 4.069401899225545 3.3000000000000287
  endloop
endfacet
facet normal 0.9238795325112874 -0.3826834323650884 -1.254095670082246e-15
  outer loop
    vertex -14.905255888325764 4.6 3.30000000000003
    vertex -15.125036817835946 4.069401899225551 1.8329782136561334e-14
    vertex -14.905255888325764 4.600000000000006 1.973976537783528e-14
  endloop
endfacet
facet normal 0.991444861373811 -0.13052619222004813 -4.27748678545664e-16
  outer loop
    vertex -15.199999999999994 3.500000000000006 1.621480727465041e-14
    vertex -15.125036817835946 4.069401899225545 3.3000000000000287
    vertex -15.199999999999994 3.5 3.3000000000000265
  endloop
endfacet
facet normal 0.991444861373811 -0.13052619222004813 -4.27748678545664e-16
  outer loop
    vertex -15.125036817835946 4.069401899225545 3.3000000000000287
    vertex -15.199999999999994 3.500000000000006 1.621480727465041e-14
    vertex -15.125036817835946 4.069401899225551 1.8329782136561334e-14
  endloop
endfacet
facet normal 0.991444861373811 0.13052619222004774 4.2774867854566105e-16
  outer loop
    vertex -15.125036817835946 2.9305981007744673 1.4099832412739488e-14
    vertex -15.199999999999994 3.5 3.3000000000000265
    vertex -15.125036817835946 2.9305981007744535 3.3000000000000242
  endloop
endfacet
facet normal 0.991444861373811 0.13052619222004774 4.2774867854566105e-16
  outer loop
    vertex -15.199999999999994 3.5 3.3000000000000265
    vertex -15.125036817835946 2.9305981007744673 1.4099832412739488e-14
    vertex -15.199999999999994 3.500000000000006 1.621480727465041e-14
  endloop
endfacet
facet normal 0.9238795325112855 0.3826834323650928 1.2540956700822589e-15
  outer loop
    vertex -14.90525588832576 2.400000000000013 1.2689849171465539e-14
    vertex -15.125036817835946 2.9305981007744535 3.3000000000000242
    vertex -14.90525588832576 2.399999999999999 3.300000000000023
  endloop
endfacet
facet normal 0.9238795325112855 0.3826834323650928 1.2540956700822589e-15
  outer loop
    vertex -15.125036817835946 2.9305981007744535 3.3000000000000242
    vertex -14.90525588832576 2.400000000000013 1.2689849171465539e-14
    vertex -15.125036817835946 2.9305981007744673 1.4099832412739488e-14
  endloop
endfacet
facet normal 0.7933533402912357 0.60876142900872 1.9949781141938026e-15
  outer loop
    vertex -14.5556349186104 1.944365081389609 1.127986593019159e-14
    vertex -14.90525588832576 2.399999999999999 3.300000000000023
    vertex -14.5556349186104 1.9443650813895952 3.3000000000000216
  endloop
endfacet
facet normal 0.7933533402912357 0.60876142900872 1.9949781141938026e-15
  outer loop
    vertex -14.90525588832576 2.399999999999999 3.300000000000023
    vertex -14.5556349186104 1.944365081389609 1.127986593019159e-14
    vertex -14.90525588832576 2.400000000000013 1.2689849171465539e-14
  endloop
endfacet
facet normal 0.6087614290087214 0.7933533402912346 2.5999060966802654e-15
  outer loop
    vertex -14.5556349186104 1.944365081389609 1.127986593019159e-14
    vertex -14.099999999999996 1.5947441116742347 3.3000000000000203
    vertex -14.099999999999996 1.5947441116742485 9.86988268891764e-15
  endloop
endfacet
facet normal 0.6087614290087214 0.7933533402912346 2.5999060966802654e-15
  outer loop
    vertex -14.099999999999996 1.5947441116742347 3.3000000000000203
    vertex -14.5556349186104 1.944365081389609 1.127986593019159e-14
    vertex -14.5556349186104 1.9443650813895952 3.3000000000000216
  endloop
endfacet
facet normal 0.38268343236508984 0.9238795325112867 3.0276547752259413e-15
  outer loop
    vertex -14.099999999999996 1.5947441116742485 9.86988268891764e-15
    vertex -13.569401899225543 1.3749631821640496 3.3000000000000194
    vertex -13.569401899225543 1.3749631821640609 9.164891068280667e-15
  endloop
endfacet
facet normal 0.38268343236508984 0.9238795325112867 3.0276547752259413e-15
  outer loop
    vertex -13.569401899225543 1.3749631821640496 3.3000000000000194
    vertex -14.099999999999996 1.5947441116742485 9.86988268891764e-15
    vertex -14.099999999999996 1.5947441116742347 3.3000000000000203
  endloop
endfacet
facet normal -1.0 3.6781200572598666e-16 -2.5684090604783707e-16
  outer loop
    vertex -3.0 -2.9999999999999996 13.299999999999999
    vertex -3.0 3.357926095308584 7.039992376674283
    vertex -3.0 3.3000000000000003 6.599999999999999
  endloop
endfacet
facet normal -1.0 3.6781200572598666e-16 -2.5684090604783707e-16
  outer loop
    vertex -3.0 3.357926095308584 7.039992376674283
    vertex -3.0 -2.9999999999999996 13.299999999999999
    vertex -3.0 5.0 13.299999999999999
  endloop
endfacet
facet normal -1.0 3.6781200572598666e-16 -2.5684090604783707e-16
  outer loop
    vertex -3.0 3.357926095308584 7.039992376674283
    vertex -3.0 5.0 13.299999999999999
    vertex -3.0 3.5277568135664534 7.4499999999999975
  endloop
endfacet
facet normal -1.0 3.6781200572598666e-16 -2.5684090604783707e-16
  outer loop
    vertex -3.0 3.5277568135664534 7.4499999999999975
    vertex -3.0 5.0 13.299999999999999
    vertex -3.0 3.7979184719828694 7.802081528017129
  endloop
endfacet
facet normal -1.0 3.6781200572598666e-16 -2.5684090604783707e-16
  outer loop
    vertex -3.0 3.7979184719828694 7.802081528017129
    vertex -3.0 5.0 13.299999999999999
    vertex -3.0 4.1499999999999995 8.072243186433543
  endloop
endfacet
facet normal -1.0 3.6781200572598666e-16 -2.5684090604783707e-16
  outer loop
    vertex -3.0 4.1499999999999995 8.072243186433543
    vertex -3.0 5.0 13.299999999999999
    vertex -3.0 4.560007623325713 8.242073904691415
  endloop
endfacet
facet normal -1.0 3.6781200572598666e-16 -2.5684090604783707e-16
  outer loop
    vertex -3.0 4.560007623325713 8.242073904691415
    vertex -3.0 5.0 13.299999999999999
    vertex -3.0 5.0 8.299999999999999
  endloop
endfacet
facet normal -1.0 3.6781200572598666e-16 -2.5684090604783707e-16
  outer loop
    vertex -3.0 10.0 13.299999999999999
    vertex -3.0 5.0 8.299999999999999
    vertex -3.0 5.0 13.299999999999999
  endloop
endfacet
facet normal -1.0 3.6781200572598666e-16 -2.5684090604783707e-16
  outer loop
    vertex -3.0 5.0 8.299999999999999
    vertex -3.0 10.0 13.299999999999999
    vertex -3.0 5.439992376674286 8.242073904691415
  endloop
endfacet
facet normal -1.0 3.6781200572598666e-16 -2.5684090604783707e-16
  outer loop
    vertex -3.0 5.439992376674286 8.242073904691415
    vertex -3.0 10.0 13.299999999999999
    vertex -3.0 5.5 8.2
  endloop
endfacet
facet normal -1.0 3.6781200572598666e-16 -2.5684090604783707e-16
  outer loop
    vertex -3.0 5.5 8.2
    vertex -3.0 10.0 13.299999999999999
    vertex -3.0 5.85 8.072243186433544
  endloop
endfacet
facet normal -1.0 3.6781200572598666e-16 -2.5684090604783707e-16
  outer loop
    vertex -3.0 5.85 8.072243186433544
    vertex -3.0 10.0 13.299999999999999
    vertex -3.0 6.20208152801713 7.802081528017131
  endloop
endfacet
facet normal -1.0 3.6781200572598666e-16 -2.5684090604783707e-16
  outer loop
    vertex -3.0 6.20208152801713 7.802081528017131
    vertex -3.0 10.0 13.299999999999999
    vertex -3.0 6.472243186433545 7.449999999999999
  endloop
endfacet
facet normal -1.0 3.6781200572598666e-16 -2.5684090604783707e-16
  outer loop
    vertex -3.0 6.472243186433545 7.449999999999999
    vertex -3.0 10.0 13.299999999999999
    vertex -3.0 6.642073904691416 7.0399923766742845
  endloop
endfacet
facet normal -1.0 3.6781200572598666e-16 -2.5684090604783707e-16
  outer loop
    vertex -3.0 6.642073904691416 7.0399923766742845
    vertex -3.0 10.0 13.299999999999999
    vertex -3.0 6.699999999999999 6.599999999999999
  endloop
endfacet
facet normal -1.0 3.6781200572598666e-16 -2.5684090604783707e-16
  outer loop
    vertex -3.0 -3.0 3.300000000000005
    vertex -3.0 4.560007623325715 4.957926095308584
    vertex -2.9999999999999845 10.0 3.3000000000000473
  endloop
endfacet
facet normal -1.0 3.6781200572598666e-16 -2.5684090604783707e-16
  outer loop
    vertex -3.0 4.560007623325715 4.957926095308584
    vertex -3.0 -3.0 3.300000000000005
    vertex -3.0 4.150000000000001 5.127756813566453
  endloop
endfacet
facet normal -1.0 3.6781200572598666e-16 -2.5684090604783707e-16
  outer loop
    vertex -3.0 4.150000000000001 5.127756813566453
    vertex -3.0 -3.0 3.300000000000005
    vertex -3.0 3.7979184719828702 5.397918471982868
  endloop
endfacet
facet normal -1.0 3.6781200572598666e-16 -2.5684090604783707e-16
  outer loop
    vertex -3.0 3.7979184719828702 5.397918471982868
    vertex -3.0 -3.0 3.300000000000005
    vertex -3.0 -2.9999999999999996 13.299999999999999
  endloop
endfacet
facet normal -1.0 3.6781200572598666e-16 -2.5684090604783707e-16
  outer loop
    vertex -3.0 3.7979184719828702 5.397918471982868
    vertex -3.0 -2.9999999999999996 13.299999999999999
    vertex -3.0 3.5277568135664548 5.749999999999998
  endloop
endfacet
facet normal -1.0 3.6781200572598666e-16 -2.5684090604783707e-16
  outer loop
    vertex -3.0 3.5277568135664548 5.749999999999998
    vertex -3.0 -2.9999999999999996 13.299999999999999
    vertex -3.0 3.357926095308584 6.160007623325712
  endloop
endfacet
facet normal -1.0 3.6781200572598666e-16 -2.5684090604783707e-16
  outer loop
    vertex -3.0 3.357926095308584 6.160007623325712
    vertex -3.0 -2.9999999999999996 13.299999999999999
    vertex -3.0 3.3000000000000003 6.599999999999999
  endloop
endfacet
facet normal -1.0 3.6781200572598666e-16 -2.5684090604783707e-16
  outer loop
    vertex -2.9999999999999845 10.0 3.3000000000000473
    vertex -3.0 4.560007623325715 4.957926095308584
    vertex -3.0 5.0 4.8999999999999995
  endloop
endfacet
facet normal -1.0 3.6781200572598666e-16 -2.5684090604783707e-16
  outer loop
    vertex -2.9999999999999845 10.0 3.3000000000000473
    vertex -3.0 5.0 4.8999999999999995
    vertex -3.0 5.439992376674286 4.957926095308584
  endloop
endfacet
facet normal -1.0 3.6781200572598666e-16 -2.5684090604783707e-16
  outer loop
    vertex -2.9999999999999845 10.0 3.3000000000000473
    vertex -3.0 5.439992376674286 4.957926095308584
    vertex -3.0 5.5 5.0
  endloop
endfacet
facet normal -1.0 3.6781200572598666e-16 -2.5684090604783707e-16
  outer loop
    vertex -2.9999999999999845 10.0 3.3000000000000473
    vertex -3.0 5.5 5.0
    vertex -3.0 5.8500000000000005 5.127756813566454
  endloop
endfacet
facet normal -1.0 3.6781200572598666e-16 -2.5684090604783707e-16
  outer loop
    vertex -2.9999999999999845 10.0 3.3000000000000473
    vertex -3.0 5.8500000000000005 5.127756813566454
    vertex -3.0 6.20208152801713 5.397918471982869
  endloop
endfacet
facet normal -1.0 3.6781200572598666e-16 -2.5684090604783707e-16
  outer loop
    vertex -2.9999999999999845 10.0 3.3000000000000473
    vertex -3.0 6.20208152801713 5.397918471982869
    vertex -3.0 6.472243186433545 5.749999999999999
  endloop
endfacet
facet normal -1.0 3.6781200572598666e-16 -2.5684090604783707e-16
  outer loop
    vertex -2.9999999999999845 10.0 3.3000000000000473
    vertex -3.0 6.472243186433545 5.749999999999999
    vertex -3.0 6.642073904691416 6.160007623325714
  endloop
endfacet
facet normal -1.0 3.6781200572598666e-16 -2.5684090604783707e-16
  outer loop
    vertex -2.9999999999999845 10.0 3.3000000000000473
    vertex -3.0 6.642073904691416 6.160007623325714
    vertex -3.0 6.699999999999999 6.599999999999999
  endloop
endfacet
facet normal -1.0 3.6781200572598666e-16 -2.5684090604783707e-16
  outer loop
    vertex -2.9999999999999845 10.0 3.3000000000000473
    vertex -3.0 6.699999999999999 6.599999999999999
    vertex -3.0 10.0 13.299999999999999
  endloop
endfacet
facet normal -0.0 1.0 -0.0
  outer loop
    vertex -3.0 10.0 0.0
    vertex 20.0 10.0 -6.699999999999999
    vertex -3.0 10.0 -6.7
  endloop
endfacet
facet normal -0.0 1.0 -0.0
  outer loop
    vertex 20.0 10.0 -6.699999999999999
    vertex -3.0 10.0 0.0
    vertex 0.0 10.0 0.0
  endloop
endfacet
facet normal -0.0 1.0 -0.0
  outer loop
    vertex 20.0 10.0 -6.699999999999999
    vertex 0.0 10.0 0.0
    vertex 20.0 10.0 1.0667718013213896e-15
  endloop
endfacet
facet normal -0.0 1.0 -0.0
  outer loop
    vertex -23.0 10.0 3.3000000000000473
    vertex -3.0 10.0 0.0
    vertex -23.0 10.0 0.0
  endloop
endfacet
facet normal -0.0 1.0 -0.0
  outer loop
    vertex -3.0 10.0 0.0
    vertex -23.0 10.0 3.3000000000000473
    vertex 0.0 10.0 0.0
  endloop
endfacet
facet normal -0.0 1.0 -0.0
  outer loop
    vertex 0.0 10.0 0.0
    vertex -23.0 10.0 3.3000000000000473
    vertex -2.9999999999999845 10.0 3.3000000000000473
  endloop
endfacet
facet normal -0.0 1.0 -0.0
  outer loop
    vertex 0.0 10.0 0.0
    vertex -2.9999999999999845 10.0 3.3000000000000473
    vertex 0.0 10.0 13.299999999999999
  endloop
endfacet
facet normal -0.0 1.0 -0.0
  outer loop
    vertex 0.0 10.0 13.299999999999999
    vertex -2.9999999999999845 10.0 3.3000000000000473
    vertex -3.0 10.0 13.299999999999999
  endloop
endfacet
facet normal -0.0 -0.0 1.0
  outer loop
    vertex 0.0 -2.9999999999999987 13.299999999999999
    vertex -3.0 5.0 13.299999999999999
    vertex -3.0 -2.9999999999999996 13.299999999999999
  endloop
endfacet
facet normal -0.0 -0.0 1.0
  outer loop
    vertex -3.0 5.0 13.299999999999999
    vertex 0.0 -2.9999999999999987 13.299999999999999
    vertex -3.0 10.0 13.299999999999999
  endloop
endfacet
facet normal -0.0 -0.0 1.0
  outer loop
    vertex -3.0 10.0 13.299999999999999
    vertex 0.0 -2.9999999999999987 13.299999999999999
    vertex 0.0 10.0 13.299999999999999
  endloop
endfacet
facet normal -0.0 -0.0 1.0
  outer loop
    vertex 0.0 10.0 13.299999999999999
    vertex 0.0 -2.9999999999999987 13.299999999999999
    vertex 0.0 0.0 13.299999999999999
  endloop
endfacet
facet normal -0.0 -0.0 1.0
  outer loop
    vertex 0.0 10.0 13.299999999999999
    vertex 0.0 0.0 13.299999999999999
    vertex 0.0 5.0 13.299999999999999
  endloop
endfacet
facet normal 1.1568278002406511e-17 -1.0 4.924565068100252e-17
  outer loop
    vertex 0.0 -2.9999999999999987 13.299999999999999
    vertex -3.0 -3.0 3.300000000000005
    vertex 0.0 -2.9999999999999987 0.0
  endloop
endfacet
facet normal 1.1568278002406511e-17 -1.0 4.924565068100252e-17
  outer loop
    vertex -3.0 -3.0 3.300000000000005
    vertex 0.0 -2.9999999999999987 13.299999999999999
    vertex -3.0 -2.9999999999999996 13.299999999999999
  endloop
endfacet
facet normal 1.1568278002406511e-17 -1.0 4.924565068100252e-17
  outer loop
    vertex 20.0 -3.0000000000000004 -6.699999999999999
    vertex -3.0 -2.9999999999999996 -1.4099832412739487e-15
    vertex -3.0 -3.0 -6.7
  endloop
endfacet
facet normal 1.1568278002406511e-17 -1.0 4.924565068100252e-17
  outer loop
    vertex -3.0 -2.9999999999999996 -1.4099832412739487e-15
    vertex 20.0 -3.0000000000000004 -6.699999999999999
    vertex 20.0 -2.9999999999999987 0.0
  endloop
endfacet
facet normal 1.1568278002406511e-17 -1.0 4.924565068100252e-17
  outer loop
    vertex -3.0 -2.9999999999999996 -1.4099832412739487e-15
    vertex 20.0 -2.9999999999999987 0.0
    vertex -23.0 -2.9999999999999996 -1.4099832412739487e-15
  endloop
endfacet
facet normal 1.1568278002406511e-17 -1.0 4.924565068100252e-17
  outer loop
    vertex -23.0 -2.9999999999999996 -1.4099832412739487e-15
    vertex 20.0 -2.9999999999999987 0.0
    vertex 0.0 -2.9999999999999987 0.0
  endloop
endfacet
facet normal 1.1568278002406511e-17 -1.0 4.924565068100252e-17
  outer loop
    vertex -23.0 -2.9999999999999996 -1.4099832412739487e-15
    vertex 0.0 -2.9999999999999987 0.0
    vertex -23.0 -3.0 3.300000000000005
  endloop
endfacet
facet normal 1.1568278002406511e-17 -1.0 4.924565068100252e-17
  outer loop
    vertex -23.0 -3.0 3.300000000000005
    vertex 0.0 -2.9999999999999987 0.0
    vertex -3.0 -3.0 3.300000000000005
  endloop
endfacet
facet normal 1.0 -0.0 -0.0
  outer loop
    vertex 0.0 10.0 0.0
    vertex 0.0 5.0 4.8999999999999995
    vertex 0.0 5.0 0.0
  endloop
endfacet
facet normal 1.0 -0.0 -0.0
  outer loop
    vertex 0.0 5.0 4.8999999999999995
    vertex 0.0 10.0 0.0
    vertex 0.0 5.439992376674286 4.957926095308584
  endloop
endfacet
facet normal 1.0 -0.0 -0.0
  outer loop
    vertex 0.0 5.439992376674286 4.957926095308584
    vertex 0.0 10.0 0.0
    vertex 0.0 5.5 5.0
  endloop
endfacet
facet normal 1.0 -0.0 -0.0
  outer loop
    vertex 0.0 5.5 5.0
    vertex 0.0 10.0 0.0
    vertex 0.0 5.8500000000000005 5.127756813566454
  endloop
endfacet
facet normal 1.0 -0.0 -0.0
  outer loop
    vertex 0.0 5.8500000000000005 5.127756813566454
    vertex 0.0 10.0 0.0
    vertex 0.0 6.20208152801713 5.397918471982869
  endloop
endfacet
facet normal 1.0 -0.0 -0.0
  outer loop
    vertex 0.0 6.20208152801713 5.397918471982869
    vertex 0.0 10.0 0.0
    vertex 0.0 6.472243186433545 5.749999999999999
  endloop
endfacet
facet normal 1.0 -0.0 -0.0
  outer loop
    vertex 0.0 6.472243186433545 5.749999999999999
    vertex 0.0 10.0 0.0
    vertex 0.0 6.642073904691416 6.160007623325714
  endloop
endfacet
facet normal 1.0 -0.0 -0.0
  outer loop
    vertex 0.0 6.642073904691416 6.160007623325714
    vertex 0.0 10.0 0.0
    vertex 0.0 6.699999999999999 6.599999999999999
  endloop
endfacet
facet normal 1.0 -0.0 -0.0
  outer loop
    vertex 0.0 5.439992376674286 8.242073904691415
    vertex 0.0 5.0 13.299999999999999
    vertex 0.0 5.0 8.299999999999999
  endloop
endfacet
facet normal 1.0 -0.0 -0.0
  outer loop
    vertex 0.0 5.0 13.299999999999999
    vertex 0.0 5.439992376674286 8.242073904691415
    vertex 0.0 10.0 13.299999999999999
  endloop
endfacet
facet normal 1.0 -0.0 -0.0
  outer loop
    vertex 0.0 10.0 13.299999999999999
    vertex 0.0 5.439992376674286 8.242073904691415
    vertex 0.0 5.5 8.2
  endloop
endfacet
facet normal 1.0 -0.0 -0.0
  outer loop
    vertex 0.0 10.0 13.299999999999999
    vertex 0.0 5.5 8.2
    vertex 0.0 5.85 8.072243186433544
  endloop
endfacet
facet normal 1.0 -0.0 -0.0
  outer loop
    vertex 0.0 10.0 13.299999999999999
    vertex 0.0 5.85 8.072243186433544
    vertex 0.0 6.20208152801713 7.802081528017131
  endloop
endfacet
facet normal 1.0 -0.0 -0.0
  outer loop
    vertex 0.0 10.0 13.299999999999999
    vertex 0.0 6.20208152801713 7.802081528017131
    vertex 0.0 6.472243186433545 7.449999999999999
  endloop
endfacet
facet normal 1.0 -0.0 -0.0
  outer loop
    vertex 0.0 10.0 13.299999999999999
    vertex 0.0 6.472243186433545 7.449999999999999
    vertex 0.0 6.642073904691416 7.0399923766742845
  endloop
endfacet
facet normal 1.0 -0.0 -0.0
  outer loop
    vertex 0.0 10.0 13.299999999999999
    vertex 0.0 6.642073904691416 7.0399923766742845
    vertex 0.0 6.699999999999999 6.599999999999999
  endloop
endfacet
facet normal 1.0 -0.0 -0.0
  outer loop
    vertex 0.0 10.0 13.299999999999999
    vertex 0.0 6.699999999999999 6.599999999999999
    vertex 0.0 10.0 0.0
  endloop
endfacet
facet normal 1.0 -0.0 -0.0
  outer loop
    vertex 0.0 5.0 0.0
    vertex 0.0 0.0 13.299999999999999
    vertex 0.0 0.0 0.0
  endloop
endfacet
facet normal 1.0 -0.0 -0.0
  outer loop
    vertex 0.0 0.0 13.299999999999999
    vertex 0.0 5.0 0.0
    vertex 0.0 3.357926095308584 6.160007623325712
  endloop
endfacet
facet normal 1.0 -0.0 -0.0
  outer loop
    vertex 0.0 0.0 13.299999999999999
    vertex 0.0 3.357926095308584 6.160007623325712
    vertex 0.0 3.3000000000000003 6.599999999999999
  endloop
endfacet
facet normal 1.0 -0.0 -0.0
  outer loop
    vertex 0.0 3.357926095308584 6.160007623325712
    vertex 0.0 5.0 0.0
    vertex 0.0 3.5277568135664548 5.749999999999998
  endloop
endfacet
facet normal 1.0 -0.0 -0.0
  outer loop
    vertex 0.0 3.5277568135664548 5.749999999999998
    vertex 0.0 5.0 0.0
    vertex 0.0 3.7979184719828702 5.397918471982868
  endloop
endfacet
facet normal 1.0 -0.0 -0.0
  outer loop
    vertex 0.0 3.7979184719828702 5.397918471982868
    vertex 0.0 5.0 0.0
    vertex 0.0 4.150000000000001 5.127756813566453
  endloop
endfacet
facet normal 1.0 -0.0 -0.0
  outer loop
    vertex 0.0 4.150000000000001 5.127756813566453
    vertex 0.0 5.0 0.0
    vertex 0.0 4.560007623325715 4.957926095308584
  endloop
endfacet
facet normal 1.0 -0.0 -0.0
  outer loop
    vertex 0.0 4.560007623325715 4.957926095308584
    vertex 0.0 5.0 0.0
    vertex 0.0 5.0 4.8999999999999995
  endloop
endfacet
facet normal 1.0 -0.0 -0.0
  outer loop
    vertex 0.0 0.0 13.299999999999999
    vertex 0.0 3.357926095308584 7.039992376674283
    vertex 0.0 5.0 13.299999999999999
  endloop
endfacet
facet normal 1.0 -0.0 -0.0
  outer loop
    vertex 0.0 3.357926095308584 7.039992376674283
    vertex 0.0 0.0 13.299999999999999
    vertex 0.0 3.3000000000000003 6.599999999999999
  endloop
endfacet
facet normal 1.0 -0.0 -0.0
  outer loop
    vertex 0.0 5.0 13.299999999999999
    vertex 0.0 3.357926095308584 7.039992376674283
    vertex 0.0 3.5277568135664534 7.4499999999999975
  endloop
endfacet
facet normal 1.0 -0.0 -0.0
  outer loop
    vertex 0.0 5.0 13.299999999999999
    vertex 0.0 3.5277568135664534 7.4499999999999975
    vertex 0.0 3.7979184719828694 7.802081528017129
  endloop
endfacet
facet normal 1.0 -0.0 -0.0
  outer loop
    vertex 0.0 5.0 13.299999999999999
    vertex 0.0 3.7979184719828694 7.802081528017129
    vertex 0.0 4.1499999999999995 8.072243186433543
  endloop
endfacet
facet normal 1.0 -0.0 -0.0
  outer loop
    vertex 0.0 5.0 13.299999999999999
    vertex 0.0 4.1499999999999995 8.072243186433543
    vertex 0.0 4.560007623325713 8.242073904691415
  endloop
endfacet
facet normal 1.0 -0.0 -0.0
  outer loop
    vertex 0.0 5.0 13.299999999999999
    vertex 0.0 4.560007623325713 8.242073904691415
    vertex 0.0 5.0 8.299999999999999
  endloop
endfacet
facet normal 1.0 -0.0 -0.0
  outer loop
    vertex 0.0 0.0 0.0
    vertex 0.0 -2.9999999999999987 13.299999999999999
    vertex 0.0 -2.9999999999999987 0.0
  endloop
endfacet
facet normal 1.0 -0.0 -0.0
  outer loop
    vertex 0.0 -2.9999999999999987 13.299999999999999
    vertex 0.0 0.0 0.0
    vertex 0.0 0.0 13.299999999999999
  endloop
endfacet
facet normal 1.0 -0.0 -0.0
  outer loop
    vertex 20.0 10.0 -6.699999999999999
    vertex 20.0 -2.9999999999999987 0.0
    vertex 20.0 -3.0000000000000004 -6.699999999999999
  endloop
endfacet
facet normal 1.0 -0.0 -0.0
  outer loop
    vertex 20.0 -2.9999999999999987 0.0
    vertex 20.0 10.0 -6.699999999999999
    vertex 20.0 -3.476556983646429e-16 1.0667718013213896e-15
  endloop
endfacet
facet normal 1.0 -0.0 -0.0
  outer loop
    vertex 20.0 -3.476556983646429e-16 1.0667718013213896e-15
    vertex 20.0 10.0 -6.699999999999999
    vertex 20.0 10.0 1.0667718013213896e-15
  endloop
endfacet
facet normal -2.666929503303474e-17 -1.777953002202317e-16 1.0
  outer loop
    vertex 20.0 -2.9999999999999987 0.0
    vertex 0.0 0.0 0.0
    vertex 0.0 -2.9999999999999987 0.0
  endloop
endfacet
facet normal -2.666929503303474e-17 -1.777953002202317e-16 1.0
  outer loop
    vertex 0.0 0.0 0.0
    vertex 20.0 -2.9999999999999987 0.0
    vertex 20.0 -3.476556983646429e-16 1.0667718013213896e-15
  endloop
endfacet
endsolid power supply_test
