solid power supply_corner
facet normal -0.0 -0.0 1.0
  outer loop
    vertex 2.9999999999999605 -4.511946372076636e-14 6.699999999999999
    vertex 7.999999999999946 4.999999999999957 6.699999999999999
    vertex 2.9999999999999605 19.99999999999994 6.699999999999999
  endloop
endfacet
facet normal -0.0 -0.0 1.0
  outer loop
    vertex 7.999999999999946 4.999999999999957 6.699999999999999
    vertex 2.9999999999999605 -4.511946372076636e-14 6.699999999999999
    vertex 22.9999999999999 -4.511946372076636e-14 6.699999999999999
  endloop
endfacet
facet normal -0.0 -0.0 1.0
  outer loop
    vertex 7.999999999999946 4.999999999999957 6.699999999999999
    vertex 22.9999999999999 -4.511946372076636e-14 6.699999999999999
    vertex 17.99999999999991 4.999999999999957 6.699999999999999
  endloop
endfacet
facet normal -0.0 -0.0 1.0
  outer loop
    vertex 17.99999999999991 4.999999999999957 6.699999999999999
    vertex 22.9999999999999 -4.511946372076636e-14 6.699999999999999
    vertex 17.99999999999991 14.99999999999996 6.699999999999999
  endloop
endfacet
facet normal -0.0 -0.0 1.0
  outer loop
    vertex 2.9999999999999605 19.99999999999994 6.699999999999999
    vertex 7.999999999999946 14.99999999999996 6.699999999999999
    vertex 22.9999999999999 19.99999999999994 6.699999999999999
  endloop
endfacet
facet normal -0.0 -0.0 1.0
  outer loop
    vertex 7.999999999999946 14.99999999999996 6.699999999999999
    vertex 2.9999999999999605 19.99999999999994 6.699999999999999
    vertex 7.999999999999946 4.999999999999957 6.699999999999999
  endloop
endfacet
facet normal -0.0 -0.0 1.0
  outer loop
    vertex 22.9999999999999 19.99999999999994 6.699999999999999
    vertex 7.999999999999946 14.99999999999996 6.699999999999999
    vertex 17.99999999999991 14.99999999999996 6.699999999999999
  endloop
endfacet
facet normal -0.0 -0.0 1.0
  outer loop
    vertex 22.9999999999999 19.99999999999994 6.699999999999999
    vertex 17.99999999999991 14.99999999999996 6.699999999999999
    vertex 22.9999999999999 -4.511946372076636e-14 6.699999999999999
  endloop
endfacet
facet normal 1.0 -0.0 -0.0
  outer loop
    vertex 22.9999999999999 22.999999999999936 0.0
    vertex 22.9999999999999 -4.511946372076636e-14 6.699999999999999
    vertex 22.9999999999999 -4.511946372076636e-14 0.0
  endloop
endfacet
facet normal 1.0 -0.0 -0.0
  outer loop
    vertex 22.9999999999999 -4.511946372076636e-14 6.699999999999999
    vertex 22.9999999999999 22.999999999999936 0.0
    vertex 22.9999999999999 19.99999999999994 6.699999999999999
  endloop
endfacet
facet normal 1.0 -0.0 -0.0
  outer loop
    vertex 22.9999999999999 19.99999999999994 6.699999999999999
    vertex 22.9999999999999 22.999999999999936 0.0
    vertex 22.9999999999999 19.99999999999994 9.999999999999998
  endloop
endfacet
facet normal 1.0 -0.0 -0.0
  outer loop
    vertex 22.9999999999999 19.99999999999994 9.999999999999998
    vertex 22.9999999999999 22.999999999999936 0.0
    vertex 22.9999999999999 22.999999999999936 9.999999999999998
  endloop
endfacet
facet normal 0.7071067811865477 -0.0 0.7071067811865474
  outer loop
    vertex 22.9999999999999 22.999999999999936 9.999999999999998
    vertex 12.99999999999992 19.99999999999994 19.999999999999982
    vertex 22.9999999999999 19.99999999999994 9.999999999999998
  endloop
endfacet
facet normal 0.7071067811865477 -0.0 0.7071067811865474
  outer loop
    vertex 12.99999999999992 19.99999999999994 19.999999999999982
    vertex 22.9999999999999 22.999999999999936 9.999999999999998
    vertex 12.99999999999992 22.999999999999936 19.999999999999982
  endloop
endfacet
facet normal 0.0 -1.0 0.0
  outer loop
    vertex 22.9999999999999 19.99999999999994 9.999999999999998
    vertex 2.9999999999999605 19.99999999999994 6.699999999999999
    vertex 22.9999999999999 19.99999999999994 6.699999999999999
  endloop
endfacet
facet normal 0.0 -1.0 0.0
  outer loop
    vertex 2.9999999999999605 19.99999999999994 6.699999999999999
    vertex 22.9999999999999 19.99999999999994 9.999999999999998
    vertex 2.9999999999999605 19.99999999999994 19.999999999999982
  endloop
endfacet
facet normal 0.0 -1.0 0.0
  outer loop
    vertex 2.9999999999999605 19.99999999999994 19.999999999999982
    vertex 22.9999999999999 19.99999999999994 9.999999999999998
    vertex 12.99999999999992 19.99999999999994 19.999999999999982
  endloop
endfacet
facet normal -0.0 1.0 -0.0
  outer loop
    vertex 2.9999999999999605 22.999999999999936 19.999999999999982
    vertex 22.9999999999999 22.999999999999936 0.0
    vertex 2.9999999999999605 22.999999999999936 0.0
  endloop
endfacet
facet normal -0.0 1.0 -0.0
  outer loop
    vertex 22.9999999999999 22.999999999999936 0.0
    vertex 2.9999999999999605 22.999999999999936 19.999999999999982
    vertex 22.9999999999999 22.999999999999936 9.999999999999998
  endloop
endfacet
facet normal -0.0 1.0 -0.0
  outer loop
    vertex 22.9999999999999 22.999999999999936 9.999999999999998
    vertex 2.9999999999999605 22.999999999999936 19.999999999999982
    vertex 12.99999999999992 22.999999999999936 19.999999999999982
  endloop
endfacet
facet normal -0.0 -0.0 1.0
  outer loop
    vertex 2.999999999999989 9.999999999999993 19.999999999999982
    vertex 1.127986593019159e-14 19.999999999999975 19.999999999999982
    vertex -5.639932965095795e-15 9.999999999999979 19.999999999999982
  endloop
endfacet
facet normal -0.0 -0.0 1.0
  outer loop
    vertex 1.127986593019159e-14 19.999999999999975 19.999999999999982
    vertex 2.999999999999989 9.999999999999993 19.999999999999982
    vertex 2.9999999999999605 19.99999999999994 19.999999999999982
  endloop
endfacet
facet normal -0.0 -0.0 1.0
  outer loop
    vertex 2.9999999999999605 19.99999999999994 19.999999999999982
    vertex 2.9999999999999605 22.999999999999936 19.999999999999982
    vertex 1.127986593019159e-14 19.999999999999975 19.999999999999982
  endloop
endfacet
facet normal -0.0 -0.0 1.0
  outer loop
    vertex 2.9999999999999605 22.999999999999936 19.999999999999982
    vertex 2.9999999999999605 19.99999999999994 19.999999999999982
    vertex 12.99999999999992 19.99999999999994 19.999999999999982
  endloop
endfacet
facet normal -0.0 -0.0 1.0
  outer loop
    vertex 2.9999999999999605 22.999999999999936 19.999999999999982
    vertex 12.99999999999992 19.99999999999994 19.999999999999982
    vertex 12.99999999999992 22.999999999999936 19.999999999999982
  endloop
endfacet
facet normal -1.0 6.391924027108576e-16 -3.0079642480510913e-16
  outer loop
    vertex -5.639932965095795e-15 9.999999999999979 19.999999999999982
    vertex 0.0 0.0 0.0
    vertex 0.0 0.0 9.999999999999998
  endloop
endfacet
facet normal -1.0 6.391924027108576e-16 -3.0079642480510913e-16
  outer loop
    vertex 0.0 0.0 0.0
    vertex -5.639932965095795e-15 9.999999999999979 19.999999999999982
    vertex 1.127986593019159e-14 19.999999999999975 0.0
  endloop
endfacet
facet normal -1.0 6.391924027108576e-16 -3.0079642480510913e-16
  outer loop
    vertex 1.127986593019159e-14 19.999999999999975 0.0
    vertex -5.639932965095795e-15 9.999999999999979 19.999999999999982
    vertex 1.127986593019159e-14 19.999999999999975 19.999999999999982
  endloop
endfacet
facet normal 3.517225175848728e-16 -0.7071067811865474 0.7071067811865477
  outer loop
    vertex 0.0 0.0 9.999999999999998
    vertex 2.999999999999989 9.999999999999993 19.999999999999982
    vertex -5.639932965095795e-15 9.999999999999979 19.999999999999982
  endloop
endfacet
facet normal 3.517225175848728e-16 -0.7071067811865474 0.7071067811865477
  outer loop
    vertex 2.999999999999989 9.999999999999993 19.999999999999982
    vertex 0.0 0.0 9.999999999999998
    vertex 2.999999999999989 -1.127986593019159e-14 9.999999999999998
  endloop
endfacet
facet normal -1.709978798002606e-15 -1.0 -5.698488130891081e-16
  outer loop
    vertex 22.9999999999999 -4.511946372076636e-14 6.699999999999999
    vertex 0.0 0.0 0.0
    vertex 22.9999999999999 -4.511946372076636e-14 0.0
  endloop
endfacet
facet normal -1.709978798002606e-15 -1.0 -5.698488130891081e-16
  outer loop
    vertex 0.0 0.0 0.0
    vertex 22.9999999999999 -4.511946372076636e-14 6.699999999999999
    vertex 2.9999999999999605 -4.511946372076636e-14 6.699999999999999
  endloop
endfacet
facet normal -1.709978798002606e-15 -1.0 -5.698488130891081e-16
  outer loop
    vertex 0.0 0.0 0.0
    vertex 2.9999999999999605 -4.511946372076636e-14 6.699999999999999
    vertex 0.0 0.0 9.999999999999998
  endloop
endfacet
facet normal -1.709978798002606e-15 -1.0 -5.698488130891081e-16
  outer loop
    vertex 0.0 0.0 9.999999999999998
    vertex 2.9999999999999605 -4.511946372076636e-14 6.699999999999999
    vertex 2.999999999999989 -1.127986593019159e-14 9.999999999999998
  endloop
endfacet
facet normal 0.0 0.0 -1.0
  outer loop
    vertex 1.127986593019159e-14 19.999999999999975 0.0
    vertex 22.9999999999999 -4.511946372076636e-14 0.0
    vertex 0.0 0.0 0.0
  endloop
endfacet
facet normal 0.0 0.0 -1.0
  outer loop
    vertex 22.9999999999999 -4.511946372076636e-14 0.0
    vertex 1.127986593019159e-14 19.999999999999975 0.0
    vertex 2.9999999999999605 22.999999999999936 0.0
  endloop
endfacet
facet normal 0.0 0.0 -1.0
  outer loop
    vertex 22.9999999999999 -4.511946372076636e-14 0.0
    vertex 2.9999999999999605 22.999999999999936 0.0
    vertex 22.9999999999999 22.999999999999936 0.0
  endloop
endfacet
facet normal -0.7071067811865489 0.7071067811865461 0.0
  outer loop
    vertex 2.9999999999999605 22.999999999999936 19.999999999999982
    vertex 1.127986593019159e-14 19.999999999999975 0.0
    vertex 1.127986593019159e-14 19.999999999999975 19.999999999999982
  endloop
endfacet
facet normal -0.7071067811865489 0.7071067811865461 0.0
  outer loop
    vertex 1.127986593019159e-14 19.999999999999975 0.0
    vertex 2.9999999999999605 22.999999999999936 19.999999999999982
    vertex 2.9999999999999605 22.999999999999936 0.0
  endloop
endfacet
facet normal 1.0 1.042694445008319e-15 -1.3508112974853813e-15
  outer loop
    vertex 2.9999999999999605 19.99999999999994 6.699999999999999
    vertex 2.999999999999989 -1.127986593019159e-14 9.999999999999998
    vertex 2.9999999999999605 -4.511946372076636e-14 6.699999999999999
  endloop
endfacet
facet normal 1.0 1.042694445008319e-15 -1.3508112974853813e-15
  outer loop
    vertex 2.999999999999989 -1.127986593019159e-14 9.999999999999998
    vertex 2.9999999999999605 19.99999999999994 6.699999999999999
    vertex 2.999999999999989 9.999999999999993 19.999999999999982
  endloop
endfacet
facet normal 1.0 1.042694445008319e-15 -1.3508112974853813e-15
  outer loop
    vertex 2.999999999999989 9.999999999999993 19.999999999999982
    vertex 2.9999999999999605 19.99999999999994 6.699999999999999
    vertex 2.9999999999999605 19.99999999999994 19.999999999999982
  endloop
endfacet
facet normal -0.0 -0.0 1.0
  outer loop
    vertex 17.99999999999991 4.999999999999957 5.700000000000001
    vertex 7.999999999999946 14.99999999999996 5.700000000000001
    vertex 7.999999999999946 4.999999999999957 5.700000000000001
  endloop
endfacet
facet normal -0.0 -0.0 1.0
  outer loop
    vertex 7.999999999999946 14.99999999999996 5.700000000000001
    vertex 17.99999999999991 4.999999999999957 5.700000000000001
    vertex 17.99999999999991 14.99999999999996 5.700000000000001
  endloop
endfacet
facet normal -0.0 1.0 -0.0
  outer loop
    vertex 7.999999999999946 4.999999999999957 6.699999999999999
    vertex 17.99999999999991 4.999999999999957 5.700000000000001
    vertex 7.999999999999946 4.999999999999957 5.700000000000001
  endloop
endfacet
facet normal -0.0 1.0 -0.0
  outer loop
    vertex 17.99999999999991 4.999999999999957 5.700000000000001
    vertex 7.999999999999946 4.999999999999957 6.699999999999999
    vertex 17.99999999999991 4.999999999999957 6.699999999999999
  endloop
endfacet
facet normal -1.0 0.0 0.0
  outer loop
    vertex 17.99999999999991 14.99999999999996 6.699999999999999
    vertex 17.99999999999991 4.999999999999957 5.700000000000001
    vertex 17.99999999999991 4.999999999999957 6.699999999999999
  endloop
endfacet
facet normal -1.0 0.0 0.0
  outer loop
    vertex 17.99999999999991 4.999999999999957 5.700000000000001
    vertex 17.99999999999991 14.99999999999996 6.699999999999999
    vertex 17.99999999999991 14.99999999999996 5.700000000000001
  endloop
endfacet
facet normal 0.0 -1.0 0.0
  outer loop
    vertex 17.99999999999991 14.99999999999996 6.699999999999999
    vertex 7.999999999999946 14.99999999999996 5.700000000000001
    vertex 17.99999999999991 14.99999999999996 5.700000000000001
  endloop
endfacet
facet normal 0.0 -1.0 0.0
  outer loop
    vertex 7.999999999999946 14.99999999999996 5.700000000000001
    vertex 17.99999999999991 14.99999999999996 6.699999999999999
    vertex 7.999999999999946 14.99999999999996 6.699999999999999
  endloop
endfacet
facet normal 1.0 -0.0 -0.0
  outer loop
    vertex 7.999999999999946 14.99999999999996 5.700000000000001
    vertex 7.999999999999946 4.999999999999957 6.699999999999999
    vertex 7.999999999999946 4.999999999999957 5.700000000000001
  endloop
endfacet
facet normal 1.0 -0.0 -0.0
  outer loop
    vertex 7.999999999999946 4.999999999999957 6.699999999999999
    vertex 7.999999999999946 14.99999999999996 5.700000000000001
    vertex 7.999999999999946 14.99999999999996 6.699999999999999
  endloop
endfacet
endsolid power supply_corner
