solid power supply_corner2
facet normal 0.0 -1.0 0.0
  outer loop
    vertex 0.0 7.000000000000001 0.0
    vertex 9.999999999999996 7.000000000000001 13.300000000000004
    vertex 0.0 7.000000000000001 64.19999999999999
  endloop
endfacet
facet normal 0.0 -1.0 0.0
  outer loop
    vertex 9.999999999999996 7.000000000000001 13.300000000000004
    vertex 0.0 7.000000000000001 0.0
    vertex 20.0 7.000000000000001 1.4099832412739487e-15
  endloop
endfacet
facet normal 0.0 -1.0 0.0
  outer loop
    vertex 9.999999999999996 7.000000000000001 13.300000000000004
    vertex 20.0 7.000000000000001 1.4099832412739487e-15
    vertex 20.0 7.000000000000001 3.3000000000000065
  endloop
endfacet
facet normal 0.0 -1.0 0.0
  outer loop
    vertex 0.0 7.000000000000001 64.19999999999999
    vertex 9.999999999999996 7.000000000000001 13.300000000000004
    vertex 10.000000000000002 7.000000000000001 64.19999999999999
  endloop
endfacet
facet normal -5.0561549289247985e-17 3.670930294574429e-17 1.0
  outer loop
    vertex -5.639932965095795e-15 -12.999999999999998 1.4099832412739487e-15
    vertex 9.151471862576143 -3.8485281374238576 7.349018819749004e-16
    vertex 0.0 7.000000000000001 0.0
  endloop
endfacet
facet normal -5.0561549289247985e-17 3.670930294574429e-17 1.0
  outer loop
    vertex 9.151471862576143 -3.8485281374238576 7.349018819749004e-16
    vertex -5.639932965095795e-15 -12.999999999999998 1.4099832412739487e-15
    vertex 20.0 -12.999999999999998 1.4099832412739487e-15
  endloop
endfacet
facet normal -5.0561549289247985e-17 3.670930294574429e-17 1.0
  outer loop
    vertex 0.0 7.000000000000001 0.0
    vertex 9.151471862576143 -3.8485281374238576 7.349018819749004e-16
    vertex 8.960769515458674 -3.6000000000000005 7.106586786995861e-16
  endloop
endfacet
facet normal -5.0561549289247985e-17 3.670930294574429e-17 1.0
  outer loop
    vertex 0.0 7.000000000000001 0.0
    vertex 8.960769515458674 -3.6000000000000005 7.106586786995861e-16
    vertex 8.840889008453118 -3.310582854123026 6.86029274782561e-16
  endloop
endfacet
facet normal -5.0561549289247985e-17 3.670930294574429e-17 1.0
  outer loop
    vertex 0.0 7.000000000000001 0.0
    vertex 8.840889008453118 -3.310582854123026 6.86029274782561e-16
    vertex 8.8 -3.0000000000000004 6.62692123398756e-16
  endloop
endfacet
facet normal -5.0561549289247985e-17 3.670930294574429e-17 1.0
  outer loop
    vertex 9.151471862576143 -3.8485281374238576 7.349018819749004e-16
    vertex 20.0 -12.999999999999998 1.4099832412739487e-15
    vertex 9.4 -4.039230484541326 7.571067503690791e-16
  endloop
endfacet
facet normal -5.0561549289247985e-17 3.670930294574429e-17 1.0
  outer loop
    vertex 9.4 -4.039230484541326 7.571067503690791e-16
    vertex 20.0 -12.999999999999998 1.4099832412739487e-15
    vertex 9.689417145876977 -4.159110991546882 7.757600587963387e-16
  endloop
endfacet
facet normal -5.0561549289247985e-17 3.670930294574429e-17 1.0
  outer loop
    vertex 9.689417145876977 -4.159110991546882 7.757600587963387e-16
    vertex 20.0 -12.999999999999998 1.4099832412739487e-15
    vertex 10.0 -4.2 7.895906151134113e-16
  endloop
endfacet
facet normal -5.0561549289247985e-17 3.670930294574429e-17 1.0
  outer loop
    vertex 10.0 -4.2 7.895906151134113e-16
    vertex 20.0 -12.999999999999998 1.4099832412739487e-15
    vertex 10.310582854123025 -4.159110991546882 7.976558897633635e-16
  endloop
endfacet
facet normal -5.0561549289247985e-17 3.670930294574429e-17 1.0
  outer loop
    vertex 10.310582854123025 -4.159110991546882 7.976558897633635e-16
    vertex 20.0 -12.999999999999998 1.4099832412739487e-15
    vertex 10.6 -4.039230484541326 7.994062476072974e-16
  endloop
endfacet
facet normal -5.0561549289247985e-17 3.670930294574429e-17 1.0
  outer loop
    vertex 10.6 -4.039230484541326 7.994062476072974e-16
    vertex 20.0 -12.999999999999998 1.4099832412739487e-15
    vertex 10.848528137423857 -3.8485281374238567 7.947224046507521e-16
  endloop
endfacet
facet normal -5.0561549289247985e-17 3.670930294574429e-17 1.0
  outer loop
    vertex 10.848528137423857 -3.8485281374238567 7.947224046507521e-16
    vertex 20.0 -12.999999999999998 1.4099832412739487e-15
    vertex 11.039230484541326 -3.5999999999999996 7.839235570507998e-16
  endloop
endfacet
facet normal -5.0561549289247985e-17 3.670930294574429e-17 1.0
  outer loop
    vertex 11.039230484541326 -3.5999999999999996 7.839235570507998e-16
    vertex 20.0 -12.999999999999998 1.4099832412739487e-15
    vertex 11.159110991546882 -3.310582854123025 7.677456284254375e-16
  endloop
endfacet
facet normal -5.0561549289247985e-17 3.670930294574429e-17 1.0
  outer loop
    vertex 11.159110991546882 -3.310582854123025 7.677456284254375e-16
    vertex 20.0 -12.999999999999998 1.4099832412739487e-15
    vertex 11.2 -3.0 7.472911178751929e-16
  endloop
endfacet
facet normal -5.0561549289247985e-17 3.670930294574429e-17 1.0
  outer loop
    vertex 0.0 7.000000000000001 0.0
    vertex 9.151471862576143 -2.1514718625761438 6.152608366231966e-16
    vertex 20.0 7.000000000000001 1.4099832412739487e-15
  endloop
endfacet
facet normal -5.0561549289247985e-17 3.670930294574429e-17 1.0
  outer loop
    vertex 9.151471862576143 -2.1514718625761438 6.152608366231966e-16
    vertex 0.0 7.000000000000001 0.0
    vertex 8.960769515458674 -2.4000000000000012 6.26059684223149e-16
  endloop
endfacet
facet normal -5.0561549289247985e-17 3.670930294574429e-17 1.0
  outer loop
    vertex 8.960769515458674 -2.4000000000000012 6.26059684223149e-16
    vertex 0.0 7.000000000000001 0.0
    vertex 8.840889008453118 -2.689417145876976 6.422376128485112e-16
  endloop
endfacet
facet normal -5.0561549289247985e-17 3.670930294574429e-17 1.0
  outer loop
    vertex 8.840889008453118 -2.689417145876976 6.422376128485112e-16
    vertex 0.0 7.000000000000001 0.0
    vertex 8.8 -3.0000000000000004 6.62692123398756e-16
  endloop
endfacet
facet normal -5.0561549289247985e-17 3.670930294574429e-17 1.0
  outer loop
    vertex 20.0 7.000000000000001 1.4099832412739487e-15
    vertex 9.151471862576143 -2.1514718625761438 6.152608366231966e-16
    vertex 9.4 -1.960769515458674 6.105769936666513e-16
  endloop
endfacet
facet normal -5.0561549289247985e-17 3.670930294574429e-17 1.0
  outer loop
    vertex 20.0 7.000000000000001 1.4099832412739487e-15
    vertex 9.4 -1.960769515458674 6.105769936666513e-16
    vertex 9.689417145876975 -1.8408890084531186 6.123273515105852e-16
  endloop
endfacet
facet normal -5.0561549289247985e-17 3.670930294574429e-17 1.0
  outer loop
    vertex 20.0 7.000000000000001 1.4099832412739487e-15
    vertex 9.689417145876975 -1.8408890084531186 6.123273515105852e-16
    vertex 10.0 -1.8000000000000003 6.203926261605374e-16
  endloop
endfacet
facet normal -5.0561549289247985e-17 3.670930294574429e-17 1.0
  outer loop
    vertex 20.0 7.000000000000001 1.4099832412739487e-15
    vertex 10.0 -1.8000000000000003 6.203926261605374e-16
    vertex 10.310582854123025 -1.8408890084531182 6.342231824776101e-16
  endloop
endfacet
facet normal -5.0561549289247985e-17 3.670930294574429e-17 1.0
  outer loop
    vertex 20.0 7.000000000000001 1.4099832412739487e-15
    vertex 10.310582854123025 -1.8408890084531182 6.342231824776101e-16
    vertex 10.6 -1.960769515458674 6.528764909048697e-16
  endloop
endfacet
facet normal -5.0561549289247985e-17 3.670930294574429e-17 1.0
  outer loop
    vertex 20.0 7.000000000000001 1.4099832412739487e-15
    vertex 10.6 -1.960769515458674 6.528764909048697e-16
    vertex 10.848528137423857 -2.1514718625761433 6.750813592990484e-16
  endloop
endfacet
facet normal -5.0561549289247985e-17 3.670930294574429e-17 1.0
  outer loop
    vertex 20.0 7.000000000000001 1.4099832412739487e-15
    vertex 10.848528137423857 -2.1514718625761433 6.750813592990484e-16
    vertex 11.039230484541326 -2.4 6.993245625743628e-16
  endloop
endfacet
facet normal -5.0561549289247985e-17 3.670930294574429e-17 1.0
  outer loop
    vertex 20.0 7.000000000000001 1.4099832412739487e-15
    vertex 11.039230484541326 -2.4 6.993245625743628e-16
    vertex 11.159110991546882 -2.689417145876975 7.239539664913878e-16
  endloop
endfacet
facet normal -5.0561549289247985e-17 3.670930294574429e-17 1.0
  outer loop
    vertex 20.0 7.000000000000001 1.4099832412739487e-15
    vertex 11.159110991546882 -2.689417145876975 7.239539664913878e-16
    vertex 11.2 -3.0 7.472911178751929e-16
  endloop
endfacet
facet normal -5.0561549289247985e-17 3.670930294574429e-17 1.0
  outer loop
    vertex 20.0 7.000000000000001 1.4099832412739487e-15
    vertex 11.2 -3.0 7.472911178751929e-16
    vertex 20.0 -12.999999999999998 1.4099832412739487e-15
  endloop
endfacet
facet normal 0.7071067811865475 0.0 0.7071067811865476
  outer loop
    vertex 20.0 7.000000000000001 3.3000000000000065
    vertex 9.999999999999996 10.000000000000002 13.300000000000004
    vertex 9.999999999999996 7.000000000000001 13.300000000000004
  endloop
endfacet
facet normal 0.7071067811865475 0.0 0.7071067811865476
  outer loop
    vertex 9.999999999999996 10.000000000000002 13.300000000000004
    vertex 20.0 7.000000000000001 3.3000000000000065
    vertex 20.0 10.000000000000002 3.3000000000000065
  endloop
endfacet
facet normal 1.0 -0.0 -0.0
  outer loop
    vertex 20.0 10.000000000000002 -6.699999999999999
    vertex 20.0 -12.999999999999998 1.4099832412739487e-15
    vertex 20.0 -12.999999999999998 -6.699999999999999
  endloop
endfacet
facet normal 1.0 -0.0 -0.0
  outer loop
    vertex 20.0 -12.999999999999998 1.4099832412739487e-15
    vertex 20.0 10.000000000000002 -6.699999999999999
    vertex 20.0 7.000000000000001 1.4099832412739487e-15
  endloop
endfacet
facet normal 1.0 -0.0 -0.0
  outer loop
    vertex 20.0 7.000000000000001 1.4099832412739487e-15
    vertex 20.0 10.000000000000002 -6.699999999999999
    vertex 20.0 7.000000000000001 3.3000000000000065
  endloop
endfacet
facet normal 1.0 -0.0 -0.0
  outer loop
    vertex 20.0 7.000000000000001 3.3000000000000065
    vertex 20.0 10.000000000000002 -6.699999999999999
    vertex 20.0 10.000000000000002 3.3000000000000065
  endloop
endfacet
facet normal 1.0 6.686387255459224e-18 -1.064024427099229e-16
  outer loop
    vertex 9.999999999999996 10.000000000000002 13.300000000000004
    vertex 10.000000000000002 7.000000000000001 64.19999999999999
    vertex 9.999999999999996 7.000000000000001 13.300000000000004
  endloop
endfacet
facet normal 1.0 6.686387255459224e-18 -1.064024427099229e-16
  outer loop
    vertex 10.000000000000002 7.000000000000001 64.19999999999999
    vertex 10.000000000000002 -2.9999999999999947 66.99999999999999
    vertex 10.000000000000002 -2.9999999999999947 64.19999999999999
  endloop
endfacet
facet normal 1.0 6.686387255459224e-18 -1.064024427099229e-16
  outer loop
    vertex 10.000000000000002 -2.9999999999999947 66.99999999999999
    vertex 10.000000000000002 7.000000000000001 64.19999999999999
    vertex 10.000000000000002 10.000000000000002 66.99999999999999
  endloop
endfacet
facet normal 1.0 6.686387255459224e-18 -1.064024427099229e-16
  outer loop
    vertex 10.000000000000002 10.000000000000002 66.99999999999999
    vertex 10.000000000000002 7.000000000000001 64.19999999999999
    vertex 9.999999999999996 10.000000000000002 13.300000000000004
  endloop
endfacet
facet normal -0.0 -0.0 1.0
  outer loop
    vertex 10.000000000000002 -2.9999999999999947 66.99999999999999
    vertex -2.9999999999999973 10.000000000000002 66.99999999999999
    vertex -3.0 -2.9999999999999973 66.99999999999999
  endloop
endfacet
facet normal -0.0 -0.0 1.0
  outer loop
    vertex -2.9999999999999973 10.000000000000002 66.99999999999999
    vertex 10.000000000000002 -2.9999999999999947 66.99999999999999
    vertex 10.000000000000002 10.000000000000002 66.99999999999999
  endloop
endfacet
facet normal -0.0 1.0 -0.0
  outer loop
    vertex -2.9999999999999973 10.000000000000002 -6.699999999999999
    vertex 9.999999999999996 10.000000000000002 13.300000000000004
    vertex 20.0 10.000000000000002 -6.699999999999999
  endloop
endfacet
facet normal -0.0 1.0 -0.0
  outer loop
    vertex 9.999999999999996 10.000000000000002 13.300000000000004
    vertex -2.9999999999999973 10.000000000000002 -6.699999999999999
    vertex -2.9999999999999973 10.000000000000002 66.99999999999999
  endloop
endfacet
facet normal -0.0 1.0 -0.0
  outer loop
    vertex 20.0 10.000000000000002 -6.699999999999999
    vertex 9.999999999999996 10.000000000000002 13.300000000000004
    vertex 20.0 10.000000000000002 3.3000000000000065
  endloop
endfacet
facet normal -0.0 1.0 -0.0
  outer loop
    vertex 9.999999999999996 10.000000000000002 13.300000000000004
    vertex -2.9999999999999973 10.000000000000002 66.99999999999999
    vertex 10.000000000000002 10.000000000000002 66.99999999999999
  endloop
endfacet
facet normal -1.0 2.6605811634651563e-16 3.9586890631656784e-18
  outer loop
    vertex -2.9999999999999973 10.000000000000002 66.99999999999999
    vertex -3.000000000000003 -2.9999999999999947 13.300000000000004
    vertex -3.0 -2.9999999999999973 66.99999999999999
  endloop
endfacet
facet normal -1.0 2.6605811634651563e-16 3.9586890631656784e-18
  outer loop
    vertex -3.000000000000003 -2.9999999999999947 13.300000000000004
    vertex -3.000000000000003 -12.999999999999998 -6.699999999999999
    vertex -3.000000000000003 -12.999999999999998 3.3000000000000065
  endloop
endfacet
facet normal -1.0 2.6605811634651563e-16 3.9586890631656784e-18
  outer loop
    vertex -3.000000000000003 -12.999999999999998 -6.699999999999999
    vertex -3.000000000000003 -2.9999999999999947 13.300000000000004
    vertex -2.9999999999999973 10.000000000000002 -6.699999999999999
  endloop
endfacet
facet normal -1.0 2.6605811634651563e-16 3.9586890631656784e-18
  outer loop
    vertex -2.9999999999999973 10.000000000000002 -6.699999999999999
    vertex -3.000000000000003 -2.9999999999999947 13.300000000000004
    vertex -2.9999999999999973 10.000000000000002 66.99999999999999
  endloop
endfacet
facet normal 1.4099085420822023e-16 -1.0 -5.103971832892828e-17
  outer loop
    vertex 10.000000000000002 -2.9999999999999947 66.99999999999999
    vertex 2.8199664825478975e-15 -2.9999999999999947 64.19999999999999
    vertex 10.000000000000002 -2.9999999999999947 64.19999999999999
  endloop
endfacet
facet normal 1.4099085420822023e-16 -1.0 -5.103971832892828e-17
  outer loop
    vertex 2.8199664825478975e-15 -2.9999999999999947 64.19999999999999
    vertex -3.000000000000003 -2.9999999999999947 13.300000000000004
    vertex 2.8199664825478975e-15 -2.9999999999999916 13.300000000000004
  endloop
endfacet
facet normal 1.4099085420822023e-16 -1.0 -5.103971832892828e-17
  outer loop
    vertex -3.000000000000003 -2.9999999999999947 13.300000000000004
    vertex 2.8199664825478975e-15 -2.9999999999999947 64.19999999999999
    vertex -3.0 -2.9999999999999973 66.99999999999999
  endloop
endfacet
facet normal 1.4099085420822023e-16 -1.0 -5.103971832892828e-17
  outer loop
    vertex -3.0 -2.9999999999999973 66.99999999999999
    vertex 2.8199664825478975e-15 -2.9999999999999947 64.19999999999999
    vertex 10.000000000000002 -2.9999999999999947 66.99999999999999
  endloop
endfacet
facet normal 2.637918881886492e-16 -0.7071067811865472 0.7071067811865478
  outer loop
    vertex -5.639932965095795e-15 -12.999999999999998 3.3000000000000065
    vertex -3.000000000000003 -2.9999999999999947 13.300000000000004
    vertex -3.000000000000003 -12.999999999999998 3.3000000000000065
  endloop
endfacet
facet normal 2.637918881886492e-16 -0.7071067811865472 0.7071067811865478
  outer loop
    vertex -3.000000000000003 -2.9999999999999947 13.300000000000004
    vertex -5.639932965095795e-15 -12.999999999999998 3.3000000000000065
    vertex 2.8199664825478975e-15 -2.9999999999999916 13.300000000000004
  endloop
endfacet
facet normal 1.0 -2.329323505459536e-16 -3.222613971023724e-17
  outer loop
    vertex 0.0 7.000000000000001 0.0
    vertex -5.639932965095795e-15 -12.999999999999998 3.3000000000000065
    vertex -5.639932965095795e-15 -12.999999999999998 1.4099832412739487e-15
  endloop
endfacet
facet normal 1.0 -2.329323505459536e-16 -3.222613971023724e-17
  outer loop
    vertex -5.639932965095795e-15 -12.999999999999998 3.3000000000000065
    vertex 0.0 7.000000000000001 0.0
    vertex 2.8199664825478975e-15 -2.9999999999999916 13.300000000000004
  endloop
endfacet
facet normal 1.0 -2.329323505459536e-16 -3.222613971023724e-17
  outer loop
    vertex 2.8199664825478975e-15 -2.9999999999999916 13.300000000000004
    vertex 0.0 7.000000000000001 64.19999999999999
    vertex 2.8199664825478975e-15 -2.9999999999999947 64.19999999999999
  endloop
endfacet
facet normal 1.0 -2.329323505459536e-16 -3.222613971023724e-17
  outer loop
    vertex 0.0 7.000000000000001 64.19999999999999
    vertex 2.8199664825478975e-15 -2.9999999999999916 13.300000000000004
    vertex 0.0 7.000000000000001 0.0
  endloop
endfacet
facet normal 0.0 -1.0 0.0
  outer loop
    vertex 20.0 -12.999999999999998 1.4099832412739487e-15
    vertex -3.000000000000003 -12.999999999999998 -6.699999999999999
    vertex 20.0 -12.999999999999998 -6.699999999999999
  endloop
endfacet
facet normal 0.0 -1.0 0.0
  outer loop
    vertex -3.000000000000003 -12.999999999999998 -6.699999999999999
    vertex 20.0 -12.999999999999998 1.4099832412739487e-15
    vertex -5.639932965095795e-15 -12.999999999999998 1.4099832412739487e-15
  endloop
endfacet
facet normal 0.0 -1.0 0.0
  outer loop
    vertex -3.000000000000003 -12.999999999999998 -6.699999999999999
    vertex -5.639932965095795e-15 -12.999999999999998 1.4099832412739487e-15
    vertex -3.000000000000003 -12.999999999999998 3.3000000000000065
  endloop
endfacet
facet normal 0.0 -1.0 0.0
  outer loop
    vertex -3.000000000000003 -12.999999999999998 3.3000000000000065
    vertex -5.639932965095795e-15 -12.999999999999998 1.4099832412739487e-15
    vertex -5.639932965095795e-15 -12.999999999999998 3.3000000000000065
  endloop
endfacet
facet normal 0.0 0.0 -1.0
  outer loop
    vertex -2.9999999999999973 10.000000000000002 -6.699999999999999
    vertex 8.840889008453118 -2.689417145876975 -6.700000000000005
    vertex 8.8 -3.0 -6.700000000000005
  endloop
endfacet
facet normal 0.0 0.0 -1.0
  outer loop
    vertex 8.840889008453118 -2.689417145876975 -6.700000000000005
    vertex -2.9999999999999973 10.000000000000002 -6.699999999999999
    vertex 8.960769515458674 -2.4000000000000004 -6.700000000000005
  endloop
endfacet
facet normal 0.0 0.0 -1.0
  outer loop
    vertex 8.960769515458674 -2.4000000000000004 -6.700000000000005
    vertex -2.9999999999999973 10.000000000000002 -6.699999999999999
    vertex 9.151471862576143 -2.151471862576143 -6.700000000000005
  endloop
endfacet
facet normal 0.0 0.0 -1.0
  outer loop
    vertex 9.151471862576143 -2.151471862576143 -6.700000000000005
    vertex -2.9999999999999973 10.000000000000002 -6.699999999999999
    vertex 20.0 10.000000000000002 -6.699999999999999
  endloop
endfacet
facet normal 0.0 0.0 -1.0
  outer loop
    vertex 9.151471862576143 -2.151471862576143 -6.700000000000005
    vertex 20.0 10.000000000000002 -6.699999999999999
    vertex 9.4 -1.9607695154586733 -6.700000000000005
  endloop
endfacet
facet normal 0.0 0.0 -1.0
  outer loop
    vertex 9.4 -1.9607695154586733 -6.700000000000005
    vertex 20.0 10.000000000000002 -6.699999999999999
    vertex 9.689417145876975 -1.8408890084531178 -6.700000000000005
  endloop
endfacet
facet normal 0.0 0.0 -1.0
  outer loop
    vertex 9.689417145876975 -1.8408890084531178 -6.700000000000005
    vertex 20.0 10.000000000000002 -6.699999999999999
    vertex 10.0 -1.7999999999999996 -6.700000000000005
  endloop
endfacet
facet normal 0.0 0.0 -1.0
  outer loop
    vertex 10.0 -1.7999999999999996 -6.700000000000005
    vertex 20.0 10.000000000000002 -6.699999999999999
    vertex 10.310582854123025 -1.8408890084531175 -6.700000000000005
  endloop
endfacet
facet normal 0.0 0.0 -1.0
  outer loop
    vertex 10.310582854123025 -1.8408890084531175 -6.700000000000005
    vertex 20.0 10.000000000000002 -6.699999999999999
    vertex 10.6 -1.9607695154586733 -6.700000000000005
  endloop
endfacet
facet normal 0.0 0.0 -1.0
  outer loop
    vertex 10.6 -1.9607695154586733 -6.700000000000005
    vertex 20.0 10.000000000000002 -6.699999999999999
    vertex 10.848528137423857 -2.1514718625761424 -6.700000000000005
  endloop
endfacet
facet normal 0.0 0.0 -1.0
  outer loop
    vertex 10.848528137423857 -2.1514718625761424 -6.700000000000005
    vertex 20.0 10.000000000000002 -6.699999999999999
    vertex 11.039230484541326 -2.399999999999999 -6.700000000000005
  endloop
endfacet
facet normal 0.0 0.0 -1.0
  outer loop
    vertex 11.039230484541326 -2.399999999999999 -6.700000000000005
    vertex 20.0 10.000000000000002 -6.699999999999999
    vertex 11.159110991546882 -2.6894171458769742 -6.700000000000005
  endloop
endfacet
facet normal 0.0 0.0 -1.0
  outer loop
    vertex 11.159110991546882 -2.6894171458769742 -6.700000000000005
    vertex 20.0 10.000000000000002 -6.699999999999999
    vertex 11.2 -2.9999999999999996 -6.700000000000005
  endloop
endfacet
facet normal 0.0 0.0 -1.0
  outer loop
    vertex -3.000000000000003 -12.999999999999998 -6.699999999999999
    vertex 9.151471862576143 -3.8485281374238567 -6.700000000000005
    vertex 20.0 -12.999999999999998 -6.699999999999999
  endloop
endfacet
facet normal 0.0 0.0 -1.0
  outer loop
    vertex 9.151471862576143 -3.8485281374238567 -6.700000000000005
    vertex -3.000000000000003 -12.999999999999998 -6.699999999999999
    vertex -2.9999999999999973 10.000000000000002 -6.699999999999999
  endloop
endfacet
facet normal 0.0 0.0 -1.0
  outer loop
    vertex 9.151471862576143 -3.8485281374238567 -6.700000000000005
    vertex -2.9999999999999973 10.000000000000002 -6.699999999999999
    vertex 8.960769515458674 -3.5999999999999996 -6.700000000000005
  endloop
endfacet
facet normal 0.0 0.0 -1.0
  outer loop
    vertex 8.960769515458674 -3.5999999999999996 -6.700000000000005
    vertex -2.9999999999999973 10.000000000000002 -6.699999999999999
    vertex 8.840889008453118 -3.3105828541230253 -6.700000000000005
  endloop
endfacet
facet normal 0.0 0.0 -1.0
  outer loop
    vertex 8.840889008453118 -3.3105828541230253 -6.700000000000005
    vertex -2.9999999999999973 10.000000000000002 -6.699999999999999
    vertex 8.8 -3.0 -6.700000000000005
  endloop
endfacet
facet normal 0.0 0.0 -1.0
  outer loop
    vertex 20.0 -12.999999999999998 -6.699999999999999
    vertex 9.151471862576143 -3.8485281374238567 -6.700000000000005
    vertex 9.4 -4.039230484541325 -6.700000000000005
  endloop
endfacet
facet normal 0.0 0.0 -1.0
  outer loop
    vertex 20.0 -12.999999999999998 -6.699999999999999
    vertex 9.4 -4.039230484541325 -6.700000000000005
    vertex 9.689417145876977 -4.159110991546881 -6.700000000000005
  endloop
endfacet
facet normal 0.0 0.0 -1.0
  outer loop
    vertex 20.0 -12.999999999999998 -6.699999999999999
    vertex 9.689417145876977 -4.159110991546881 -6.700000000000005
    vertex 10.0 -4.199999999999999 -6.700000000000005
  endloop
endfacet
facet normal 0.0 0.0 -1.0
  outer loop
    vertex 20.0 -12.999999999999998 -6.699999999999999
    vertex 10.0 -4.199999999999999 -6.700000000000005
    vertex 10.310582854123025 -4.159110991546881 -6.700000000000005
  endloop
endfacet
facet normal 0.0 0.0 -1.0
  outer loop
    vertex 20.0 -12.999999999999998 -6.699999999999999
    vertex 10.310582854123025 -4.159110991546881 -6.700000000000005
    vertex 10.6 -4.039230484541325 -6.700000000000005
  endloop
endfacet
facet normal 0.0 0.0 -1.0
  outer loop
    vertex 20.0 -12.999999999999998 -6.699999999999999
    vertex 10.6 -4.039230484541325 -6.700000000000005
    vertex 10.848528137423857 -3.8485281374238562 -6.700000000000005
  endloop
endfacet
facet normal 0.0 0.0 -1.0
  outer loop
    vertex 20.0 -12.999999999999998 -6.699999999999999
    vertex 10.848528137423857 -3.8485281374238562 -6.700000000000005
    vertex 11.039230484541326 -3.599999999999999 -6.700000000000005
  endloop
endfacet
facet normal 0.0 0.0 -1.0
  outer loop
    vertex 20.0 -12.999999999999998 -6.699999999999999
    vertex 11.039230484541326 -3.599999999999999 -6.700000000000005
    vertex 11.159110991546882 -3.310582854123024 -6.700000000000005
  endloop
endfacet
facet normal 0.0 0.0 -1.0
  outer loop
    vertex 20.0 -12.999999999999998 -6.699999999999999
    vertex 11.159110991546882 -3.310582854123024 -6.700000000000005
    vertex 11.2 -2.9999999999999996 -6.700000000000005
  endloop
endfacet
facet normal 0.0 0.0 -1.0
  outer loop
    vertex 20.0 -12.999999999999998 -6.699999999999999
    vertex 11.2 -2.9999999999999996 -6.700000000000005
    vertex 20.0 10.000000000000002 -6.699999999999999
  endloop
endfacet
facet normal 0.0 0.0 -1.0
  outer loop
    vertex 10.000000000000002 7.000000000000001 64.19999999999999
    vertex 2.8199664825478975e-15 -2.9999999999999947 64.19999999999999
    vertex 0.0 7.000000000000001 64.19999999999999
  endloop
endfacet
facet normal 0.0 0.0 -1.0
  outer loop
    vertex 2.8199664825478975e-15 -2.9999999999999947 64.19999999999999
    vertex 10.000000000000002 7.000000000000001 64.19999999999999
    vertex 10.000000000000002 -2.9999999999999947 64.19999999999999
  endloop
endfacet
facet normal 0.9914448613738107 -0.1305261922200492 4.4150003158484735e-17
  outer loop
    vertex 8.8 -3.0 -6.700000000000005
    vertex 8.840889008453118 -2.689417145876976 6.422376128485112e-16
    vertex 8.8 -3.0000000000000004 6.62692123398756e-16
  endloop
endfacet
facet normal 0.9914448613738107 -0.1305261922200492 4.4150003158484735e-17
  outer loop
    vertex 8.840889008453118 -2.689417145876976 6.422376128485112e-16
    vertex 8.8 -3.0 -6.700000000000005
    vertex 8.840889008453118 -2.689417145876975 -6.700000000000005
  endloop
endfacet
facet normal 0.9914448613738108 0.13052619222004877 2.5746028800727607e-17
  outer loop
    vertex 8.840889008453118 -3.3105828541230253 -6.700000000000005
    vertex 8.8 -3.0000000000000004 6.62692123398756e-16
    vertex 8.840889008453118 -3.310582854123026 6.86029274782561e-16
  endloop
endfacet
facet normal 0.9914448613738108 0.13052619222004877 2.5746028800727607e-17
  outer loop
    vertex 8.8 -3.0000000000000004 6.62692123398756e-16
    vertex 8.840889008453118 -3.3105828541230253 -6.700000000000005
    vertex 8.8 -3.0 -6.700000000000005
  endloop
endfacet
facet normal 0.9238795325112863 0.3826834323650914 5.5875051275244894e-18
  outer loop
    vertex 8.960769515458674 -3.5999999999999996 -6.700000000000005
    vertex 8.840889008453118 -3.310582854123026 6.86029274782561e-16
    vertex 8.960769515458674 -3.6000000000000005 7.106586786995861e-16
  endloop
endfacet
facet normal 0.9238795325112863 0.3826834323650914 5.5875051275244894e-18
  outer loop
    vertex 8.840889008453118 -3.310582854123026 6.86029274782561e-16
    vertex 8.960769515458674 -3.5999999999999996 -6.700000000000005
    vertex 8.840889008453118 -3.3105828541230253 -6.700000000000005
  endloop
endfacet
facet normal 0.7933533402912349 0.6087614290087212 -1.495179778633019e-17
  outer loop
    vertex 9.151471862576143 -3.8485281374238567 -6.700000000000005
    vertex 8.960769515458674 -3.6000000000000005 7.106586786995861e-16
    vertex 9.151471862576143 -3.8485281374238576 7.349018819749004e-16
  endloop
endfacet
facet normal 0.7933533402912349 0.6087614290087212 -1.495179778633019e-17
  outer loop
    vertex 8.960769515458674 -3.6000000000000005 7.106586786995861e-16
    vertex 9.151471862576143 -3.8485281374238567 -6.700000000000005
    vertex 8.960769515458674 -3.5999999999999996 -6.700000000000005
  endloop
endfacet
facet normal 0.6087614290087208 0.793353340291235 -3.447216039006062e-17
  outer loop
    vertex 9.151471862576143 -3.8485281374238576 7.349018819749004e-16
    vertex 9.4 -4.039230484541325 -6.700000000000005
    vertex 9.151471862576143 -3.8485281374238567 -6.700000000000005
  endloop
endfacet
facet normal 0.6087614290087208 0.793353340291235 -3.447216039006062e-17
  outer loop
    vertex 9.4 -4.039230484541325 -6.700000000000005
    vertex 9.151471862576143 -3.8485281374238576 7.349018819749004e-16
    vertex 9.4 -4.039230484541326 7.571067503690791e-16
  endloop
endfacet
facet normal 0.38268343236508895 0.9238795325112871 -5.164330223114712e-17
  outer loop
    vertex 9.4 -4.039230484541326 7.571067503690791e-16
    vertex 9.689417145876977 -4.159110991546881 -6.700000000000005
    vertex 9.4 -4.039230484541325 -6.700000000000005
  endloop
endfacet
facet normal 0.38268343236508895 0.9238795325112871 -5.164330223114712e-17
  outer loop
    vertex 9.689417145876977 -4.159110991546881 -6.700000000000005
    vertex 9.4 -4.039230484541326 7.571067503690791e-16
    vertex 9.689417145876977 -4.159110991546882 7.757600587963387e-16
  endloop
endfacet
facet normal 0.13052619222005168 0.9914448613738104 -6.5295038369773e-17
  outer loop
    vertex 9.689417145876977 -4.159110991546882 7.757600587963387e-16
    vertex 10.0 -4.199999999999999 -6.700000000000005
    vertex 9.689417145876977 -4.159110991546881 -6.700000000000005
  endloop
endfacet
facet normal 0.13052619222005168 0.9914448613738104 -6.5295038369773e-17
  outer loop
    vertex 10.0 -4.199999999999999 -6.700000000000005
    vertex 9.689417145876977 -4.159110991546882 7.757600587963387e-16
    vertex 10.0 -4.2 7.895906151134113e-16
  endloop
endfacet
facet normal -0.13052619222005113 0.9914448613738105 -7.449702554865173e-17
  outer loop
    vertex 10.0 -4.2 7.895906151134113e-16
    vertex 10.310582854123025 -4.159110991546881 -6.700000000000005
    vertex 10.0 -4.199999999999999 -6.700000000000005
  endloop
endfacet
facet normal -0.13052619222005113 0.9914448613738105 -7.449702554865173e-17
  outer loop
    vertex 10.310582854123025 -4.159110991546881 -6.700000000000005
    vertex 10.0 -4.2 7.895906151134113e-16
    vertex 10.310582854123025 -4.159110991546882 7.976558897633635e-16
  endloop
endfacet
facet normal -0.38268343236509056 0.9238795325112865 -7.862216354854553e-17
  outer loop
    vertex 10.310582854123025 -4.159110991546882 7.976558897633635e-16
    vertex 10.6 -4.039230484541325 -6.700000000000005
    vertex 10.310582854123025 -4.159110991546881 -6.700000000000005
  endloop
endfacet
facet normal -0.38268343236509056 0.9238795325112865 -7.862216354854553e-17
  outer loop
    vertex 10.6 -4.039230484541325 -6.700000000000005
    vertex 10.310582854123025 -4.159110991546882 7.976558897633635e-16
    vertex 10.6 -4.039230484541326 7.994062476072974e-16
  endloop
endfacet
facet normal -0.6087614290087222 0.7933533402912342 -7.738933103187445e-17
  outer loop
    vertex 10.6 -4.039230484541326 7.994062476072974e-16
    vertex 10.848528137423857 -3.8485281374238562 -6.700000000000005
    vertex 10.6 -4.039230484541325 -6.700000000000005
  endloop
endfacet
facet normal -0.6087614290087222 0.7933533402912342 -7.738933103187445e-17
  outer loop
    vertex 10.848528137423857 -3.8485281374238562 -6.700000000000005
    vertex 10.6 -4.039230484541326 7.994062476072974e-16
    vertex 10.848528137423857 -3.8485281374238567 7.947224046507521e-16
  endloop
endfacet
facet normal -0.7933533402912349 0.6087614290087212 -7.088254349729766e-17
  outer loop
    vertex 11.039230484541326 -3.5999999999999996 7.839235570507998e-16
    vertex 10.848528137423857 -3.8485281374238562 -6.700000000000005
    vertex 10.848528137423857 -3.8485281374238567 7.947224046507521e-16
  endloop
endfacet
facet normal -0.7933533402912349 0.6087614290087212 -7.088254349729766e-17
  outer loop
    vertex 10.848528137423857 -3.8485281374238562 -6.700000000000005
    vertex 11.039230484541326 -3.5999999999999996 7.839235570507998e-16
    vertex 11.039230484541326 -3.599999999999999 -6.700000000000005
  endloop
endfacet
facet normal -0.9238795325112865 0.38268343236509056 -5.954522776232165e-17
  outer loop
    vertex 11.159110991546882 -3.310582854123025 7.677456284254375e-16
    vertex 11.039230484541326 -3.599999999999999 -6.700000000000005
    vertex 11.039230484541326 -3.5999999999999996 7.839235570507998e-16
  endloop
endfacet
facet normal -0.9238795325112865 0.38268343236509056 -5.954522776232165e-17
  outer loop
    vertex 11.039230484541326 -3.599999999999999 -6.700000000000005
    vertex 11.159110991546882 -3.310582854123025 7.677456284254375e-16
    vertex 11.159110991546882 -3.310582854123024 -6.700000000000005
  endloop
endfacet
facet normal -0.9914448613738107 0.1305261922200492 -4.4150003158484735e-17
  outer loop
    vertex 11.2 -3.0 7.472911178751929e-16
    vertex 11.159110991546882 -3.310582854123024 -6.700000000000005
    vertex 11.159110991546882 -3.310582854123025 7.677456284254375e-16
  endloop
endfacet
facet normal -0.9914448613738107 0.1305261922200492 -4.4150003158484735e-17
  outer loop
    vertex 11.159110991546882 -3.310582854123024 -6.700000000000005
    vertex 11.2 -3.0 7.472911178751929e-16
    vertex 11.2 -2.9999999999999996 -6.700000000000005
  endloop
endfacet
facet normal -0.9914448613738108 -0.13052619222004905 -2.5746028800727586e-17
  outer loop
    vertex 11.159110991546882 -2.689417145876975 7.239539664913878e-16
    vertex 11.2 -2.9999999999999996 -6.700000000000005
    vertex 11.2 -3.0 7.472911178751929e-16
  endloop
endfacet
facet normal -0.9914448613738108 -0.13052619222004905 -2.5746028800727586e-17
  outer loop
    vertex 11.2 -2.9999999999999996 -6.700000000000005
    vertex 11.159110991546882 -2.689417145876975 7.239539664913878e-16
    vertex 11.159110991546882 -2.6894171458769742 -6.700000000000005
  endloop
endfacet
facet normal -0.9238795325112867 -0.38268343236509017 -5.587505127524593e-18
  outer loop
    vertex 11.039230484541326 -2.4 6.993245625743628e-16
    vertex 11.159110991546882 -2.6894171458769742 -6.700000000000005
    vertex 11.159110991546882 -2.689417145876975 7.239539664913878e-16
  endloop
endfacet
facet normal -0.9238795325112867 -0.38268343236509017 -5.587505127524593e-18
  outer loop
    vertex 11.159110991546882 -2.6894171458769742 -6.700000000000005
    vertex 11.039230484541326 -2.4 6.993245625743628e-16
    vertex 11.039230484541326 -2.399999999999999 -6.700000000000005
  endloop
endfacet
facet normal -0.7933533402912346 -0.6087614290087217 1.4951797786330243e-17
  outer loop
    vertex 10.848528137423857 -2.1514718625761433 6.750813592990484e-16
    vertex 11.039230484541326 -2.399999999999999 -6.700000000000005
    vertex 11.039230484541326 -2.4 6.993245625743628e-16
  endloop
endfacet
facet normal -0.7933533402912346 -0.6087614290087217 1.4951797786330243e-17
  outer loop
    vertex 11.039230484541326 -2.399999999999999 -6.700000000000005
    vertex 10.848528137423857 -2.1514718625761433 6.750813592990484e-16
    vertex 10.848528137423857 -2.1514718625761424 -6.700000000000005
  endloop
endfacet
facet normal -0.6087614290087214 -0.7933533402912345 3.447216039006056e-17
  outer loop
    vertex 10.848528137423857 -2.1514718625761433 6.750813592990484e-16
    vertex 10.6 -1.9607695154586733 -6.700000000000005
    vertex 10.848528137423857 -2.1514718625761424 -6.700000000000005
  endloop
endfacet
facet normal -0.6087614290087214 -0.7933533402912345 3.447216039006056e-17
  outer loop
    vertex 10.6 -1.9607695154586733 -6.700000000000005
    vertex 10.848528137423857 -2.1514718625761433 6.750813592990484e-16
    vertex 10.6 -1.960769515458674 6.528764909048697e-16
  endloop
endfacet
facet normal -0.38268343236509056 -0.9238795325112865 5.164330223114703e-17
  outer loop
    vertex 10.6 -1.960769515458674 6.528764909048697e-16
    vertex 10.310582854123025 -1.8408890084531175 -6.700000000000005
    vertex 10.6 -1.9607695154586733 -6.700000000000005
  endloop
endfacet
facet normal -0.38268343236509056 -0.9238795325112865 5.164330223114703e-17
  outer loop
    vertex 10.310582854123025 -1.8408890084531175 -6.700000000000005
    vertex 10.6 -1.960769515458674 6.528764909048697e-16
    vertex 10.310582854123025 -1.8408890084531182 6.342231824776101e-16
  endloop
endfacet
facet normal -0.13052619222005113 -0.9914448613738105 6.529503836977304e-17
  outer loop
    vertex 10.310582854123025 -1.8408890084531182 6.342231824776101e-16
    vertex 10.0 -1.7999999999999996 -6.700000000000005
    vertex 10.310582854123025 -1.8408890084531175 -6.700000000000005
  endloop
endfacet
facet normal -0.13052619222005113 -0.9914448613738105 6.529503836977304e-17
  outer loop
    vertex 10.0 -1.7999999999999996 -6.700000000000005
    vertex 10.310582854123025 -1.8408890084531182 6.342231824776101e-16
    vertex 10.0 -1.8000000000000003 6.203926261605374e-16
  endloop
endfacet
facet normal 0.13052619222005224 -0.9914448613738104 7.449702554865177e-17
  outer loop
    vertex 10.0 -1.8000000000000003 6.203926261605374e-16
    vertex 9.689417145876975 -1.8408890084531178 -6.700000000000005
    vertex 10.0 -1.7999999999999996 -6.700000000000005
  endloop
endfacet
facet normal 0.13052619222005224 -0.9914448613738104 7.449702554865177e-17
  outer loop
    vertex 9.689417145876975 -1.8408890084531178 -6.700000000000005
    vertex 10.0 -1.8000000000000003 6.203926261605374e-16
    vertex 9.689417145876975 -1.8408890084531186 6.123273515105852e-16
  endloop
endfacet
facet normal 0.38268343236508956 -0.9238795325112868 7.862216354854553e-17
  outer loop
    vertex 9.689417145876975 -1.8408890084531186 6.123273515105852e-16
    vertex 9.4 -1.9607695154586733 -6.700000000000005
    vertex 9.689417145876975 -1.8408890084531178 -6.700000000000005
  endloop
endfacet
facet normal 0.38268343236508956 -0.9238795325112868 7.862216354854553e-17
  outer loop
    vertex 9.4 -1.9607695154586733 -6.700000000000005
    vertex 9.689417145876975 -1.8408890084531186 6.123273515105852e-16
    vertex 9.4 -1.960769515458674 6.105769936666513e-16
  endloop
endfacet
facet normal 0.6087614290087222 -0.7933533402912342 7.738933103187445e-17
  outer loop
    vertex 9.4 -1.960769515458674 6.105769936666513e-16
    vertex 9.151471862576143 -2.151471862576143 -6.700000000000005
    vertex 9.4 -1.9607695154586733 -6.700000000000005
  endloop
endfacet
facet normal 0.6087614290087222 -0.7933533402912342 7.738933103187445e-17
  outer loop
    vertex 9.151471862576143 -2.151471862576143 -6.700000000000005
    vertex 9.4 -1.960769515458674 6.105769936666513e-16
    vertex 9.151471862576143 -2.1514718625761438 6.152608366231966e-16
  endloop
endfacet
facet normal 0.7933533402912358 -0.6087614290087201 7.088254349729762e-17
  outer loop
    vertex 8.960769515458674 -2.4000000000000004 -6.700000000000005
    vertex 9.151471862576143 -2.1514718625761438 6.152608366231966e-16
    vertex 8.960769515458674 -2.4000000000000012 6.26059684223149e-16
  endloop
endfacet
facet normal 0.7933533402912358 -0.6087614290087201 7.088254349729762e-17
  outer loop
    vertex 9.151471862576143 -2.1514718625761438 6.152608366231966e-16
    vertex 8.960769515458674 -2.4000000000000004 -6.700000000000005
    vertex 9.151471862576143 -2.151471862576143 -6.700000000000005
  endloop
endfacet
facet normal 0.9238795325112864 -0.382683432365091 5.954522776232166e-17
  outer loop
    vertex 8.840889008453118 -2.689417145876975 -6.700000000000005
    vertex 8.960769515458674 -2.4000000000000012 6.26059684223149e-16
    vertex 8.840889008453118 -2.689417145876976 6.422376128485112e-16
  endloop
endfacet
facet normal 0.9238795325112864 -0.382683432365091 5.954522776232166e-17
  outer loop
    vertex 8.960769515458674 -2.4000000000000012 6.26059684223149e-16
    vertex 8.840889008453118 -2.689417145876975 -6.700000000000005
    vertex 8.960769515458674 -2.4000000000000004 -6.700000000000005
  endloop
endfacet
endsolid power supply_corner2
